<svg xmlns="http://www.w3.org/2000/svg" xmlns:xlink="http://www.w3.org/1999/xlink" viewBox="0 0 507.88 507.98"><defs><style>.cls-1{fill:#c45350;}.cls-2{clip-path:url(#clip-path);}.cls-3{clip-path:url(#clip-path-2);}.cls-4{fill:#fff;}</style><clipPath id="clip-path"><rect class="cls-1" width="507.88" height="507.98" rx="36.33"/></clipPath><clipPath id="clip-path-2"><rect class="cls-1" width="507.88" height="507.98"/></clipPath></defs><g id="Layer_2" data-name="Layer 2"><g id="Layer_3" data-name="Layer 3"><rect class="cls-1" width="507.88" height="507.98" rx="36.33"/><g class="cls-2"><rect class="cls-1" width="507.88" height="507.98"/><g class="cls-3"><path class="cls-1" d="M0,253.46q0,110,0,220C0,493.74,14,508,34.16,508q219.75,0,439.5,0c20.16,0,34.2-14.17,34.21-34.4q0-219.3,0-438.59c0-21.15-13.93-35-35.16-35H35.22C13.75,0,0,13.83,0,35.42q0,109,0,218"/></g></g><path class="cls-4" d="M267.94,117.88c-.19,18.39-3.13,36.39-7.39,54.14-3.2,13.38-7,26.6-10.64,39.86a6.85,6.85,0,0,0,.56,5.66c15.69,28.54,34,55,56.52,78a5.09,5.09,0,0,0,4.88,1.67c9.71-1.42,19.41-3.06,29.17-4,14.75-1.4,29.53-2,44.35-.74,11.66,1,23.14,2.83,34,7.65a43.26,43.26,0,0,1,12.77,8.48c10.32,10,10.7,32.11-7.36,39.55-6.89,2.84-14.11,3.54-21.39,3.22-33.07-1.45-60.94-16.27-86.28-37.47-2.76-2.31-5.49-4.66-8-7.21a4.65,4.65,0,0,0-4.77-1.35c-13.09,3-26.35,5.33-39.27,9-20.43,5.79-40.64,12.46-61,18.67a7.81,7.81,0,0,0-4.82,4.24c-11.84,22.18-24.78,43.6-40.23,63.22-9.95,12.65-20.72,24.43-33.94,33.39-7.74,5.24-16,9.19-25.33,9.73-9.18.54-17.73-1.55-24.53-8.51C68.6,428.27,67.08,420,70,410.8c2.13-6.65,6.17-12.06,10.7-17.07,10-11,21.79-19.43,34.13-27.12,17.64-11,36.21-20,55.22-28a8.4,8.4,0,0,0,4.43-4.12c18.37-34.69,32.67-71.28,45.69-108.46,3.2-9.12,6.13-18.34,9.24-27.49a6.85,6.85,0,0,0-.23-5.31c-8.24-19.36-14.6-39.37-18-60.33-2.35-14.51-3.55-29.09-.65-43.69,1.38-7,3.64-13.49,8.76-18.56,9.84-9.73,24.94-7.33,33.77.78,7,6.48,10.47,15.11,12.61,24.41A88.1,88.1,0,0,1,267.94,117.88Zm32.58,181c-21.2-22.44-38.37-47.79-53.83-75.27-11.68,34.82-23.81,68.66-40,100.84C237.59,314.2,268.66,305.28,300.52,298.9ZM167.09,347.49c-1.06.39-1.61.55-2.14.79a371.19,371.19,0,0,0-49.32,26c-11.51,7.34-22.58,15.31-31.68,25.91-3.86,4.5-7.19,9.38-8.51,15.45-2.29,10.5,6.13,20,16.18,18.5,5.45-.84,10.19-3.34,14.67-6.48,7.93-5.57,14.67-12.56,21-20,15.08-17.84,27.48-37.68,39-58.17C166.52,349,166.68,348.48,167.09,347.49Zm149.25-44.24-.12.72a34.56,34.56,0,0,0,2.58,2.43c7.22,5.54,14.22,11.46,21.76,16.49,14.35,9.56,29.72,16.79,46.68,19.46a27.62,27.62,0,0,0,20.85-4.53c10.74-7.58,11-24.42.25-32a25.83,25.83,0,0,0-10-4.53,187.61,187.61,0,0,0-24.18-2.86,245.36,245.36,0,0,0-48.85,3.21C322.32,302.09,319.34,302.71,316.34,303.25ZM233.51,185.58c.52-1.42.91-2.3,1.18-3.22,7.51-25.68,14.07-51.58,15.69-78.57.46-7.75.1-15.45-2.84-22.73-2.19-5.41-5.88-9-11.62-9.72-6.15-.74-10.93,1.92-14.2,7.27a32.27,32.27,0,0,0-3.48,8.19c-3.55,13-2.9,26.28-1.22,39.48,2.48,19.53,7.93,38.22,15.12,56.38C232.47,183.48,232.89,184.27,233.51,185.58Z"/></g></g></svg>