<svg xmlns="http://www.w3.org/2000/svg" viewBox="0 0 507.88 507.98"><defs><style>.cls-1{fill:#566c84;}.cls-2{fill:#e8ddc6;}</style></defs><g id="Layer_2" data-name="Layer 2"><g id="Layer_3" data-name="Layer 3"><rect class="cls-1" width="507.88" height="507.98" rx="36.33"/><path class="cls-2" d="M8.2,355l29-38.36c12.25,25.6,37.72,26.24,58.24,36.66,8.92,4.54,14.75,15.61,23.23,25.11,1.54-4.68,4.4-9.95,4.9-15.45,3.92-43.55,7.22-87.15,11.08-130.7,1.28-14.41,3.64-28.72,8.39-43.15C158.29,270.26,160,353,171.76,434.3l4.83-.24c.75-17.45,1.53-34.9,2.24-52.35,1-25.14,8.22-32.38,32.32-30.81,11,.71,21.81,3.12,32.72,4.61,16.34,2.23,23.15-2.43,30.13-17.87,7.94-17.57,15.26-35.81,25.81-51.64,13.18-19.79,27.77-17.89,39.3,3.24,8.13,14.89,15.42,30.28,22.91,45.54,5.74,11.68,13.58,20.94,27.06,21.14s21.49-8.21,27.62-20.07c10.66-20.66,16.28-20.51,32.29-4.33,9,9.08,20.25,15.92,31,22.89,3.56,2.3,10.14,4,13,2.12,4.64-3.07,7.35-9.28,10.87-14.17-3.6-2.53-7.6-7.66-10.75-7.15-18.67,3-30-7-40.89-20.63-14.45-18.09-24.81-16.9-37.85,2.68-20.15,30.26-35.21,28.92-51.8-4.3-7.37-14.76-14.24-30-23.28-43.61-12.62-19-29.41-20.19-43.25-2.14-9.8,12.77-17.36,27.92-23.51,43.05-10,24.61-18.25,30.43-43.27,24.45-20.74-5-41.71-12.74-57.73,13.85-12.34-101.89-16.54-203.24-26.29-304l-4.44-.12c-8,98.9-16,197.79-24.24,299.39-30.93-16.65-69.94-12.92-81.19-56.05-6.19,12.75-10.43,24.14-17,33.86C15,326.61,7.52,331,1.86,331"/></g></g></svg>