<svg xmlns="http://www.w3.org/2000/svg" viewBox="0 0 507.88 507.98"><defs><style>.cls-1{fill:#80a175;}.cls-2{fill:#e8ddc6;}</style></defs><g id="Layer_2" data-name="Layer 2"><g id="Layer_3" data-name="Layer 3"><rect class="cls-1" width="507.88" height="507.98" rx="36.33"/><path class="cls-2" d="M433.24,164.16c.25,3.49.48,5.68.55,7.87.18,5.7.17,11.41.46,17.1.31,6.27,3.65,10.45,9.72,11.87,4.54,1.06,4.62,3.16,2.62,6.62-3.07,5.3-7.35,10-7,16.9s1.72,8.59,8.45,9c6.94.47,7.08.49,6.38,7.23a182.54,182.54,0,0,1-15.08,56.8,46,46,0,0,1-6.92,10.87c-2.8,3.28-4.3,6.64-3.65,10.84,1.3,8.33,2.53,16.67,4.18,24.93.45,2.23,2.07,4.37,3.55,6.23,4.2,5.31,4.52,6.6-1.06,10.72-10.4,7.69-21.08,15-31.93,22.07-4.17,2.71-6.38,5.13-5.85,10.66,1,10-4.6,15.52-14.5,15.79a9.84,9.84,0,0,0-3.09.15c-2.47.94-6,1.57-6.9,3.39s.74,5.25,2.29,7.14c5.2,6.32,9.08,13,9,21.47-.06,8.85-4.86,14.51-13.71,13.9-8.5-.58-16.89-3-25.3-4.74-18.57-3.86-37.09-7.93-55.69-11.66-14.82-3-29.9-4.08-44.85-1.88q-30.18,4.44-60.09,10.58c-11.46,2.35-22.52,6.58-33.9,9.45-15.52,3.92-21.76-5.61-21.18-17.21.19-3.72,3.18-7.44,5.37-10.86,1.84-2.89,4.62-5.16,6.53-8,4.05-6,1.7-10.85-5.49-11.67-1.72-.2-3.46-.15-5.17-.4-9.48-1.35-16.16-8.53-15.79-18.07.21-5.32-1.83-8-6.19-10.58-10.39-6.16-20.46-12.87-30.54-19.53A61.84,61.84,0,0,1,71,354.81c-2.42-2.21-2.76-4.6-.37-7.19,9.67-10.47,8-23.68,8.63-36.3a6.73,6.73,0,0,0-1.9-4.13C68,296.61,63.85,283.55,60.24,270.41c-2.88-10.46-4.56-21.25-6.61-31.93-1.14-6-.58-6.51,5.42-6.53,9.57,0,13.29-6.44,8.78-15.52-1.83-3.7-4.2-7.14-6.39-10.66-1.56-2.53-1.11-4.21,1.89-5,8.55-2.19,11.37-8,10.7-16.35a142.16,142.16,0,0,1,0-15c.13-5.07,1-5.53,5.43-3.27a56,56,0,0,0,5.64,2.55c3.85,1.49,6.45.39,8.39-3.46,12.48-24.8,30.34-45.15,51.82-62.57,29-23.51,59.71-44.2,94.51-58.13,9.4-3.76,19.43-6,29.2-8.75,4.23-1.22,5.33.65,5.27,4.86a94.58,94.58,0,0,0,1.28,17.47C276.76,65,279.94,66,285.49,62c1.26-.91,2.63-1.66,3.89-2.56,4.3-3.1,7.22-2.42,10.75,2,7.55,9.42,17.39,16.05,28.45,21.07,37,16.79,65,43.23,84.25,79,.25.46.5.91.74,1.37,4.28,8.07,6,8.58,14.15,4.23C429.19,166.21,430.68,165.47,433.24,164.16ZM243.43,253.71l1.4-.25c-2.19-12.69-3.6-25.58-6.79-38-3.31-12.95-9-25.08-20.1-33.63-9.32-7.21-20.79-7.83-29.51-.05a62.88,62.88,0,0,0-15,19.35c-13.34,28.31-14.32,58-6.66,88,3.4,13.31,8.56,25.93,19.32,35.36,9.86,8.64,21.49,9.76,31.53,1.4a59.23,59.23,0,0,0,14-17.55C240.58,291.32,243.69,272.81,243.43,253.71Zm102.8.42c-.39-6.54-.33-13.15-1.29-19.61a135.22,135.22,0,0,0-4.77-21.16c-3.64-11.41-8.6-22.26-18-30.31-10.63-9.11-23.33-8.84-33.71.54-8.88,8-14.05,18.35-17.43,29.51a137.22,137.22,0,0,0-.12,81.07c3.48,11.46,8.54,22.25,17.91,30.37,9.83,8.52,21.59,9.55,31.58,1.27a58.86,58.86,0,0,0,13.49-16.7C343.22,292.09,346,273.35,346.23,254.13Z"/><path class="cls-2" d="M254,442.35c32.66.41,59,3.34,84.51,11.63,1.47.48,2.93,1,4.37,1.6,7,2.87,8,7.79,2.07,12.65-2.77,2.25-6.77,4.09-10.24,4.16-11.87.21-23.88.51-35.62-.95a331.47,331.47,0,0,0-85.66-.06c-12.9,1.72-26.16,1.08-39.26.89-5.75-.08-8.76-3.64-9.4-8.6-.44-3.38.61-6,4-6.77,17.28-4.06,34.45-8.71,51.91-11.73C233.56,442.94,246.8,442.91,254,442.35Z"/></g></g></svg>