<svg xmlns="http://www.w3.org/2000/svg" viewBox="0 0 507.88 507.98"><defs><style>.cls-1{fill:#e8ddc6;}.cls-2{fill:#b23662;}</style></defs><g id="Layer_2" data-name="Layer 2"><g id="Layer_3" data-name="Layer 3"><rect class="cls-1" width="507.88" height="507.98" rx="36.33"/><path class="cls-2" d="M250.5,120.29c66.34,1.22,122.79,20.85,171.89,61a40.69,40.69,0,0,0,9.67,5.51c6.86,3,9.38,7.57,5.1,13.59a96.35,96.35,0,0,1-17.34,18.24c-1.46,1.21-7.2-1.35-10-3.45-10.87-8.09-20.88-17.39-32.06-25-30.26-20.53-64-31.63-100.33-35.34q-68.28-7-129.28,24.36a203.88,203.88,0,0,0-47.85,33.74c-8.53,8.15-11,8.2-19.11-.21a89.84,89.84,0,0,1-11-13.29c-3.24-5-1.27-9.14,4-12s10.55-5.61,15.14-9.27c40.46-32.24,86.57-50.51,137.8-56.21C235.91,120.92,244.81,120.67,250.5,120.29Z"/><path class="cls-2" d="M253.24,191q67.36.42,120.68,41.69a41.54,41.54,0,0,0,9.81,5.32c5.63,2.28,8.08,6.47,4.78,11.49a114.9,114.9,0,0,1-14.69,18c-4.11,4.12-9.07,2.73-13.15-1a152.57,152.57,0,0,0-63.61-35.24c-41-11.26-80.66-7.84-118,13-11.16,6.24-21.33,14.32-31.76,21.82-6.7,4.82-9.3,5.09-14.86-.78-4.41-4.65-8.88-9.43-12.26-14.82-3.68-5.89-2.16-10.1,3.39-13.53,8.64-5.34,17.35-10.58,26-15.95C181.67,200.89,215.64,191.08,253.24,191Z"/><path class="cls-2" d="M228.88,260.32c6.7-1.05,13.38-2.23,20.1-3.08a37.22,37.22,0,0,1,8.57,0c7,.73,14,1.33,20.86,2.67,7.58,1.49,15.58,2.57,22.37,5.92a282.12,282.12,0,0,1,33.1,19.69c8.14,5.51,8.42,9,4.13,18a17,17,0,0,1-2.9,4.42c-16.7,17.57-15,14.66-29.87,3.48-30.45-22.91-77.1-21.4-107.52,3.16-7.68,6.21-11.91,6.1-19.14-.58a40.55,40.55,0,0,1-3.68-3.85c-11-13.33-10.28-18.8,3.67-28.84A128.22,128.22,0,0,1,221,260.88c2.55-.67,5.19-1,7.79-1.51Z"/><path class="cls-2" d="M254.06,322.31c11.3.91,22.75,3.07,32.86,10.05,7.79,5.39,9.86,14.32,3.57,21.39C281,364.37,271.06,374.53,261,384.64c-4,4.06-9,4.05-13.13.06-9.74-9.45-19.63-18.82-28.53-29-3.21-3.67-4.25-9.57-5.28-14.65-.38-1.93,1.51-5.18,3.33-6.54C228.07,326.51,240.23,322.65,254.06,322.31Z"/></g></g></svg>