<svg xmlns="http://www.w3.org/2000/svg" xmlns:xlink="http://www.w3.org/1999/xlink" viewBox="0 0 507.88 507.98"><defs><style>.cls-1{fill:#a0c173;}.cls-2{clip-path:url(#clip-path);}.cls-3{clip-path:url(#clip-path-2);}.cls-4{fill:#e8ddc6;}</style><clipPath id="clip-path"><rect class="cls-1" width="507.88" height="507.98" rx="36.33"/></clipPath><clipPath id="clip-path-2"><rect class="cls-1" width="507.88" height="507.98"/></clipPath></defs><g id="Layer_2" data-name="Layer 2"><g id="Layer_3" data-name="Layer 3"><rect class="cls-1" width="507.88" height="507.98" rx="36.33"/><g class="cls-2"><rect class="cls-1" width="507.88" height="507.98"/><g class="cls-3"><path class="cls-1" d="M0,253.46q0,110,0,220C0,493.74,14,508,34.16,508q219.75,0,439.5,0c20.16,0,34.2-14.17,34.21-34.4q0-219.3,0-438.59c0-21.15-13.93-35-35.16-35H35.22C13.75,0,0,13.83,0,35.42q0,109,0,218"/></g></g><path class="cls-4" d="M310.67,89c2.3,1.9,2.39,4.08,1,6.59-3.87,6.93-7.67,13.9-11.49,20.86-.51.93-.95,1.89-1.44,2.87,4.72,3.48,9.49,6.59,13.79,10.25A89.6,89.6,0,0,1,342.62,180c.83,3.82-1.94,7.43-6,8.08a20.32,20.32,0,0,1-3.22.14q-79.7,0-159.4,0a13.1,13.1,0,0,1-5.83-1.22c-3-1.56-3.9-4.65-3-8.43,5.91-24.11,19-43.15,40-56.57,3.88-2.48,3.91-2.41,1.69-6.41-3.66-6.56-7.2-13.19-11-19.68-1.53-2.63-1.52-4.8.65-6.93h3.22a29.15,29.15,0,0,1,2.74,3.51c3.64,6.44,7.18,12.94,10.77,19.41,2.34,4.23,2.34,4.19,6.79,2.45q33.55-13,67.13-.06c5.46,2.1,4.37,2,7-2.54.79-1.4,1.54-2.82,2.35-4.21Q302,98.23,307.45,89Zm-98.3,54.13a7.14,7.14,0,0,0-7.3,7.3,7.31,7.31,0,0,0,14.62,0A7.15,7.15,0,0,0,212.37,143.08Zm89.94,7.34c0-4.42-2.75-7.28-7.12-7.33a7.11,7.11,0,0,0-7.38,7.21,7.33,7.33,0,0,0,7.43,7.28A7,7,0,0,0,302.31,150.42Z"/><path class="cls-4" d="M254.29,197.77h80.55c7.37,0,9.91,2.43,9.91,9.83q0,67.34,0,134.66c0,7.09-2.7,9.64-9.84,9.65-7.73,0-15.47.14-23.2-.06-3.21-.08-4.29.86-4.26,4.18.16,14.38.2,28.77,0,43.16-.18,13.85-13.88,23.31-26.62,18.62-8.21-3-13.32-10.29-13.38-19.39-.08-14.06,0-28.13,0-42.2,0-4.27,0-4.29-4.32-4.3H244.75c-4.84,0-4.85,0-4.85,4.72,0,14.28.09,28.57-.06,42.85a19.8,19.8,0,0,1-22.77,19.32c-10.19-1.53-17.15-10-17.23-21.29-.1-13.74,0-27.49,0-41.23,0-4.31-.06-4.36-4.28-4.37H174.27c-9,0-11.13-2.13-11.13-11.29q0-32.86,0-65.72,0-33,0-66a28.12,28.12,0,0,1,.48-5.43c.66-3.36,2.89-5.17,6.24-5.57a33.06,33.06,0,0,1,3.86-.1Z"/><path class="cls-4" d="M155.34,258.08c0,12.88,0,25.77,0,38.65-.06,10.33-5.29,17.86-14.22,20.73-12.49,4-25.63-5.17-25.76-18.33-.2-18.79-.07-37.57-.08-56.36,0-8.48-.08-17,0-25.44.14-10.23,8-18.74,17.86-19.49,10.8-.82,19.81,6,21.59,16.49a38.23,38.23,0,0,1,.55,6.4C155.37,233.18,155.34,245.63,155.34,258.08Z"/><path class="cls-4" d="M392.62,258.22c0,13.52.07,27,0,40.57A19.79,19.79,0,0,1,380.07,317a20,20,0,0,1-22.33-5.43c-3.7-4.14-5.12-9.16-5.14-14.55-.06-26-.13-51.95,0-77.93.09-15.36,13.35-25,27.1-20.1a19.37,19.37,0,0,1,12.87,18C392.7,230.74,392.62,244.48,392.62,258.22Z"/></g></g></svg>