<svg xmlns="http://www.w3.org/2000/svg" xmlns:xlink="http://www.w3.org/1999/xlink" viewBox="0 0 507.88 507.98"><defs><style>.cls-1{fill:#a6bcd0;}.cls-2{clip-path:url(#clip-path);}.cls-3{clip-path:url(#clip-path-2);}.cls-4,.cls-6{fill:#e8ddc6;}.cls-5{fill:#ce6164;}.cls-6{font-size:77px;}.cls-6,.cls-8{font-family:Helvetica;}.cls-7{letter-spacing:-0.04em;}.cls-8{font-size:234px;fill:#6b6b6b;}</style><clipPath id="clip-path"><rect class="cls-1" width="507.88" height="507.98" rx="36.33"/></clipPath><clipPath id="clip-path-2"><rect class="cls-1" width="507.88" height="507.98"/></clipPath></defs><g id="Layer_2" data-name="Layer 2"><g id="Layer_3" data-name="Layer 3"><rect class="cls-1" width="507.88" height="507.98" rx="36.33"/><g class="cls-2"><rect class="cls-1" width="507.88" height="507.98"/><g class="cls-3"><path class="cls-1" d="M0,253.46q0,110,0,220C0,493.74,14,508,34.16,508q219.75,0,439.5,0c20.16,0,34.2-14.17,34.21-34.4q0-219.3,0-438.59c0-21.15-13.93-35-35.16-35H35.22C13.75,0,0,13.83,0,35.42q0,109,0,218"/></g></g><rect class="cls-4" x="33.13" y="49.34" width="441.62" height="408.87" rx="35.86"/><rect class="cls-5" x="33.13" y="49.34" width="441.62" height="126.52" rx="33.68"/><text class="cls-6" transform="translate(172.18 141.91) scale(1.21 1)">JU<tspan class="cls-7" x="94.11" y="0">L</tspan></text><text class="cls-8" transform="translate(96.47 392.83) scale(1.21 1)">17</text></g></g></svg>