<svg xmlns="http://www.w3.org/2000/svg" xmlns:xlink="http://www.w3.org/1999/xlink" viewBox="0 0 507.88 507.98"><defs><style>.cls-1{fill:#649dad;}.cls-2{clip-path:url(#clip-path);}.cls-3{clip-path:url(#clip-path-2);}.cls-4{fill:#e8ddc6;}</style><clipPath id="clip-path"><rect class="cls-1" width="507.88" height="507.98" rx="36.33"/></clipPath><clipPath id="clip-path-2"><rect class="cls-1" width="507.88" height="507.98"/></clipPath></defs><g id="Layer_2" data-name="Layer 2"><g id="Layer_3" data-name="Layer 3"><rect class="cls-1" width="507.88" height="507.98" rx="36.33"/><g class="cls-2"><rect class="cls-1" width="507.88" height="507.98"/><g class="cls-3"><path class="cls-1" d="M0,253.46q0,110,0,220C0,493.74,14,508,34.16,508q219.75,0,439.5,0c20.16,0,34.2-14.17,34.21-34.4q0-219.3,0-438.59c0-21.15-13.93-35-35.16-35H35.22C13.75,0,0,13.83,0,35.42q0,109,0,218"/></g></g><path class="cls-4" d="M254.06,121c2.46-4,4.08-6.86,5.88-9.59,6.15-9.32,16.85-13.19,26.57-9.67,10,3.61,16.27,12.95,14.78,23.36-.61,4.29-2.69,8.58-4.89,12.41q-28.92,50.41-58.15,100.66-13.83,23.9-27.66,47.77c-.86,1.48-1.47,3.1-2.63,5.58,2.71.18,4.72.44,6.73.44,19,0,38-.07,57,0,23.25.14,36,16.32,31.2,39-.85,4-2.66,5.53-6.73,5.52-64.64-.08-129.28,0-193.92-.13a22.06,22.06,0,0,1-22.39-21.82c-.29-12.14,9.43-22.21,22.43-22.48,15.66-.32,31.34-.26,47,0,4.76.08,7.5-1.6,9.81-5.64Q192.52,228.14,226.24,170c1.8-3.1,1.79-5.55-.17-8.61-5.38-8.4-10.39-17-15.63-25.54-7.3-11.84-4.5-25.29,6.79-32.31,10.36-6.44,23.91-2.71,31.08,8.55C250,114.66,251.63,117.24,254.06,121Z"/><path class="cls-4" d="M378.36,336.93c2.48,4.58,4.42,8.32,6.52,12,4.66,8.15,9.39,16.26,14.11,24.38,6.64,11.42,3.55,24.94-7.17,31.27s-24.37,2.57-30.93-8.69q-22.47-38.52-44.7-77.2c-14.39-24.9-28.89-49.73-43.09-74.74-11.22-19.75-7.62-41.36,9-56.55,5.86-5.37,6.76-5.29,10.66,1.47,18.67,32.37,37.38,64.72,55.84,97.2,2.44,4.29,5.11,6.14,10.11,6.05,15.47-.28,30.94-.23,46.4-.05,8.86.1,15.83,3.81,20.16,11.88,4.21,7.86,3.55,15.46-1.25,22.74a20.91,20.91,0,0,1-17.79,9.75c-7,.18-14.09,0-21.14.09C383.19,336.52,381.31,336.74,378.36,336.93Z"/><path class="cls-4" d="M104.84,385.52c.86-3.17,1.18-6.62,2.69-9.45,4.76-9,9.91-17.71,15.07-26.45a9.67,9.67,0,0,1,3.86-3.41c12.43-6.25,30.14-3.44,40,6,2.64,2.54,3.26,4.71,1.23,8.1-7.21,12.06-13.95,24.4-21.18,36.45-5.52,9.18-15.66,12.72-25.92,9.62C111.62,403.72,105.39,395.21,104.84,385.52Z"/></g></g></svg>