<svg xmlns="http://www.w3.org/2000/svg" viewBox="0 0 507.88 507.98"><defs><style>.cls-1{fill:#6da29a;}.cls-2{fill:#d69f49;}</style></defs><g id="Layer_2" data-name="Layer 2"><g id="Layer_3" data-name="Layer 3"><rect class="cls-1" width="507.88" height="507.98" rx="36.33"/><path class="cls-2" d="M303.82,300.66q0-43.44,0-86.89c0-5.41,0-5.32-5.42-5.48-3.85-.12-7.8,0-11.49-.95-7.28-1.79-10.5-8.38-9.27-17.7.89-6.67,5.84-10.93,12.92-11.08,2.5-.05,5,0,7.49,0,5.51,0,5.77-.27,5.77-5.64,0-18,.09-36-.07-53.93,0-3.61,1.07-4.8,4.68-4.7,3.11.09,4.09,1.1,4.07,4.16-.1,18-.05,35.95,0,53.93,0,6.1.08,6.17,6.35,6.19,2.62,0,5.25-.07,7.86,0a12.26,12.26,0,0,1,12,12,27.79,27.79,0,0,1-.64,8.51c-1.7,5.81-6.64,8.95-13.57,9.2-3,.12-6-.21-9,.2-1.12.16-2.4,1.67-2.92,2.86s-.13,2.7-.13,4.07q0,86.52,0,173c0,3.06-.09,5.29-4.24,5.19-3.44-.08-4.5-1.18-4.49-4.59C303.87,359.59,303.82,330.12,303.82,300.66Z"/><path class="cls-2" d="M198.05,318.29q0-34.64,0-69.27c0-6.26,0-6.22-6.11-6.29a56.62,56.62,0,0,1-8.94-.45c-8-1.38-12.24-7.38-11.72-16,.47-7.87,5.77-13.25,13.64-13.7,3.11-.18,6.24-.17,9.36,0,2.76.11,3.81-1.11,3.78-3.77-.06-6.62,0-13.23,0-19.85q0-34.81,0-69.64c0-4.74.52-5.12,5.14-4.88,2,.11,3,.88,3,2.92,0,1.12,0,2.25,0,3.37q0,43.06,0,86.12c0,5.64.07,5.6,5.56,5.74,3.85.1,7.81,0,11.5.87,6.6,1.59,10.1,7.59,9.73,15.4-.34,7-4.36,12.2-10.9,13.32a54.87,54.87,0,0,1-11.17.59c-3.61-.14-4.8,1.19-4.78,4.75.12,18.47.06,36.94.06,55.41q0,43.07,0,86.12c0,2.6-.12,4.59-3.66,4.65s-4.56-1.13-4.54-4.55C198.11,365.47,198.06,341.88,198.05,318.29Z"/><path class="cls-2" d="M88.7,277.59q0-55.06,0-110.11c0-6.14-.07-6.2-6.32-6.21-2,0-4,0-6,0-8.88-.1-14.45-5.73-14.44-14.6,0-9.1,5.66-15.06,14.42-15.15,2.87,0,5.74-.1,8.61,0s3.81-1.18,3.74-3.83c-.09-3.25.1-6.5,0-9.74-.13-2.84,1.15-3.69,3.82-3.62,2.48.06,4.5.14,4.36,3.48s0,6.74,0,10.11c0,2.49,1.18,3.63,3.69,3.58,3.24-.06,6.49-.06,9.73,0,8.16.24,13.38,6.1,13.36,14.9,0,9-5.08,14.6-13.36,14.81-3.12.08-6.25.1-9.37,0-2.8-.08-4.22,1.07-4.08,4,.07,1.37,0,2.75,0,4.12V388.07c0,5.2-.86,6.16-5.37,5.32-1-.19-2.15-1.62-2.63-2.74s-.12-2.46-.12-3.71Z"/><path class="cls-2" d="M418.21,182.57q0,31.65,0,63.3c0,5.41.12,5.51,5.36,5.54,2.87,0,5.75-.08,8.61,0,9.21.36,13.93,6,13.75,16.27-.14,8.35-5.42,13.4-14.11,13.47-2.74,0-5.49,0-8.24,0-5,0-5.36.36-5.37,5.28q0,17.79,0,35.58,0,33.33,0,66.66c0,4.55-1.22,5.66-5.6,4.67a4.51,4.51,0,0,1-2.39-2.62c-.41-1.1-.12-2.46-.12-3.71q0-49.82,0-99.63c0-6.15-.08-6.22-6.3-6.23-1.75,0-3.5,0-5.24,0-8.39-.11-13.56-5.15-13.83-13.46-.32-9.83,4.34-15.67,13.07-16.25,2.49-.16,5,0,7.49-.07,4.52,0,4.76-.29,4.81-5,0-1.37,0-2.75,0-4.12V119.1c0-2.39-.37-4.74,3.41-4.81,3.51-.07,4.82.91,4.79,4.61C418.14,140.12,418.21,161.35,418.21,182.57Z"/></g></g></svg>