<svg xmlns="http://www.w3.org/2000/svg" xmlns:xlink="http://www.w3.org/1999/xlink" viewBox="0 0 507.88 507.98"><defs><style>.cls-1{fill:#c7af63;}.cls-2{clip-path:url(#clip-path);}.cls-3{clip-path:url(#clip-path-2);}.cls-4{fill:#e8ddc6;}</style><clipPath id="clip-path"><rect class="cls-1" width="507.88" height="507.98" rx="36.33"/></clipPath><clipPath id="clip-path-2"><rect class="cls-1" width="507.88" height="507.98"/></clipPath></defs><g id="Layer_2" data-name="Layer 2"><g id="Layer_3" data-name="Layer 3"><rect class="cls-1" width="507.88" height="507.98" rx="36.33"/><g class="cls-2"><rect class="cls-1" width="507.88" height="507.98"/><g class="cls-3"><path class="cls-1" d="M0,253.46q0,110,0,220C0,493.74,14,508,34.16,508q219.75,0,439.5,0c20.16,0,34.2-14.17,34.21-34.4q0-219.3,0-438.59c0-21.15-13.93-35-35.16-35H35.22C13.75,0,0,13.83,0,35.42q0,109,0,218"/></g></g><path class="cls-4" d="M262.79,293.4c-46-1.08-82-5.11-115-21.9-14.31-7.28-27-17.77-40.35-26.9-3.29-2.25-3.68-5-2.21-9.07,9.52-26.05,9.6-52.42.58-78.54-2.1-6.1-1-9.53,3.44-13.5,24.68-21.92,54.06-33.64,85.9-40.17,2.69-.55,5.43-.93,8.08-1.61,6.76-1.74,12.19-.82,18.71,3.24,12.21,7.59,26.67,7.73,40.76,6.39,10.45-1,20.9-2.34,29.2-10.08,1.17-1.09,3.83-1.15,5.68-.87,35.89,5.46,69.45,16.59,97.87,40.27,9.37,7.8,9.14,7.59,5.75,19.13-7.47,25.39-7.59,50.79,1.77,75.77,1.72,4.56.23,6.92-2.74,9.65-24.05,22.14-52.66,35.43-84.4,41.4C295.29,290.48,274.31,292,262.79,293.4ZM257,160.85c-28.63.34-54.34,3.26-79.16,11.9-12.14,4.23-23.63,9.55-32.44,19.41s-9.53,21.59.06,30.69a87.77,87.77,0,0,0,22,15.23c21.46,10.35,44.71,13.76,68.27,15.45,34.82,2.5,68.9-.86,101.65-13.41,11.22-4.3,22-9.94,28.93-20.46,5.21-7.87,5.83-16.57-.17-23.74a65.92,65.92,0,0,0-18.61-15.7C318.53,164.6,286.67,161.85,257,160.85Z"/><path class="cls-4" d="M257.2,421.69C196.27,420.44,146,402.1,103.05,364.46c-7.28-6.38-7.37-7.36,0-13.71,14.69-12.64,32-20.45,50.44-25.48,70.6-19.23,141-19.21,211,3.29,15.28,4.91,29.58,12,41.71,22.94,4.78,4.33,5.34,7.32.2,11.92Q354.31,410.05,285.1,419C274.47,420.41,263.75,421.08,257.2,421.69Z"/><path class="cls-4" d="M337.73,316.51c-56.15-10.1-111.19-11.4-166.78-.44v-29.8c8.25,1.63,15.73,3.2,23.24,4.58a324.9,324.9,0,0,0,134.58-3c8.75-2.06,8.9-2,9,6.87C337.77,301.61,337.73,308.52,337.73,316.51Z"/><path class="cls-4" d="M409.18,233.37c-9-26.07-9-50.62-.41-75.87C428,171.89,429.77,213.07,409.18,233.37Z"/><path class="cls-4" d="M98.05,232.3C79.34,214,79.27,175.62,97.71,158,108.2,169.89,108.62,216,98.05,232.3Z"/><path class="cls-4" d="M253.09,106.92c-9-1.58-17.54-2.85-26-4.74-2-.45-5.18-3.22-5-4.47.35-2.23,2.46-5.17,4.54-6,18.12-7.09,36.43-7.43,54.52.1,2.14.9,3.46,3.79,5.15,5.75-2.08,1.55-4,4-6.28,4.48C271.13,104,262.07,105.35,253.09,106.92Z"/></g></g></svg>