<svg xmlns="http://www.w3.org/2000/svg" viewBox="0 0 507.88 507.98"><defs><style>.cls-1{fill:#c45350;}.cls-2{fill:#e8ddc6;}</style></defs><g id="Layer_2" data-name="Layer 2"><g id="Layer_3" data-name="Layer 3"><rect class="cls-1" width="507.88" height="507.98" rx="36.33"/><path class="cls-2" d="M46.37,275.53A92.62,92.62,0,0,1,95.3,246.82c48.87-11.38,93.56,8.08,119.37,51.25,9.9,16.55,21.23,31.62,40.08,39.34,30.42,12.46,64.17,2,83.14-26.23,16.73-24.9,12.54-62.46-9.44-84.24-19.74-19.56-43.25-25.88-69.46-17-26.8,9.1-41.15,29.37-45.49,57-.18,1.13,0,2.4-.43,3.36a45,45,0,0,1-3.14,4.93c-1.05-1.73-2.53-3.33-3.1-5.21-3-9.89-4.53-20.49-9-29.64-8.17-16.64-22.13-27.52-40.14-32.44-5.81-1.58-7.89-4.12-7.87-10.35.07-28.41-.47-56.82-.71-85.23a18.51,18.51,0,0,1,2.36-9.55c1.82,2.15,3.78,4.19,5.41,6.47,6.48,9,12.64,18.34,19.42,27.15a11.33,11.33,0,0,0,7.82,3.68c16.12.3,32.24-.07,48.36.15,4.37.07,7.13-1.23,9.53-4.88,5.86-8.93,12-17.65,18.2-26.37,1.76-2.49,3.92-4.68,5.9-7l2.38.53c0,8.73,0,17.46,0,26.19.07,13.57-1.57,11.85,11.92,12.09,26.11.48,52.37-.68,78.28,1.82,55.71,5.38,97.84,53,102.3,105.92,4,47.32-14.61,84.42-53.22,111.79-30.87,21.88-64.43,37.68-102.05,43-61.94,8.81-118.21-5.13-167.72-44.16-17.85-14.07-32.4-31-44.91-49.94C82.19,292.85,68.56,279.44,46.37,275.53Z"/></g></g></svg>