<svg xmlns="http://www.w3.org/2000/svg" viewBox="0 0 507.88 507.98"><defs><style>.cls-1{fill:#566c84;}.cls-2{fill:#e8ddc6;}</style></defs><g id="Layer_2" data-name="Layer 2"><g id="Layer_3" data-name="Layer 3"><rect class="cls-1" width="507.88" height="507.98" rx="36.33"/><path class="cls-2" d="M262.12,254c2.48,1.87,4.56,3.46,6.66,5q46.67,34.26,93.32,68.52c.81.59,1.59,1.21,2.38,1.82,9.76,7.49,9.81,17.54,0,24.8q-26.89,19.88-53.89,39.6-31.17,22.89-62.35,45.78c-5.29,3.91-10.82,5.21-16.78,2.18s-7.53-8.36-7.52-14.63q.1-67.14.07-134.27V282.28c-2.3,1.47-3.8,2.32-5.18,3.33q-29.78,21.86-59.52,43.75c-5.2,3.81-10.78,4.33-16.38,1.17-5.17-2.9-7.14-7.73-6.72-13.49.35-4.85,3.21-8.17,7-11q32.25-23.55,64.41-47.2c2-1.46,3.93-3,6.49-4.92-5.11-3.81-9.7-7.27-14.33-10.67l-53.54-39.23c-1.34-1-2.68-2-4-3-6.75-5.45-8.15-13.48-3.48-19.82,4.82-6.55,13.24-7.77,20.31-2.65,14.54,10.54,29,21.23,43.47,31.85l21,15.38c.17-3,.38-5,.38-7.06q0-69.37,0-138.76c0-10,6.76-16.49,16-15.23a16.67,16.67,0,0,1,7.19,3.07q58.83,43,117.49,86.19c9.47,7,9.4,17.48-.11,24.48Q316,214.32,267.29,250C265.7,251.19,264.16,252.42,262.12,254Zm-9.49-147.37V225.84l81.2-59.63Zm-.2,294.94,81.37-59.83L252.43,282Z"/></g></g></svg>