<svg xmlns="http://www.w3.org/2000/svg" viewBox="0 0 507.88 507.98"><defs><style>.cls-1{fill:#566c84;}.cls-2{fill:#e8ddc6;}</style></defs><g id="Layer_2" data-name="Layer 2"><g id="Layer_3" data-name="Layer 3"><rect class="cls-1" width="507.88" height="507.98" rx="36.33"/><path class="cls-2" d="M239.42,296.25c-14.6.84-28.61-4.31-42.32-11.58-36.31-19.25-72.88-38-109.3-57A98.93,98.93,0,0,1,75,219.89c-10.4-7.59-11.55-18.29-2.13-27.19,7.05-6.65,15.21-12.19,23.11-17.88,30-21.64,60.17-43.11,90.23-64.69,26-18.66,54.61-23.68,85.41-16,48.69,12.08,97.3,24.52,146,36.79,11.62,2.93,20.71,9.18,23.08,21.43s-3.31,21.81-13.28,29.22C385.11,213,343.07,244.7,300.76,276.07,283,289.25,263.11,296.93,239.42,296.25Z"/><path class="cls-2" d="M436.12,225.19c8.84,11.73,5.55,27.22-7.78,37.25-28.29,21.3-56.72,42.42-85.09,63.63-14,10.47-27.74,21.3-42,31.39C270.77,379,238,386.11,203.17,369.31c-27-13-53.24-27.52-79.82-41.35-12.69-6.61-25.43-13.11-38-19.86a83.51,83.51,0,0,1-12-7.77c-4.73-3.68-7.29-8.66-6.56-14.88,1.26-10.74,8.62-14.91,17.9-10.08,38.48,20,76.67,40.56,115.46,59.91,34.27,17.1,68.1,12.2,98.83-8.47,29.72-20,57.77-42.5,86.55-63.91C402.26,250.45,419,238,436.12,225.19Z"/><path class="cls-2" d="M437.4,184.48c5,8.34,5.22,16.16,1.21,23.46a43,43,0,0,1-11.14,13.47c-42.74,32.32-85.31,64.91-128.82,96.17-28.75,20.64-60.75,26.47-94,11.06-20.79-9.63-40.77-21-61.1-31.61C124,286.85,104.45,276.75,85,266.34A62,62,0,0,1,71.79,257c-7.15-6.77-7-16.93.35-23.36,1.68-1.46,6-1.54,8.25-.42,29.33,15,58.43,30.35,87.71,45.42,14.51,7.47,28.67,16.29,44,21.36,34,11.24,65.55,3.13,93.84-17.75,41.66-30.73,83-61.93,124.46-92.92C432.39,187.82,434.47,186.49,437.4,184.48Z"/><path class="cls-2" d="M437.37,266c6.74,8.23,4.48,23.5-6.34,32.8-5.67,4.87-11.82,9.19-17.81,13.68-36.33,27.24-72.74,54.37-109,81.72-16.71,12.6-35.11,20.76-56,22.71-14.76,1.37-29.15-.71-42.37-7.49q-60.9-31.23-121.46-63.11c-4.94-2.6-10.1-5.87-13.39-10.18a20.52,20.52,0,0,1-3.65-13.68c1.16-9.25,6.25-11.27,14.39-7q57.12,29.67,114.21,59.36c37.37,19.46,73.38,14.88,106.57-8.72,41.8-29.72,82.38-61.17,123.49-91.86C429.75,271.39,433.61,268.71,437.37,266Z"/></g></g></svg>