<svg xmlns="http://www.w3.org/2000/svg" xmlns:xlink="http://www.w3.org/1999/xlink" viewBox="0 0 507.88 507.98"><defs><style>.cls-1{fill:#f37252;}.cls-2{clip-path:url(#clip-path);}.cls-3{clip-path:url(#clip-path-2);}.cls-4{fill:#e8ddc6;}</style><clipPath id="clip-path"><rect class="cls-1" width="507.88" height="507.98" rx="36.33"/></clipPath><clipPath id="clip-path-2"><rect class="cls-1" width="507.88" height="507.98"/></clipPath></defs><g id="Layer_2" data-name="Layer 2"><g id="Layer_3" data-name="Layer 3"><rect class="cls-1" width="507.88" height="507.98" rx="36.33"/><g class="cls-2"><rect class="cls-1" width="507.88" height="507.98"/><g class="cls-3"><path class="cls-1" d="M0,253.46q0,110,0,220C0,493.74,14,508,34.16,508q219.75,0,439.5,0c20.16,0,34.2-14.17,34.21-34.4q0-219.3,0-438.59c0-21.15-13.93-35-35.16-35H35.22C13.75,0,0,13.83,0,35.42q0,109,0,218"/></g></g><path class="cls-4" d="M247,415.71c-4.16-7.47-7.22-14.31-11.45-20.33-17.62-25.08-42.15-38.46-72.5-41.26-31.94-2.95-60.91,5.36-87.26,23.41a64.39,64.39,0,0,1-8.57,5.08c-4.69,2.24-8.16.45-9.27-4.65a28.1,28.1,0,0,1-.42-5.95q0-112-.08-224.07c0-12.22,4.45-22.23,14.44-29.15,38.48-26.67,79.93-34.24,124.44-17.67a81.5,81.5,0,0,1,41.19,33.27c7.83,12.28,9.25,26,9.33,39.76.29,49.07.15,98.15.16,147.22q0,43.67,0,87.33Z"/><path class="cls-4" d="M260.9,415.48v-8.42q0-113.52.05-227a194.61,194.61,0,0,1,1.2-20.89c2.36-21.86,14.65-37.59,32.41-49,32.91-21.21,68.44-22,104.49-10.29,12.14,3.93,23.46,10.86,34.6,17.36,12.11,7.06,16.91,18.5,16.82,32.42-.2,27.77-.05,55.55-.06,83.33q0,68.61,0,137.21a44.1,44.1,0,0,1-.36,7.46c-1,5.69-4.77,7.62-9.79,4.77-6.21-3.54-12-7.8-18.26-11.24-31.68-17.43-65.17-23.45-100.07-12.39C293.14,367.84,272.53,386.81,260.9,415.48Z"/></g></g></svg>