<svg xmlns="http://www.w3.org/2000/svg" xmlns:xlink="http://www.w3.org/1999/xlink" viewBox="0 0 507.88 507.98"><defs><style>.cls-1{fill:#cc5462;}.cls-2{clip-path:url(#clip-path);}.cls-3{clip-path:url(#clip-path-2);}.cls-4{fill:#e8ddc6;}</style><clipPath id="clip-path"><rect class="cls-1" width="507.88" height="507.98" rx="36.33"/></clipPath><clipPath id="clip-path-2"><rect class="cls-1" width="507.88" height="507.98"/></clipPath></defs><g id="Layer_2" data-name="Layer 2"><g id="Layer_1-2" data-name="Layer 1"><rect class="cls-1" width="507.88" height="507.98" rx="36.33"/><g class="cls-2"><rect class="cls-1" width="507.88" height="507.98"/><g class="cls-3"><path class="cls-1" d="M0,253.46q0,110,0,220C0,493.74,14,508,34.16,508q219.75,0,439.5,0c20.16,0,34.2-14.17,34.21-34.4q0-219.3,0-438.59c0-21.15-13.93-35-35.16-35H35.22C13.75,0,0,13.83,0,35.42q0,109,0,218"/></g></g><g id="Layer_2-2" data-name="Layer 2"><path class="cls-4" d="M446.61,254C446.42,362.19,358.05,450.71,248,448.77,143.53,446.93,55.45,361.19,57,250.87,58.47,144.39,146.2,57.5,255.07,59.2,359.55,60.84,446.32,145.87,446.61,254ZM137.79,193.73c.57,1.36,1.14,2.05,1.11,2.72-.43,8.59,4.37,15.24,8,22.42,1.93,3.85,2.74,8.25,4.29,12.31.71,1.85,1.55,4.12,3,5.12,8.31,5.56,16.88,10.71,26.85,12.86,5.13,1.1,9.93,2.51,13.53,7,1.35,1.66,4.29,2.72,6.55,2.82,6.17.26,10.47,3.26,14,7.9a57.33,57.33,0,0,0,3.93,4.32c3.77,3.95,8.16,5.94,13.67,4.23,2.77-.85,4.76.26,6.43,2.4,5.39,6.91,4.88,11.89-1.81,17.36-.5.42-1,.81-1.51,1.23-7.94,6.73-8.86,19.64-2.08,27.55,2.18,2.55,4.87,5.05,6,8.07,3.21,8.93,9.4,14.62,17.58,18.83,5.06,2.61,8.74,6.7,9,12.76.43,9,.51,17.89-2.89,26.53-1.15,2.93-1.14,6.32-1.65,9.5-.57,3.55-.73,7.23-1.8,10.62-2.5,7.93-.25,14.67,4.87,20.54,1.38,1.59,4.47,2.8,6.4,2.39,1.39-.29,2.3-3.49,3.16-5.5,1.35-3.17,1.74-7.06,3.84-9.54,6.87-8.13,14.19-15.82,24.86-19.34,7.27-2.4,12.92-7,16.09-14.31,2.16-5,6.38-8.13,11.08-10.53,3.46-1.77,7-3.33,10.63-4.82,8-3.31,13.87-8.42,15.91-17.29a23,23,0,0,1,12.33-16.13c4-2.09,7-5.51,6.13-10.71s-5-9-10.39-10.33c-2.55-.63-4.9-2.1-7.29-3.31-4.12-2.07-8.07-4.56-12.33-6.28-4.83-1.94-6.92-3.8-7-7.7-.12-5.52-2.89-8.9-7.9-11-8.15-3.39-15.53-8.3-24-11.36-5.14-1.87-10-3.77-15.49-4.31a47.78,47.78,0,0,1-14.58-3.5c-10-4.44-18.84-3-26.21,5.41-2.09,2.4-3.76,2.2-6.28.36-1.9-1.39-4.59-1.91-7-2.31-1.73-.29-3.6.34-5.42.39-6.35.2-9.85-4.26-8.16-10.43.58-2.12,1.54-4.14,2.09-6.28,1-3.91-.87-6.4-4.94-6.35-2.32,0-4.62.72-6.94.86-3.88.22-5.44-1.83-3.8-5.34,1.24-2.68,3.29-5,4.62-7.63.76-1.49.79-3.35,1.14-5.05-1.71-.13-3.9-1-5-.25A62.41,62.41,0,0,0,199.79,239c-3.66,3.75-5.88,4.55-10.16,2.09-7.22-4.15-9.72-11.26-6.61-18.94,1-2.4,2.12-4.74,3.17-7.11q4.38-10,15.31-9.92c10.25.08,20.5.11,30.75.22,3.87,0,6.33,2,7.19,5.82a33.46,33.46,0,0,0,1.46,5.65,18.5,18.5,0,0,0,2.62,3.59l1.4-.61c-.26-4.06-.72-8.12-.75-12.19-.06-7,3-10.48,9.87-11.77,1.41-.26,2.8-.61,4.2-.88,4.59-.9,7.33-3.37,7.9-8.29.27-2.39,1.46-4.67,2.23-7l.95-.26c1.41,3.55,3.29,2.45,5,.94a41.26,41.26,0,0,0,4.21-4.55c2.07-2.52,4.35-4.2,7.93-4.14,1.48,0,3.77-1.11,4.35-2.35,1.81-3.9,5-5.21,8.72-6.43a37.64,37.64,0,0,0,9.34-4.56,6.52,6.52,0,0,0,2.19-4.92c-.18-5.35.09-5.95,5.54-5.83,3.24.08,6.46.65,9.69.8,2.15.1,4.49-.65,3.2-3.3a120.78,120.78,0,0,0-7.79-13.38c-1.46-2.23-3.36-3.35-6-.72-2.84,2.81-9.56.8-10.93-2.89-1.43-3.85-5-5.5-8.22-3.08-2.32,1.77-3.81,4.65-5.63,7.07-1.51,2-2.52,4.88-4.51,5.95-3.13,1.69-6.08,3.12-8.1,6.29-1.16,1.83-3.64,3-5.09.44-3.6-6.26-9.75-8.7-15.82-11.28-3.7-1.57-5-4.75-2-7.53a25.08,25.08,0,0,1,8.89-5c2.87-1,6.17-.67,9.23-1.24,5.09-.94,6.88-3.18,6.14-7.19-.83-4.46-3.69-6.6-8.55-5.57-3.1.66-6,2.28-9,3.58-3.87,1.7-7.52,1.29-11.85-.7,10.74-2.29,10.89-2.42,8.76-7.2a72.22,72.22,0,0,0,7.21-.78,3.23,3.23,0,0,0,1.93-2.09c.14-.5-.8-1.59-1.5-2-6.53-3.63-13.28-4.25-20.18-1.1-.67.3-1.1,1.16-2,2.16l7.88,2.44c-.09.47-.19.93-.28,1.4-3.48-.41-7-.77-10.45-1.26C238.38,101,235.2,100,232,100c-1.45,0-3.89,1.5-4.11,2.66-.28,1.48,1,3.44,2,4.94.63.93,2,1.39,3,2.07a4.39,4.39,0,0,1-3.56.39,57,57,0,0,0-21.76-2.72c-6.1.47-12.33-.81-18.51-1.18-4.9-.29-9.81-.5-14.71-.53-3,0-5.94.68-8.87.46a20.31,20.31,0,0,0-12.84,3.58,96.65,96.65,0,0,1-10.36,5.24c-4.31,2-9,3.52-12.92,6.1s-7.45,6.35-10.87,9.35c5-.54,11.36.6,16.13-3.72,8-7.26,17.07-4.61,25.88-3.26,4.35.67,5.38,4,3.36,8.07-.75,1.5-1.85,2.82-2.74,4.25-2.8,4.49-5.34,9.15-8.42,13.43a32.39,32.39,0,0,1-7.42,7.67c-7.67,5.33-13.11,12-15.4,21.22-3.61,14.5.45,28.35,3.58,42.25.34,1.54,2.16,2.74,3.29,4.1l1.06-.56a18.91,18.91,0,0,0,.17-4.1c-.86-5-2-9.93-2.85-14.91C134.51,201.06,134.45,197.36,137.79,193.73Zm205.8-64.09c0-3.75-.27-6.1.05-8.37,1.25-8.87-3.24-14.37-10.23-18.83-3.23-2.06-5.76-5.18-8.94-7.33-1.86-1.26-4.46-2.33-6.57-2.09-3.94.44-7.79,1.82-11.63,3-.84.25-2,1.23-2,1.92a3.1,3.1,0,0,0,1.75,2.21,32.16,32.16,0,0,0,7.36,2.4c6.7,1,10.49,5,13.75,10.71,2.76,4.83,6.87,8.93,10.64,13.12C338.9,127.66,340.9,128.19,343.59,129.64Zm-47.08-10.35c3.26,1.74,6.09,3.55,9.15,4.8,4.84,2,8.63-1.08,7.46-6.16-1.14-4.88-2.25-10.06-8.52-11.3-1.35-.27-2.5-1.59-3.85-1.82a121.91,121.91,0,0,0-16-2.12c-1.46,0-3,2.58-4.54,4,1.67,1.14,3.21,2.85,5.05,3.29,2.86.69,6,.26,8.89.76C299.74,111.68,300.66,114.29,296.51,119.29Zm9.13-28.06c-2.16-.78-3.78-1.86-5.4-1.86-7,0-13.95.11-20.88.66-1.7.14-3.26,2.09-4.88,3.21,1.43,1.65,2.81,3.34,4.31,4.91a4.23,4.23,0,0,0,1.79.7C290.12,101.78,298,98.86,305.64,91.23Zm-82.28,140.5c1.39.29,2.3.78,2.71.51,4.15-2.74,8.31-1.23,12.61-.46,3.6.64,6.23,1.94,8,5.25a5.79,5.79,0,0,0,3.78,2.39,42.39,42.39,0,0,0,8.05.11c.89,0,2.31-.48,2.49-1.06a3.36,3.36,0,0,0-.89-2.69,7.44,7.44,0,0,0-2.92-1.85c-5.81-2.11-11.58-4.42-17.53-6.08C234,226.26,228.56,227.16,223.36,231.73Zm59.09,11.83.12-1.27a20.46,20.46,0,0,0-12.05-4c-2-.05-4.29,1.73-6.12,3.11-.51.38-.16,3.2.32,3.36a16.93,16.93,0,0,0,6.22.94,76.54,76.54,0,0,0,8.71-1.38C280.6,244.14,281.52,243.81,282.45,243.56Zm-2.59-142c-2.55-1.68-4.42-3.06-6.45-4.14a2.46,2.46,0,0,0-2.31.63,2.9,2.9,0,0,0,.18,2.42C272.82,103.43,275.16,103.92,279.86,101.51Z"/></g></g></g></svg>