<svg xmlns="http://www.w3.org/2000/svg" xmlns:xlink="http://www.w3.org/1999/xlink" viewBox="0 0 507.88 507.98"><defs><style>.cls-1{fill:#514f4b;}.cls-2{clip-path:url(#clip-path);}.cls-3{clip-path:url(#clip-path-2);}.cls-4{fill:#e8ddc6;}</style><clipPath id="clip-path"><rect class="cls-1" width="507.88" height="507.98" rx="36.33"/></clipPath><clipPath id="clip-path-2"><rect class="cls-1" width="507.88" height="507.98"/></clipPath></defs><g id="Layer_2" data-name="Layer 2"><g id="Layer_3" data-name="Layer 3"><rect class="cls-1" width="507.88" height="507.98" rx="36.33"/><g class="cls-2"><rect class="cls-1" width="507.88" height="507.98"/><g class="cls-3"><path class="cls-1" d="M0,253.46q0,110,0,220C0,493.74,14,508,34.16,508q219.75,0,439.5,0c20.16,0,34.2-14.17,34.21-34.4q0-219.3,0-438.59c0-21.15-13.93-35-35.16-35H35.22C13.75,0,0,13.83,0,35.42q0,109,0,218"/></g></g><path class="cls-4" d="M276.59,406h-21c-.08-1.1-.22-2.14-.22-3.18,0-31.07-.12-62.15-.06-93.22,0-14.74.54-29.49.36-44.23a92.27,92.27,0,0,0-2.24-19.25c-2.28-10-8.28-14.53-18.5-15a58.8,58.8,0,0,0-10.86.44c-11.39,1.65-17.3,8.64-17.3,20.18,0,33.13.22,66.27-.09,99.41a131.48,131.48,0,0,1-2.9,24.82c-3.38,16.64-14.28,25.94-30.71,28.92a78.8,78.8,0,0,1-13.45,1.24c-20.45.13-40.91.34-61.36-.05-11.39-.22-22.23-3-30.81-11.36C60.79,388.27,57.66,380,56.75,371c-1.2-11.71-2-23.52-2.08-35.28-.12-41.2.24-82.4.26-123.6,0-14.93-.44-29.87-.68-44.81-.15-9.27.39-18.49,2.83-27.48,5.44-20,18.75-31.66,38.78-36.05,9.58-2.09,19.3-2.28,29.05-2.12,13.16.21,26.33.5,39.5.58,20.45.13,40.9.1,61.35.16,15.44,0,30.88.19,46.31.16q36.29-.06,72.56-.31c17.69-.11,35.38-.49,53.07-.37a69.19,69.19,0,0,1,24,4.46c18,6.75,27.68,20.26,31.16,38.7a42.6,42.6,0,0,1,.75,7.89c.05,64.7.19,129.4-.07,194.11a139.57,139.57,0,0,1-3.22,27.74c-3.73,18-15.52,27.84-33.43,30.66a61.68,61.68,0,0,1-8.8.72c-19.86.2-39.71.14-59.53-1.56a13.47,13.47,0,0,1-10.68-6.39c-4.47-6.73-6.06-14.22-5.93-22.15s.81-16.12.47-24.14A114.52,114.52,0,0,0,329.67,333c-2.23-10.44-9.71-16.09-19.29-19.2-10.46-3.39-21.16-2.68-31.82-1a3,3,0,0,0-1.82,2.25c-.09,17,0,34,0,51q0,19.17.09,38.35A12.54,12.54,0,0,1,276.59,406ZM277,291.29l5.44-.55c11.73-1.17,23.31-.77,34.69,2.82,17.88,5.63,30,16.68,33.1,35.73,1.9,11.53,3.33,23.15,2.76,34.92-.25,5.19.2,10.41.44,15.6.14,2.92,1.34,4.51,4.75,4.53,7.95,0,15.91.76,23.86.71,10.78-.07,21.6-.24,32.35-1.08,8.38-.66,13.86-5.75,15.07-14.15,1.45-10.09,3-20.28,3.07-30.44.34-31-.07-61.93,0-92.89,0-23.6.38-47.19.42-70.78,0-8.63.25-17.34-.84-25.86-1.86-14.56-9.66-22.39-24-25.43a53.36,53.36,0,0,0-10.81-1.33c-17.49,0-35,.19-52.48.28-23.7.12-47.39.29-71.08.28q-48.23,0-96.45-.29c-17.69-.08-35.39-.44-53.08-.36A156.07,156.07,0,0,0,101,124.44c-13.1,2-21.4,9.84-24,23a72,72,0,0,0-1.47,14c0,16.31.53,32.63.57,48.94.11,46.5,0,93,.25,139.5,0,7.51,1.38,15.05,2.6,22.49.93,5.64,4.65,9.22,10.26,10.56a63.8,63.8,0,0,0,9,1.72,371.94,371.94,0,0,0,61.54.38c6.1-.45,12.34.16,18.29-2.23,5.41-2.17,7.29-4.27,7.25-10-.29-34.8-.7-69.59-.8-104.38a146.56,146.56,0,0,1,1.66-23.78c3.13-19.39,14.67-30.8,34-34a74,74,0,0,1,16.15-.83c20.06,1.15,33.22,12.28,38.17,31.77,3.19,12.56,2.66,25.36,2.58,38.13C277,283.52,277,287.23,277,291.29Z"/></g></g></svg>