<svg xmlns="http://www.w3.org/2000/svg" xmlns:xlink="http://www.w3.org/1999/xlink" viewBox="0 0 507.88 507.98"><defs><style>.cls-1{fill:#c45350;}.cls-2{clip-path:url(#clip-path);}.cls-3{clip-path:url(#clip-path-2);}.cls-4{fill:#fff;}</style><clipPath id="clip-path"><rect class="cls-1" width="507.88" height="507.98" rx="36.33"/></clipPath><clipPath id="clip-path-2"><rect class="cls-1" width="507.88" height="507.98"/></clipPath></defs><g id="Layer_2" data-name="Layer 2"><g id="Layer_3" data-name="Layer 3"><rect class="cls-1" width="507.88" height="507.98" rx="36.33"/><g class="cls-2"><rect class="cls-1" width="507.88" height="507.98"/><g class="cls-3"><path class="cls-1" d="M0,253.46q0,110,0,220C0,493.74,14,508,34.16,508q219.75,0,439.5,0c20.16,0,34.2-14.17,34.21-34.4q0-219.3,0-438.59c0-21.15-13.93-35-35.16-35H35.22C13.75,0,0,13.83,0,35.42q0,109,0,218"/></g></g><path class="cls-4" d="M243.58,384.65c-22.62,0-45.33,1.35-67.82-.28-54.54-3.95-97.89-51.28-99.58-107-1.66-54.9,38.82-105,92-113.17,9.63-1.48,19.67-.22,29.32-1.59a31.4,31.4,0,0,0,15.05-6.82c64.4-54.44,157.83-39.74,200.83,31.85,49.47,82.34-6.38,190.63-102,196.85C288.89,385.9,266.19,384.65,243.58,384.65ZM226.47,167.49c8.46,4.62,14.36,6.93,19.14,10.67,7.78,6.11,14.6,6.28,23.89,2.25,36.56-15.88,78.26-1.87,99.18,32.26,20,32.71,13.35,77.11-15.35,101.85-30.64,26.4-74.08,27.53-104.29,1.36-16.79-14.55-31.81-31.13-47.8-46.61-3.89-3.76-8.1-8.88-12.79-9.67-5.59-1-13.83.22-17.26,3.9s-2.95,11.56-2.8,17.57c.07,2.71,3.2,5.67,5.51,7.93,18.75,18.39,36.81,37.61,56.7,54.68,24.29,20.84,53.8,27.42,85.14,23.43,44.31-5.65,82.47-39.84,94-82.78,12.25-45.68-4.08-92.47-42.47-121.69-34.93-26.57-84.75-29.28-123.84-6.57C238.28,159.06,233.51,162.72,226.47,167.49Zm2.12,198.88c-9.35-8.28-17.87-15-25.38-22.72a30.42,30.42,0,0,0-21-9.84c-37.51-2.81-62.41-39-52.48-75.52,12.07-44.35,64.9-59.68,99.67-28.57C242,240.9,253.18,253.48,265.39,265c8.44,8,17.36,7.94,24.26.89s6.82-16-1.19-24.35c-12.67-13.13-25.24-26.47-38.94-38.47a92.92,92.92,0,0,0-124,.87C90.36,235.58,84.67,287.84,111,327.53,134.1,362.33,181.21,375,228.59,366.37Z"/></g></g></svg>