<svg xmlns="http://www.w3.org/2000/svg" xmlns:xlink="http://www.w3.org/1999/xlink" viewBox="0 0 507.88 507.98"><defs><style>.cls-1{fill:#66c6ba;}.cls-2{clip-path:url(#clip-path);}.cls-3{clip-path:url(#clip-path-2);}.cls-4{fill:#e5e5e5;}.cls-5{fill:#263740;}.cls-6{fill:#b2b3b3;}.cls-7{fill:#de6965;}</style><clipPath id="clip-path"><rect class="cls-1" width="507.88" height="507.98" rx="36.33"/></clipPath><clipPath id="clip-path-2"><rect class="cls-1" width="507.88" height="507.98"/></clipPath></defs><g id="Layer_2" data-name="Layer 2"><g id="Layer_3" data-name="Layer 3"><rect class="cls-1" width="507.88" height="507.98" rx="36.33"/><g class="cls-2"><rect class="cls-1" width="507.88" height="507.98"/><g class="cls-3"><path class="cls-1" d="M0,253.46q0,110,0,220C0,493.74,14,508,34.16,508q219.75,0,439.5,0c20.16,0,34.2-14.17,34.21-34.4q0-219.3,0-438.59c0-21.15-13.93-35-35.16-35H35.22C13.75,0,0,13.83,0,35.42q0,109,0,218"/></g></g><path class="cls-4" d="M302.47,314.39l-9.87,6.06c-13,6-26.32,9.6-40.82,9.1-15-.52-29.42-3-43.18-9.09l-17.32-14.88v.15l-1-1.85,0,.08c-.32-.57-.64-1.13-1-1.69-8.23-16.58-6.68-32.95,1-49.2,7.53-12.16,18.72-20.54,29.87-29a76.91,76.91,0,0,0,9.56-8.46c5.14-5.45,6.52-11.82,2.82-18.63-6.26-11.54-5.6-10.79-17.65-8.2-8.49,1.82-15.05,7.09-21.5,12.52-5.92,5-7.87,5.17-14.56,1.12-4.26-2.59-8.32-5.52-12.47-8.3a21.45,21.45,0,0,1-.9-4.17c-.09-6.91-.13-13.82,0-20.73,0-1.4.58-3.47,1.58-4.07,10.91-6.52,19-16.07,27.74-25,7.79-8,15.35-16.3,23.83-23.51,5.34-4.54,12.24-7.23,18.31-11a6.53,6.53,0,0,0,2.58-3.66c.47-1.8.18-3.8.22-5.7,17.47-.14,33.2,5.47,47.85,14.55A73.27,73.27,0,0,1,313,136.24c8.54,14.56,8.16,30.15,3.7,45.31-4.8,16.31-11.49,32.07-17.68,47.94-7,17.9-10.87,36.17-6.15,55.19C295.36,294.75,299.23,304.5,302.47,314.39ZM234.06,138c2.57-1.3,5.43-2.22,7.58-4s1.55-4.15-1.43-4.11a22,22,0,0,0-8.28,2.12c-1.05.47-1.92,2.56-1.84,3.84C230.14,136.51,232.34,137.08,234.06,138Z"/><path class="cls-5" d="M317.71,352.15c3.52.12,7,.27,10.55.36,8,.2,14,6,14,14q.13,24.94,0,49.88a13.72,13.72,0,0,1-14,14q-70.41,0-140.82,0c-4.93,0-8.72-2.17-12.13-5.4-.89-3.8-2.48-7.59-2.56-11.4-.31-14.56-.13-29.13-.12-43.7,0-12.15,5-17.16,17.07-17.29,1.31,0,2.63-.2,3.94-.31Z"/><path class="cls-6" d="M302.47,314.39c-3.24-9.89-7.11-19.64-9.6-29.71-4.72-19-.82-37.29,6.15-55.19,6.19-15.87,12.88-31.63,17.68-47.94,4.46-15.16,4.84-30.75-3.7-45.31a73.27,73.27,0,0,0-25.26-25.36c-14.65-9.08-30.38-14.69-47.85-14.55,0-4.86.07-9.73-.16-14.57-.14-3.11,1.09-4.62,4.07-4,10.16,2.19,20.51,3.82,30.35,7a104.43,104.43,0,0,1,43.74,27.29c8.07,8.46,13.4,18.52,17.44,29.36.24.87.48,1.75.71,2.62l-.09,0c.65,5.08,1.58,10.14,1.88,15.24,1.26,21.59-4.51,41.74-12.74,61.42a180.72,180.72,0,0,0-8.32,23.57c-3.12,11.84-.34,23.18,6.08,33.26,3.42,5.38,3.35,9.63.2,14.84C317.71,301.26,311.12,308.75,302.47,314.39Z"/><path class="cls-7" d="M317.71,352.15l-124.07.08c.05-6-.3-12.06.32-18,.37-3.58,2.25-7,3.45-10.5l11.19-3.26c13.76,6.05,28.19,8.57,43.18,9.09,14.5.5,27.87-3.1,40.82-9.1l12.24.42c8.38.3,12.53,4.59,12.6,12.9C317.49,339.9,317.62,346,317.71,352.15Z"/></g></g></svg>