<svg xmlns="http://www.w3.org/2000/svg" xmlns:xlink="http://www.w3.org/1999/xlink" viewBox="0 0 507.88 507.98"><defs><style>.cls-1{fill:#3f5375;}.cls-2{clip-path:url(#clip-path);}.cls-3{clip-path:url(#clip-path-2);}.cls-4{fill:#e8ddc6;}</style><clipPath id="clip-path"><rect class="cls-1" width="507.88" height="507.98" rx="36.33"/></clipPath><clipPath id="clip-path-2"><rect class="cls-1" width="507.88" height="507.98"/></clipPath></defs><g id="Layer_2" data-name="Layer 2"><g id="Layer_3" data-name="Layer 3"><rect class="cls-1" width="507.88" height="507.98" rx="36.33"/><g class="cls-2"><rect class="cls-1" width="507.88" height="507.98"/><g class="cls-3"><path class="cls-1" d="M0,253.46q0,110,0,220C0,493.74,14,508,34.16,508q219.75,0,439.5,0c20.16,0,34.2-14.17,34.21-34.4q0-219.3,0-438.59c0-21.15-13.93-35-35.16-35H35.22C13.75,0,0,13.83,0,35.42q0,109,0,218"/></g></g><path class="cls-4" d="M337.84,113.58a64.9,64.9,0,0,1,6.32,2.75c18.41,10.52,32.65,25.2,43.24,43.53,2.09,3.63,2.14,6-1.53,8.93-8.73,7-13.44,16.86-15.67,27.35-4.62,21.73-8.55,43.62-12.12,65.56-6.85,42-23.78,78.73-55.86,107.38-30.22,27-65.33,33.91-104,22.69-55.41-16.09-90.18-66.33-85.47-123.94,2.63-32.09,19.17-56.93,43.65-76.78,29.77-24.15,64.4-37.23,101.76-44.26,17-3.21,33.9-7.35,50.63-11.88C320.86,131.65,331.65,125.84,337.84,113.58Z"/><path class="cls-4" d="M254,438.54c-92.46-.89-171.24-70.38-182.65-161.88C58.84,176,129.23,84.78,230.37,71c28-3.8,55.48-.72,82.38,7.95,7.63,2.46,14.77,5.74,15.12,14.71.37,9.37-3.32,18.07-12.09,22.19a158.75,158.75,0,0,1-29.5,10.25c-18.79,4.63-38,7.63-56.7,12.47-38.71,10-73.06,27.94-100.34,57.91-41.27,45.31-44.72,119.54,2,170.2C179.18,418.61,255,427.1,309.1,384.36c25.64-20.23,40.77-47.8,52.31-77.74,9.89-25.62,12.59-52.7,17.22-79.43a212.23,212.23,0,0,1,8.16-32.94c2.09-6.06,6.28-11.88,10.85-16.49,9.74-9.81,21.21-7.24,26.34,5.45C468.34,293,402.35,410.76,291,433.66,278.88,436.16,266.38,437,254,438.54Z"/></g></g></svg>