<svg xmlns="http://www.w3.org/2000/svg" xmlns:xlink="http://www.w3.org/1999/xlink" viewBox="0 0 507.88 507.98"><defs><style>.cls-1{fill:#e8ddc6;}.cls-2{clip-path:url(#clip-path);}.cls-3{clip-path:url(#clip-path-2);}.cls-4{fill:#46b2a3;}</style><clipPath id="clip-path"><rect class="cls-1" width="507.88" height="507.98" rx="36.33"/></clipPath><clipPath id="clip-path-2"><rect class="cls-1" width="507.88" height="507.98"/></clipPath></defs><g id="Layer_2" data-name="Layer 2"><g id="Layer_3" data-name="Layer 3"><rect class="cls-1" width="507.88" height="507.98" rx="36.33"/><g class="cls-2"><rect class="cls-1" width="507.88" height="507.98"/><g class="cls-3"><path class="cls-1" d="M0,253.46q0,110,0,220C0,493.74,14,508,34.16,508q219.75,0,439.5,0c20.16,0,34.2-14.17,34.21-34.4q0-219.3,0-438.59c0-21.15-13.93-35-35.16-35H35.22C13.75,0,0,13.83,0,35.42q0,109,0,218"/></g></g><path class="cls-4" d="M456.17,254.25c-.08,110.93-91.75,202.24-202.76,202C143,456,52.19,365.12,51.71,254.45S143,51.79,253.86,51.76,456.26,143.28,456.17,254.25ZM197.76,200a37.29,37.29,0,0,0-5.93,1.19c-41.68,15.24-73.05,42.9-95.54,80.7-2.44,4.1-2.34,10.92-1,15.85,19.46,74,91.41,125.88,167.91,121,4.84-.31,11.32-3.28,13.83-7.11,15.09-23,26.72-47.53,31.38-75.06,1.23-7.29-.57-9.47-7.58-11.55C257,312.14,227.55,283.27,211,241.17,205.83,228,202.27,214.22,197.76,200Zm89.72-58.11C324.63,161.14,343,189.28,353.71,223a245.91,245.91,0,0,1,8.59,39.23c1.19,8.23,4,11.31,12.38,10.38,11.2-1.24,22.5-1.79,33.77-2.05,7.52-.17,10.72-2.76,10.74-10.8.09-53.44-18.58-98.9-60.35-132.42-31.83-25.54-25-24.88-55.37,2.74C299.32,133.85,294.43,136.82,287.48,141.93Zm37,128.87c2.13-35.52-41.77-83.17-69.16-88.12C252.82,223.69,284,263.36,324.51,270.8ZM128.17,149.47c25.46-12.62,51.49-21.54,79.77-23.32,3.5-.22,8.39-1.64,10-4.18,6.34-9.89,11.63-20.45,18-32C191.39,96,155.56,115.24,128.17,149.47ZM369.23,369.05l3,1.64,30.89-43.28H365.21C366.62,342,367.92,355.51,369.23,369.05Z"/></g></g></svg>