<svg xmlns="http://www.w3.org/2000/svg" viewBox="0 0 507.88 507.98"><defs><style>.cls-1{fill:#2d5070;}.cls-2{fill:#e8ddc6;}.cls-3{fill:#7b94ad;}.cls-4{fill:#acafb4;}.cls-5{fill:#f6f8fa;}.cls-6{fill:#649dad;}.cls-7{fill:#d69f49;}.cls-8{fill:#e2625b;}</style></defs><g id="Layer_2" data-name="Layer 2"><g id="Layer_3" data-name="Layer 3"><rect class="cls-1" width="507.88" height="507.98" rx="36.33"/><path class="cls-2" d="M445.87,309.08c0,12.85.09,25.71,0,38.56-.06,11-5.39,16.28-16.55,16.28q-64.43.06-128.85,0c-1.75,0-3.5.05-5.25.07H212.63q-66.28,0-132.56-.13c-3.43,0-6.87-.91-10.3-1.39-6.13-3.24-8.08-8.42-7.91-15.18.34-12.77.17-25.56.2-38.34,1,0,2-.08,3.07-.08H441.94C443.25,308.9,444.56,309,445.87,309.08Zm-192,34.37a6.9,6.9,0,1,0,.33-13.8,6.9,6.9,0,1,0-.33,13.8Z"/><path class="cls-3" d="M445.87,309.08c-1.31-.07-2.62-.18-3.93-.18H65.13c-1,0-2,.05-3.07.08-.06-1.75-.17-3.5-.17-5.25q0-99.08,0-198.15c0-10.66,5.42-16.12,16.22-16.12q175.8,0,351.58,0c7,0,12.11,2.65,15.52,8.7.27,4.92.77,9.85.78,14.78q.08,95,0,190.07C446,305,445.92,307,445.87,309.08ZM75.93,295.24H432V103.61H75.93Z"/><path class="cls-2" d="M203.14,404.31l8.4-33.62q30.61.12,61.23.21c7.87,0,15.73-.17,23.6-.26q2.36,9.42,4.7,18.83c.13.55.27,1.09.41,1.64s.31,1.25.46,1.87.27,1.09.41,1.64.31,1.25.46,1.88l.41,1.62.47,1.89c.13.54.27,1.08.4,1.62s.31,1.26.47,1.89c-1.69.55-3.38,1.57-5.07,1.57q-45.17.15-90.33,0A44.19,44.19,0,0,1,203.14,404.31Z"/><path class="cls-2" d="M203.14,404.31a44.19,44.19,0,0,0,6,.82q45.17.08,90.33,0c1.69,0,3.38-1,5.07-1.57,1.54.52,3.07,1.47,4.61,1.49,8.87.14,17.75.07,26.86.07v13.5H171.89v-13.5c8.76,0,17.47,0,26.18,0A36.89,36.89,0,0,0,203.14,404.31Z"/><path class="cls-4" d="M296.37,370.64c-7.87.09-15.73.27-23.6.26q-30.61,0-61.23-.21c.36-2.22.73-4.45,1.09-6.68h82.61Q295.8,367.33,296.37,370.64Z"/><path class="cls-5" d="M301.48,391.11c-.14-.55-.28-1.09-.41-1.64C301.2,390,301.34,390.56,301.48,391.11Z"/><path class="cls-5" d="M302.35,394.62c-.14-.55-.27-1.09-.41-1.64C302.08,393.53,302.21,394.07,302.35,394.62Z"/><path class="cls-5" d="M303.22,398.12l-.41-1.62Z"/><path class="cls-5" d="M304.09,401.63c-.13-.54-.27-1.08-.4-1.62C303.82,400.55,304,401.09,304.09,401.63Z"/><path class="cls-3" d="M253.91,343.45A6.9,6.9,0,1,1,261,336.7,6.84,6.84,0,0,1,253.91,343.45Z"/><path class="cls-2" d="M75.93,295.24V103.61H432V295.24Zm105.63-13.73c29.23,0,58.47-.08,87.71.1,4.17,0,5-1.29,5-5.19q-.18-77,0-153.94c0-3.85-.79-5.24-5-5.23q-87.27.23-174.55,0c-4.19,0-5,1.33-5,5.21q.16,77,0,153.94c0,4.38,1.39,5.23,5.46,5.21C124,281.43,152.76,281.51,181.56,281.51Zm106.85-.21h130V179.05h-130Zm0-116.51H418.28V117.36H288.44Z"/><path class="cls-6" d="M181.56,281.51c-28.8,0-57.6-.08-86.4.1-4.07,0-5.48-.83-5.46-5.21q.22-77,0-153.94c0-3.88.83-5.22,5-5.21q87.27.23,174.55,0c4.22,0,5,1.38,5,5.23q-.18,77,0,153.94c0,3.9-.86,5.22-5,5.19C240,281.43,210.79,281.51,181.56,281.51Z"/><path class="cls-7" d="M288.41,281.3V179.05h130V281.3Z"/><path class="cls-8" d="M288.44,164.79V117.36H418.28v47.43Z"/></g></g></svg>