<svg xmlns="http://www.w3.org/2000/svg" viewBox="0 0 507.88 507.98"><defs><style>.cls-1{fill:#2d5070;}.cls-2{fill:#e8ddc6;}</style></defs><g id="Layer_2" data-name="Layer 2"><g id="Layer_3" data-name="Layer 3"><rect class="cls-1" width="507.88" height="507.98" rx="36.33"/><path class="cls-2" d="M253.9,435.3c-81.5-.28-162.25-59.6-178-149.92-17.27-98.9,46.8-189.29,140.74-209.22,12.16-2.59,24.88-3,37.37-3.46a19.54,19.54,0,0,1,20.5,18.78c.37,12.3-6.91,21-19.05,21.78-20.11,1.34-39.92,3.87-58.34,12.69q-68.57,32.83-81,107.89c-12.6,75.08,41.89,144.46,114,157.22,75.08,13.28,147.71-37.4,161-112.13,1.58-8.89,2.14-18,3.06-27,1.22-11.85,9.65-19.39,21.4-19,10.83.34,19.36,9.21,19.32,20.72-.18,45.11-15.31,84.7-44.83,118.68-26.16,30.09-59,49.3-97.91,57.7C279.56,432.74,266.64,433.6,253.9,435.3Z"/><path class="cls-2" d="M354.18,257.65c-.06,45.23-38.62,87.72-83.6,95C217.47,361.28,167,325.93,155.75,275c-11.69-53,21.41-108.5,78-120.33a76.08,76.08,0,0,1,23.79-1.19c11,1.27,17.7,10.34,17.14,20.85-.58,11.07-8,18.84-19.29,19.62-19.51,1.35-36.73,7.58-48.45,24-12.53,17.59-16.49,37.19-7.73,57.41,9,20.77,25.27,34.12,48,36.9,25.58,3.15,62.87-13.85,65.33-54.71.44-7.32,1.24-14.81,7.6-19.91,6.82-5.46,14.43-7,22.47-3.11,8.2,3.95,12,10.81,11.87,19.87C354.45,255.68,354.25,256.9,354.18,257.65Z"/><path class="cls-2" d="M253.86,274.76c-12.42,0-21.4-9-21.39-21.46s9.15-21.48,21.45-21.54c12.53,0,21.68,9.2,21.63,21.85C275.49,265.93,266.42,274.78,253.86,274.76Z"/></g></g></svg>