<svg xmlns="http://www.w3.org/2000/svg" viewBox="0 0 507.88 507.98"><defs><style>.cls-1{fill:#2d5070;}.cls-2{fill:#e8ddc6;}</style></defs><g id="Layer_2" data-name="Layer 2"><g id="Layer_3" data-name="Layer 3"><rect class="cls-1" width="507.88" height="507.98" rx="36.33"/><path class="cls-2" d="M276.62,398.83q0,19,0,37.93c0,12.23-10,21.94-22.17,22.35-12.75.43-23.53-10.69-23.35-23.28.36-24.87.1-49.75.11-74.62,0-11.52,9-21.6,19.93-22.51,14.44-1.21,23.62,8.63,25.37,19.21a19.4,19.4,0,0,1,.11,3.24Z"/><path class="cls-2" d="M321.12,298.77c0-6.07,0-12.14,0-18.21.05-11.67,10.19-21.45,21.88-21.87a23,23,0,0,1,23.25,18.53,17.28,17.28,0,0,1,.26,3.22q0,18.45,0,36.92c0,11.66-10.19,21.45-21.88,21.87A23,23,0,0,1,321.4,320.7a17.28,17.28,0,0,1-.26-3.22C321.11,311.25,321.12,305,321.12,298.77Z"/><path class="cls-2" d="M141.3,386.11c0-6.07,0-12.14,0-18.21.05-11.52,10.2-21.35,21.7-21.79a23,23,0,0,1,23.37,18.35,19.19,19.19,0,0,1,.31,3.46q0,18.46,0,36.93c0,11.52-10.2,21.35-21.71,21.79a23,23,0,0,1-23.37-18.35,18.27,18.27,0,0,1-.31-3.21C141.29,398.76,141.3,392.43,141.3,386.11Z"/><path class="cls-2" d="M366.53,399c0,6,0,12,0,18,0,12-10.06,21.81-22,22.2a23,23,0,0,1-23.06-18.45,20,20,0,0,1-.28-3.71q0-18,0-35.92a22.64,22.64,0,0,1,22.3-22.46,23,23,0,0,1,22.87,18.69,15.52,15.52,0,0,1,.22,3C366.54,386.49,366.53,392.73,366.53,399Z"/><path class="cls-2" d="M276.85,209.23c-.24,4.13,0,8.37-.81,12.39-2.3,11.29-11.87,18-24.29,17.61-9.63-.32-19.36-8.91-20.28-19.15a98,98,0,0,1,.43-23.59c1.78-11.36,11.76-18,24.18-17.63,9.63.32,19,8.94,20.36,19.15.49,3.67.08,7.47.08,11.21Z"/><path class="cls-2" d="M366.76,209.19c-.24,4.13,0,8.37-.8,12.38-2.31,11.33-11.82,18.05-24.26,17.66-9.63-.3-19.35-8.83-20.3-19.11a96.44,96.44,0,0,1,.4-23.59c1.78-11.39,11.71-18.06,24.15-17.67,9.64.3,19,8.86,20.39,19.11.51,3.67.09,7.46.09,11.2Z"/><path class="cls-2" d="M276.84,289c-.23,4.14.05,8.38-.77,12.39-2.34,11.44-11.68,18.11-24.16,17.78-9.65-.26-19.37-8.64-20.39-19a108.43,108.43,0,0,1,.41-24.09c1.09-8.53,10-18.24,24.24-17.33,9.61.61,19,9.14,20.29,19.28.45,3.6.07,7.3.07,11Z"/><path class="cls-2" d="M186.92,296.72c-.22,4,.05,8.21-.76,12.14C183.81,320.3,174.5,327,162,326.65c-9.67-.25-19.36-8.6-20.4-19a108.42,108.42,0,0,1,.4-24.09c1.08-8.52,10-18.25,24.24-17.35,9.61.61,19,9.12,20.29,19.27.47,3.68.08,7.47.08,11.21Z"/><path class="cls-2" d="M253.7,94.39C241.77,94.82,231,84,231.09,71.46c.1-11.92,10.51-22.7,23-22.6C265.9,49,277,59.25,276.73,72.15,276.52,83.89,266.21,95,253.7,94.39Z"/><path class="cls-2" d="M253.93,113.91a22.34,22.34,0,0,1,22.69,22.72c0,12.83-9.89,22.48-22.72,22.75-12.1.26-23.09-10.45-22.76-23A22.6,22.6,0,0,1,253.93,113.91Z"/><path class="cls-2" d="M366.53,136.77c.47,12-10.41,22.74-22.85,22.67-12-.07-22.74-10.53-22.68-23,.06-11.88,10.44-22.87,23.23-22.67C356,114,367.11,124.32,366.53,136.77Z"/><path class="cls-2" d="M164,136.39a22.35,22.35,0,0,1,22.68,22.74c0,12.82-9.89,22.46-22.74,22.73-12.09.25-23.08-10.46-22.74-23.05A22.61,22.61,0,0,1,164,136.39Z"/><path class="cls-2" d="M164,246.74a22.34,22.34,0,0,1-22.73-22.68c0-12.85,9.86-22.51,22.68-22.8,12.16-.26,23.12,10.49,22.8,23S176.75,246.74,164,246.74Z"/></g></g></svg>