<svg xmlns="http://www.w3.org/2000/svg" xmlns:xlink="http://www.w3.org/1999/xlink" viewBox="0 0 507.88 507.98"><defs><style>.cls-1{fill:#b45474;}.cls-2{clip-path:url(#clip-path);}.cls-3{clip-path:url(#clip-path-2);}.cls-4{fill:#ec96ad;}.cls-5{fill:#e8ddc6;}</style><clipPath id="clip-path"><rect class="cls-1" width="507.88" height="507.98" rx="36.33"/></clipPath><clipPath id="clip-path-2"><rect class="cls-1" width="507.88" height="507.98"/></clipPath></defs><g id="Layer_2" data-name="Layer 2"><g id="Layer_3" data-name="Layer 3"><rect class="cls-1" width="507.88" height="507.98" rx="36.33"/><g class="cls-2"><rect class="cls-1" width="507.88" height="507.98"/><g class="cls-3"><path class="cls-1" d="M0,253.46q0,110,0,220C0,493.74,14,508,34.16,508q219.75,0,439.5,0c20.16,0,34.2-14.17,34.21-34.4q0-219.3,0-438.59c0-21.15-13.93-35-35.16-35H35.22C13.75,0,0,13.83,0,35.42q0,109,0,218"/></g></g><path class="cls-4" d="M466.08,357.51c-3,1.32-5.89,2.89-9,3.91a510.32,510.32,0,0,1-88.39,20.22c-16.08,2.29-32.28,4.19-48.49,5-26.78,1.34-53.62,2.35-80.43,2.17a580.88,580.88,0,0,1-60.25-3.8q-37.1-4.08-73.94-10.49a461.88,461.88,0,0,1-72-18.69c-1-.34-1.94-.78-3.63-1.47L145.39,138.8c3.19,1.15,6.29,2.22,9.35,3.38,20.58,7.83,41.89,12.23,63.78,14.47,26.38,2.69,52.45.92,78.35-4.28,1.63-.32,3.1-1.44,4.65-2.19,6.8,3.62,14.25,6.39,20.29,11,18.69,14.32,36.85,29.35,55.22,44.11q1.26,2.85,2.54,5.7c.35.71.66,1.46,1.06,2.15q39.36,65.68,78.69,131.4C461.82,348.73,463.84,353.18,466.08,357.51Z"/><path class="cls-5" d="M466.08,357.51c-2.24-4.33-4.26-8.78-6.76-13Q420,278.81,380.63,213.15c-.4-.69-.71-1.44-1.05-2.15.69.41,1.43.74,2.07,1.21q10.08,7.5,20.14,15c2.1,2.54,4.55,4.87,6.23,7.67q34.05,56.72,67.9,113.54c.54.9,1,1.84,1.95,3.58Z"/><path class="cls-5" d="M377,205.3c-18.37-14.76-36.53-29.79-55.22-44.11-6-4.62-13.49-7.39-20.29-11-9.62-3.23-19.33-6.24-28.83-9.8a63.08,63.08,0,0,1-13.39-7c-3.91-2.67-4.05-7.89-1.11-11.31s7.85-4.15,11.09-1c9.86,9.73,22.39,14.89,34.47,20.85,4.06,2,8.2,3.85,12.3,5.77q14.51,10.8,29,21.62c5.62,4.2,11.2,8.44,16.8,12.67l24.75,20.22c6.15,5.27,12.39,10.44,18.35,15.91,1.09,1,1.85,3.55,1.33,4.78s-2.84,1.63-4.37,2.39Z"/><path class="cls-5" d="M337.87,139.86l10.11-5.6,38,63.91c-.62,0-1.48.38-1.84.09-7.5-6-14.94-12-22.39-18-5.83-9.4-11.74-18.74-17.45-28.2C342,148.11,340,143.93,337.87,139.86Z"/><path class="cls-4" d="M337.87,139.86c2.14,4.07,4.09,8.25,6.47,12.18,5.71,9.46,11.62,18.8,17.45,28.2,0,.61,0,1.22,0,1.83-5.6-4.23-11.18-8.47-16.8-12.67q-14.48-10.83-29-21.62Z"/></g></g></svg>