<svg xmlns="http://www.w3.org/2000/svg" viewBox="0 0 507.88 507.98"><defs><style>.cls-1{fill:#d69f49;}.cls-2{fill:#e8ddc6;}</style></defs><g id="Layer_2" data-name="Layer 2"><g id="Layer_3" data-name="Layer 3"><rect class="cls-1" width="507.88" height="507.98" rx="36.33"/><path class="cls-2" d="M254,331c-41.65-.59-73.76-33.25-73.3-74.55.46-40,34.55-73.09,75.34-72,38.26,1,71.64,31.32,71.55,74.39C327.55,299,293.59,331.52,254,331Zm29.85-42.87c-20.76,16.24-43.94,15.67-60.65-1.73-14.45-15.05-15.13-40-1.53-56.37,15.36-18.45,38.3-19.48,62.81-3.06,4.56-4.57,9.07-9.08,13.58-13.61-20-22.13-59.63-26.76-87-1.65-26.35,24.17-26.49,66.79-.51,91.53,24.84,23.66,67.79,23.15,87.72-1.21Z"/><path class="cls-2" d="M413.23,130.29c11.09,26.34,3.61,61.8-26.57,79.2-13.12,7.56-27,11.82-42.49,9.07-2.17-.39-4.87.83-7,1.93-3.42,1.78-6.57,4.08-10.12,6.35-10.07-20.76-25-35.83-48.14-44.15,12-9.42,8.68-22,10.21-33.8,5.34-41.37,43.74-70.46,89.08-54.18-8.61,8.56-16.91,16.79-25.19,25-13.56,13.53-13.53,21.36.08,35l3.93,3.94c8.79,8.77,19.15,8.69,28.11-.25C394.45,149.1,403.74,139.79,413.23,130.29Z"/><path class="cls-2" d="M233.06,181.26c-29.3,11.81-39.17,21.07-53.25,48.75l-19-19q-29.73-29.7-59.45-59.41c-11.79-11.82-13-23.41-2.63-36.29a117.08,117.08,0,0,1,19.91-19.19c10.47-8,22.47-7.3,31.54,1.64,27.54,27.15,54.76,54.6,82.1,82A7.3,7.3,0,0,1,233.06,181.26Z"/><path class="cls-2" d="M212.76,327.75c-15.22,16.32-31.58,33.9-48,51.43-9.33,10-18.64,19.95-28.15,29.74-16.89,17.39-42.51,6.63-46.22-13.49-1.31-7.07-1-14.25,4.43-19.5,28.79-28.1,57.81-56,86-83.19ZM117,406.7a16.1,16.1,0,0,0,16.42-16,16.31,16.31,0,1,0-32.62-.17A15.93,15.93,0,0,0,117,406.7Z"/><path class="cls-2" d="M305.68,318.68l13-14.32c8,7.81,16.35,15.2,23.81,23.38,6.93,7.61,14.75,13.05,24.89,15.12,6.36,1.31,10.93,4.91,14.88,10.25,11.42,15.42,23.4,30.43,35.15,45.62a9.5,9.5,0,0,1,.73,1.85c-4.81,5.44-9.79,11.09-15.25,17.28-14.3-10.76-27.74-21.67-42-31.36-10.35-7-16.92-15.62-19.42-27.89-.77-3.76-3.51-7.52-6.27-10.41C325.55,338.17,315.56,328.51,305.68,318.68Z"/></g></g></svg>