<svg xmlns="http://www.w3.org/2000/svg" viewBox="0 0 507.88 507.98"><defs><style>.cls-1{fill:#566c84;}.cls-2{fill:#f37252;}</style></defs><g id="Layer_2" data-name="Layer 2"><g id="Layer_3" data-name="Layer 3"><rect class="cls-1" width="507.88" height="507.98" rx="36.33"/><path class="cls-2" d="M302.32,150.52c-.13,2.3-.38,4.61-.38,6.91q0,27.63,0,55.26c0,4.3.54,8.3-6.09,8.22-6.81-.08-5.78-4.47-5.78-8.54,0-24.06-.13-48.13.14-72.19,0-2.82,1.89-7.85,3.37-8,5.1-.61,11.16-3,14.54,4.38,9.22,20.07,18.84,40,28.32,59.91a13.12,13.12,0,0,0,4.59,5.69,70.13,70.13,0,0,0,.76-7.19c.05-18.66.08-37.32,0-56,0-4.34.11-7.58,6-7.5,5.61.07,6.37,2.83,6.35,7.41-.12,24.56.06,49.12-.22,73.67,0,2.73-2.24,7.71-3.56,7.75-4.82.16-10.81,3.29-14.11-3.83-9.3-20-18.89-39.93-28.43-59.86-1.08-2.26-2.54-4.35-3.82-6.52Z"/><path class="cls-2" d="M84.82,171.09q-4.35,18.85-8.71,37.7c-.44,1.91-.91,3.82-1.24,5.75-.7,4.05-2.25,6.51-7.17,6.38s-5.39-3.27-5.91-6.73q-4-26.91-8-53.84C52.41,151.21,51,142.06,49.7,133c9.36-2.56,10.39-2,11.34,6.09,2.1,17.78,4.12,35.57,6.25,53.34a59.1,59.1,0,0,0,1.54,6.61h2.06q2.94-13.4,5.89-26.8c.73-3.35,1.68-6.68,2.07-10.08.55-4.78,3.33-5.81,7.6-5.86s6.12,1.82,6.91,5.83c2,10.11,4.21,20.16,6.4,30.23a17.68,17.68,0,0,0,3.62,8.11,48.15,48.15,0,0,0,1.23-5.22c2.28-18.74,4.88-37.45,6.56-56.25.68-7.58,4.09-8.38,10.94-6.68-.14,2.56-.09,5.16-.46,7.7-3.7,24.73-7.5,49.45-11.18,74.18-.54,3.61-.9,6.59-5.84,6.65-4.79.06-6.37-2.25-7.26-6.39-2.62-12.22-5.47-24.4-8.26-36.59-.52-2.27-1.19-4.5-1.79-6.75Z"/><path class="cls-2" d="M253.93,178.59l23,40.79c-7.49,2.51-12.29,2.13-15.23-5.1a197.25,197.25,0,0,0-10.2-21.18c-5.07-9.15-14.6-13.07-24.42-10-1.73.54-3.58,3.79-3.69,5.87-.42,8.56-.26,17.15-.15,25.73.05,3.62-.43,6.12-5,6.16-4.42,0-6.08-1.54-6.05-6,.13-25.73.09-51.47,0-77.21,0-3.73,1-6.17,5.32-6.07,9.06.22,18.2-.39,27.17.58C262,134,272.18,150.84,265,166,262.6,171.09,257.32,174.85,253.93,178.59Zm-30.72-21.48-.7.1c.74,5.18.59,14.45,2.37,14.84,6.84,1.49,14.48,1,21.44-.55,3.22-.7,6.6-5,8.05-8.47,2.78-6.57,1.4-13.22-4.25-18-7-5.95-15.87-5.54-23.7-3.48-2.16.57-2.21,9.18-3.2,14.1A7.9,7.9,0,0,0,223.21,157.11Z"/><path class="cls-2" d="M415.34,295.89c-27.38-5.12-42.76,6.58-38.26,29.78,1.47-1.14,2.81-2,4-3.1,12.9-11.78,34.29-7.05,39.87,9.44a52.26,52.26,0,0,1,2.24,20.18c-1.09,14.51-10,23-23.93,24.29-15.11,1.43-25.63-5.11-29.68-19.36-4.72-16.57-5.15-33.41-.21-50,5.76-19.34,24.24-28.36,43.14-20.85,2.43,1,3.49,5.37,5.18,8.18Zm-2.24,51.32c-.69-3.83-1-7.79-2.16-11.45-2.82-8.62-11.34-12.81-20-10.24-7.91,2.36-12.69,9.84-12.86,20.14-.2,11,4.15,18.74,12,21.45C402.67,371.43,412.28,363,413.1,347.21Z"/><path class="cls-2" d="M198.51,219.58c-10.48,2.22-10.8,1.94-13.47-7-5.36-17.88-1.52-15.14-20.51-15.3-16.16-.14-16.16,0-20.85,15.71-2.58,8.67-3.34,9.07-13.08,6.31q8-26.29,16-52.56c3.08-10.08,5.87-20.27,9.56-30.13.86-2.29,4.81-4.64,7.41-4.73,3-.1,8.07,1.64,8.75,3.72C181.35,163.31,189.77,191.18,198.51,219.58Zm-32.8-75-1.94-.08c-.83,2.11-1.83,4.17-2.45,6.34-2.75,9.63-5.38,19.3-8.09,29-2.29,8.16-1.86,8.76,6.67,8.89,18.22.27,18.26.26,13.51-17.08C170.94,162.58,168.28,153.6,165.71,144.59Z"/><path class="cls-2" d="M296.36,297.22c-2.1-6.8-.54-10.59,5.68-10.91,9.2-.47,18.56-1.61,27.58-.42,9.4,1.24,15.89,7.64,17.54,17.49s-1.76,17.35-11,21.84c-.56.27-.85,1.11-2.38,3.25,1,.38,2.14.77,3.27,1.29,10.38,4.83,13.79,13.46,12.69,24.2S342,373.24,330.8,374.6c-10.95,1.34-22.31,0-33.41-1-6.41-.62-5.28-5.65-3.65-10.84,3.24,1,6.19,2.41,9.23,2.64,7.72.58,15.68,1.77,23.2.57,8.55-1.37,12.81-8.28,12.7-16.59-.11-7.86-4.46-13.89-12.58-16.11-4.18-1.15-8.8-.67-13-1.67-2-.48-3.6-2.72-5.38-4.16,1.69-1.55,3.14-3.82,5.13-4.46,2.71-.88,5.85-.3,8.75-.73,9.77-1.45,15.32-7.16,14.94-15.09-.36-7.74-6.7-13.53-16.29-13.71-5.56-.1-11.16,1.22-16.71,2.06C301.33,295.82,299,296.56,296.36,297.22Z"/><path class="cls-2" d="M394,176.15c0-9.07-.26-18.16.08-27.22.24-6.48-2.47-9-8.73-8.41-2.42.22-5.11.49-7.27-.33a6.29,6.29,0,0,1-3.21-4.57c-.11-1.18,2-3.7,3.21-3.72,14-.28,28-.32,41.93,0,1.23,0,3.36,2.75,3.35,4.21s-2.09,3-3.44,4.33c-.4.38-1.42.16-2.16.13-14.5-.53-13,.18-13,14.1-.05,16.19.21,32.38-.12,48.56-.13,6.52,2.32,9,8.63,8.33,1.93-.21,4.26-.64,5.79.19,1.88,1,3.12,3.23,4.63,4.92-1.55,1.37-3.08,3.9-4.67,3.93q-19.86.48-39.73,0c-1.59,0-3.11-2.62-4.66-4,1.57-1.66,3-4.54,4.73-4.8,14.68-2.17,14.7-2,14.7-17.19Q394,185.35,394,176.15Z"/><path class="cls-2" d="M79.9,287c7.92-2.64,12.13-.5,15.26,6,4.14,8.6,9.19,16.77,13.92,25.08,1.16,2,2.6,3.9,4.82,7.18,6.61-11.87,12.82-22.32,18.3-33.14,3.24-6.4,7.61-7.43,14.78-5-5.85,10-10.87,20.06-17.28,29.16-8.6,12.2-12.48,25.18-10.82,40a46.24,46.24,0,0,1-.18,13.19c-.36,2-3.24,4.9-5,4.9s-4.62-2.73-5.18-4.76c-.89-3.19-.66-6.86-.22-10.23,2.23-16.94-2.67-31.66-12.47-45.43C90,305.69,85.39,296.42,79.9,287Z"/><path class="cls-2" d="M470.51,178.71,456.59,150l-2,.35a54.48,54.48,0,0,0-.6,5.81q0,28.72.06,57.46c0,3.8.69,7.35-5.21,7.34-5.12,0-6.86-1.71-6.82-6.83.19-25.05,0-50.1.23-75.14,0-2.39,2-6.72,3.22-6.79,4.35-.26,11.46-.51,12.77,1.86,7.36,13.35,16.61,26.47,13.6,43.19C471.72,177.58,471.22,177.89,470.51,178.71Z"/><path class="cls-2" d="M197.53,373.81l31.85-78.9H196.75c-2.69,0-5.54.43-8-.32-1.54-.46-3.52-2.79-3.49-4.23s2.29-4.11,3.6-4.13c16.42-.31,32.86-.43,49.28-.17,6,.1,3.88,4.51,2.73,7.54-4.59,12.15-9.37,24.23-14.12,36.32q-7.28,18.46-14.61,36.92C208.59,375.74,208.51,375.78,197.53,373.81Z"/><path class="cls-2" d="M71.61,373.55c-10.08,2.45-10.79,2.06-13.21-6.62-3.92-14-3.92-14-22-16.17-2.28-6-.16-8.23,6.25-8.15,8.18.1,8.54-.64,6.39-8.45-2.81-10.15-5.5-20.34-8.57-30.42-1.18-3.88-3.89-7.37-4.64-11.29-.36-1.86,2.23-4.29,3.49-6.46,2.31,1.61,6,2.76,6.71,4.9,5.1,15.07,9.6,30.35,14.26,45.57Q66,355,71.61,373.55Z"/><path class="cls-2" d="M254.79,317.15c-1.07-5.61.44-9.55,8.64-9,9,.63,9.08.19,9.07,10.56,0,10.14,0,10.14-9.16,10.12C254.78,328.85,254.78,328.85,254.79,317.15Z"/><path class="cls-2" d="M272.5,364.8c0,10.06,0,10.06-9.28,10-8.45,0-8.14,0-8.54-10.74-.25-6.71.79-10.6,8.94-10C272.45,354.81,272.51,354.31,272.5,364.8Z"/></g></g></svg>