<svg xmlns="http://www.w3.org/2000/svg" xmlns:xlink="http://www.w3.org/1999/xlink" viewBox="0 0 508.12 507.98"><defs><style>.cls-1{fill:#c87157;}.cls-2{clip-path:url(#clip-path);}.cls-3{clip-path:url(#clip-path-2);}.cls-4{fill:#e8ddc6;}.cls-5{fill:#b55351;}</style><clipPath id="clip-path"><rect class="cls-1" x="0.24" width="507.88" height="507.98" rx="36.33"/></clipPath><clipPath id="clip-path-2"><rect class="cls-1" x="0.24" width="507.88" height="507.98"/></clipPath></defs><g id="Layer_2" data-name="Layer 2"><g id="Layer_3" data-name="Layer 3"><rect class="cls-1" x="0.24" width="507.88" height="507.98" rx="36.33"/><g class="cls-2"><rect class="cls-1" x="0.24" width="507.88" height="507.98"/><g class="cls-3"><path class="cls-1" d="M.25,253.46q0,110,0,220c0,20.24,14,34.45,34.16,34.46q219.75,0,439.49,0c20.16,0,34.21-14.17,34.21-34.4q0-219.3,0-438.59c0-21.15-13.92-35-35.15-35H35.46C14,0,.25,13.83.25,35.42q0,109,0,218"/></g></g><path class="cls-4" d="M302.77,405.56c-10.5-.84-21-1.45-31.47-2.57-19-2-38-4.65-55.59-12.8-24.75-11.44-30.39-38.12-12-58.33,16.14-17.69,37.22-27.94,58.66-37.48,3.9-1.73,7.9-3.24,11.84-4.89,16.84-7,20.32-21.19,8.5-35.44-13.18-15.89-22.67-33.8-26.12-54-2.21-12.9-3.06-26.53-1.47-39.46,3.74-30.51,23.14-51.17,53.26-56.71,40.57-7.46,75.76,14.8,82.31,56,2.89,18.17.92,35.88-5,53.17-5.22,15.24-12.68,29.31-23.44,41.4-6.39,7.18-6.55,15.52-5.1,24.13.9,5.35,5,7.85,9.83,10.08,18.53,8.54,37,17.19,55.15,26.56,6.05,3.13,11,8.51,16.36,12.9,13.15,10.69,15.09,25.43,12.31,40.42-1.13,6-6.65,12.74-12.06,16.14C430,390.16,420,394.87,410,396.92c-18,3.65-36.44,5.08-54.7,7.4-4,.51-8,.84-12,1.24Z"/><rect class="cls-5" width="116.7" height="507.98" rx="37.42"/></g></g></svg>