<svg xmlns="http://www.w3.org/2000/svg" xmlns:xlink="http://www.w3.org/1999/xlink" viewBox="0 0 507.88 507.98"><defs><style>.cls-1{fill:#a3965f;}.cls-2{clip-path:url(#clip-path);}.cls-3{clip-path:url(#clip-path-2);}.cls-4{fill:#e8ddc6;}</style><clipPath id="clip-path"><rect class="cls-1" width="507.88" height="507.98" rx="36.33"/></clipPath><clipPath id="clip-path-2"><rect class="cls-1" width="507.88" height="507.98"/></clipPath></defs><g id="Layer_2" data-name="Layer 2"><g id="Layer_1-2" data-name="Layer 1"><rect class="cls-1" width="507.88" height="507.98" rx="36.33"/><g class="cls-2"><rect class="cls-1" width="507.88" height="507.98"/><g class="cls-3"><path class="cls-1" d="M0,253.46q0,110,0,220C0,493.74,14,508,34.16,508q219.75,0,439.5,0c20.16,0,34.2-14.17,34.21-34.4q0-219.3,0-438.59c0-21.15-13.93-35-35.16-35H35.22C13.75,0,0,13.83,0,35.42q0,109,0,218"/></g></g><g id="Layer_2-2" data-name="Layer 2"><path class="cls-4" d="M256.16,449.4H244.55a4.52,4.52,0,0,0-1.62-.24c-6.19-.3-12.34-.79-18.44-1.62A190.78,190.78,0,0,1,191,440.06a196.61,196.61,0,0,1-52.36-25.81,196.54,196.54,0,0,1-71.58-92,191.83,191.83,0,0,1-12-55.56,11.24,11.24,0,0,0-.55-3.1V243.4a9,9,0,0,0,.55-2.75c.24-4.57.73-9.15,1.33-13.67a193,193,0,0,1,19.42-62.15A195.36,195.36,0,0,1,233.82,58.44a48.23,48.23,0,0,0,6.44-.54h19.87c1.52.44,3.09.2,4.62.34a223,223,0,0,1,23.44,3.2,193.28,193.28,0,0,1,68.05,27.48,195.44,195.44,0,0,1,43.17,37.8,194.47,194.47,0,0,1,43.12,90.07,162.19,162.19,0,0,1,3.14,28.91c0,.64.15,1.33.2,2v11.61a10.9,10.9,0,0,0-.24,2.31c0,1.86,0,3.74-.15,5.6a204.58,204.58,0,0,1-5.7,35.25,195.19,195.19,0,0,1-177.6,146.36c-1.94.22-4,.18-6,.61ZM177.05,356a44.77,44.77,0,0,0,10.52-1.08c10.77-2.36,19.92-7.28,27-16a99.73,99.73,0,0,0,11-17.11,181.74,181.74,0,0,0,9.34-22.07A241,241,0,0,0,242.94,272c1.18-5.26-.14-8.56-5.95-10.37-7.37-2.31-14.8-4.37-22.37-6.05-12.54-2.75-25.17-4.52-38.06-4.08a81.16,81.16,0,0,0-10.87,1.17,46.85,46.85,0,0,0-26.5,14.26c-12.34,13-17.25,28.47-14.21,46.12,4.38,25.22,26.7,43.17,52.07,43Zm20.8-180.83a38.69,38.69,0,0,0,1.67,11.75,80.78,80.78,0,0,0,10,21.34c9.64,15.09,21.78,28,35,40a14.57,14.57,0,0,0,3.74,2.45,4.79,4.79,0,0,0,4.18.1,11,11,0,0,0,3.64-2.5c4.57-4.53,9.09-9,13.42-13.73A221.74,221.74,0,0,0,286.6,213.8a106.54,106.54,0,0,0,12.2-21.19c3.14-7.53,4.67-15.29,3.64-23.45-1.72-13.47-7.48-24.88-17.76-33.83-12.15-10.56-26.31-14.79-42.24-12.44-25.91,3.84-44.69,26.66-44.59,52.27ZM325.58,355.7a48,48,0,0,0,5.9-.35c15.53-2.31,27.82-9.83,36.48-23a52.4,52.4,0,0,0-5.51-64.41,47.58,47.58,0,0,0-25-14.65,84.86,84.86,0,0,0-16.57-1.77,130,130,0,0,0-19.62,1.38,235.37,235.37,0,0,0-38.15,8.85,10.18,10.18,0,0,0-3.48,1.82,5.07,5.07,0,0,0-2.07,4.13,19.57,19.57,0,0,0,.49,4.42c.79,3,1.48,5.9,2.26,8.81a220.36,220.36,0,0,0,14.12,38.64,93.44,93.44,0,0,0,12.68,19.92,42.45,42.45,0,0,0,14,10.91,52.12,52.12,0,0,0,24.52,5.3Z"/></g></g></g></svg>