<svg xmlns="http://www.w3.org/2000/svg" xmlns:xlink="http://www.w3.org/1999/xlink" viewBox="0 0 508.12 516.6"><defs><style>.cls-1{fill:#649dad;}.cls-2{clip-path:url(#clip-path);}.cls-3{clip-path:url(#clip-path-2);}.cls-4{fill:#566c84;}.cls-5{font-size:212px;fill:#e8ddc6;font-family:Helvetica-Bold, Helvetica;font-weight:700;}</style><clipPath id="clip-path"><rect class="cls-1" x="0.24" width="507.88" height="507.98" rx="36.33"/></clipPath><clipPath id="clip-path-2"><rect class="cls-1" x="0.24" width="507.88" height="507.98"/></clipPath></defs><g id="Layer_2" data-name="Layer 2"><g id="Layer_3" data-name="Layer 3"><rect class="cls-1" x="0.24" width="507.88" height="507.98" rx="36.33"/><g class="cls-2"><rect class="cls-1" x="0.24" width="507.88" height="507.98"/><g class="cls-3"><path class="cls-1" d="M.25,253.46q0,110,0,220c0,20.24,14,34.45,34.16,34.46q219.75,0,439.49,0c20.16,0,34.21-14.17,34.21-34.4q0-219.3,0-438.59c0-21.15-13.92-35-35.15-35H35.46C14,0,.25,13.83.25,35.42q0,109,0,218"/></g></g><rect class="cls-4" width="116.7" height="507.98" rx="37.42"/><text class="cls-5" transform="translate(144.48 414.64) scale(1.21 1)">Aa</text></g></g></svg>