<svg xmlns="http://www.w3.org/2000/svg" viewBox="0 0 507.88 507.98"><defs><style>.cls-1{fill:#b45474;}.cls-2{fill:#e8ddc6;}</style></defs><g id="Layer_2" data-name="Layer 2"><g id="Layer_3" data-name="Layer 3"><rect class="cls-1" width="507.88" height="507.98" rx="36.33"/><path class="cls-2" d="M287.82,165.43,314,191.89c-24.4,26.49-48.18,53.56-73.33,79.29-26,26.64-52.65,52.81-80.49,77.52-13,11.57-29.44,19.4-44.6,28.45-2.38,1.43-6.24.37-9.41.46,0-3.7-1.54-8.31.11-11,9.9-16,18.58-33.34,31.24-46.89C185.24,268.67,234.33,218.87,283,168.64,284.1,167.46,285.75,166.77,287.82,165.43Z"/><path class="cls-2" d="M332.86,195l-44.45-45.64c9.36-10.85,19.68-22.47,29.62-34.4,9.15-11,16.74-23.53,27.07-33.2,24.5-22.92,57.71-14.45,67.15,18,2.82,9.71-.51,24.77-6.85,32.78-10.4,13.17-25.6,22.54-38.7,33.59C355.27,175.78,344,185.53,332.86,195Z"/><path class="cls-2" d="M107.8,396.08c2.7,9.7,6.83,19.31,7.46,29.14.28,4.42-6.45,9.29-10,13.95-3.77-4.47-10.92-9.16-10.64-13.36.68-10.2,4.81-20.16,7.55-30.21Z"/></g></g></svg>