<svg xmlns="http://www.w3.org/2000/svg" viewBox="0 0 507.88 507.98"><defs><style>.cls-1{fill:#6da29a;}.cls-2{fill:#e8ddc6;}</style></defs><g id="Layer_2" data-name="Layer 2"><g id="Layer_3" data-name="Layer 3"><rect class="cls-1" width="507.88" height="507.98" rx="36.33"/><path class="cls-2" d="M323.14,391.69a183.07,183.07,0,0,0,77.79-55c-2.81,2-5.6,4.07-8.42,6.08a215.18,215.18,0,0,1-89,36.87c-10.92,1.82-22,2.63-33.06,3.65a159.21,159.21,0,0,1-16.92.65,307,307,0,0,1-46.19-3.75A228.68,228.68,0,0,1,154,364.69a215.57,215.57,0,0,1-45.61-26.95,3.47,3.47,0,0,0-1.7-.81c1.27,1.49,2.49,3,3.8,4.47a186.17,186.17,0,0,0,54,41.4c6.06,3.05,12.39,5.57,18.64,8.23,1.41.6,1.78,1.11.82,2.46q-6.7,9.36-13.29,18.8a3.2,3.2,0,0,1-3.15,1.64,175.39,175.39,0,0,1-30.07-4.71,177.93,177.93,0,0,1-46.95-18.63,153.82,153.82,0,0,1-29.3-21.71c-4.38-4.16-8.34-8.77-12.51-13.16a5.36,5.36,0,0,1-1.26-4.61c.85-9.37,1.36-18.78,2.27-28.15a613.34,613.34,0,0,1,9.68-64.24,506.72,506.72,0,0,1,22.86-79.48c5.63-14.66,11.82-29.07,19.82-42.61A20.17,20.17,0,0,1,107.4,131c24.06-17.92,50.57-30.39,80.25-35.7,2.84-.51,5.73-.73,8.58-1.22a1.78,1.78,0,0,1,2.2,1.21c1,2.27,2.06,4.54,3.18,6.76.72,1.42.3,2-1.15,2.41-5.5,1.58-11,3.17-16.45,4.91a160,160,0,0,0-25.37,10.91c-15.83,8.28-29.71,19.18-42.67,31.35a5.22,5.22,0,0,0-.41.8c1.62-.83,2.89-1.45,4.13-2.12a360.26,360.26,0,0,1,42.48-20.18,238.23,238.23,0,0,1,65.09-15A310.48,310.48,0,0,1,263,114c34.4.91,67.4,8.08,98.57,22.9,9.48,4.51,18.75,9.46,28.11,14.21l2.26,1.12.29-.42-10.31-9.2c-19-17-41-28.23-65.28-35.48-3-.91-6.08-1.78-9.13-2.6-1.55-.42-1.95-1.12-1.18-2.61,1.11-2.15,2.1-4.36,3.1-6.57a2,2,0,0,1,2.36-1.28c18.68,1.74,36.15,7.53,53,15.47a225.89,225.89,0,0,1,36.62,22c3.6,2.61,5.33,6.37,7.27,10,9.16,17.21,16.4,35.24,22.7,53.68a531.2,531.2,0,0,1,19.23,74.43q5.49,29.38,8.09,59.17c.68,7.9,1.32,15.81,1.8,23.73a4.87,4.87,0,0,1-1.43,3.14c-5.9,6.08-11.57,12.44-17.93,18-15.54,13.58-33.36,23.35-52.81,30.17a182,182,0,0,1-43.05,9.61,48,48,0,0,1-5.22.37,3.16,3.16,0,0,1-2.26-.88c-4.84-6.72-9.59-13.5-14.35-20.27A4.16,4.16,0,0,1,323.14,391.69Zm-7.94-77.94c11.3-.5,19.72-6.31,25.74-15.9a43.76,43.76,0,0,0,6.5-27.39c-1-12.54-5.73-23.2-16.05-30.83a26.21,26.21,0,0,0-20-5.26c-11,1.64-18.89,8.06-23.64,17.67-8.76,17.7-7.69,34.9,4.83,50.68C298.21,309.78,305.81,313.34,315.2,313.75Zm-155-39.33c0,.51.08,1.59.17,2.66s.19,2.28.35,3.41c1.48,10.36,5.62,19.37,13.76,26.17,7.48,6.24,16,8.61,25.63,6A30.87,30.87,0,0,0,217,300.74a43.67,43.67,0,0,0,8.53-27.62c-.2-11.76-3.9-22.1-12.39-30.38-12.6-12.28-30.06-11.27-41.78,1.37C163.59,252.44,160.38,262.62,160.22,274.42Z"/></g></g></svg>