<svg xmlns="http://www.w3.org/2000/svg" xmlns:xlink="http://www.w3.org/1999/xlink" viewBox="0 0 507.88 507.98"><defs><style>.cls-1{fill:#e8ddc6;}.cls-2{clip-path:url(#clip-path);}.cls-3{clip-path:url(#clip-path-2);}.cls-4{fill:#566c84;}</style><clipPath id="clip-path"><rect class="cls-1" width="507.88" height="507.98" rx="36.33"/></clipPath><clipPath id="clip-path-2"><rect class="cls-1" width="507.88" height="507.98"/></clipPath></defs><g id="Layer_2" data-name="Layer 2"><g id="Layer_3" data-name="Layer 3"><rect class="cls-1" width="507.88" height="507.98" rx="36.33"/><g class="cls-2"><rect class="cls-1" width="507.88" height="507.98"/><g class="cls-3"><path class="cls-1" d="M0,253.46q0,110,0,220C0,493.74,14,508,34.16,508q219.75,0,439.5,0c20.16,0,34.2-14.17,34.21-34.4q0-219.3,0-438.59c0-21.15-13.93-35-35.16-35H35.22C13.75,0,0,13.83,0,35.42q0,109,0,218"/></g></g><g id="_37YGCW.tif" data-name="37YGCW.tif"><path class="cls-4" d="M237.81,434.24c-12.81-2.89-25.91-4.89-38.4-8.82C120,400.45,68,323.57,74.2,241.19,80.5,157.72,142.8,89.54,225.06,76.1,325.22,59.73,419.89,130.42,432.53,231a61.92,61.92,0,0,0,1.65,6.91V270.3a60.51,60.51,0,0,0-1.6,6c-11.85,75.14-53.95,125-125.7,149.64-11.78,4-24.41,5.59-36.64,8.29ZM93.37,253.54a160.17,160.17,0,0,0,159.44,161c89.24.46,161.4-70.78,161.75-159.67a160.6,160.6,0,1,0-321.19-1.38Z"/><path class="cls-4" d="M282.89,188.74c-32.46-3.35-63.93-2.49-95.09,5.39-30.93,7.84-58.66,22-85.15,42.78,8.26-52.83,34-91.27,79.09-116.44,2.21-1.23,5.89-1.23,8.37-.35,36.54,12.92,66.44,35.23,91,65A20.1,20.1,0,0,1,282.89,188.74Z"/><path class="cls-4" d="M225.36,319.08c32.14,3.54,63.4,2.51,94.34-5.23a217.13,217.13,0,0,0,83.7-41.62l2.4,1.34c-3.66,12.45-6.43,25.25-11.15,37.28-12.82,32.71-35,57.67-65.56,75-3.17,1.8-8.15,2.83-11.41,1.69-36.92-12.87-67.06-35.43-91.58-65.7C225.78,321.43,225.79,320.75,225.36,319.08Z"/><path class="cls-4" d="M314.92,393.63c-50.49,19.09-97,16.13-141.46-10.85a9.28,9.28,0,0,1-3.87-5.55c-7.47-39.31-2.66-77.37,12.44-116.73,13.5,30.83,30.14,57.37,52.29,80.21C256.73,363.81,283,381.15,314.92,393.63Z"/><path class="cls-4" d="M344.27,131.74c28,21.44,46.21,47.49,55.39,79.53,3.11,10.85,3.79,22.37,5.93,33.53,2.5,13.07-2.6,21.49-13.46,29.12a224.67,224.67,0,0,1-88.62,37.58,29.14,29.14,0,0,1-4.48.4,12.08,12.08,0,0,1-2.58-.71C335.12,258.16,354.2,199.91,344.27,131.74Z"/><path class="cls-4" d="M192.91,114.42c49.92-18.89,96-16.27,140.2,10a12.21,12.21,0,0,1,4.8,6.94c7.82,30.39,1.79,85-12.82,115.43C298.49,186.09,257.32,140.29,192.91,114.42Z"/><path class="cls-4" d="M162.86,375.11c-3.55-2.6-5.77-4-7.69-5.66-35.25-31.13-53.19-70.14-53-117.27,0-3,.67-7.18,2.67-8.91,30.18-26.21,65.33-41.49,107.16-47.82C172.48,249.7,153.51,307.9,162.86,375.11Z"/></g></g></g></svg>