<svg xmlns="http://www.w3.org/2000/svg" viewBox="0 0 507.88 507.98"><defs><style>.cls-1{fill:#566c84;}.cls-2{fill:#e8ddc6;}</style></defs><g id="Layer_2" data-name="Layer 2"><g id="Layer_3" data-name="Layer 3"><rect class="cls-1" width="507.88" height="507.98" rx="36.33"/><path class="cls-2" d="M211.14,263.88q73.1,0,146.18,0c10.86,0,20.78-3.84,30.34-8.68,2.35-1.19,2.48-2.47,1.24-4.74C378.82,232,378.55,213,386.86,194c2.15-4.93,5.76-9.28,9.08-13.61.63-.82,3.59-1,4.51-.29,12.46,9.87,24,20.56,29.53,36.13.27.78.61,1.53.86,2.32,2.43,7.57,2.41,7.53,10.58,6.05,16.69-3,31.94,1.14,46.18,9.66,1,.58,1.72,3.34,1.19,4.38-7.38,14.45-18,25.82-34,30.15-9.18,2.48-18.91,3.08-28.44,4-2.87.29-4.4.86-5.6,3.59-17,38.57-42,70.59-77.32,94.14a221.47,221.47,0,0,1-66.38,29.87c-30.73,8.2-62,12-93.72,9.4-40-3.25-75.34-17.24-101.71-48.87C60,335,52.44,304.48,55.29,271.16c.53-6.27,1.55-7.05,7.67-7.05H211.14Zm-68.25,41.59c-13.1-.16-22.7,8.58-23,20.95-.28,11.19,10.69,22.11,22.62,22,11-.12,22.82-8.46,22.95-21.49C165.54,317.09,157.07,304.85,142.89,305.47Z"/><path class="cls-2" d="M80.18,230.79c0-6.16.09-12.31,0-18.47-.06-3,1.1-4.17,4.09-4.16,12.48.07,25,0,37.43,0,2.91,0,4.32,1.39,4.32,4.23,0,12.64.12,25.29-.18,37.92,0,1.31-2.55,3.65-4,3.68-12.63.27-25.28.08-37.92.16-3.24,0-3.85-1.61-3.79-4.39.12-6.32,0-12.64,0-19Z"/><path class="cls-2" d="M318.87,254.15c-5.81,0-11.64-.15-17.45,0-3.58.12-5.28-1.19-5.27-4.83q.06-18.19,0-36.4c0-3.25,1.33-4.84,4.8-4.81q18.21.14,36.41,0c3.19,0,4.54,1.17,4.52,4.38q-.11,18.7,0,37.41c0,3.3-1.46,4.35-4.57,4.28C331.18,254.06,325,254.15,318.87,254.15Z"/><path class="cls-2" d="M179.69,231.09c0,6-.08,12,0,18,.06,3.45-1,5.21-4.87,5.16q-18.21-.24-36.43,0c-3.46,0-4.76-1.27-4.74-4.68.1-12.31.08-24.62,0-36.93,0-3.19,1.41-4.43,4.54-4.42,12.31,0,24.62,0,36.93-.08,3.52,0,4.57,1.83,4.5,5.06-.11,6,0,12,0,18Z"/><path class="cls-2" d="M288.28,231.17c0,6-.1,12,0,18,.08,3.51-1.05,5.08-4.89,5-12-.19-23.94-.15-35.91,0-3.89.06-5.3-1.34-5.24-5.26q.3-17.7.07-35.4c0-3.82,1.17-5.46,5.13-5.41q18,.19,35.91,0c3.82-.05,4.94,1.64,4.87,5.12-.13,6,0,12,0,18Z"/><path class="cls-2" d="M234.29,231.44c0,5.81-.17,11.62.06,17.42.15,3.77-1,5.41-5,5.34-12-.2-23.9-.17-35.85,0-3.72,0-4.9-1.42-4.85-5q.24-17.93,0-35.86c-.06-4,1.61-5.2,5.37-5.16,11.78.15,23.57.19,35.35,0,3.71-.06,5.08,1.23,5,4.89-.17,6.14,0,12.28,0,18.43Z"/><path class="cls-2" d="M242.53,120.44c0-6.14.09-12.29,0-18.43-.07-3.16,1.18-4.61,4.35-4.6q18.43.06,36.87,0c3.1,0,4.57,1.33,4.56,4.49,0,12.46.11,24.92-.17,37.38,0,1.34-2.43,3.75-3.77,3.78-12.62.3-25.25.19-37.87.19-2.93,0-4.09-1.45-4-4.39.13-6.14,0-12.29,0-18.43Z"/><path class="cls-2" d="M242.43,175.6c0-5.81.14-11.62-.06-17.43-.11-3.23,1.11-4.57,4.28-4.56q18.69.06,37.36,0c2.92,0,4.21,1.16,4.2,4.14,0,12.46,0,24.91.05,37.37,0,3-1.47,4.08-4.33,4.07q-18.69-.09-37.36,0c-3.27,0-4.37-1.62-4.34-4.66.07-6.3,0-12.6,0-18.91Z"/><path class="cls-2" d="M179.37,176.92c0,5.81-.12,11.63,0,17.43.09,3.37-1.14,4.87-4.6,4.85-12.12-.09-24.24-.13-36.36,0-3.4,0-4.78-1.18-4.73-4.65.14-11.95.21-23.91.05-35.87-.06-4,1.42-5.13,5.28-5.07,11.78.19,23.57.11,35.36,0,3.58,0,5.12,1.15,5,4.92-.22,6.14-.06,12.29-.06,18.43Z"/><path class="cls-2" d="M211.66,199.16c-6,0-12-.13-17.94.05-3.92.12-5.15-1.43-5.07-5.34q.34-17.43,0-34.89c-.07-3.83,1.05-5.42,5-5.37,12,.15,23.92.13,35.88,0,3.38,0,4.75,1,4.71,4.6q-.21,18.18.06,36.38c0,3.55-1.39,4.67-4.76,4.57-6-.16-12,0-17.94,0Z"/></g></g></svg>