<svg xmlns="http://www.w3.org/2000/svg" viewBox="0 0 507.88 507.98"><defs><style>.cls-1{fill:#334e66;}.cls-2{fill:#e8ddc6;}</style></defs><g id="Layer_2" data-name="Layer 2"><g id="Layer_3" data-name="Layer 3"><rect class="cls-1" width="507.88" height="507.98" rx="36.33"/><path class="cls-2" d="M254.92,274.26c-32.92,21-63.49,40.59-94.37,59.73-2.27,1.41-7.41.24-10.14-1.46C120.7,314,91.2,295,58.69,274.32l97-62-97-62c20.64-13.19,39.52-25.45,58.61-37.37,13.2-8.24,26.61-22,40.08-22.23,12.78-.18,25.85,14,38.64,22.09,18.4,11.68,36.66,23.58,54.95,35.44.7.45,1,1.48,2.16,3.19l-95.36,60.9Z"/><path class="cls-2" d="M253.11,274.27l97-62-96.94-62c24.74-15.82,49.08-28.84,70.36-45.72,20.1-16,35.63-15.36,55.5.18,21.15,16.53,45.11,29.45,70.09,45.38l-96.79,62.24,96.86,61.76c-16.07,10.33-30.19,19.44-44.35,28.5-15.18,9.7-30.24,19.61-45.71,28.83-3.46,2.06-9.69,3.72-12.47,2C316.07,314.7,285.89,295.18,253.11,274.27Z"/><path class="cls-2" d="M352.13,356.94c-32.95,21-63.54,40.61-94.43,59.75-2.25,1.4-7.37.19-10.09-1.51-29.73-18.59-59.24-37.51-89.7-56.92,2-2.36,3-4.46,4.75-5.56,27.92-17.95,55.8-36,84.08-53.35,3.46-2.13,10.32-2.52,13.63-.49C290.24,317.19,319.68,336.25,352.13,356.94Z"/></g></g></svg>