<svg xmlns="http://www.w3.org/2000/svg" viewBox="0 0 507.88 507.98"><defs><style>.cls-1{fill:#334e66;}.cls-2{fill:#d69f49;}</style></defs><g id="Layer_2" data-name="Layer 2"><g id="Layer_3" data-name="Layer 3"><rect class="cls-1" width="507.88" height="507.98" rx="36.33"/><path class="cls-2" d="M414.91,415.32,319.28,352.7c2.66,4.4,5.57,8.44,7.69,12.85,6,12.55,6.84,25.73,3.61,39.17-1.74,7.23-3.17,14.45-3,22,.44,15.57,9.27,27,24.32,31.09.75.21,1.49.48,2.77.89a27.2,27.2,0,0,1-12.38,4.06c-22.75,1.56-42.29-16.54-42.94-39.35-.56-19.9-7.52-37.59-19.38-53.45a11.4,11.4,0,0,1-.93-2l-1.1.63Q266.15,425.28,254.32,482l-.68,0Q242,426.32,230.41,370.66l-.57,0c-.21,1.45-.37,2.9-.63,4.34-3.2,17.55-12.94,30.58-27.92,39.83-7.35,4.53-14.52,9.24-19.84,16.2-8.74,11.42-9.43,23.46-2.55,36,.42.76.8,1.55,1.57,3-2.06-.74-3.5-1.14-4.83-1.77-12.11-5.8-18.15-16-20-28.8s1.72-24.13,10.83-33.83c13.26-14.13,20.79-31.16,23.71-50.26a30.61,30.61,0,0,0,0-3.69L93,415.35l-.53-.46,62.72-95.7a10.88,10.88,0,0,0-1.58.74c-15.27,11.88-32.32,14.74-51,10.58a102.29,102.29,0,0,0-20.32-2.82c-16.71-.3-28.26,9-32.5,25.17-.1.41-.3.8-.63,1.66A26.38,26.38,0,0,1,45,341.25c-1.35-20,15.46-39.76,35.42-41.47,9.84-.84,19.62-1.59,29.06-4.83a99.83,99.83,0,0,0,29.09-15.44,5.64,5.64,0,0,1,1.27-.57l-.37-1L25.8,254.22l-.08-.65,111.33-23.19c-5.4-1.57-11.08-2.77-16.41-4.88-12.6-5-21.66-14.15-28.52-25.64-3.63-6.08-7.67-11.82-13-16.55-11.7-10.31-25-11.81-38.58-4.22-.68.37-1.38.71-2.54,1.32a26.07,26.07,0,0,1,5.48-11.22c6.81-8.43,15.84-12.71,26.46-13.72,12.8-1.23,23.63,2.74,33.13,11.64,14.45,13.53,32,20.77,51.55,23.31a14.94,14.94,0,0,0,1.69-.08L92.41,92.84l.42-.49,95.84,62.75a17.63,17.63,0,0,0-1-1.91c-11.42-14.61-14.24-31.06-10.6-48.94a160.7,160.7,0,0,0,3-17.33c1.77-19.07-7.67-33-25.36-37.13-.35-.08-.68-.2-1.43-.43a22.37,22.37,0,0,1,10.93-4c22.11-2.91,43.5,15.77,44.15,38.1.59,20.43,7.42,38.73,19.89,54.92.33.42.7.81,1.52,1.76,8-38.35,15.9-76.2,23.8-114l.74,0c7.79,37.33,15.58,74.67,23.43,112.32.82-4.05,1.32-7.82,2.36-11.43,4.24-14.8,13.45-25.82,26.43-33.81,6.41-3.94,12.6-8.11,17.78-13.68,10.16-10.93,12.07-24.66,5.09-37.8-.5-.94-1-1.9-1.81-3.5a26.24,26.24,0,0,1,3.19.85c12.14,5,18.58,14.63,21.07,27,2.24,11.09.55,21.67-6.12,31-2.61,3.67-6,6.79-8.77,10.34a93.52,93.52,0,0,0-19.44,46.47,13.7,13.7,0,0,0,.17,2.32l97.07-63.58.58.54L353,188.29a7.58,7.58,0,0,0,1.52-.54c15.49-12,32.76-14.53,51.57-10.19a95.34,95.34,0,0,0,20.34,2.67c10.31.09,19.43-3.61,25.61-12.34,2.36-3.33,3.75-7.36,5.52-11.1a34.84,34.84,0,0,0,1.17-3.62,29.24,29.24,0,0,1,4.09,13.05c.81,13.3-4.68,23.87-14.28,32.59-7.69,7-16.94,9.45-27.15,9.88-19.51.82-36.75,8-52.14,19.81-.28.21-.52.48-1.35,1.26l114.23,23.8,0,.66L369.58,277.69c4.25.9,8.12,1.45,11.84,2.54,15.18,4.44,26.24,14.12,34.18,27.58,4.21,7.14,9,13.77,15.67,18.87,10.84,8.27,23.76,9.17,35.6,2.46.83-.47,1.68-.9,3.12-1.65A29.74,29.74,0,0,1,461.48,342c-14.41,13.81-40.57,14.34-55.5-.28-14.56-14.25-32.62-21.78-52.77-24.33a7.2,7.2,0,0,0-1.45.18l63.68,97.18Z"/></g></g></svg>