<svg xmlns="http://www.w3.org/2000/svg" xmlns:xlink="http://www.w3.org/1999/xlink" viewBox="0 0 507.88 507.98"><defs><style>.cls-1{fill:#80a175;}.cls-2{clip-path:url(#clip-path);}.cls-3{clip-path:url(#clip-path-2);}.cls-4{fill:#e8ddc6;}</style><clipPath id="clip-path"><rect class="cls-1" width="507.88" height="507.98" rx="36.33"/></clipPath><clipPath id="clip-path-2"><rect class="cls-1" width="507.88" height="507.98"/></clipPath></defs><g id="Layer_2" data-name="Layer 2"><g id="Layer_3" data-name="Layer 3"><rect class="cls-1" width="507.88" height="507.98" rx="36.33"/><g class="cls-2"><rect class="cls-1" width="507.88" height="507.98"/><g class="cls-3"><path class="cls-1" d="M0,253.46q0,110,0,220C0,493.74,14,508,34.16,508q219.75,0,439.5,0c20.16,0,34.2-14.17,34.21-34.4q0-219.3,0-438.59c0-21.15-13.93-35-35.16-35H35.22C13.75,0,0,13.83,0,35.42q0,109,0,218"/></g></g><path class="cls-4" d="M286.53,441.24c-14.31-2.78-27.4-5.32-40.48-7.89-55-10.8-110-21.68-165-32.29-5.28-1-7.24-3-7.23-8.39q.16-139.6,0-279.21c0-5.1,1.34-7.65,6.91-8.68q99.35-18.52,198.63-37.47c2-.37,4-.34,7.14-.57,0,3.74-.09,7.05,0,10.36.39,12.14.85,24.29,1.28,36.43,12.18.37,24.36,1,36.54,1,31.33.16,62.66,0,94,.07,12.46,0,15.68,3.22,15.68,15.76q0,125,0,249.93c0,13.19-3.16,16.23-16.64,16.23q-60.94,0-121.9,0c-8.92,0-8.94,0-9,9.15C286.51,417.05,286.53,428.37,286.53,441.24ZM423,255q0-60.61.05-121.24c0-4.9-.45-8.2-6.77-8.18-41.1.19-82.19.13-123.29.06-4.51,0-6.78,1.46-6.5,6.3a109.37,109.37,0,0,1,0,12.93c-.31,4.94,1.55,7,6.64,6.81,7.48-.28,15,.08,22.47-.09,4.68-.11,6.58,1.91,6.46,6.51-.16,6.13-.2,12.27,0,18.39.16,4.71-1.87,6.53-6.47,6.43-7.72-.15-15.44.13-23.16-.05-5-.12-5.95,2.51-6,6.83-.05,4.53,1.38,6.75,6.2,6.63,7.49-.18,15,.13,22.48-.07,4.81-.12,7.18,1.51,6.95,6.66-.26,5.89-.27,11.81,0,17.7.24,5.46-2.26,7.18-7.38,7-7.26-.24-14.53.12-21.79-.11-4.63-.14-6.5,1.52-6.47,6.3,0,4.57,1.47,6.63,6.29,6.49,7.71-.23,15.44,0,23.15-.05,4.29-.05,6.24,1.8,6.15,6.13-.11,6.13-.2,12.27.05,18.39.2,5-1.85,7-6.8,6.84-7.71-.19-15.44.1-23.15,0-5.26-.1-5.63,3.06-5.66,7.13s1.27,6.37,5.82,6.28c7.72-.15,15.44.09,23.16,0,4.52-.07,6.73,1.65,6.6,6.39q-.26,9.18,0,18.39c.13,4.6-1.79,6.6-6.46,6.51-7.94-.15-15.89.08-23.83,0-4.38-.06-5.27,2.34-5.26,6.07s.49,6.77,5.38,6.65c6.13-.14,12.26,0,18.39,0C322,329,322,329,322,340.49c0,20.39,0,20.31-20.62,20.42-16.87.09-14.73-2.09-14.86,14.84-.07,9.08,0,9.13,9,9.13q58.92,0,117.83,0c9.53,0,9.57,0,9.57-9.34Q423,315.26,423,255ZM224.27,324.89c-1.79-4.07-2.71-6.33-3.77-8.52-9.22-19-18.3-38.05-27.82-56.89-2.64-5.24-2.53-9.47.09-14.65,9-17.8,17.67-35.82,26.41-53.78,1.15-2.37,2-4.85,3.28-7.79-9,0-17.07-.35-25.1.26-1.86.15-4.09,3.29-5.11,5.53-5,10.94-9.62,22-14.38,33.09-1.54,3.57-3.12,7.12-5.37,12.26-5.92-15.47-11-29-16.36-42.51-.84-2.12-2.78-5.44-4.22-5.44-8.48,0-17,.8-26.56,1.4,2.11,5,3.48,8.53,5.1,12,7.48,15.79,14.88,31.63,22.64,47.29,2.15,4.34,2,7.86-.15,12.09-8.91,17.37-17.55,34.87-26.24,52.35-1,2.11-1.81,4.36-2.69,6.51a10.31,10.31,0,0,0,2,.91c4.74.43,9.49.82,14.23,1.21,11.06.89,11.06.88,15.43-9.58,2.45-5.86,4.86-11.74,7.35-17.59,2.7-6.35,5.45-12.67,8.84-20.53,1.58,3.67,2.51,5.65,3.3,7.68,4.82,12.5,9.5,25,14.49,37.47.83,2.06,2.82,5,4.53,5.15C203.64,323.85,213.12,324.19,224.27,324.89Z"/><path class="cls-4" d="M364.85,360.84c-7.25,0-14.49-.06-21.73,0-4.27.05-6.21-1.86-6.14-6.15q.15-9.84,0-19.69c-.06-4.32,2-6.11,6.2-6.09q22.07.1,44.14,0c3.95,0,5.82,1.83,5.79,5.78q-.08,10.19,0,20.37c0,4-1.95,5.75-5.85,5.73C379.79,360.81,372.32,360.84,364.85,360.84Z"/><path class="cls-4" d="M364.69,316.19c-7,0-14-.13-21,.05-4.44.11-6.83-1.32-6.7-6.17.19-6.55.1-13.12.06-19.68,0-3.64,1.61-5.41,5.31-5.4q22.76.06,45.49,0c3.73,0,5.32,1.83,5.3,5.43,0,6.79-.05,13.58,0,20.37,0,4.17-2.21,5.47-6,5.42C379.63,316.11,372.16,316.18,364.69,316.19Z"/><path class="cls-4" d="M364.68,182.86c-7,0-14.07-.12-21.1,0-4.49.1-6.78-1.48-6.63-6.28.19-6.12.13-12.26,0-18.38-.09-4.43,1.52-6.71,6.33-6.67,14.52.14,29,.11,43.56,0,4.26,0,6.31,1.71,6.26,6-.06,6.35-.14,12.71,0,19.06.14,4.84-2.27,6.31-6.7,6.22C379.2,182.75,371.94,182.86,364.68,182.86Z"/><path class="cls-4" d="M365.54,196.32c7.26,0,14.52.07,21.78,0,3.95-.05,5.86,1.65,5.81,5.68q-.12,9.87,0,19.73c0,4.43-2.29,5.89-6.43,5.87q-21.78-.15-43.56,0c-4.35,0-6.19-1.9-6.13-6.15.08-6.35.11-12.7,0-19-.1-4.33,1.79-6.17,6.11-6.09C350.56,196.41,358.05,196.31,365.54,196.32Z"/><path class="cls-4" d="M364.62,271.55c-7,0-14.06-.11-21.09,0-4.52.1-6.72-1.62-6.58-6.37.19-6.11.14-12.24,0-18.36-.09-4.5,1.67-6.67,6.4-6.63,14.52.12,29,.1,43.55,0,4.28,0,6.26,1.81,6.22,6.09-.07,6.13-.16,12.26.05,18.37.17,4.91-1.8,7-6.78,6.89C379.14,271.4,371.88,271.55,364.62,271.55Z"/></g></g></svg>