<svg xmlns="http://www.w3.org/2000/svg" xmlns:xlink="http://www.w3.org/1999/xlink" viewBox="0 0 507.88 507.98"><defs><style>.cls-1{fill:#e8ddc6;}.cls-2{clip-path:url(#clip-path);}.cls-3{clip-path:url(#clip-path-2);}.cls-4{fill:#c5c162;}.cls-5{fill:#e95556;}.cls-6{fill:#8381a8;}.cls-7{fill:#f27252;}.cls-8{fill:#6d9ca0;}.cls-9{fill:#a0c173;}</style><clipPath id="clip-path"><rect class="cls-1" width="507.88" height="507.98" rx="36.33"/></clipPath><clipPath id="clip-path-2"><rect class="cls-1" width="507.88" height="507.98"/></clipPath></defs><g id="Layer_2" data-name="Layer 2"><g id="Layer_1-2" data-name="Layer 1"><rect class="cls-1" width="507.88" height="507.98" rx="36.33"/><g class="cls-2"><rect class="cls-1" width="507.88" height="507.98"/><g class="cls-3"><path class="cls-1" d="M0,253.46q0,110,0,220C0,493.74,14,508,34.16,508q219.75,0,439.5,0c20.16,0,34.2-14.17,34.21-34.4q0-219.3,0-438.59c0-21.15-13.93-35-35.16-35H35.22C13.75,0,0,13.83,0,35.42q0,109,0,218"/></g></g><path class="cls-4" d="M67.33,237c2.84-23.76,9.88-45.7,24.83-65.06a120.8,120.8,0,0,1,48.78-38c7.82-3.35,16.61-4.48,25-6.44,3.09-.72,6.39-1.61,9.44-1.23,10.06,1.23,20.23,2.26,30,4.76,13.19,3.38,25.93,8.53,39.1,12,12.27,3.23,24.58,2.3,36.66-2.22,10.56-3.95,21.3-7.49,32.11-10.73,4.88-1.47,10.11-1.84,15.19-2.61,3.55-.53,7.14-1.33,10.69-1.26,24.57.51,46.55,8.26,65.46,24.13,5.05,4.23,9.84,8.79,14.58,13.38a80,80,0,0,1,5.61,6.71c-5.77,4.21-11.11,8.18-16.52,12.05-8.75,6.28-14.66,15-20.13,24-5.72,9.37-9.08,19.72-11,30.52H267.5Z"/><path class="cls-5" d="M84.62,347.28c-2.24-5.63-5-11.12-6.62-16.93-3.22-11.57-5.84-23.32-8.62-35a18,18,0,0,1,0-4.16c1.69,0,3.38,0,5.08,0H383.9c10.92,23.94,28.45,40.95,53.65,50.93-.79,1.64-1.58,3.32-2.38,5l-344.64,0C88.56,347.09,86.59,347.21,84.62,347.28Z"/><path class="cls-6" d="M84.62,347.28c2-.07,3.94-.19,5.91-.19l344.64,0a275.75,275.75,0,0,1-30.86,55.15c-1.69,0-3.38-.07-5.08-.07H119c-1.83,0-3.66.06-5.5.09C109.6,396.49,105.22,391,102,385c-5.87-11.17-11.06-22.69-16.47-34.1A19,19,0,0,1,84.62,347.28Z"/><path class="cls-7" d="M383.9,291.13H74.41c-1.7,0-3.39,0-5.08,0-.73-3.35-2-6.68-2.09-10C67,268.55,67.1,256,67.1,243.36c0-2.11.15-4.22.23-6.34L267.5,237H377.11c-.9,7.87-2.73,15.67-.76,23.68,2.27,9.24,4.25,18.55,6.41,27.82A15.63,15.63,0,0,0,383.9,291.13Z"/><path class="cls-8" d="M113.45,402.22c1.84,0,3.67-.09,5.5-.09H399.23c1.7,0,3.39,0,5.08.07-5.56,7.66-10.66,15.73-16.82,22.88-7.82,9.1-16.2,17.79-26.65,24.08-12.28,7.38-25.36,11.18-39.54,7.19-7.86-2.22-15.28-5.94-23.06-8.53a219.09,219.09,0,0,0-24-6.85,86.49,86.49,0,0,0-17.93-1.32c-12,.06-23.32,3.25-34.34,7.85-7.71,3.21-15.41,6.67-23.44,8.83-15.46,4.18-29.89.39-43.14-8-15.46-9.76-26.61-23.84-37.18-38.39C116.44,407.53,115,404.81,113.45,402.22Z"/><path class="cls-9" d="M244.3,117.84c.32-17.07,5.95-32.33,15-46.69a97.4,97.4,0,0,1,31-30.7C302.22,33,314.93,27.39,329.14,26c3.67-.37,4.87,1,4.93,4.73.16,11.83-.45,23.53-4.61,34.73a112.71,112.71,0,0,1-17.09,31.07,90.29,90.29,0,0,1-43.26,30.37c-6.64,2.2-14,2.32-21,3.25-2.68.36-3.85-1.19-3.81-3.8C244.33,123.49,244.3,120.66,244.3,117.84Z"/><path class="cls-9" d="M85.49,181.59l322.77.87,16.52-12.05s-31.52-42.12-76.34-44.25-46.91,9.58-74.64,16.92-59.52-9.54-59.52-9.54-32.11-14.09-62.95-3.38S104.22,153,85.49,181.59Z"/></g></g></svg>