<svg xmlns="http://www.w3.org/2000/svg" xmlns:xlink="http://www.w3.org/1999/xlink" viewBox="0 0 507.88 507.98"><defs><style>.cls-1{fill:#e8ddc6;}.cls-2{clip-path:url(#clip-path);}.cls-3{clip-path:url(#clip-path-2);}.cls-4{fill:#859667;}.cls-5{fill:#80a175;}.cls-6{fill:#a0c173;}.cls-7{fill:#66c6ba;}</style><clipPath id="clip-path"><rect class="cls-1" width="507.88" height="507.98" rx="36.33"/></clipPath><clipPath id="clip-path-2"><rect class="cls-1" width="507.88" height="507.98"/></clipPath></defs><g id="Layer_2" data-name="Layer 2"><g id="Layer_3" data-name="Layer 3"><rect class="cls-1" width="507.88" height="507.98" rx="36.33"/><g class="cls-2"><rect class="cls-1" width="507.88" height="507.98"/><g class="cls-3"><path class="cls-1" d="M0,253.46q0,110,0,220C0,493.74,14,508,34.16,508q219.75,0,439.5,0c20.16,0,34.2-14.17,34.21-34.4q0-219.3,0-438.59c0-21.15-13.93-35-35.16-35H35.22C13.75,0,0,13.83,0,35.42q0,109,0,218"/></g></g><circle class="cls-4" cx="253.94" cy="253.99" r="211.87"/><circle class="cls-5" cx="253.94" cy="253.99" r="165.41"/><circle class="cls-6" cx="253.94" cy="253.99" r="125.86"/><circle class="cls-1" cx="253.94" cy="253.99" r="61.66"/><path class="cls-7" d="M253.12,251.46,192,51.31s61.06-19.39,123.57,0Z"/></g></g></svg>