<svg xmlns="http://www.w3.org/2000/svg" xmlns:xlink="http://www.w3.org/1999/xlink" viewBox="0 0 507.88 507.98"><defs><style>.cls-1{fill:#bcbcbc;}.cls-2{clip-path:url(#clip-path);}.cls-3{clip-path:url(#clip-path-2);}.cls-4{fill:#6b6b6b;}</style><clipPath id="clip-path"><rect class="cls-1" width="507.88" height="507.98" rx="36.33"/></clipPath><clipPath id="clip-path-2"><rect class="cls-1" width="507.88" height="507.98"/></clipPath></defs><g id="Layer_2" data-name="Layer 2"><g id="Layer_3" data-name="Layer 3"><rect class="cls-1" width="507.88" height="507.98" rx="36.33"/><g class="cls-2"><rect class="cls-1" width="507.88" height="507.98"/><g class="cls-3"><path class="cls-1" d="M0,253.46q0,110,0,220C0,493.74,14,508,34.16,508q219.75,0,439.5,0c20.16,0,34.2-14.17,34.21-34.4q0-219.3,0-438.59c0-21.15-13.93-35-35.16-35H35.22C13.75,0,0,13.83,0,35.42q0,109,0,218"/></g></g><path class="cls-4" d="M157.53,253.07q0-87,0-174.08c0-6.46,0-6.46-6.64-6.46H107.67c-2.12,0-4.54.1-4.06-3a5.06,5.06,0,0,1,2.56-3c.89-.5,2.26-.15,3.42-.15H397.91c6.41,0,6.42,0,6.42,6.27q0,39.38,0,78.74c0,4.08-1.24,5.39-4.59,4.3-1.21-.39-2.38-2.14-2.83-3.51-6.08-18.79-14.64-36.28-27.46-51.42C357,86.12,341.81,75.83,322.35,73a78.34,78.34,0,0,0-11.16-.52q-29.15,0-58.28.22c-11.7.09-23.4.43-35.1.49-3,0-4.06,1.21-4.06,4.13.07,30.36,0,60.73.12,91.09.07,22.77.34,45.53.52,68.29,0,5.73,0,5.78,5.84,5.8,12,0,23.94-.36,35.89.16,22.17,1,38.21-9.19,50.31-26.77,9.7-14.08,15.43-29.87,19.29-46.41a8.74,8.74,0,0,1,1-3.28,3.61,3.61,0,0,1,2.78-1.32c.84.1,1.78,1.15,2.23,2a6.13,6.13,0,0,1,.15,2.66q0,77.58-.1,155.16c0,1.64-.75,4.19-1.88,4.71-2.69,1.21-3.92-.71-4.71-3.35-2.75-9.23-5.29-18.57-8.76-27.53-4.43-11.45-10.52-22.09-19.23-30.95-9.91-10.07-21.62-15.72-36.15-15.31-14.15.39-28.31.19-42.46,0-3.71,0-4.89,1.22-4.88,4.9q.13,85.88.09,171.76c0,4.83.24,5.06,5,5.06,16.72,0,33.45.07,50.17,0,3.48,0,4.93,1.41,4.16,4.57-.29,1.18-1.88,2.11-3,3-.42.31-1.25.07-1.9.07q-78.74,0-157.48,0c-2,0-4.6.86-5-2.58-.46-3.78.4-4.95,4.26-5,14,0,28,0,42.06,0,5.48,0,5.53-.05,5.53-5.67Z"/></g></g></svg>