<svg xmlns="http://www.w3.org/2000/svg" xmlns:xlink="http://www.w3.org/1999/xlink" viewBox="0 0 507.88 507.98"><defs><style>.cls-1{fill:#c45350;}.cls-2{clip-path:url(#clip-path);}.cls-3{clip-path:url(#clip-path-2);}.cls-4{fill:#e8ddc6;}</style><clipPath id="clip-path"><rect class="cls-1" width="507.88" height="507.98" rx="36.33"/></clipPath><clipPath id="clip-path-2"><rect class="cls-1" width="507.88" height="507.98"/></clipPath></defs><g id="Layer_2" data-name="Layer 2"><g id="Layer_3" data-name="Layer 3"><rect class="cls-1" width="507.88" height="507.98" rx="36.33"/><g class="cls-2"><rect class="cls-1" width="507.88" height="507.98"/><g class="cls-3"><path class="cls-1" d="M0,253.46q0,110,0,220C0,493.74,14,508,34.16,508q219.75,0,439.5,0c20.16,0,34.2-14.17,34.21-34.4q0-219.3,0-438.59c0-21.15-13.93-35-35.16-35H35.22C13.75,0,0,13.83,0,35.42q0,109,0,218"/></g></g><path class="cls-4" d="M438.7,89.54c-1.23-1.37-2.48-2.75-4-4.5-1,1.21-1.92,2.13-2.65,3.17-3.59,5.16-7.25,10.27-10.64,15.55-2,3.16-3.44,6.37-8.13,3-.88-.64-4.35,1.17-5.81,2.66-16.75,17.09-33.33,34.35-50,51.55q-42.41,43.88-84.8,87.76a42.47,42.47,0,0,0-5.47,7c-3.32,5.38-2.45,10.67,1.34,15.42s8.85,7,15.1,5.28c1.88-.51,3.75-1,5.65-1.46,10.82-2.44,19.48,5.3,17.24,16.25-2.82,13.82-11.36,23.48-24.36,28.94-5.51,2.32-11.25,4.08-16.84,6.2-10.74,4.08-15.95,12.05-16.29,23.41-.23,7.76.15,15.62-.85,23.29-4,30.26-17.47,54.27-47.47,65.17-22.33,8.12-45.18,7.68-66.75-3.15C100,418,75.31,392.31,64.32,355.33c-10-33.72,7.31-74.42,37.24-89.69,13.1-6.68,27.2-8.88,41.73-9,5.08,0,10.18.23,15.25,0,13.37-.7,20.24-6.1,23.94-18.95,2.64-9.14,5.66-18.24,12.33-25.13,4.46-4.61,10.22-8,15.62-11.64,1.63-1.09,4-1.34,6-1.57,13-1.42,19,6.51,14,18.54-.4,1-.86,1.91-1.2,2.9a13,13,0,0,0,4.94,15.05c4.54,2.91,9.55,2.26,14.26-2.23,11.15-10.63,22.2-21.35,33.28-32.06q54.69-52.83,109.36-105.71c4-3.87,9-7.22,8.29-14.06-.08-.73,1.61-2,2.71-2.45,13.09-5.12,26.2-10.19,39.39-15,1.13-.42,3.7.35,4.17,1.29C448.23,70.71,443.87,85.49,438.7,89.54ZM201.75,399.16c3.22-6.56,5.15-13.86,9.64-18.85,6.38-7.08,11.61-14.17,13.35-23.67.18-1,2.4-1.83,3.81-2.44,2.63-1.12,5.86-1.39,7.93-3.12,5.86-4.88,8.66-11.69,10.06-19.06,3-15.89,8-30.92,18.39-43.77,3.6-4.44,3-8.91-1.34-13.32-10.23-10.48-20.69-20.75-30.95-31.21-2.14-2.18-3.61-1.81-5.52.19-3.72,3.89-7.48,7.75-11.45,11.37-2.68,2.45-2.35,4.17.11,6.55,6.68,6.42,13.09,13.13,19.74,19.58,2.25,2.18,2.21,3.79,0,5.91-5,4.74-9.92,9.54-14.66,14.52-2.35,2.49-3.94,2.2-6.2-.12-6.57-6.74-13.4-13.24-20-20-2-2.08-3.56-2.08-5.55,0-3.71,3.9-7.44,7.8-11.45,11.38-2.8,2.51-2.22,4.16.19,6.48,6,5.81,11.88,11.8,17.72,17.8,9.26,9.51,19.55,18.17,25.88,30.16.83,1.57,1.3,4.39.46,5.57-3.26,4.53-7.13,8.62-10.73,12.92a14,14,0,0,0-2.67,3.72c-1.79,4.89-3.26,9.88-5,14.79-1.63,4.65-3.65,9.17-5,13.89a10.49,10.49,0,0,0,.42,6.48c.48,1.13,2.87,2.1,4.31,2a4.85,4.85,0,0,0,3.45-2.85c.25-.8-1.56-2.3-2.53-3.42A13.77,13.77,0,0,0,201.75,399.16Zm-11.11-50.29a20,20,0,0,0-2.13-3.46Q173.23,330,157.87,314.62c-2.44-2.45-4.46-1.46-6.51.58s-2.3,4.05-.17,6.19c10.23,10.25,20.4,20.55,30.73,30.7.94.91,3.22,1.53,4.26,1C187.89,352.29,189.1,350.43,190.64,348.87Zm-86.83-49.2a9.67,9.67,0,0,0-1.25-2.28c-1-.93-2.23-2.47-3.16-2.34-1.14.17-2.46,1.62-3,2.82-1.44,3.17.83,6.36,4.89,5.82,5.4-.72,10.66-2.57,16-4,5.57-1.54,11.12-3.12,16.64-4.82A6.14,6.14,0,0,0,137,292.8c5.85-8.43,14.49-12.19,24-14.28,1.46-.32,3.27,1.08,4.94,1.59,1,.32,2.71,1,3,.6.73-.89,1.47-3,1-3.39-1.33-1.35-3.26-3.06-4.88-3-3.51.15-7,1.22-10.45,2.1-6.47,1.66-12.93,3.35-19.33,5.25a8.06,8.06,0,0,0-3.79,2.71C124.51,293.5,114.12,296.27,103.81,299.67Z"/><path class="cls-4" d="M257.39,275.36a49,49,0,0,0-5.75,3.93c-7,6.4-5.07,6.57-11.91-.2-6.06-6-12-12.13-18.09-18.08-2.09-2-2-3.43,0-5.53,8.1-8.59,8-8.65,16.29-.39,5.28,5.29,10.59,10.56,15.85,15.87C254.68,271.88,255.43,273,257.39,275.36Z"/><path class="cls-4" d="M219,312.46c-3.6,3.31-6.52,6.27-9.79,8.81-.79.61-3.2.33-4-.44-7.5-7.25-14.81-14.7-22.17-22.1-.21-.21-.53-.41-.59-.66-1.35-5.58,4.5-6.45,6.55-9.82,1-1.62,2.62-3,4.74-.91C201.86,295.45,210,303.52,219,312.46Z"/></g></g></svg>