<svg xmlns="http://www.w3.org/2000/svg" viewBox="0 0 767.2 937.68"><defs><style>.cls-1{fill:#a5a29f;}.cls-2{fill:#6b6b6b;}.cls-3{fill:#514f4b;}.cls-4{fill:#66c6ba;}.cls-5{fill:#e8ddc6;}</style></defs><g id="Layer_2" data-name="Layer 2"><g id="Layer_3" data-name="Layer 3"><path class="cls-1" d="M.18,691.62c0-4.5-.11-9-.11-13.48q0-295.42,0-590.85C0,63.74,7.48,43.06,23.78,26.21,39.47,10,58.85.28,81.78.23Q234.09-.12,386.39.1C484.77.1,583.14.32,681.52,0a85.65,85.65,0,0,1,84.35,70,81.17,81.17,0,0,1,1.25,14.86q.12,301.15.08,602.33c0,1.17-.11,2.33-.17,3.49a6.28,6.28,0,0,0-.77,1.75c-2.28,18.66-9.7,35-23,48.26-5.77,5.77-12.66,10.43-19,15.59-19,10.06-39.46,11.38-60.49,11.22-50.76-.41-101.52-.09-152.28-.07q-208.74,0-417.48-.11a138.53,138.53,0,0,1-23.72-1.92c-26.88-4.71-47.22-19.23-59.7-43.42C5.72,712.56,3.57,701.77.18,691.62Z"/><path class="cls-2" d="M.18,691.62C3.57,701.77,5.72,712.56,10.57,722c12.48,24.19,32.82,38.71,59.7,43.42A138.53,138.53,0,0,0,94,767.3q208.74.19,417.48.11V888.3c0,7,0,7-7,7q-190.77,0-381.55,0c-14.45,0-28.92-.15-43.33-1C48.18,892.35,25,876.89,10.36,849.36,5.5,840.17,3.51,829.47.21,819.46q-.06-41-.13-81.9C.07,722.25.15,706.93.18,691.62Z"/><path class="cls-3" d="M.21,819.46c3.3,10,5.29,20.71,10.15,29.9,14.59,27.53,37.82,43,69.24,44.86,14.41.86,28.88,1,43.33,1q190.77.1,381.55,0c7,0,7,0,7-7V767.41c50.76,0,101.52-.34,152.28.07,21,.16,41.49-1.16,60.49-11.22V883c10.87-4.47,26.19-19.06,31.83-31.84,4.49-10.2,7.37-21.1,11-31.69-.26,14.75.64,29.64-1,44.24-4.09,36-31.6,65.5-68.91,72.39a105.88,105.88,0,0,1-19.27,1.3c-196.19.07-392.38-.24-588.57.29-41.22.12-74-24.8-85.58-60.42A78.63,78.63,0,0,1,.25,856.39C-.27,844.1.17,831.77.21,819.46ZM554.45,852H681.79V810H554.45Z"/><path class="cls-2" d="M767,819.46c-3.59,10.59-6.47,21.49-11,31.69-5.64,12.78-21,27.37-31.83,31.84V756.26c6.38-5.16,13.27-9.82,19-15.59,13.28-13.28,20.7-29.6,23-48.26a6.28,6.28,0,0,1,.77-1.75Z"/><path class="cls-4" d="M554.45,852V810H681.79V852Z"/><path class="cls-5" d="M195.46,423.86c-6.64-11.19-12.71-21.38-18.75-31.61-9.06-15.38-18.18-30.73-27.06-46.22-1.28-2.22-2.73-6.12-1.72-7.47,1.39-1.87,5-2.6,7.73-2.86,4.66-.43,9.39-.1,14.09-.12,7,0,8.41-1,10-7.91a173,173,0,0,1,22.25-53c15.72-25.15,36.55-45.2,61.32-61.23C294.64,193.12,329.07,181.21,366,177c47.06-5.42,92.37,1.16,135.62,21,23.88,11,45.43,25.37,63.93,43.93C594.36,270.79,613.1,305.16,618.2,346c5.44,43.54-4.91,83.53-30.37,119.12-35.38,49.45-84.58,77.19-143.67,88-47.8,8.74-94.53,4.07-139.77-13.83a225.18,225.18,0,0,1-64.08-38.67c-9.68-8.29-11.78-19.39-5.23-28.17,7.66-10.26,22.61-13.25,33.21-6.3,4.57,3,8.55,6.85,13,10.1,29.59,21.88,62.81,34,99.46,37.06,36.42,3.08,71.41-2.4,104.11-18.65,46-22.87,78.46-57.65,88.08-109.62,7.68-41.42-3.64-78.68-30.2-110.94C511.47,236.2,470.08,216.56,422,210.2c-40.41-5.35-79.08,1.15-115.38,19.55-35.25,17.86-62.09,44.17-77.17,81.33a131.11,131.11,0,0,0-5.39,17c-1.29,5.09.71,7.36,6,7.47,5.64.11,11.3-.23,16.91.15,2.58.18,5.88.95,7.3,2.71.86,1-.75,4.9-2.14,6.86-15.2,21.28-30.57,42.44-45.89,63.64C202.87,413.58,199.51,418.25,195.46,423.86Z"/><path class="cls-5" d="M459.22,425.46c-2.77-1.57-5.91-2.73-8.26-4.78-17.1-14.92-34-30-51-45.07-3.3-2.92-6.51-5.41-11.34-5.86-8.76-.8-17.42-12.21-8-21.69,1.57-1.58,2-4.83,2-7.32.13-32.89.08-65.77.11-98.66,0-6.76,3.12-9.64,9.5-9,5.12.48,7.3,3.08,7.36,8.92q.45,49.08.82,98.16c0,3.45.57,6.26,3.31,8.78a9.74,9.74,0,0,1,3,6.12c.14,4.38,2.69,6.63,5.62,9.17q26.61,23.06,53,46.35c2.57,2.26,4.31,5.07,2.86,8.74C466.7,423.12,463.67,424.66,459.22,425.46Z"/></g></g></svg>