<svg xmlns="http://www.w3.org/2000/svg" viewBox="0 0 927.32 927.32"><defs><style>.cls-1{fill:#566c84;}.cls-2{fill:#66c6ba;}</style></defs><g id="Layer_2" data-name="Layer 2"><g id="Layer_3" data-name="Layer 3"><circle class="cls-1" cx="463.66" cy="463.66" r="463.66"/><path class="cls-2" d="M261.46,434.5c10.85,2.33,21.14,4.54,31.43,6.73,39.36,8.39,78.72,16.71,118,25.25,4.06.88,5.86.14,7.53-3.82a76.65,76.65,0,0,1,8.07-13.78c1.53-2.19,1.7-3.33-.3-5.21q-47-44-93.74-88.22c-2.42-2.28-3.87-2-6.37-.22-24.5,17.33-57.87,4.48-63.74-24.84-3.25-16.27,1.95-30.19,15.28-40.33,13-9.91,27.53-11.35,42.18-4.3s22.4,19.21,23.07,35.6a37.55,37.55,0,0,1-6.6,23.15c-1.49,2.2-1.26,3.61.63,5.39q33.71,31.62,67.31,63.35c8.4,7.91,16.83,15.8,25.07,23.87,2.94,2.88,5,3.26,8.94.95,6.46-3.81,13.67-6.36,20.59-9.38a38.21,38.21,0,0,1,4.3-1.29c-1.13-7-2.17-13.8-3.32-20.56q-15.07-89.05-30.1-178.1c-.75-4.46-2.81-5.18-6.79-5.16-31.15.2-56.69-21.33-62-52-5.84-33.87,18.59-66.95,52.65-71.3,26.55-3.38,51.6,9.64,63.56,33a61.91,61.91,0,0,1-10,71,58.05,58.05,0,0,1-27,16.6c-3.52,1-4.15,2.49-3.55,6q13.55,78.82,26.82,157.68c2.14,12.62,4.28,25.24,6.26,37.89.52,3.32,1.89,4.46,5.37,5a100.71,100.71,0,0,1,18.77,4.45c3.58,1.24,5.27.79,7.06-2.42,11.46-20.68,23.08-41.26,34.59-61.91,15.76-28.27,31.4-56.61,47.27-84.81,2-3.61,1.53-5.35-1.73-7.8-13.18-9.94-17.19-28.1-10-43.32a35.7,35.7,0,0,1,39.8-19.28,35.12,35.12,0,0,1,27.78,34.26c.13,23-19.54,39.63-42.17,35.45-3.68-.68-5.39.14-7.22,3.43q-40.89,73.88-82.16,147.53c-1.88,3.37-1.38,4.94,1.34,7.64,5.93,5.89,11.14,12.5,17.21,19.46,4.88-2.79,10.72-6.06,16.51-9.43q57.61-33.6,115.25-67.18c2.92-1.7,3.75-3.09,2.33-6.6-8.81-21.69-5.88-41.92,9.78-59.34,14.48-16.1,33.23-21.6,54.12-16.39,22.35,5.58,36.3,20.48,41.06,43,6.58,31.18-15.79,61.7-47.41,65.48-19.7,2.35-36-4.41-49-19-2.56-2.87-4.3-2.83-7.38-1q-65,38.07-130.21,75.88c-2.54,1.48-3.5,2.88-2.85,6a91.68,91.68,0,0,1,1.67,14.61c.14,2.91.87,4.19,4,4.51,23.36,2.39,46.7,5,70,7.47,22,2.35,43.92,4.52,65.84,7.14,4.37.52,5.77-.7,7-4.7,8.23-27.53,33.35-46.29,61.36-46.19a64.5,64.5,0,0,1,62.87,52.42c6.92,36.39-18.77,71.08-55.73,75.23a63.6,63.6,0,0,1-71.05-63.36c0-3.91-.46-5.93-5.23-6.39-25.47-2.45-50.89-5.4-76.34-8.06-20-2.1-40-4-60-6.08-3-.32-4.15.59-5,3.43a55,55,0,0,1-17.29,27c-1.82,1.54-1.76,2.8-.53,4.64q27,40.35,53.89,80.78c1.85,2.78,3.76,2,6.15,1.16,30.77-11,59.35-6.85,85.17,13.28,38.38,29.92,42.56,89.37,9,124.64-31.34,32.94-80,36.95-115.64,9.53-38.49-29.61-44.44-86.53-12.45-123.07C542,632,550.08,626,557.88,618.87c-.25-.42-1-1.73-1.82-3q-25.89-38.82-51.76-77.63c-1.76-2.66-3.38-3.17-6.22-1.69a55.67,55.67,0,0,1-34.79,5.79c-2.84-.43-4,.69-5,3.19q-17.58,47.51-35.3,95c-7.91,21.23-15.74,42.49-23.8,63.66-1.35,3.54-.83,5.36,2.42,7.49,19.6,12.85,28.91,35.54,24.08,57.85-4.92,22.67-22.72,39.49-45.9,43.36C349,818,318.63,794.16,316.45,763c-2.26-32.19,20.37-58.39,52.57-60.3,5.78-.34,11.75.94,17.48,2.16,3.5.75,4.95.08,6.19-3.28,10.93-29.72,22-59.37,33.08-89,8.49-22.82,16.9-45.66,25.52-68.43,1.26-3.32.42-4.44-2.59-6A108.82,108.82,0,0,1,434.11,529c-2.16-1.57-3.35-1.56-5.39,0q-55.14,42.9-110.43,85.6c-2.74,2.12-2.77,3.75-1.39,6.65,15.58,32.73-8.44,70.06-44.57,69.42-26.31-.46-47.21-22.3-47.07-49.18a47.86,47.86,0,0,1,47.39-47.36c13.69-.14,25.43,4.35,34.87,14.23,2.64,2.76,4.34,2.33,7,.26q49.13-38.26,98.36-76.37c3.67-2.84,7.16-5.92,10.89-8.68,2-1.5,2.3-2.74.81-4.83a55.71,55.71,0,0,1-10.31-40.7c.45-3.51-1.73-3.94-4.18-4.46l-57-12.16c-29.72-6.34-59.46-12.59-89.14-19.08-3.86-.84-5.69-.05-7.54,3.54-21.7,41.95-78.79,50.6-110.85,16.51-19.41-20.64-25.09-45.16-15.17-71.89,9.63-26,29.07-41,56.59-44.6,37.72-5,72.77,22.85,76.45,60.82.74,7.57-.64,15.34-1.11,23A42.39,42.39,0,0,1,261.46,434.5Z"/></g></g></svg>