<svg xmlns="http://www.w3.org/2000/svg" viewBox="0 0 767.2 937.68"><defs><style>.cls-1{fill:#a5a29f;}.cls-2{fill:#6b6b6b;}.cls-3{fill:#514f4b;}.cls-4{fill:#66c6ba;}.cls-5{fill:#e8ddc6;}</style></defs><g id="Layer_2" data-name="Layer 2"><g id="Layer_3" data-name="Layer 3"><path class="cls-1" d="M.18,691.62c0-4.5-.11-9-.11-13.48q0-295.42,0-590.85C0,63.74,7.48,43.06,23.78,26.21,39.47,10,58.85.28,81.78.23Q234.09-.12,386.39.1C484.77.1,583.14.32,681.52,0a85.65,85.65,0,0,1,84.35,70,81.17,81.17,0,0,1,1.25,14.86q.12,301.15.08,602.33c0,1.17-.11,2.33-.17,3.49a6.28,6.28,0,0,0-.77,1.75c-2.28,18.66-9.7,35-23,48.26-5.77,5.77-12.66,10.43-19,15.59-19,10.06-39.46,11.38-60.49,11.22-50.76-.41-101.52-.09-152.28-.07q-208.74,0-417.48-.11a138.53,138.53,0,0,1-23.72-1.92c-26.88-4.71-47.22-19.23-59.7-43.42C5.72,712.56,3.57,701.77.18,691.62Z"/><path class="cls-2" d="M.18,691.62C3.57,701.77,5.72,712.56,10.57,722c12.48,24.19,32.82,38.71,59.7,43.42A138.53,138.53,0,0,0,94,767.3q208.74.19,417.48.11V888.3c0,7,0,7-7,7q-190.77,0-381.55,0c-14.45,0-28.92-.15-43.33-1C48.18,892.35,25,876.89,10.36,849.36,5.5,840.17,3.51,829.47.21,819.46q-.06-41-.13-81.9C.07,722.25.15,706.93.18,691.62Z"/><path class="cls-3" d="M.21,819.46c3.3,10,5.29,20.71,10.15,29.9,14.59,27.53,37.82,43,69.24,44.86,14.41.86,28.88,1,43.33,1q190.77.1,381.55,0c7,0,7,0,7-7V767.41c50.76,0,101.52-.34,152.28.07,21,.16,41.49-1.16,60.49-11.22V883c10.87-4.47,26.19-19.06,31.83-31.84,4.49-10.2,7.37-21.1,11-31.69-.26,14.75.64,29.64-1,44.24-4.09,36-31.6,65.5-68.91,72.39a105.88,105.88,0,0,1-19.27,1.3c-196.19.07-392.38-.24-588.57.29-41.22.12-74-24.8-85.58-60.42A78.63,78.63,0,0,1,.25,856.39C-.27,844.1.17,831.77.21,819.46ZM554.45,852H681.79V810H554.45Z"/><path class="cls-2" d="M767,819.46c-3.59,10.59-6.47,21.49-11,31.69-5.64,12.78-21,27.37-31.83,31.84V756.26c6.38-5.16,13.27-9.82,19-15.59,13.28-13.28,20.7-29.6,23-48.26a6.28,6.28,0,0,1,.77-1.75Z"/><path class="cls-4" d="M554.45,852V810H681.79V852Z"/><path class="cls-5" d="M605.52,350.94c-2.07-1.44-4.11-2.74-6-4.22-8.81-6.83-17.31-14.09-26.4-20.51a326,326,0,0,0-126.56-54,322.6,322.6,0,0,0-78.22-5.88,331,331,0,0,0-202.86,81.77c-2.94,2.6-5.55,2.77-8.33,0l-21.53-21.51c-2.72-2.71-2.6-5,.45-7.61q82.53-71.34,190.32-88c14.68-2.27,29.64-3.05,44.5-3.82,45.68-2.37,90.11,4.67,133.32,19.26a373.14,373.14,0,0,1,121.29,68.2c2.11,1.77,4.2,3.55,6.2,5.44,2.26,2.13,2.56,4.49.24,6.81-7.27,7.29-14.52,14.59-21.89,21.77C609,349.63,607.32,350,605.52,350.94Z"/><path class="cls-5" d="M569.74,387.54a32.68,32.68,0,0,1-3,4.51c-6.7,6.82-13.43,13.62-20.28,20.29-4.17,4.06-5.49,4.21-9.95.39a252,252,0,0,0-43.82-30.4c-23.16-12.55-47.72-21.15-73.79-24.67a293,293,0,0,0-42-2.64c-31.71.32-61.94,7.79-90.71,21.14a224.11,224.11,0,0,0-55.8,36.49c-3.31,3-5.68,2.86-9.08-.48-6.94-6.79-13.79-13.67-20.62-20.57-3.79-3.84-3.91-6,.43-9.23,14-10.28,27.61-21.2,42.39-30.21C277,331.74,313.64,320,352.68,315.72c56.81-6.19,110.44,4.3,160.93,30.86a271.54,271.54,0,0,1,50.72,34.93A62.45,62.45,0,0,1,569.74,387.54Z"/><path class="cls-5" d="M386,404.45c41.52.44,80.53,15.46,114.28,44.42,3.74,3.22,3.93,5.59.49,9.12-6.17,6.32-12.46,12.53-18.72,18.77-5.23,5.21-6.48,5.37-11.92.61a123.23,123.23,0,0,0-47.53-26.32Q353.23,431.16,297,476.73c-5.17,4.19-6.71,4.36-11.34-.22q-9.42-9.33-18.75-18.75c-4-4.08-4.15-5.44.07-9.22a172,172,0,0,1,66.33-36.83C349.47,406.87,366.07,404.6,386,404.45Z"/><path class="cls-5" d="M383.74,494.05c18.94-.24,35.9,6.28,51,18,5.51,4.29,5.59,6.39.53,11.46q-22.87,22.91-45.78,45.76c-4.43,4.42-6.56,4.45-10.89.14q-23.52-23.48-47-47c-4.72-4.72-4.54-6.66.66-10.73C347.29,500,364.19,493.81,383.74,494.05Z"/></g></g></svg>