<svg xmlns="http://www.w3.org/2000/svg" viewBox="0 0 507.88 507.98"><defs><style>.cls-1{fill:#c8f4de;}.cls-2{fill:#7b94ad;}</style></defs><g id="Layer_2" data-name="Layer 2"><g id="Layer_3" data-name="Layer 3"><rect class="cls-1" width="507.88" height="507.98" rx="36.33"/><path class="cls-2" d="M47.21,122.82c1.92-.74,2.88-1.18,3.89-1.49,53.78-16.15,107.29-33,159.68-52.54,12.81-4.78,24.54-2.2,36.29,1.66,20,6.58,35.95,18.46,49.41,33,22.63,24.5,36,52.46,40,84.28,4.19,33.61,13.85,65.88,33.94,95,16.06,23.24,37.14,41.54,66,51.57,7.76,2.7,16.07,4.1,24.3,6.14-.69.47-1.59,1.18-2.59,1.76q-85.14,49-170.26,97.93a12.42,12.42,0,0,1-8.29,1.51c-40.08-5.14-69-24.42-88.18-56-13.41-22.07-20.49-46-25.5-70.54-4.31-21-7.7-42.22-12.4-63.17-6.15-27.38-15.67-53.79-31.55-78C111.11,157.38,97.7,143,79.13,133.09a87.5,87.5,0,0,0-26.61-9.23C51.08,123.61,49.65,123.3,47.21,122.82Z"/></g></g></svg>