<svg xmlns="http://www.w3.org/2000/svg" xmlns:xlink="http://www.w3.org/1999/xlink" viewBox="0 0 507.88 507.98"><defs><style>.cls-1{fill:#e8ddc6;}.cls-2{clip-path:url(#clip-path);}.cls-3{clip-path:url(#clip-path-2);}.cls-4{fill:#6e9da1;}.cls-5{fill:#e85657;}.cls-6{fill:#f17353;}.cls-7{fill:#c5c163;}.cls-8{fill:#8482a9;}.cls-9{fill:#a2c176;}.cls-10{fill:#c5c165;}.cls-11{fill:#f28672;}</style><clipPath id="clip-path"><rect class="cls-1" width="507.88" height="507.98" rx="36.33"/></clipPath><clipPath id="clip-path-2"><rect class="cls-1" width="507.88" height="507.98"/></clipPath></defs><g id="Layer_2" data-name="Layer 2"><g id="Layer_3" data-name="Layer 3"><rect class="cls-1" width="507.88" height="507.98" rx="36.33"/><g class="cls-2"><rect class="cls-1" width="507.88" height="507.98"/><g class="cls-3"><path class="cls-1" d="M0,253.46q0,110,0,220C0,493.74,14,508,34.16,508q219.75,0,439.5,0c20.16,0,34.2-14.17,34.21-34.4q0-219.3,0-438.59c0-21.15-13.93-35-35.16-35H35.22C13.75,0,0,13.83,0,35.42q0,109,0,218"/></g></g><path class="cls-4" d="M198.6,389.74c.06,18.31.24,36.62.1,54.93,0,6.44-3.49,11.07-9.45,13.69H103c-10.83-3-12.54-11.78-12.57-21-.06-15.88.46-31.76.74-47.64Z"/><path class="cls-4" d="M312.17,458.36c-7.95-3.2-9.35-10.23-9.37-17.41,0-17.07.46-34.15.73-51.22H410.9c.07,17.27.36,34.54.09,51.8-.12,7.92-3.93,14-11.81,16.82Z"/><path class="cls-5" d="M303.58,321.89c-.56-5.22-.6-10.57-1.83-15.63-1.73-7.11-6.92-10.72-14.18-10.73-24.55,0-49.1-.18-73.64.07-9.79.1-14.41,6.8-15.13,16.35-.25,3.29-.14,6.62-.2,9.93H91.21q.06-34.29.13-68.58H409.58l1.28,0c.07,13.55.18,27.11.21,40.67,0,9-.05,18.08-.08,27.13l-.62.67Z"/><path class="cls-6" d="M92.64,253.29h-1.3c.17-13.62-.34-27.3.72-40.86,1-12.44,9-20.68,19.84-26.17l103.4,0c.78,10.48,4.41,19.81,11.72,27.43,8.68,9,19,13.6,31.68,10.07,11.61-3.25,19.28-11.25,23.88-22,2.09-4.87,2.87-10.3,4.25-15.47l104.24,0c13.65,6.69,20.69,17.28,20.1,32.84-.44,11.38-.23,22.79-.31,34.19l-1.28,0a22.32,22.32,0,0,0-4.14-.77q-154.33-.06-308.67,0A22.21,22.21,0,0,0,92.64,253.29Z"/><path class="cls-7" d="M215.3,186.31l-103.4,0C120.52,180.17,129,174,137.76,168q35.63-24.26,71.4-48.29a26.74,26.74,0,0,1,2.42-1.3,23.08,23.08,0,0,0,4.14.74q37.83.08,75.66,0,24.06,16.08,48.13,32.17,25.23,16.92,50.41,33.91a12,12,0,0,1,1.15,1l-104.24,0c-.7-10.51-3.58-20.21-10.7-28.29-6.7-7.59-15.19-12.29-25.22-12.27-11.51,0-20.56,5.93-27.45,15.07C217.77,168.36,215.35,177,215.3,186.31Z"/><path class="cls-8" d="M303.58,321.89l106.79-.11a1.8,1.8,0,0,0,.64.14q-.06,33.9-.1,67.82H303.53Q303.56,355.82,303.58,321.89Z"/><path class="cls-8" d="M91.21,321.88H198.6v67.86H91.21Z"/><path class="cls-9" d="M142.15,118.43q27.39-18.65,54.78-37.28Q216.3,68,235.68,54.84c10.09-6.87,20.16-7,30.31-.13q47.16,32,94.34,63.9a3.28,3.28,0,0,1,.51.59l-31.91,0q-23.54-15.81-47.07-31.64c-5.6-3.77-11.18-7.56-16.68-11.47-9.63-6.84-19.09-6.46-28.69.15q-23.7,16.32-47.55,32.41c-4.91,3.33-9.92,6.52-14.89,9.78Z"/><path class="cls-10" d="M142.15,118.43l31.9,0q-37.16,25.1-74.33,50.18c-8.87,6-17.86,11.77-26.79,17.64l-23.08.06c-.22-4.27,1.9-7.5,5.17-9.7q43.32-29.13,86.76-58.06A2.35,2.35,0,0,1,142.15,118.43Z"/><path class="cls-10" d="M328.93,119.22l31.91,0q23.25,15.53,46.52,31.06c11.31,7.58,22.79,15,33.8,23,5.09,3.69,9.24,8.66,13.81,13l-26.1,0c-7.72-5.08-15.47-10.1-23.15-15.24q-37.53-25.12-75-50.32A18.32,18.32,0,0,1,328.93,119.22Z"/><path class="cls-9" d="M291.38,119.21q-37.83,0-75.66,0a23.08,23.08,0,0,1-4.14-.74c9.72-6.59,19.28-13.44,29.22-19.68,7.17-4.49,14.9-3.67,21.8.74C272.39,105.76,281.8,112.61,291.38,119.21Z"/><path class="cls-6" d="M428.87,186.3l26.1,0,3.29,2.82c-9.06,7.47-14.9,7.75-24.12,1.26C432.34,189.06,430.63,187.65,428.87,186.3Z"/><path class="cls-6" d="M49.85,186.33l23.08-.06c-3.54,2.48-7,5.09-10.65,7.41s-7.65,1.29-11.35-.22c-.7-.29-1.15-1.79-1.26-2.79A26.41,26.41,0,0,1,49.85,186.33Z"/><path class="cls-11" d="M411,321.92a1.8,1.8,0,0,1-.64-.14l.62-.67C411,321.38,411,321.65,411,321.92Z"/><path class="cls-11" d="M92.64,253.29a22.21,22.21,0,0,1,4.13-.77q154.34-.06,308.67,0a22.32,22.32,0,0,1,4.14.77Z"/></g></g></svg>