<svg xmlns="http://www.w3.org/2000/svg" xmlns:xlink="http://www.w3.org/1999/xlink" viewBox="0 0 507.88 507.98"><defs><style>.cls-1{fill:#869eb4;}.cls-2{clip-path:url(#clip-path);}.cls-3{clip-path:url(#clip-path-2);}.cls-4{fill:#ee8b04;}.cls-5{fill:#f08d1b;}.cls-6{fill:#f08c14;}.cls-7{fill:#ef8c0c;}.cls-8{fill:#ef8c0a;}.cls-9{fill:#d87d03;}.cls-10{fill:#e5890c;}.cls-11{fill:#d57d07;}.cls-12{fill:#f9a923;}.cls-13{fill:#ca7603;}.cls-14{fill:#fcc14d;}.cls-15{fill:#e99d1e;}.cls-16{fill:#e09b21;}.cls-17{fill:#b76902;}.cls-18{fill:#fcbf46;}.cls-19{fill:#fde195;}.cls-20{fill:#dba63d;}.cls-21{fill:#f5b943;}.cls-22{fill:#f0b542;}.cls-23{fill:#e7b956;}.cls-24{fill:#c38217;}.cls-25{fill:#d38e1b;}.cls-26{fill:#fef5ca;}.cls-27{fill:#fddd8a;}.cls-28{fill:#fddf8e;}.cls-29{fill:#edcf81;}.cls-30{fill:#c69638;}.cls-31{fill:#d8c17f;}</style><clipPath id="clip-path"><rect class="cls-1" width="507.88" height="507.98" rx="36.33"/></clipPath><clipPath id="clip-path-2"><rect class="cls-1" width="507.88" height="507.98"/></clipPath></defs><g id="Layer_2" data-name="Layer 2"><g id="Layer_3" data-name="Layer 3"><rect class="cls-1" width="507.88" height="507.98" rx="36.33"/><g class="cls-2"><rect class="cls-1" width="507.88" height="507.98"/><g class="cls-3"><path class="cls-1" d="M0,253.46q0,110,0,220C0,493.74,14,508,34.16,508q219.75,0,439.5,0c20.16,0,34.2-14.17,34.21-34.4q0-219.3,0-438.59c0-21.15-13.93-35-35.16-35H35.22C13.75,0,0,13.83,0,35.42q0,109,0,218"/></g></g><path class="cls-4" d="M428.05,366.62c.06,26,.16,52,.15,78a64.44,64.44,0,0,1-.9,10.08c-1,6.54-3.49,8.62-9.86,8.61q-56.85-.06-113.71-.16-106.79-.32-213.57-.73c-8,0-10-1.95-9.94-9.93l.42-59.72c1.15.28,2.28.65,3.44.85,7.32,1.24,9.81.21,12.23-5,4.87.28,5.84-.39,6.21-4.24.85-9,.37-9.8-6.7-10.95-1.09-7.82,3.92-14.58,12.06-16.29v14.91c0,15.58,0,31.17.08,46.76,0,1.45,1.1,2.9,1.7,4.35,0,1.33,0,2.67,0,4,.07,4.54,4.32,9.14,8.85,9.34,8.57.38,17.15.77,25.73.86,4.71,0,9.43-.82,14.14-.77,19,.17,37.93.6,56.9.8q17.49.19,35,0c11.91-.15,23.82-.79,35.74-.78,12.58,0,25.16.76,37.75.75,13,0,26.05-.64,39.09-.76,5.3-.05,10.61.61,15.92.78,2,.07,4.2-.91,6.05-.43,5.41,1.42,8,.7,11.27-4,1.18-2.87,3.3-5.71,3.39-8.61.38-12.29.17-24.59.17-36.89h1.78c3.86.24,5.41,2.45,5.36,6.15-.06,4.6,0,9.19,0,13.79H408c1.7-5.73-1.09-12.23,2.6-18.31,1,7.44,6.22,5.15,10.25,5.54,3,.28,3.85-1,3.77-3.85-.17-5.94-.11-11.88,0-17.81C424.68,370.37,424.57,367.49,428.05,366.62Z"/><path class="cls-5" d="M363.43,142.92l11.1,8.84,1.33,1,1.51,1.76c-.36,3,1.65,2.88,3.65,2.75,1.26,1.42,2.48,3,4.48.93,2.91-1.5,1.71-3,0-4.44v-.94q0-7.11,0-14.21,0-3.6,0-7.2,0-6.66,0-13.31c0-3.94,2.07-5.45,5.84-5.42,11,.06,21.89.08,32.84,0,3.32,0,5,1.26,4.93,4.67-.13,5-.21,10-.32,15.06-.8,1.09-2.2,2.13-2.3,3.28-.77,8.8-1.44,17.62-1.81,26.44-.16,3.8-1.54,5.11-5.38,5.08-17.63-.17-35.28-.09-52.92-.06-2.75,0-5.56.54-8.24.15-3-.43-4.56.4-4.91,3.41l-5.35-3.57-1.78-.9c-2.18-1.72-4.24-3.6-6.55-5.13-4.3-2.86-8.74-5.5-13.12-8.24l-.87-.84c-.6-1.22-.94-2.72-1.87-3.59a62.64,62.64,0,0,0-7.66-6.33c-4.15-2.82-8.51-5.33-12.78-8h0l-4.46-2.69a16.16,16.16,0,0,1-2.68-1.39q-18.86-14.75-37.65-29.56c-2.2-1.72-4.17-3-7.07-.7-13.69,10.73-27.56,21.21-41.31,31.87-14.23,11-28.36,22.21-42.61,33.24-4.26,3.29-8.77,6.27-13.17,9.4.1-2,.19-4,.29-6-11.41-1.26-22.9,1.75-34-2.87,1.42-1.19,3.7-2.24,3.68-3.24-.09-3.43,2.35-4.25,4.54-5,2.79-1,4.26-2.5,4-5.48l.9-.26c.86-.79,1.71-1.6,2.56-2.41l5.52-4.2.77-1,4.51-3.41c.08,1.29.15,2.58.29,5.12,1.89-2.32,4.82,2.66,5.46-2.11.25-1.82-1.44-3.89-2.25-5.85l94-74.3c8.19-6.48,12.38-5.73,20.56,1.16,13.62,11.49,27.79,22.32,41.76,33.4,14.9,11.82,29.83,23.58,44.72,35.42,2.12,1.68,4,3.62,6.05,5.44-.3,2.17-.6,4.34-1,7Zm30.35,18.62,2.79-6.79-1.13.09-2.05-15.92-1.79.23c0,1.73,0,3.45,0,5.17-.09,2.65.63,5.84-.58,7.83C388.46,156.33,391,158.25,393.78,161.54Zm-21.92-6-.77,1.54c2.16,2.48,4.14,5.41,8.64,3.06Zm-234.3-.58-1.6-.36c-.39,1.39-1.52,3.27-1,4,.7,1,2.68,1.2,5.06,2.11Zm208.08-19,1.72-1.17-2.62-3.37-1.5,1.15Zm-178.48.42h1.76l-.42-4.39-1.34.08Zm181.18.12v.82h2.58v-.82Zm-7.19-1.81h-.82v2.58h.82ZM158,137.21c-.64-.52-1-1.09-1.37-1.06a1.59,1.59,0,0,0-1.16.92c-.09.29.49,1.11.79,1.11S157.13,137.7,158,137.21Zm212.23,16.36c-.25-.47-.43-.82-.6-1.16a4.15,4.15,0,0,0-1,1c-.07.13.37.73.65.8S369.81,153.82,370.18,153.57ZM161.75,135.28c.25.11.55.36.73.29s.23-.46.34-.7c-.25-.11-.55-.36-.72-.29S161.86,135,161.75,135.28Z"/><path class="cls-6" d="M353.23,170.73c.35-3,1.89-3.84,4.91-3.41,2.68.39,5.49-.15,8.24-.15,17.64,0,35.29-.11,52.92.06,3.84,0,5.22-1.28,5.38-5.08.37-8.82,1-17.64,1.81-26.44.1-1.15,1.5-2.19,2.3-3.28,0,2.65-.05,5.31-.07,8-2.63,5.91-1.81,11.9-.4,17.9V195a35.84,35.84,0,0,1,4.66,2.57q17.75,13.41,35.41,26.93a9,9,0,0,1,2.06,1.69c1.46,2.1,2.79,4.3,4.16,6.46-2.27.51-4.53,1.39-6.81,1.46-12,.36-24,.47-36.05.84-1.25,0-2.47,1.18-3.7,1.81l-1.94.85,1.92,1.82,0,20.53c-.86,1.28-2.24,2.48-2.47,3.87-1,6.09-3.65,8.37-9.63,8.7-3.32.19-6.59,1.32-11,2.27-.26-2.84-.63-6.52-.89-10.2-.14-2,.36-4.34-2.69-4.65q0-20.67,0-41.33a18.83,18.83,0,0,0-7-14.72c-7-6-14.26-11.78-21.59-17.41-1.69-1.3-4.15-1.59-6.26-2.35h0l-2.67-1.8h0l-.91-.91v0c-2-3.65-3.72-7.56-8.93-7.15h0l-.9-.9v0C353.22,172.53,353.23,171.63,353.23,170.73Z"/><path class="cls-6" d="M132.88,151.71c.22,3-1.25,4.51-4,5.48-2.19.77-4.63,1.59-4.54,5,0,1-2.26,2-3.68,3.24,11.08,4.62,22.57,1.61,34,2.87-.1,2-.19,4-.29,6a9.24,9.24,0,0,1-1.6,2.46c-6.63,5.31-13.25,10.66-20.05,15.75-3,2.23-6.36,3.91-9.56,5.84-3.8,2.92-7.6,5.85-11.36,8.81a8.08,8.08,0,0,0,.62,1l0,1.77c-1.19,1.11-3.27,2.12-3.4,3.35-.63,5.81-.69,11.68-1,17.52-.15,2.27-.57,4.52-.87,6.78-3.58.21-5.23,2.13-5.38,5.68-.19,4.41.07,9-1.08,13.17-.91,3.36-3.57,6.26-5.6,9.27-.29.42-1.38.38-2.11.4-1.63.06-3.26-.07-4.89,0-3.07.23-4.24-1.12-4.18-4.18.13-6.37.2-12.75-.07-19.11-.07-1.49-1.57-2.92-2.42-4.37l-.29-4c-6.24,0-12.44-.05-18.64,0-8,.07-16,.35-24,.24-1.83,0-3.64-1.28-5.45-2,1-1.72,1.54-3.95,3-5.1,10.5-8.49,21.15-16.79,31.78-25.11q25.49-19.94,51-39.84l1.68-1.16Z"/><path class="cls-7" d="M81.26,238.53c.85,1.45,2.35,2.88,2.42,4.37.27,6.36.2,12.74.07,19.11-.06,3.06,1.11,4.41,4.18,4.18,1.63-.11,3.26,0,4.89,0,.73,0,1.82,0,2.11-.4,2-3,4.69-5.91,5.6-9.27,1.15-4.18.89-8.76,1.08-13.17.15-3.55,1.8-5.47,5.38-5.68q.44,59.76.89,119.53c-8.14,1.71-13.15,8.47-12.06,16.29,7.07,1.15,7.55,1.93,6.7,10.95-.37,3.85-1.34,4.52-6.21,4.24-2.42,5.2-4.91,6.23-12.23,5-1.16-.2-2.29-.57-3.44-.85,0-19.17-.06-38.34,0-57.5q.17-45.25.46-90.52C81.11,242.68,81.21,240.6,81.26,238.53Z"/><path class="cls-8" d="M401.42,259.93c3.05.31,2.55,2.62,2.69,4.65.26,3.68.63,7.36.89,10.2,4.37-.95,7.64-2.08,11-2.27,6-.33,8.64-2.61,9.63-8.7.23-1.39,1.61-2.59,2.47-3.87q0,53.34,0,106.68c-3.48.87-3.37,3.75-3.41,6.38-.09,5.93-.15,11.87,0,17.81.08,2.85-.79,4.13-3.77,3.85-4-.39-9.24,1.9-10.25-5.54-3.69,6.08-.9,12.58-2.6,18.31h-1.27c0-4.6,0-9.19,0-13.79.05-3.7-1.5-5.91-5.36-6.15,0-8,0-16-.05-23.95a25.55,25.55,0,0,0-.86-4.59v-6.24a31,31,0,0,0,.87-5.06Q401.46,303.79,401.42,259.93Z"/><path class="cls-6" d="M150.64,137.58c.81,2,2.5,4,2.25,5.85-.64,4.77-3.57-.21-5.46,2.11-.14-2.54-.21-3.83-.29-5.12Z"/><path class="cls-5" d="M428.32,158.29c-1.41-6-2.23-12,.4-17.9Q428.53,149.35,428.32,158.29Z"/><path class="cls-6" d="M363.43,142.92l-6.69,2.75c.36-2.63.66-4.8,1-7Z"/><path class="cls-6" d="M385.48,138.64q0,7.11,0,14.21Q385.47,145.74,385.48,138.64Z"/><path class="cls-6" d="M385.5,118.13q0,6.65,0,13.31Q385.49,124.78,385.5,118.13Z"/><path class="cls-6" d="M385.47,153.79c1.74,1.47,2.94,2.94,0,4.44Z"/><path class="cls-6" d="M381,157.3c-2,.13-4,.26-3.65-2.75Z"/><path class="cls-8" d="M428,239.41l-1.92-1.82,1.94-.85Z"/><path class="cls-6" d="M136.34,149c-.85.81-1.7,1.62-2.56,2.41Z"/><path class="cls-5" d="M120.28,161.57l-1.68,1.16Z"/><path class="cls-6" d="M375.86,152.79l-1.33-1Z"/><path class="cls-6" d="M142.63,143.83l-.77,1Z"/><path class="cls-9" d="M396.08,433c-3.24,4.67-5.86,5.39-11.27,4-1.85-.48-4,.5-6.05.43-5.31-.17-10.62-.83-15.92-.78-13,.12-26.06.76-39.09.76-12.59,0-25.17-.74-37.75-.75-11.92,0-23.83.63-35.74.78q-17.49.22-35,0c-19-.2-37.93-.63-56.9-.8-4.71-.05-9.43.81-14.14.77-8.58-.09-17.16-.48-25.73-.86-4.53-.2-8.78-4.8-8.85-9.34,0-1.34,0-2.68,0-4q.45-82.06.88-164.13c.07-12.46,0-24.92.06-37.39a24,24,0,0,1,.9-4.59c.27,9.63.76,19.26.77,28.89q.11,86.07,0,172.13c0,4.32-.26,8.57,2.87,12.09.51,1.18.77,3.13,1.59,3.4a24.15,24.15,0,0,0,7.37,1.15q124.32.07,248.65,0c7.47,0,14.93-1.12,22.4-1.72Z"/><path class="cls-10" d="M111.5,217.07a24,24,0,0,0-.9,4.59c-.08,12.47,0,24.93-.06,37.39q-.41,82.07-.88,164.13c-.6-1.45-1.69-2.9-1.7-4.35-.13-15.59-.08-31.18-.08-46.76V357.16q-.45-59.76-.89-119.53c.3-2.26.72-4.51.87-6.78.36-5.84.42-11.71,1-17.52.13-1.23,2.21-2.24,3.4-3.35Z"/><path class="cls-11" d="M396.08,433l-.92,0c.58-2.13,1.16-4.27,1.73-6.4L397,214.44c.6,1.3,1.69,2.59,1.71,3.9q.58,51.81.95,103.63c.07,8.7,0,17.41.05,26.11a26.84,26.84,0,0,0,.84,4.63V359a26.34,26.34,0,0,0-.84,4.6c-.08,8,0,16,0,23.95,0,12.3.21,24.6-.17,36.89C399.38,427.29,397.26,430.13,396.08,433Z"/><path class="cls-10" d="M399.64,387.5c0-8-.05-16,0-23.95a26.34,26.34,0,0,1,.84-4.6,25.55,25.55,0,0,1,.86,4.59c.09,8,.05,16,.05,23.95Z"/><path class="cls-12" d="M397,214.44l-.06,212.14-6.16,4.56-273,0-2.56-.93c-3.13-3.52-2.88-7.77-2.87-12.09q.07-86.05,0-172.13c0-9.63-.5-19.26-.77-28.89l.81-7.09c0-.59,0-1.18,0-1.77l10.74-9.82c3.2-1.93,6.58-3.61,9.56-5.84,6.8-5.09,13.42-10.44,20.05-15.75a9.24,9.24,0,0,0,1.6-2.46c4.4-3.13,8.91-6.11,13.17-9.4,14.25-11,28.38-22.2,42.61-33.24,13.75-10.66,27.62-21.14,41.31-31.87,2.9-2.27,4.87-1,7.07.7q18.81,14.79,37.65,29.56a16.16,16.16,0,0,0,2.68,1.39l4.46,2.69h0l22.31,17.88.87.84c3.44,3,6.73,6.12,10.34,8.85,5.36,4,11,7.81,16.44,11.69v0l.9.9h0l8.93,7.15v0l.91.91h0l2.67,1.8h0a25.79,25.79,0,0,0,3,3.28c7.08,5.53,14.24,11,21.37,16.45C394.42,206.53,397.63,209.38,397,214.44ZM145.35,387.49c.28,1.21.57,2.41.85,3.62,0,1.46,0,2.93,0,4.4-.28.95-.88,1.93-.78,2.83.34,3,6.3,7,10.22,7H352.35c7.5,0,11.73-3.35,13.09-10.57.16-.81-1-1.87-1.49-2.81,0-10.09-.34-20.19.09-30.26.47-11.18-2-22.5,1.55-33.54.23-.72-.34-1.69-.5-2.55-.39-2.15-1.12-4.31-1.08-6.46.16-11,.79-22,.76-32.95,0-14.73-.55-29.45-.79-44.18,0-1.3.61-2.61.55-3.9q-.27-6.48-.93-13c0-.37-1.47-.59-2.25-.88-2.11-2.39-4-5.12-6.39-7.11-7-5.66-14.21-11-21.28-16.52q-18-14-35.85-28.18c-12-9.42-24-18.77-35.84-28.32-7-5.66-7.26-5.8-13.93.11-.66.59-1.42,1.05-2.13,1.59C230,158.11,214,170.28,198.17,182.64c-15.46,12.07-30.81,24.31-46.12,36.58-1.65,1.32-2.72,3.34-4.06,5-3.57-.15-2.6,2.54-2.61,4.39-.06,12.93-.18,25.86,0,38.78s-.25,25.66-.12,38.49C145.53,333.11,145.35,360.3,145.35,387.49Z"/><path class="cls-6" d="M393.78,161.54c-2.77-3.29-5.32-5.21-2.77-9.39,1.21-2,.49-5.18.58-7.83.06-1.72,0-3.44,0-5.17l1.79-.23,2.05,15.92,1.13-.09Z"/><path class="cls-10" d="M353.21,173.43c-5.49-3.88-11.08-7.64-16.44-11.69-3.61-2.73-6.9-5.88-10.34-8.85,4.38,2.74,8.82,5.38,13.12,8.24,2.31,1.53,4.37,3.41,6.55,5.13l1.78.9,5.35,3.57C353.23,171.63,353.22,172.53,353.21,173.43Z"/><path class="cls-10" d="M325.56,152.05l-22.31-17.88c4.27,2.63,8.63,5.14,12.78,8a62.64,62.64,0,0,1,7.66,6.33C324.62,149.33,325,150.83,325.56,152.05Z"/><path class="cls-6" d="M371.86,155.49l7.87,4.6c-4.5,2.35-6.48-.58-8.64-3.06Z"/><path class="cls-6" d="M137.56,154.91l2.46,5.8c-2.38-.91-4.36-1.07-5.06-2.11-.52-.78.61-2.66,1-4Z"/><path class="cls-6" d="M345.64,135.88l-2.4-3.39,1.5-1.15,2.62,3.37Z"/><path class="cls-6" d="M167.16,136.3V132l1.34-.08.42,4.39Z"/><path class="cls-10" d="M303.26,134.17l-4.46-2.69Z"/><ellipse class="cls-6" cx="349.63" cy="136.83" rx="1.83" ry="0.58"/><ellipse class="cls-6" cx="340.74" cy="135.9" rx="0.58" ry="1.82"/><path class="cls-6" d="M158,137.21c-.82.49-1.29,1-1.74,1s-.88-.82-.79-1.11a1.59,1.59,0,0,1,1.16-.92C156.91,136.12,157.31,136.69,158,137.21Z"/><path class="cls-6" d="M370.18,153.57c-.37.25-.71.66-.94.61s-.72-.67-.65-.8a4.15,4.15,0,0,1,1-1Z"/><path class="cls-6" d="M347.88,167.16l-1.78-.9Z"/><path class="cls-6" d="M161.75,135.28c.11-.24.17-.63.35-.7s.47.18.72.29c-.11.24-.16.63-.34.7S162,135.39,161.75,135.28Z"/><path class="cls-10" d="M397,214.44c.67-5.06-2.54-7.91-6-10.59-7.13-5.48-14.29-10.92-21.37-16.45a25.79,25.79,0,0,1-3-3.28c2.11.76,4.57,1,6.26,2.35,7.33,5.63,14.55,11.42,21.59,17.41a18.83,18.83,0,0,1,7,14.72q0,20.67,0,41.33,0,43.86,0,87.72a31,31,0,0,1-.87,5.06,26.84,26.84,0,0,1-.84-4.63c-.08-8.7,0-17.41-.05-26.11q-.4-51.83-.95-103.63C398.65,217,397.56,215.74,397,214.44Z"/><path class="cls-10" d="M363,181.45l-8.93-7.15C359.32,173.89,361.08,177.8,363,181.45Z"/><path class="cls-10" d="M366.6,184.13l-2.67-1.8Z"/><path class="cls-10" d="M354.12,174.31l-.9-.9Z"/><path class="cls-10" d="M363.94,182.34l-.91-.91Z"/><path class="cls-10" d="M123.1,198.39l-10.74,9.82a8.08,8.08,0,0,1-.62-1C115.5,204.24,119.3,201.31,123.1,198.39Z"/><path class="cls-13" d="M115.15,430.18l2.56.93c1.72.63,3.43,1.8,5.15,1.8q74.25.15,148.51.08,57.3,0,114.61-.08c1.59,0,3.17-1.15,4.76-1.77l6.16-4.56-1.74,6.4c-7.47.6-14.93,1.71-22.4,1.72q-124.32.18-248.65,0a24.15,24.15,0,0,1-7.37-1.15C115.92,433.31,115.66,431.36,115.15,430.18Z"/><path class="cls-14" d="M148,224.26c1.34-1.7,2.41-3.72,4.06-5,15.31-12.27,30.66-24.51,46.12-36.58C214,170.28,230,158.11,245.93,145.85c.71-.54,1.47-1,2.13-1.59,6.67-5.91,6.91-5.77,13.93-.11,11.86,9.55,23.88,18.9,35.84,28.32s23.87,18.82,35.85,28.18c7.07,5.54,14.31,10.86,21.28,16.52,2.44,2,4.28,4.72,6.39,7.11q0,49.48-.08,99c-1.69-.78-4.79-1.5-4.83-2.35-.23-5-3.39-6-7-6.8-1.24-2.34-2.72-5.1-4.83-5.72-2.68-.78-3.5-1.95-4-4.36a65.72,65.72,0,0,0-2.54-7.47l-1.22.29c-.47,1.64-.66,3.44-1.5,4.86s-2.32,2.48-3.51,3.7q0-4.91,0-9.81c2.68.18,3.74-1.19,3.56-3.73-.29-4.21-.38-8.44-1-12.6-.22-1.49-1.68-2.8-2.58-4.19V251l4.59,1.67c-.23-2.54.23-5-.75-6.45-1.77-2.69-4.39-4.81-6.73-7.26l-3.36,1.33-1.12.12a1.91,1.91,0,0,1-.67-.06l-2-1.74-2.46-1.1-1.1-1.61-3.41-2.61-1.95-1.82a23.5,23.5,0,0,1-3.89-2Q283.82,209.79,258.75,190c-2.45-1.94-4.74-2.12-7.22-.18-3.84,3-7.7,6-11.57,9l-33.05,25.39-.73-1.34-1,1.47h0c-3.74-.12-6.55.86-6.26,5.42l-5.3,4.37c-5.49-1.44-10.67,2.87-10.78,9l-1,1.71-1.68,1.8-1.79.88c-.58.19-1.63.33-1.66.58-.16,1.58-.1,3.18-.12,4.77V268c-.54,1.11-1.6,2.27-1.52,3.34.29,3.66,1,7.29,1.52,10.93V317c-.85-.41-2.4-.76-2.44-1.25-.59-6.56-1-13.14-1.4-19.71-.37-6.78-.58-13.56-.94-20.33,0-.45-.69-.86-1.78-2.1-1,1.89-2.21,3.28-2.25,4.69a59.84,59.84,0,0,0,.68,11c1.59,9.6-1.28,13.54-9.86,13.46-3.33,0-4.55-1.29-4.35-4.51.17-2.61,0-5.24,0-7.85l-2.07-.08a30.19,30.19,0,0,0-.58,4.3c-.06,8.62-.11,17.24,0,25.86,0,2.72-.83,4.27-3.61,4.52Q148,274.65,148,224.26Zm23.16,21.36c-2.66,5-2.3,11.1.72,13C171.69,254.36,174.88,250.19,171.15,245.62Zm165.42,20.81,1.8.3v-4.56l-1.28-.13C336.91,263.5,336.74,265,336.57,266.43Zm1-26.36c-.74-.69-1.09-1.26-1.5-1.31s-.81.5-1.22.78c.34.42.6,1,1,1.21S336.72,240.43,337.56,240.07Zm17.2,65.85-1.05-.06-.12,2.59,1,.05C354.67,307.64,354.72,306.78,354.76,305.92Z"/><path class="cls-15" d="M364,392c.53.94,1.65,2,1.49,2.81-1.36,7.22-5.59,10.57-13.09,10.57H155.66c-3.92,0-9.88-4-10.22-7-.1-.9.5-1.88.78-2.83l1.81,1.8,4.45,3.58c1.45.59,2.91,1.7,4.36,1.7q97.14.12,194.27,0c1.9,0,3.8-1.11,5.7-1.71l3.54-2.69C364.7,397.93,361.84,393.51,364,392Z"/><path class="cls-16" d="M364,392c-2.11,1.56.75,6-3.6,6.24,0-.27,0-.54,0-.81a55.67,55.67,0,0,0,.89-7c.06-22.37,0-44.75,0-67.12q0-49.5.08-99c.78.29,2.21.51,2.25.88q.66,6.47.93,13c.06,1.29-.58,2.6-.55,3.9.24,14.73.75,29.45.79,44.18,0,11-.6,22-.76,32.95,0,2.15.69,4.31,1.08,6.46.16.86.73,1.83.5,2.55-3.5,11-1.08,22.36-1.55,33.54C363.61,371.76,364,381.86,364,392Z"/><path class="cls-17" d="M390.74,431.14c-1.59.62-3.17,1.77-4.76,1.77q-57.3.15-114.61.08-74.25,0-148.51-.08c-1.72,0-3.43-1.17-5.15-1.8Z"/><path class="cls-16" d="M148,397.31l-1.81-1.8c0-1.47,0-2.94,0-4.4-.28-1.21-.57-2.41-.85-3.62,0-27.19.18-54.38-.08-81.57-.13-12.83.31-25.66.12-38.49s-.07-25.85,0-38.78c0-1.85-1-4.54,2.61-4.39q0,50.4,0,100.79c0,20.61-.11,41.22.06,61.82,0,3.44,1.2,6.87,1.85,10.3Z"/><path class="cls-15" d="M145.35,387.49c.28,1.21.57,2.41.85,3.62C145.92,389.9,145.63,388.7,145.35,387.49Z"/><path class="cls-18" d="M150,397.17c-.65-3.43-1.82-6.86-1.85-10.3-.17-20.6-.07-41.21-.06-61.82,2.78-.25,3.65-1.8,3.61-4.52-.13-8.62-.08-17.24,0-25.86a30.19,30.19,0,0,1,.58-4.3l2.07.08c0,2.61.13,5.24,0,7.85-.2,3.22,1,4.48,4.35,4.51,8.58.08,11.45-3.86,9.86-13.46a59.84,59.84,0,0,1-.68-11c0-1.41,1.3-2.8,2.25-4.69,1.09,1.24,1.76,1.65,1.78,2.1.36,6.77.57,13.55.94,20.33.36,6.57.81,13.15,1.4,19.71,0,.49,1.59.84,2.44,1.25.59,3.55,1.59,7.09,1.7,10.66.26,8.16.1,16.34.06,24.51a11,11,0,0,1-.51,3.9,11.9,11.9,0,0,0,9.73,16.21c5.06.49,10.15.87,15.23.88,30,.08,60,0,90,0,8.61,0,17.23.06,25.85,0,5.91-.05,11.34-3.7,12.25-8,1.76-4.49,1.22-9.07,1.05-13.78-.28-7.79.65-15.62.66-23.44,0-7.51-.51-15-.8-22.55,1.19-1.22,2.67-2.27,3.51-3.7s1-3.22,1.5-4.86l1.22-.29a65.72,65.72,0,0,1,2.54,7.47c.54,2.41,1.36,3.58,4,4.36,2.11.62,3.59,3.38,4.83,5.72,3.57.77,6.73,1.79,7,6.8,0,.85,3.14,1.57,4.83,2.35,0,22.37,0,44.75,0,67.12a55.67,55.67,0,0,1-.89,7l-3.53.92-2.75.13c-1.93-.05-3.87-.13-5.8-.14q-94.56,0-189.12-.05A80.2,80.2,0,0,1,150,397.17Z"/><path class="cls-19" d="M319.33,237.52l2.46,1.1,2,1.74a1.73,1.73,0,0,0,.68,0l1,1,.89,1.67,1.16,2.67-.17,72.2c-.59-1.14-1.66-2.27-1.7-3.44-.19-5.18,0-10.38-.1-15.57-.21-9.22-.28-9.23-9.3-9.53-.59,0-1.33.18-1.75-.1-2.59-1.68-5.84-3-7.42-5.36-1.38-2.07-.64-5.45-1.2-8.18-.67-3.22-1.73-6.37-2.62-9.55v-3.57c-.12-2.34-.35-4.58-3.56-4.46l-.88-2.68,4.24-1c-.1-.53-.21-1.06-.31-1.58h-5c-1.37-.42-3-.47-4.07-1.29q-17.79-14-35.39-28.11c-2.2-1.78-4.06-1.95-6.31-.16-8.5,6.8-17,13.63-25.65,20.23-4.79,3.64-9.9,6.86-14.87,10.27-1.89.52-4.24.54-5.53,1.72-.85.78-.22,3.22-.2,4.91a18,18,0,0,0,.27,2.18c-.5.27-1.28.41-1.46.82-2.9,6.63-4.56,13.51-3.93,20.83a18.46,18.46,0,0,1-.41,3.74l-1.54-.12V267.09c-3.42,0-6.12.18-8.78,0-3.64-.31-5.74.63-5.33,4.81a32.86,32.86,0,0,1-.07,7.55c-.14,1-1.51,1.87-2.31,2.8l-.36-37.45,1-1.71,10.78-9,5.3-4.38,6.26-5.41h0l1.72-.13L240,198.8c3.87-3,7.73-6,11.57-9,2.48-1.94,4.77-1.76,7.22.18q25.06,19.77,50.23,39.44a23.5,23.5,0,0,0,3.89,2l1.95,1.82,3.42,2.61Z"/><path class="cls-20" d="M181.83,244.76q.18,18.74.35,37.45l.51,50.89a88.74,88.74,0,0,0-.58,9.19c.25,7-1.9,14.44,2.69,20.94a8,8,0,0,0-.24,1.66c2.33.76,4.68,2,7.05,2,12.93.19,25.85.09,38.77.09h88.24c3.05,0,6-.07,6.89-3.91.63-2.23,1.79-4.44,1.82-6.67.16-12.83.05-25.66,0-38.49q.09-36.09.16-72.2l1.61,0h0q0,50,0,99.89c0,7.9,1.29,16-3.56,23.19l-3.56,0-1.79.86H190l-2.68-.88h-1.77L182.83,367c-.9-3.74-2.54-7.46-2.56-11.2-.2-36.41-.12-72.82-.12-109.22Z"/><path class="cls-21" d="M180.15,246.56c0,36.4-.08,72.81.12,109.22,0,3.74,1.66,7.46,2.56,11.2l2.68,1.78h1.77l2.68.88h1.79a5.19,5.19,0,0,0,8,0h9.81c.4.56.8,1.59,1.22,1.6q7.69.17,15.41,0c.42,0,.81-1,1.22-1.6h39.25c.41.56.8,1.59,1.22,1.6q7.69.17,15.41,0c.42,0,.81-1,1.22-1.6h25l.69,1.39c.36-.47.73-.93,1.09-1.39h8.92l1.79-.86,3.56,0,5.36-3.56c-.91,4.31-6.34,8-12.25,8-8.62.08-17.24,0-25.85,0-30,0-60,0-90,0-5.08,0-10.17-.39-15.23-.88a11.9,11.9,0,0,1-9.73-16.21,11,11,0,0,0,.51-3.9c0-8.17.2-16.35-.06-24.51-.11-3.57-1.11-7.11-1.7-10.66V282.23c.59-.85,1.76-1.76,1.68-2.55-.38-3.92-1.09-7.82-1.68-11.72V252.79c.6-1.78,1.19-3.57,1.78-5.35Z"/><path class="cls-22" d="M330.93,365.19l-5.36,3.56c4.85-7.16,3.56-15.29,3.56-23.19q.06-49.93,0-99.89c3.61.41,2.44,3.24,2.69,5.34v44.6q0,4.9,0,9.81c.29,7.52.81,15,.8,22.55,0,7.82-.94,15.65-.66,23.44C332.15,356.12,332.69,360.7,330.93,365.19Z"/><path class="cls-18" d="M331.83,295.61V275.09c.9,1.39,2.36,2.7,2.58,4.19.6,4.16.69,8.39,1,12.6C335.57,294.42,334.51,295.79,331.83,295.61Z"/><path class="cls-18" d="M331.83,251c-.25-2.1.92-4.93-2.69-5.34h0L326.37,243l-.89-1.67c0-.36.07-.71.1-1.07l3.36-1.33c2.34,2.45,5,4.57,6.73,7.26,1,1.49.52,3.91.75,6.45Z"/><path class="cls-18" d="M171.15,245.62c3.73,4.57.54,8.74.72,13C168.85,256.72,168.49,250.62,171.15,245.62Z"/><path class="cls-18" d="M193.63,234.1l-10.78,9C183,237,188.14,232.66,193.63,234.1Z"/><path class="cls-18" d="M176.58,268c.59,3.9,1.3,7.8,1.68,11.72.08.79-1.09,1.7-1.68,2.55-.54-3.64-1.23-7.27-1.52-10.93C175,270.23,176,269.07,176.58,268Z"/><path class="cls-18" d="M205.19,224.31l-6.26,5.41C198.64,225.17,201.45,224.19,205.19,224.31Z"/><path class="cls-18" d="M336.57,266.43c.17-1.46.34-2.93.52-4.39l1.28.13v4.56Z"/><path class="cls-18" d="M178.36,247.44c-.59,1.78-1.18,3.57-1.78,5.35,0-1.59,0-3.19.12-4.77C176.73,247.77,177.78,247.63,178.36,247.44Z"/><path class="cls-18" d="M337.56,240.07c-.84.36-1.38.8-1.68.68s-.7-.79-1-1.21c.41-.28.84-.82,1.22-.78S336.82,239.38,337.56,240.07Z"/><path class="cls-18" d="M354.76,305.92c0,.86-.09,1.72-.14,2.58l-1-.05.12-2.59Z"/><path class="cls-18" d="M206.91,224.19l-1.72.13,1-1.47Z"/><path class="cls-23" d="M314.82,233.3l-1.95-1.82Z"/><path class="cls-23" d="M323.79,240.36l-2-1.74Z"/><path class="cls-23" d="M319.33,237.52l-1.09-1.61Z"/><path class="cls-23" d="M325.58,240.3c0,.36-.06.71-.1,1.07l-1-1Z"/><path class="cls-24" d="M150,397.17a80.2,80.2,0,0,0,9.21,1.07q94.56.09,189.12.05c1.93,0,3.87.09,5.8.14-.11,4-3.19,2.37-5,2.38q-98.31.12-196.62.08L148,397.31Z"/><path class="cls-25" d="M152.48,400.89q98.31,0,196.62-.08c1.79,0,4.87,1.59,5-2.38l2.75-.13c0,.86,0,1.72,0,2.58-1.9.6-3.8,1.7-5.7,1.71q-97.14.14-194.27,0C155.39,402.59,153.93,401.48,152.48,400.89Z"/><path class="cls-24" d="M356.81,400.88c0-.86,0-1.72,0-2.58l3.53-.92c0,.27,0,.54,0,.81Z"/><path class="cls-26" d="M211.48,253.79c5-3.41,10.08-6.63,14.87-10.27,8.66-6.6,17.15-13.43,25.65-20.23,2.25-1.79,4.11-1.62,6.31.16q17.61,14.16,35.39,28.11c1.05.82,2.7.87,4.07,1.29l1.06,2.62c.29.89.59,1.78.88,2.68,0,.61.07,1.22.1,1.82,0,22.34-.12,44.68,0,67,0,4.59-1.25,8.1-5.66,10L215,336.85c-4.23-2.56-5.46-6.29-5.42-11.19.19-21.91.05-43.82,0-65.74l0-1.82Z"/><path class="cls-27" d="M184.8,363.23c-4.59-6.5-2.44-13.89-2.69-20.94a88.74,88.74,0,0,1,.58-9.19c.94-2.09,2.38-4.1,2.7-6.28.59-3.95.5-8,.69-11.84l14.59,2.58,1.54-13.82,1.53.06a23.2,23.2,0,0,0,.55,3.95,16.1,16.1,0,0,0,1.72,3c0,6.53-.4,13.1.12,19.6.68,8.63,4.22,13.63,13.41,13.51q34.76-.47,69.53,0c9.83.14,14-4.71,14.13-14.07.26-15.3.11-30.6,0-45.9,0-1.17-1.1-2.32-1.68-3.48V268l1.76-1.79c.89,3.18,2,6.33,2.62,9.55.56,2.73-.18,6.11,1.2,8.18,1.58,2.38,4.83,3.68,7.42,5.36.42.28,1.16.08,1.75.1,9,.3,9.09.31,9.3,9.53.11,5.19-.09,10.39.1,15.57,0,1.17,1.11,2.3,1.7,3.44,0,12.83.13,25.66,0,38.49,0,2.23-1.19,4.44-1.82,6.67-2.76.42-5.52,1.18-8.28,1.18q-63,.12-125.93,0A40.7,40.7,0,0,1,184.8,363.23Z"/><path class="cls-28" d="M206,310.78a16.1,16.1,0,0,1-1.72-3,23.2,23.2,0,0,1-.55-3.95l-1.53-.06-1.54,13.82L186.08,315c-.19,3.84-.1,7.89-.69,11.84-.32,2.18-1.76,4.19-2.7,6.28l-.51-50.89c.81-.93,2.18-1.78,2.32-2.8a32.86,32.86,0,0,0,.07-7.55c-.41-4.18,1.69-5.12,5.33-4.81,2.66.22,5.36,0,8.78,0v20.78l1.54.12a18.46,18.46,0,0,0,.41-3.74c-.63-7.32,1-14.2,3.93-20.83.18-.41,1-.55,1.46-.82h0Q206,286.7,206,310.78Z"/><path class="cls-28" d="M211.48,253.79l-1.85,4.31L207.84,260v2.65H206a18,18,0,0,1-.27-2.18c0-1.69-.65-4.13.2-4.91C207.24,254.33,209.59,254.31,211.48,253.79Z"/><path class="cls-27" d="M298.83,255.47l-1.06-2.62h5c.1.52.21,1.05.31,1.58Z"/><path class="cls-27" d="M299.81,260c0-.61-.07-1.22-.1-1.83,3.21-.12,3.44,2.12,3.56,4.46h-1.78Z"/><path class="cls-29" d="M301.49,262.61h1.78v3.57L301.51,268C301.5,266.19,301.5,264.4,301.49,262.61Z"/><path class="cls-23" d="M326.37,243l2.76,2.63-1.61,0Z"/><path class="cls-30" d="M184.8,363.23a40.7,40.7,0,0,0,6.5,1q63,.09,125.93,0c2.76,0,5.52-.76,8.28-1.18-.86,3.84-3.84,3.91-6.89,3.91H230.38c-12.92,0-25.84.1-38.77-.09-2.37,0-4.72-1.24-7.05-2A8,8,0,0,1,184.8,363.23Z"/><path class="cls-22" d="M227.44,369.66c-.41.56-.8,1.59-1.22,1.6q-7.71.17-15.41,0c-.42,0-.82-1-1.22-1.6Z"/><path class="cls-22" d="M284.54,369.66c-.41.56-.8,1.59-1.22,1.6q-7.71.17-15.41,0c-.42,0-.81-1-1.22-1.6Z"/><path class="cls-22" d="M199.78,369.66a5.19,5.19,0,0,1-8,0Z"/><path class="cls-22" d="M185.51,368.76,182.83,367Z"/><path class="cls-22" d="M190,369.65l-2.68-.88Z"/><path class="cls-22" d="M322,368.79l-1.79.86Z"/><path class="cls-22" d="M311.3,369.66c-.36.46-.73.92-1.09,1.39l-.69-1.39Z"/><path class="cls-31" d="M301.49,262.61c0,1.79,0,3.58,0,5.36v12.47q0,24.27,0,48.56c0,8.12-4,12.11-11.86,12.11h-70c-7.92,0-10.94-3.06-11-11,0-20.79,0-41.58,0-62.38a32.17,32.17,0,0,0-.82-5.08V260l1.75,0c0,21.92.16,43.83,0,65.74,0,4.9,1.19,8.63,5.42,11.19,1.37.52,2.74,1.48,4.11,1.48q35.68.15,71.37,0c1.22,0,2.43-.88,3.65-1.34,4.41-1.92,5.67-5.43,5.66-10-.08-22.34,0-44.68,0-67Z"/><path class="cls-30" d="M294.11,337c-1.22.46-2.43,1.33-3.65,1.34q-35.68.11-71.37,0c-1.37,0-2.74-1-4.11-1.48Z"/><path class="cls-29" d="M209.59,259.92l-1.75,0,1.79-1.86C209.61,258.71,209.6,259.32,209.59,259.92Z"/><path class="cls-29" d="M207.84,262.61a32.17,32.17,0,0,1,.82,5.08c.06,20.8,0,41.59,0,62.38,0,8,3,11,11,11h70c7.91,0,11.84-4,11.86-12.11q.06-24.28,0-48.56c.58,1.16,1.67,2.31,1.68,3.48.12,15.3.27,30.6,0,45.9-.16,9.36-4.3,14.21-14.13,14.07q-34.76-.5-69.53,0c-9.19.12-12.73-4.88-13.41-13.51-.52-6.5-.11-13.07-.12-19.6q0-24.09,0-48.17Z"/></g></g></svg>