<svg xmlns="http://www.w3.org/2000/svg" xmlns:xlink="http://www.w3.org/1999/xlink" viewBox="0 0 507.88 507.98"><defs><style>.cls-1{fill:#e8ddc6;}.cls-2{clip-path:url(#clip-path);}.cls-3{clip-path:url(#clip-path-2);}.cls-4{fill:#566c84;}</style><clipPath id="clip-path"><rect class="cls-1" width="507.88" height="507.98" rx="36.33"/></clipPath><clipPath id="clip-path-2"><rect class="cls-1" width="507.88" height="507.98"/></clipPath></defs><g id="Layer_2" data-name="Layer 2"><g id="Layer_3" data-name="Layer 3"><rect class="cls-1" width="507.88" height="507.98" rx="36.33"/><g class="cls-2"><rect class="cls-1" width="507.88" height="507.98"/><g class="cls-3"><path class="cls-1" d="M0,253.46q0,110,0,220C0,493.74,14,508,34.16,508q219.75,0,439.5,0c20.16,0,34.2-14.17,34.21-34.4q0-219.3,0-438.59c0-21.15-13.93-35-35.16-35H35.22C13.75,0,0,13.83,0,35.42q0,109,0,218"/></g></g><path class="cls-4" d="M254.17,199.51a54.49,54.49,0,1,1-54.74,54.06A54.43,54.43,0,0,1,254.17,199.51Zm-.24,17.81A36.68,36.68,0,1,0,290.59,254,36.8,36.8,0,0,0,253.93,217.32Z"/><path class="cls-4" d="M208.13,88.67v17.42H106.3v102H88.54V88.67Z"/><path class="cls-4" d="M299.7,106.34V88.59H419.29V208.18H401.78V106.34Z"/><path class="cls-4" d="M88.55,299.79H106V401.64h102v17.75H88.55Z"/><path class="cls-4" d="M401.59,299.77h17.75v119.6H299.72V401.83H401.59Z"/></g></g></svg>