<svg xmlns="http://www.w3.org/2000/svg" xmlns:xlink="http://www.w3.org/1999/xlink" viewBox="0 0 507.88 507.98"><defs><style>.cls-1{fill:#5c5c99;}.cls-2{clip-path:url(#clip-path);}.cls-3{clip-path:url(#clip-path-2);}.cls-4{fill:#e8ddc6;}</style><clipPath id="clip-path"><rect class="cls-1" width="507.88" height="507.98" rx="36.33"/></clipPath><clipPath id="clip-path-2"><rect class="cls-1" width="507.88" height="507.98"/></clipPath></defs><g id="Layer_2" data-name="Layer 2"><g id="Layer_3" data-name="Layer 3"><rect class="cls-1" width="507.88" height="507.98" rx="36.33"/><g class="cls-2"><rect class="cls-1" width="507.88" height="507.98"/><g class="cls-3"><path class="cls-1" d="M0,253.46q0,110,0,220C0,493.74,14,508,34.16,508q219.75,0,439.5,0c20.16,0,34.2-14.17,34.21-34.4q0-219.3,0-438.59c0-21.15-13.93-35-35.16-35H35.22C13.75,0,0,13.83,0,35.42q0,109,0,218"/></g></g><path class="cls-4" d="M240.63,52.16h26.79c1.15.21,2.31.45,3.47.62,9.06,1.36,18.32,2,27.17,4.19,75.62,19,125.69,65.72,149.37,140,4.45,14,5.6,29,8.27,43.51v26.79c-.22,1.4-.45,2.81-.66,4.21-1.32,8.94-2.07,18-4,26.8C426.62,406.89,318.33,475.33,210.06,450.86,102.35,426.52,32.61,320.17,57.08,210c17.54-79,79.7-139,159-154.35C224.21,54.07,232.46,53.3,240.63,52.16Zm96.71,323.18.67-.71c-.39-1.24-.74-2.49-1.16-3.72-10-29.73-19.88-59.48-30-89.16-1.3-3.81-.94-5.91,2.59-8.39,25.59-17.93,51-36.13,76.44-54.26,1.33-.95,2.63-1.94,3.94-2.92a8.89,8.89,0,0,0-4.44-.83c-31.38.29-62.76.5-94.13,1-4.27.06-6.14-1.2-7.4-5.32-9.09-29.6-18.44-59.12-27.73-88.65-.51-1.63-1.2-3.19-2.2-5.84-1,2.82-1.57,4.41-2.07,6-9.25,29.41-18.58,58.8-27.61,88.29-1.33,4.34-3.29,5.54-7.7,5.47-31.38-.48-62.76-.67-94.14-1h-4a12.27,12.27,0,0,0,3.65,3.68c25.56,18.2,51.08,36.45,76.74,54.51,3.12,2.2,3.79,4.09,2.56,7.71-10.17,29.81-20.14,59.68-30.16,89.54-.44,1.31-.79,2.66-1.56,5.23,2.22-1.53,3.48-2.34,4.68-3.22,25.11-18.61,50.25-37.16,75.24-55.91,3.28-2.45,5.4-2.65,8.8-.1,25,18.78,50.13,37.32,75.23,55.92C334.82,373.62,336.1,374.46,337.34,375.34Z"/><path class="cls-4" d="M248.84,275c-6.55,0-13.1-.06-19.66,0-2.6,0-3.76-.88-3.74-3.66q.13-17.49,0-35c0-2.76,1.09-3.7,3.72-3.69q19.67.09,39.32,0c2.76,0,4,.88,4,3.86q-.17,17.29,0,34.6c0,3-1.18,3.93-4,3.89C262,274.92,255.4,275,248.84,275Z"/><path class="cls-4" d="M290,237.79v32.1c-5.32-3.58-10.19-6.39-14.45-9.92-2.74-2.27-.87-12,2.19-14.09C281.55,243.34,285.36,240.86,290,237.79Z"/><path class="cls-4" d="M223.66,245.27c-.37,1.46-.35,3.25-1.22,4.3-1.28,1.54-4.43.21-4.65-1.83-.17-1.54,0-3.12-.09-4.68-.1-2.09.72-3.14,2.93-3.12s2.84,1.35,2.74,3.31c0,.65,0,1.3,0,1.95Z"/></g></g></svg>