<svg xmlns="http://www.w3.org/2000/svg" xmlns:xlink="http://www.w3.org/1999/xlink" viewBox="0 0 507.88 507.98"><defs><style>.cls-1{fill:#859667;}.cls-2{clip-path:url(#clip-path);}.cls-3{clip-path:url(#clip-path-2);}.cls-4{fill:#775943;}</style><clipPath id="clip-path"><rect class="cls-1" width="507.88" height="507.98" rx="36.33"/></clipPath><clipPath id="clip-path-2"><rect class="cls-1" width="507.88" height="507.98"/></clipPath></defs><g id="Layer_2" data-name="Layer 2"><g id="Layer_3" data-name="Layer 3"><rect class="cls-1" width="507.88" height="507.98" rx="36.33"/><g class="cls-2"><rect class="cls-1" width="507.88" height="507.98"/><g class="cls-3"><path class="cls-1" d="M0,253.46q0,110,0,220C0,493.74,14,508,34.16,508q219.75,0,439.5,0c20.16,0,34.2-14.17,34.21-34.4q0-219.3,0-438.59c0-21.15-13.93-35-35.16-35H35.22C13.75,0,0,13.83,0,35.42q0,109,0,218"/></g></g><path class="cls-4" d="M249.16,75.09c15.35,0,26.41,4.43,35.28,13.46Q354.64,160,424.61,231.71c5.65,5.79,10.26,12.39,11.16,20.79,1.22,11.38-5.33,19-14.06,23.9A380.73,380.73,0,0,1,382.24,295c-14.29,5.93-29,10.85-43.49,16.27a48.55,48.55,0,0,0-5.76,2.8c-9.59,5.12-9.66,7.54-.27,13.38,6.34,3.95,13,7.45,19.12,11.69,7.86,5.43,8.42,9.82,3.47,18.06-3.82,6.37-9.76,9.7-16.5,11.92-7.09,2.33-14.64,3.68-21.26,6.95a144.14,144.14,0,0,0-23.26,14.69c-5.84,4.44-5.19,7.06,1,10.76,2,1.18,4.08,2.19,6,3.42,5.66,3.54,5.83,7,.38,11.15-9.5,7.17-20.06,12.49-31.71,14.73a119.18,119.18,0,0,1-25.78,2c-7.13-.2-12.06-4.58-13.62-12.13-2-9.78-8.33-15.4-17.94-17.53-4.68-1-9.46-1.77-14-3.16a29.94,29.94,0,0,1-9-4.35c-5.29-3.94-5.89-8-2-13.34,3.06-4.13,6.87-7.7,10.08-11.73,5.94-7.45,5.26-11.58-3.08-16.07a123.47,123.47,0,0,0-16.16-6.95c-16.87-6.18-33.83-12.09-50.71-18.26a29.23,29.23,0,0,1-6.93-3.94c-6.19-4.48-6.14-8.52.4-12.82,4.74-3.11,9.81-5.74,14.77-8.52,3.87-2.17,7.91-4.09,11.69-6.42,5.34-3.31,5.47-6.25-.22-8.52-10.38-4.13-21.05-7.56-31.67-11.09-8.44-2.8-17-5.3-25.46-7.95-.68-.21-1.34-.48-2-.74-17.55-7.11-21.12-18.47-10.31-33.85A106.89,106.89,0,0,1,89.2,222.52q64.68-66.4,129.46-132.71C227.79,80.43,238.51,74.94,249.16,75.09Zm-7.5,109.62c9.81-6.17,19-11.81,28-17.75,2.91-1.92,5.25-2.13,8.27-.35,4.79,2.82,9.82,5.26,15.33,8.18,1.72-9.82,3.26-18.63,5-28.6l23.61,19c3.37-5.72,2.42-11-3-16.56-15.15-15.54-30.29-31.1-45.65-46.45-12.69-12.69-29.49-12.66-42.17.09q-28.78,29-57.2,58.3a50.11,50.11,0,0,0-7.23,9.2c-3.4,5.72-1.29,9.22,5.38,9.28,12.28.12,24.56,0,36.84.21,3.45.06,5-1.39,6.36-4.35,4-9.1,8.28-18.11,12.48-27.14.71-1.52,1.6-2.95,3.15-5.78,2.08,8.14,3.79,14.78,5.47,21.43C238,170.28,239.74,177.11,241.66,184.71Zm18.21,130.82c-5.62-7.12-63-20-71.67-16.12a21.09,21.09,0,0,0,2.6,2A176.89,176.89,0,0,0,244.93,320C250.38,320.94,255.81,320.12,259.87,315.53Z"/></g></g></svg>