<svg xmlns="http://www.w3.org/2000/svg" viewBox="0 0 507.88 507.98"><defs><style>.cls-1{fill:#7b94ad;}.cls-2{fill:#e8ddc6;}.cls-3{fill:#6b6b6b;}</style></defs><g id="Layer_2" data-name="Layer 2"><g id="Layer_3" data-name="Layer 3"><rect class="cls-1" width="507.88" height="507.98" rx="36.33"/><rect class="cls-2" y="157.11" width="507.88" height="350.87" rx="37.17"/><path class="cls-3" d="M245.93,434.55c-22.25-.34-47.93-14.81-67.27-41.22-4.57-6.25-8-13.19-.13-19s12.93-.48,17.79,5.86c33.71,44,86.36,43.72,120.75-.55,4.63-6,9.51-10.73,16.93-5.67,8.05,5.5,5.09,12.31.74,18.91C317.94,418.37,287.93,434.46,245.93,434.55Z"/><path class="cls-3" d="M110,308.61c.26-1.52.42-5.43,1.61-9,3.56-10.71,9.42-19.74,22.12-19.66s18.48,9.17,21.95,19.89a38,38,0,0,1,1.48,11.32c.12,17.44-10.46,31.21-23.67,31.12S109.93,328.36,110,308.61Z"/><path class="cls-3" d="M397.89,314a60.22,60.22,0,0,1-2.11,9.84c-3.64,10.28-9.75,18.44-21.82,18.29-11.4-.14-17.43-7.9-20.93-17.71A40.88,40.88,0,0,1,350.76,312c-.54-18.07,10.26-32.43,23.85-32.2C387.75,280,398,293.9,397.89,314Z"/></g></g></svg>