<svg xmlns="http://www.w3.org/2000/svg" viewBox="0 0 507.88 507.98"><defs><style>.cls-1{fill:#374a5b;}.cls-2{fill:#cb952a;}.cls-3{fill:#e2b561;}.cls-4{fill:#e1b560;}.cls-5{fill:#d5923c;}.cls-6{fill:#f0c26a;}.cls-7{fill:#a0721b;}.cls-8{fill:#efc26a;}.cls-9{fill:#e2b661;}.cls-10{fill:#d4923c;}.cls-11{fill:#d4923b;}.cls-12{fill:#e0b45f;}.cls-13{fill:#bc6322;}.cls-14{fill:#ca952a;}.cls-15{fill:#deb25d;}.cls-16{fill:#edc16a;}.cls-17{fill:#ecc06a;}.cls-18{fill:#ad3810;}.cls-19{fill:#edc16b;}.cls-20{fill:#d3562b;}.cls-21{fill:#d4582d;}</style></defs><g id="Layer_2" data-name="Layer 2"><g id="Layer_3" data-name="Layer 3"><rect class="cls-1" width="507.88" height="507.98" rx="36.33"/><path class="cls-2" d="M449.87,277.3c-2.05,23.57-9.24,45.61-19.88,66.62a10.31,10.31,0,0,1-2.13,2.15c-9.3-1.08-18.59-2.37-27.92-3.17-12.53-1.06-24.31-2.37-33.49-13.28-4.56-5.43-12.26-8.87-19.18-11.56-25.53-9.91-51.37-9.68-77.23-.72a20.74,20.74,0,0,1-9.08,1c-37-4.8-74.15-8.17-111.51-6.54-27.36,1.2-54.58,4.14-80.85,12.7l-10.35-38.1c16-2,32-5.13,48-5.8,52.24-2.18,104.18.72,155.52,11.68,32.56,6.95,64.87,15.81,98.83,13.21C392.68,303,422.67,294.74,449.87,277.3Z"/><path class="cls-3" d="M449.87,277.3c-27.2,17.44-57.19,25.69-89.23,28.14-34,2.6-66.27-6.26-98.83-13.21-51.34-11-103.28-13.86-155.52-11.68-16.07.67-32,3.8-48,5.8q-.95-7.08-1.87-14.17c1.51-.39,3-.87,4.54-1.15,37.64-6.89,75.56-8.06,113.65-5.33,15.32,1.1,30.62,2.52,46,3.51,2.7.18,5.48-1,9.66-1.89-2.25-2-2.58-2.51-3-2.71C174.77,241.35,121,224.41,62.6,227.5c-1.69.09-3.42-.68-5.12-1.06q1.1-6.08,2.2-12.15c19.32-4.93,38.83-3,58.18-.78,33.17,3.8,64.17,15,94.54,28.55,32.22,14.44,65.82,24.56,101.28,27.42l14.85,6.45-22.7,2.73-1.3,1.48a9.07,9.07,0,0,0,1.94,1.26c22.14,7.59,44.94,8.05,67.88,5.85,26.38-2.53,51.32-10.8,76-20Z"/><path class="cls-4" d="M68.6,324.45c26.27-8.56,53.49-11.5,80.85-12.7,37.36-1.63,74.49,1.74,111.51,6.54a20.74,20.74,0,0,0,9.08-1c25.86-9,51.7-9.19,77.23.72,6.92,2.69,14.62,6.13,19.18,11.56,9.18,10.91,21,12.22,33.49,13.28,9.33.8,18.62,2.09,27.92,3.17q-5.64,9.38-11.3,18.75c-5.88-.62-11.82-1-17.65-1.92-14.13-2.3-14-2.36-19.19,10.57-1.69,4.19-.92,6.08,3.52,7.18,5.73,1.4,11.33,3.37,17,5.1l-7,7.22c-6-1.73-12-3.55-18-5.1-1.62-.42-3.91-.67-5.12.14-7.34,5-14.46,10.26-21.8,15.55L370,413l-9.14,6.6c-3.59-1.52-7.16-3.1-10.79-4.53-8.93-3.51-17.53-7.77-27.8-6a95.86,95.86,0,0,1-55.9-6.62,55.75,55.75,0,0,0-28.77-4.68c-10.6,1-21.35,2-31.62,4.66-20.18,5.13-40.06,11.38-60.07,17.16l-24.72-18.91c7.43-2.1,14.92-4,22.28-6.33A273.72,273.72,0,0,1,231.82,382a35.9,35.9,0,0,0,5.61-.85c-1.2-3-2.71-5.3-3-7.73-1-8.79-6.18-11-14.16-10.23-25.83,2.38-51.78,3.75-77.49,7C129,372,115.7,376.9,102.18,380.41l-9.17-11c4.82-1,9.62-2.09,14.46-3,23.23-4.24,46.35-9.29,69.73-12.33,15.91-2.07,32.19-1.18,48.29-1.92,2.79-.13,6.63-1,8-2.88,4.53-6.16,8.15-13,12.33-19.89a16,16,0,0,0-3.07-1c-20.53-3.07-41-6.54-61.61-9-34.73-4.16-69-.45-102.86,7.7-2.37.57-4.17,3.52-6.23,5.36C70.93,329.78,69.76,327.12,68.6,324.45Zm238.91,76.67c3.15-.14,6.82-.06,10.43-.5,17.95-2.17,34.82-7.08,47.63-20.82,11.21-12,11.19-27.44-.19-39.23a49.25,49.25,0,0,0-13.56-10.34c-30.39-14.6-60.8-14.38-90.74,1.44-4.73,2.51-9.95,5.37-13,9.49-11.72,15.65-9,32.46,6.77,44.47C270.19,397.39,288.1,401,307.51,401.12Z"/><path class="cls-5" d="M313.68,269.48c-35.46-2.86-69.06-13-101.28-27.42C182,228.46,151,217.31,117.86,213.51c-19.35-2.21-38.86-4.15-58.18.78q5.52-17.76,11.06-35.52c2.85,1.43,5.61,3.93,8.54,4.14,42,3.05,81.2,15.51,118.45,34.72,8.1,4.18,16.25,8.46,24.79,11.55,49.15,17.76,99.14,17.6,149.25,5.11,26.23-6.54,51.12-16.6,70.9-36.18l4.26,17.82c-1.33,1.22-2.64,2.44-4,3.65-10.61,9.73-20.47,20.51-32.07,28.86-9.49,6.83-21.06,10.76-31.7,16l-17,3.38-1.62.08-7.78,1.48-4.71.12Z"/><path class="cls-6" d="M73.08,173.57l5.28-10.79c1.77-.32,3.62-1.14,5.3-.89,17.76,2.6,35.63,4.68,53.2,8.22,44.39,9,88.53,19.2,133,27.75a220.89,220.89,0,0,0,80.7.66c20.15-3.58,39.27-10.24,56.59-21.4,7.16-4.62,14.1-9.59,21.14-14.4q4.73,10.78,9.46,21.56a24.2,24.2,0,0,1-2.25,2.17c-32,23.85-68.37,36.83-107.67,40.25a278.74,278.74,0,0,1-131-19.74c-29.26-12-58.63-23.22-89.77-29.05C95.86,175.82,84.41,175,73.08,173.57Z"/><path class="cls-7" d="M89.41,144l10.73-15.21c2.25.89,4.44,2.28,6.77,2.6q54.9,7.68,109.83,15.1c23.31,3.16,46,10.3,70.22,7.31,37.91-4.67,68.92-22.14,96.44-47.32,13.07,7.24,21.45,18.91,29.33,31.05-38,23.83-79.33,37.34-124.22,39.66l-35.86.11c-11.32-1.54-22.79-2.36-33.93-4.75C175.56,163.35,132.5,153.6,89.41,144Z"/><path class="cls-2" d="M354.6,84.76l27.81,20a40.32,40.32,0,0,0-4.1,2.21c-43.17,30.29-91,40-142.57,31.16C192.91,130.81,150.2,123,106.6,122L138,94c2.77.48,5.54,1.44,8.29,1.39,26-.4,51.57,2.36,76.24,10.78,28,9.57,56.13,8.9,83.69-.16C322.89,100.55,338.51,92,354.6,84.76Z"/><path class="cls-8" d="M72.09,332.45c2.06-1.84,3.86-4.79,6.23-5.36,33.85-8.15,68.13-11.86,102.86-7.7,20.6,2.46,41.08,5.93,61.61,9a16,16,0,0,1,3.07,1c-4.18,6.9-7.8,13.73-12.33,19.89-1.41,1.93-5.25,2.75-8,2.88-16.1.74-32.38-.15-48.29,1.92-23.38,3-46.5,8.09-69.73,12.33-4.84.89-9.64,2-14.46,3Q82.54,350.92,72.09,332.45Z"/><path class="cls-9" d="M89.41,144c43.09,9.56,86.15,19.31,129.31,28.55,11.14,2.39,22.61,3.21,33.93,4.75,1.44.89,2.86,2.51,4.32,2.55q13.63.36,27.29,0c1.44,0,2.83-1.72,4.25-2.65,44.89-2.32,86.2-15.83,124.22-39.66l1.88,2.67c-3.5,3.47-6.61,7.45-10.55,10.3-24.15,17.51-52.15,25.8-80.65,32.59-13.31,3.17-26.85,5.39-40.29,8,25.93,5.22,51.56,2.37,76.1-5.13,23-7,45.07-17.46,67.54-26.4l1.52,3.08c-7,4.81-14,9.78-21.14,14.4-17.32,11.16-36.44,17.82-56.59,21.4a220.89,220.89,0,0,1-80.7-.66c-44.46-8.55-88.6-18.79-133-27.75-17.57-3.54-35.44-5.62-53.2-8.22-1.68-.25-3.53.57-5.3.89Z"/><path class="cls-3" d="M73.08,173.57c11.33,1.41,22.78,2.25,34,4.34,31.14,5.83,60.51,17.08,89.77,29.05a278.74,278.74,0,0,0,131,19.74c39.3-3.42,75.69-16.4,107.67-40.25a24.2,24.2,0,0,0,2.25-2.17l4.93,13.83c-19.78,19.58-44.67,29.64-70.9,36.18-50.11,12.49-100.1,12.65-149.25-5.11-8.54-3.09-16.69-7.37-24.79-11.55C160.48,198.42,121.3,186,79.28,182.91c-2.93-.21-5.69-2.71-8.54-4.14Z"/><path class="cls-7" d="M57.48,226.44c1.7.38,3.43,1.15,5.12,1.06,58.35-3.09,112.17,13.85,164.56,37.11.44.2.77.67,3,2.71-4.18.86-7,2.07-9.66,1.89-15.33-1-30.63-2.41-46-3.51-38.09-2.73-76-1.56-113.65,5.33-1.53.28-3,.76-4.54,1.15Q56.94,249.31,57.48,226.44Z"/><path class="cls-10" d="M145.88,419.62c20-5.78,39.89-12,60.07-17.16,10.27-2.62,21-3.65,31.62-4.66a55.75,55.75,0,0,1,28.77,4.68,95.86,95.86,0,0,0,55.9,6.62c10.27-1.77,18.87,2.49,27.8,6,3.63,1.43,7.2,3,10.79,4.53L335,433.75c-26.79-8.62-54.12-13.19-82.27-9.54-26,3.38-52,7.33-77.93,11Z"/><path class="cls-11" d="M308.53,64.42l35.91,14.85c-5,1.53-10,2.88-14.92,4.6C293.21,96.63,255.9,100.47,218,94.48c-20.25-3.19-40.1-8.87-60.13-13.43l41.5-16.89a11,11,0,0,0,2.9,1.11c25.61,1.75,51.21,4.15,76.85,4.78C288.86,70.29,298.72,66.42,308.53,64.42Z"/><path class="cls-12" d="M174.79,435.23c26-3.69,51.92-7.64,77.93-11,28.15-3.65,55.48.92,82.27,9.54-19,9.79-39.42,14.7-60.46,16.85C240,454.13,206.57,449.85,174.79,435.23Z"/><path class="cls-9" d="M106.6,122c43.6,1,86.31,8.77,129.14,16.13,51.53,8.85,99.4-.87,142.57-31.16a40.32,40.32,0,0,1,4.1-2.21l1,1.72c-27.52,25.18-58.53,42.65-96.44,47.32-24.25,3-46.91-4.15-70.22-7.31q-54.93-7.44-109.83-15.1c-2.33-.32-4.52-1.71-6.77-2.6l5.16-5.3,1.52-1.51Z"/><path class="cls-8" d="M102.18,380.41C115.7,376.9,129,372,142.79,370.2c25.71-3.29,51.66-4.66,77.49-7,8-.73,13.15,1.44,14.16,10.23.28,2.43,1.79,4.73,3,7.73a35.9,35.9,0,0,1-5.61.85,273.72,273.72,0,0,0-88.38,12.41c-7.36,2.33-14.85,4.23-22.28,6.33Q114,393.6,106.9,386.47l-1.35-1.41-.16-.17-2-2.78.17.21-1.36-1.9Z"/><path class="cls-4" d="M157.86,81.05c20,4.56,39.88,10.24,60.13,13.43,37.91,6,75.22,2.15,111.53-10.61,4.91-1.72,9.94-3.07,14.92-4.6l10.16,5.49C338.51,92,322.89,100.55,306.24,106c-27.56,9.06-55.69,9.73-83.69.16C197.88,97.77,172.3,95,146.31,95.41c-2.75,0-5.52-.91-8.29-1.39Z"/><path class="cls-13" d="M450.32,267.22c-24.65,9.23-49.59,17.5-76,20-22.94,2.2-45.74,1.74-67.88-5.85a9.07,9.07,0,0,1-1.94-1.26l1.3-1.48a186.24,186.24,0,0,0,84.56-9.42c20-6.22,36.8-17.46,50.89-32.9a75.57,75.57,0,0,1,7-6c1.11,7.48,2.63,14.93,3.2,22.45C451.79,257.54,450.73,262.4,450.32,267.22Z"/><path class="cls-14" d="M426.76,159.64c-22.47,8.94-44.49,19.36-67.54,26.4-24.54,7.5-50.17,10.35-76.1,5.13,13.44-2.65,27-4.87,40.29-8,28.5-6.79,56.5-15.08,80.65-32.59,3.94-2.85,7.05-6.83,10.55-10.3Z"/><path class="cls-15" d="M308.53,64.42c-9.81,2-19.67,5.87-29.42,5.63-25.64-.63-51.24-3-76.85-4.78a11,11,0,0,1-2.9-1.11c29.71-9.39,59.89-9.88,90.31-4.51C296,60.77,302.25,62.81,308.53,64.42Z"/><path class="cls-3" d="M448.23,230.34a75.57,75.57,0,0,0-7,6c-14.09,15.44-30.86,26.68-50.89,32.9l-11.2-4.83c10.64-5.21,22.21-9.14,31.7-16,11.6-8.35,21.46-19.13,32.07-28.86,1.33-1.21,2.64-2.43,4-3.65Q447.58,223.13,448.23,230.34Z"/><path class="cls-16" d="M400.22,385.75c-5.65-1.73-11.25-3.7-17-5.1-4.44-1.1-5.21-3-3.52-7.18,5.22-12.93,5.06-12.87,19.19-10.57,5.83,1,11.77,1.3,17.65,1.92l-15.23,19.92-1.07.87Z"/><path class="cls-17" d="M370,413l-21.65-9.47c7.34-5.29,14.46-10.58,21.8-15.55,1.21-.81,3.5-.56,5.12-.14,6,1.55,12,3.37,18,5.1Z"/><path class="cls-4" d="M103.38,382.11l2,2.78Z"/><path class="cls-2" d="M106.82,122l-1.52,1.51Z"/><path class="cls-4" d="M102.19,380.42l1.36,1.9C103.09,381.69,102.64,381.06,102.19,380.42Z"/><path class="cls-4" d="M400.26,385.61l1.07-.87A1.08,1.08,0,0,1,400.26,385.61Z"/><path class="cls-4" d="M105.55,385.06l1.35,1.41Z"/><path class="cls-3" d="M379.19,264.41l11.2,4.83a186.24,186.24,0,0,1-84.56,9.42l22.7-2.73-14.85-6.45h34.43c0,4.5,1.25,7.31,6.78,4.87l-2.07-5,7.78-1.48v5.56l2.14-.23-.52-5.41Zm-45.68,10.11,1,2.73,5.32-2.07-.86-2.33Z"/><path class="cls-18" d="M307.51,401.12c-19.41-.1-37.32-3.73-52.7-15.49-15.73-12-18.49-28.82-6.77-44.47,3.09-4.12,8.31-7,13-9.49,29.94-15.82,60.35-16,90.74-1.44a49.25,49.25,0,0,1,13.56,10.34c11.38,11.79,11.4,27.2.19,39.23-12.81,13.74-29.68,18.65-47.63,20.82C314.33,401.06,310.66,401,307.51,401.12Zm-9.8-43.85h.88l-.37-.51c-.36-1.54-.73-3.08-1.09-4.62l-2,.82Zm8.15-13c-6.16,1-12.79,1-18.34,3.38-7.24,3.14-7.21,10.8-.91,15.72,12.3,9.59,38.18,6.91,48.37-5,5-5.87,5-12.18-.66-17.33a32.79,32.79,0,0,0-10.56-6.44c-19.63-7.06-38.91-6.27-57.48,3.73-7.9,4.27-14.66,10.16-14.89,19.61-.24,9.78,6.47,16.15,14.27,21a47.79,47.79,0,0,0,9.92,4.59c24.54,8.48,49.14,8.31,73.63-.19,3.74-1.29,7.18-3.47,11.14-5.43-1.28-1.1-1.69-1.72-2-1.67a43.76,43.76,0,0,0-4.52,1c-11.56,2.94-23,7.28-34.72,8.51-18.42,1.93-36.54-.92-52.38-11.59-12.54-8.44-12.57-22.27-.39-31.08,14.84-10.73,31.53-11.81,48.6-7.87,5.53,1.27,11,4.63,15.44,8.3,5,4.12,4.34,9.62.05,14.51-7.85,8.94-30.67,11.29-40.18,4.09-5.6-4.23-5.71-10.07.57-13,4.52-2.11,10-2.24,15-3.25l9.11,6c-3.13,2.19-6.24,4.4-9.4,6.55A16,16,0,0,1,303,359.5a13.77,13.77,0,0,0,1.61.5c6.42.39,13.59-.91,14.08-7.75C319.23,344.89,311.52,344.92,305.86,344.3Z"/><path class="cls-3" d="M352.82,269.35l2.07,5c-5.53,2.44-6.77-.37-6.78-4.87Z"/><path class="cls-3" d="M362.22,267.79l.52,5.41-2.14.23v-5.56Z"/><path class="cls-19" d="M288.51,177.23c-1.42.93-2.81,2.61-4.25,2.65q-13.63.38-27.29,0c-1.46,0-2.88-1.66-4.32-2.55Z"/><path class="cls-3" d="M333.51,274.52l5.45-1.67.86,2.33-5.32,2.07Z"/><path class="cls-20" d="M305.82,345.85c-5,1-10.48,1.14-15,3.25-6.28,2.94-6.17,8.78-.57,13,9.51,7.2,32.33,4.85,40.18-4.09,4.29-4.89,4.95-10.39-.05-14.51-4.45-3.67-9.91-7-15.44-8.3-17.07-3.94-33.76-2.86-48.6,7.87-12.18,8.81-12.15,22.64.39,31.08,15.84,10.67,34,13.52,52.38,11.59,11.74-1.23,23.16-5.57,34.72-8.51a43.76,43.76,0,0,1,4.52-1c.31,0,.72.57,2,1.67-4,2-7.4,4.14-11.14,5.43-24.49,8.5-49.09,8.67-73.63.19a47.79,47.79,0,0,1-9.92-4.59c-7.8-4.88-14.51-11.25-14.27-21,.23-9.45,7-15.34,14.89-19.61,18.57-10,37.85-10.79,57.48-3.73a32.79,32.79,0,0,1,10.56,6.44c5.7,5.15,5.67,11.46.66,17.33-10.19,11.93-36.07,14.61-48.37,5-6.3-4.92-6.33-12.58.91-15.72,5.55-2.41,12.18-2.34,18.34-3.37C305.84,344.82,305.83,345.33,305.82,345.85Z"/><path class="cls-21" d="M305.82,345.85c0-.52,0-1,0-1.54,5.66.61,13.37.58,12.84,7.94-.49,6.84-7.66,8.14-14.08,7.75a13.77,13.77,0,0,1-1.61-.5,16,16,0,0,0,2.52-1.09c3.16-2.15,6.27-4.36,9.4-6.55Z"/><path class="cls-21" d="M297.71,357.28,295.16,353l2-.82c.36,1.54.73,3.08,1.09,4.62Z"/><path class="cls-21" d="M298.22,356.76l.37.51h-.88Z"/></g></g></svg>