<svg xmlns="http://www.w3.org/2000/svg" viewBox="0 0 507.88 507.98"><defs><style>.cls-1{fill:#b66b84;}.cls-2{fill:#e8ddc6;}</style></defs><g id="Layer_2" data-name="Layer 2"><g id="Layer_3" data-name="Layer 3"><rect class="cls-1" width="507.88" height="507.98" rx="36.33"/><path class="cls-2" d="M294.07,109.24a94.75,94.75,0,0,0-6.9,33.82c0,1.33-1.3,2.82-2.33,3.94a23.52,23.52,0,0,0-3.9,26.83c4.42,8.72,13.38,13.5,23.5,12.32-15.14-28.56-15.76-57.13.61-85.23C316.77,80.83,334.41,68,357,62.75a82.46,82.46,0,0,1,100.25,65.82c9,49.68-25.82,86.83-58,94.54-.89-4.6-1.78-9.2-2.72-14.08,23.36-8.5,39-24.52,45.25-48.75,4.81-18.74,1.8-36.67-8.5-53.13-20.37-32.54-63.95-41.67-95.54-20C305,109.64,300.4,152.35,318,178.86c7.81-6.15,8.94-19.85,2.39-29.12a6.55,6.55,0,0,0-1.53-1.89c-6.17-3.73-5.2-9.33-4-15,.71-3.29,1.54-6.55,2.5-10.6,1.53,1.27,2.57,2,3.47,2.9C344,147.59,352.43,174.72,344,205.71s-29.69,50.23-61.25,56.88c-18.25,3.84-35.91.71-52.31-8.38-2.3-1.28-4.17-1.66-6.23.08-4.37,3.7-8.61,3.11-12.8-.35a24.32,24.32,0,0,0-2.37-1.57c-5-3.23-10.07-1.44-12.2,4.3-1.79,4.82-3.55,9.66-5.34,14.49-1.66,4.49-4.57,5.83-9.1,4.24-5.87-2.07-11.74-4.18-17.63-6.2-4.32-1.48-11.95,3.3-12.58,7.77-.49,3.49-1.08,7-1.57,10.46-.62,4.33-3.23,6.36-7.7,6.35a39,39,0,0,0-9.43.73c-4.55,1.14-6.31,5.08-7.69,9.19-3,8.8-6.22,9.41-14,8.67a12.4,12.4,0,0,0-6.4,1.62c-5.29,2.74-10.21,7.68-15.64,8.24s-11.27-3.12-16.94-4.93-11.62-3.68-17.41-5.59c-5.63-1.85-6.91-3.82-5.91-9.72,1.39-8.29,3-16.54,4.5-24.81.92-5.17,3.75-8.68,8.33-11.33q61.75-35.76,123.44-71.69c2.64-1.53,3.72-3,3.52-6.28-3.2-54.3,49.14-95.62,101.08-79.91C291.5,108.31,292.63,108.74,294.07,109.24Zm-99.2,105.08c-1.57.86-2.88,1.55-4.15,2.29l-46,26.78q-33.9,19.74-67.81,39.48c-4.25,2.48-4.71,4.26-2.26,8.16,2.12,3.37,3.7,3.67,7.78,1.29q48.69-28.31,97.35-56.64l19.76-11.5C198,220.89,196.52,217.85,194.87,214.32Z"/><path class="cls-2" d="M356.92,163.86c18.26,13.45,29.11,30.48,32.83,51.69,7.48,42.61-19.25,82.4-61.32,91.65a95.31,95.31,0,0,1-14.51,1.72c-2.41.15-4.19.62-5.07,3-2,5.48-6,7.29-11.57,6.33a29.24,29.24,0,0,0-3.25-.13,7.77,7.77,0,0,0-8,8.87c.85,5.22,1.85,10.41,2.72,15.63.94,5.64-.8,8-6.41,9-6,1.09-12,2.19-18,3.34-3.76.72-8.3,8.92-6.94,12.5,1.24,3.3,2.55,6.56,3.83,9.85,2,5.19.9,7.51-4.11,10.37a32.31,32.31,0,0,0-7.41,5.8c-4.35,4.61-1.52,10.08-1.1,15.16.3,3.58-.9,6.88-3.71,7.81-7.13,2.37-10.53,7.9-13.15,14-3,7.06-7.85,10.32-15.52,11.21-8,.92-15.9,3.3-23.83,5.07-7.27,1.63-9.26.58-11.65-6.29-2.58-7.42-5-14.88-7.77-22.25-1.88-5.09-1.33-9.64,1.37-14.36q35.34-61.53,70.51-123.16c1.76-3.08,4.13-6-.51-9.64,33.46,7.5,62.46.86,86.47-22.28C354.73,225.82,362.6,197.2,356.92,163.86Zm-93.4,128.35c-3,5.22-5.86,10.24-8.74,15.26L195.67,410.88c-2.58,4.52-2.12,6.45,2,8.58,3.48,1.83,5,1.17,7.6-3.28l65.58-114.7c.57-1,1-2.09,1.55-3.18Z"/></g></g></svg>