<svg xmlns="http://www.w3.org/2000/svg" xmlns:xlink="http://www.w3.org/1999/xlink" viewBox="0 0 507.88 507.98"><defs><style>.cls-1{fill:#7b94ad;}.cls-2{clip-path:url(#clip-path);}.cls-3{clip-path:url(#clip-path-2);}.cls-4{fill:#e8ddc6;}</style><clipPath id="clip-path"><rect class="cls-1" width="507.88" height="507.98" rx="36.33"/></clipPath><clipPath id="clip-path-2"><rect class="cls-1" width="507.88" height="507.98"/></clipPath></defs><g id="Layer_2" data-name="Layer 2"><g id="Layer_3" data-name="Layer 3"><rect class="cls-1" width="507.88" height="507.98" rx="36.33"/><g class="cls-2"><rect class="cls-1" width="507.88" height="507.98"/><g class="cls-3"><path class="cls-1" d="M0,253.46q0,110,0,220C0,493.74,14,508,34.16,508q219.75,0,439.5,0c20.16,0,34.2-14.17,34.21-34.4q0-219.3,0-438.59c0-21.15-13.93-35-35.16-35H35.22C13.75,0,0,13.83,0,35.42q0,109,0,218"/></g></g><path class="cls-4" d="M254.62,254.48q-75,0-150,0c-11.95,0-12.35-.33-11.88-12.45q2.2-56.65,4.64-113.31c.57-12.92,6.94-19.81,20.07-20.52,7.53-.41,9.31-3.58,9.34-10.46.14-27.95,7.33-34.9,35.28-35,5.37,0,10.75-.2,16.1,0,7.78.34,14.71-.26,20.26-7.27,2.14-2.71,7.3-3.94,11.19-4.17,10-.57,20-.51,30-.14,11.16.41,16.38,6.33,16.14,17.36-.22,10.3-5.72,15.57-16.87,15.83-7.55.17-15.12-.13-22.68.12-8.58.29-16.39-.53-22.36-8.06-1.63-2.06-5.61-3-8.55-3.12-10.72-.35-21.47-.41-32.19,0S138.23,78.07,137.3,88.6c-1.69,19.05-1.52,19.24,17.51,19.24l224.65,0c3.42,0,6.84,0,10.25.11,13.47.62,20.42,6.74,21.27,20.16,1.13,17.77,1.39,35.58,2.14,53.37.88,20.95,1.91,41.9,2.79,62.86.39,9.06-.59,10.09-9.82,10.1Q330.36,254.52,254.62,254.48Z"/><path class="cls-4" d="M253.83,265.83q80.82,0,161.66.11c3.63,0,10.09-2.14,9.86,3.73-.13,3.53-5.12,7.5-8.78,10-2.25,1.56-6.13,1-9.28,1q-153.24.06-306.49-.08c-4.46,0-9.42-.82-13.2-2.94-2.55-1.45-3.44-5.85-5.08-8.93,2.73-1,5.46-2.77,8.19-2.79,40-.18,80-.13,120-.13Z"/><path class="cls-4" d="M253.59,456.15H188.47c-2.44,0-5.36.74-7.2-.34-3-1.71-6.64-4.29-7.37-7.17-1.11-4.44,2.62-7.07,7.08-7.31,5.59-.3,11.21-.21,16.82-.24,10.24-.06,20.49.13,30.73-.16,13-.37,17.64-5,17.69-18,.14-36.83,0-73.66,0-110.49,0-2.93-.07-5.85,0-8.78.14-5.47-1.29-11.67,7.82-11.54s7.41,6.65,7.43,11.9c.07,36.83,0,73.66,0,110.49,0,24.21,2.27,26.55,26.19,26.55,11.95,0,23.9-.14,35.85-.22,5.57,0,10.76.91,10.73,7.9,0,6.69-5.18,7.4-10.38,7.4Q288.71,456.17,253.59,456.15Z"/></g></g></svg>