<svg xmlns="http://www.w3.org/2000/svg" xmlns:xlink="http://www.w3.org/1999/xlink" viewBox="0 0 507.88 507.98"><defs><style>.cls-1{fill:#bcbcbc;}.cls-2{clip-path:url(#clip-path);}.cls-3{clip-path:url(#clip-path-2);}.cls-4{fill:#6b6b6b;}</style><clipPath id="clip-path"><rect class="cls-1" width="507.88" height="507.98" rx="36.33"/></clipPath><clipPath id="clip-path-2"><rect class="cls-1" width="507.88" height="507.98"/></clipPath></defs><g id="Layer_2" data-name="Layer 2"><g id="Layer_3" data-name="Layer 3"><rect class="cls-1" width="507.88" height="507.98" rx="36.33"/><g class="cls-2"><rect class="cls-1" width="507.88" height="507.98"/><g class="cls-3"><path class="cls-1" d="M0,253.46q0,110,0,220C0,493.74,14,508,34.16,508q219.75,0,439.5,0c20.16,0,34.2-14.17,34.21-34.4q0-219.3,0-438.59c0-21.15-13.93-35-35.16-35H35.22C13.75,0,0,13.83,0,35.42q0,109,0,218"/></g></g><path class="cls-4" d="M254,41.63c117.35,0,212.3,95,212.29,212.39,0,117.57-95.08,212.41-212.85,212.33C136.3,466.28,41.54,371,41.62,253.45,41.69,136.52,136.82,41.62,254,41.63Zm-.16,394.09c100.9-1,181.39-80.62,181.6-181.35.2-100.9-80.16-181.81-181.34-181.89-100.81-.08-181.39,80.3-181.6,181.13C72.26,354.62,152.79,434.6,253.81,435.72Z"/><path class="cls-4" d="M237,405.91v-84c-5.72,2.85-10.55,5.31-15.43,7.65-6,2.87-12.45,8.53-17.85,7.66s-9.79-8.25-14.49-12.9c-5.43-5.39-10.57-11.08-16.15-16.31-2.73-2.56-2.74-4.66-1.1-7.74,4.22-7.93,8.14-16,12.15-24.05.72-1.44,1.33-2.94,2.31-5.13H102.6c1.64-2.95,2.66-5.15,4-7.13,7.56-11.13,17.81-19.25,29.41-25.73a144.7,144.7,0,0,1,62.23-18,15.35,15.35,0,0,0,10.39-4.71c28.82-27.42,61-49.84,97.91-65.1a185.42,185.42,0,0,1,57.42-14c7.81-.58,8.11-.3,7.55,7.52-2.68,37-16.88,69.85-36.18,100.86a353.05,353.05,0,0,1-44.41,57,12,12,0,0,0-2.88,6.91c-2.12,28.13-9.67,54.41-27.19,76.92-5.13,6.58-12.16,11.68-18.43,17.33C241.14,404.11,239.34,404.67,237,405.91ZM304.76,187A16.19,16.19,0,0,0,288,203a16.39,16.39,0,0,0,16.47,16.89,16.18,16.18,0,0,0,16.41-16.36C321,194.15,314.09,187.11,304.76,187Z"/><path class="cls-4" d="M156.41,351.53a61.61,61.61,0,0,0,30.07-7.31c1.54-.82,3.71-.43,5.59-.6-.24,1.9.14,4.25-.82,5.65-9.13,13.24-22.74,18.89-37.9,21.56a83.56,83.56,0,0,1-13.88,1.1c-1.18,0-3.43-1.79-3.42-2.74.19-19,4.4-36.61,19.2-50.06a12.55,12.55,0,0,1,4-2.89c1.61-.53,3.49-.2,5.25-.25-.09,1.6.37,3.51-.35,4.75-4.68,8.1-6.82,16.89-7.73,26.07C156.3,348.12,156.41,349.45,156.41,351.53Z"/></g></g></svg>