<svg xmlns="http://www.w3.org/2000/svg" xmlns:xlink="http://www.w3.org/1999/xlink" viewBox="0 0 507.88 507.98"><defs><style>.cls-1{fill:#d69f49;}.cls-2{clip-path:url(#clip-path);}.cls-3{clip-path:url(#clip-path-2);}.cls-4{fill:#e8ddc6;}</style><clipPath id="clip-path"><rect class="cls-1" width="507.88" height="507.98" rx="36.33"/></clipPath><clipPath id="clip-path-2"><rect class="cls-1" width="507.88" height="507.98"/></clipPath></defs><g id="Layer_2" data-name="Layer 2"><g id="Layer_3" data-name="Layer 3"><rect class="cls-1" width="507.88" height="507.98" rx="36.33"/><g class="cls-2"><rect class="cls-1" width="507.88" height="507.98"/><g class="cls-3"><path class="cls-1" d="M0,253.46q0,110,0,220C0,493.74,14,508,34.16,508q219.75,0,439.5,0c20.16,0,34.2-14.17,34.21-34.4q0-219.3,0-438.59c0-21.15-13.93-35-35.16-35H35.22C13.75,0,0,13.83,0,35.42q0,109,0,218"/></g></g><path class="cls-4" d="M455.86,408.88H50.54l113.18-182.6c3.1,2.83,6,5.4,8.86,8.09q37.08,35.24,74.14,70.5c4.86,4.62,8.71,4.33,13.51-.31q28.38-27.43,56.86-54.73,10-9.6,20-19.22c1.09-1.05,2.22-2,3.78-3.47Z"/><path class="cls-4" d="M58.14,99.1H446.69a20.64,20.64,0,0,1-1.94,2.74Q411.31,134,377.83,166.1q-18.33,17.61-36.63,35.23l-77.93,75c-2.22,2.13-4.55,4.13-6.6,6.48-2.53,2.89-4.54,2.31-7.07-.14-10.43-10.1-21-20-31.48-30q-21.06-20-42.11-40-41.4-39.37-82.77-78.77c-10.88-10.33-21.8-20.6-32.69-30.92-1-.93-1.88-2-2.82-3Z"/><path class="cls-4" d="M463.61,109.3V388.08c-3.09-4.76-5.73-8.74-8.3-12.79q-31.92-50.37-63.81-100.76c-11.81-18.65-23.52-37.39-35.41-56-1.95-3-1.79-4.63.76-7.07q51.69-49.5,103.23-99.22C461,111.41,462,110.66,463.61,109.3Z"/><path class="cls-4" d="M44.27,383.88V113.29c1.85,1.44,3.34,2.41,4.64,3.64q49.64,47.16,99.27,94.32c2,1.87,2.34,3.16.73,5.75q-37.27,59.83-74.37,119.8-13.05,21-26.05,42.14c-1.11,1.79-2.29,3.51-3.44,5.26Z"/></g></g></svg>