<svg xmlns="http://www.w3.org/2000/svg" xmlns:xlink="http://www.w3.org/1999/xlink" viewBox="0 0 507.88 507.98"><defs><style>.cls-1{fill:#b0c686;}.cls-2{clip-path:url(#clip-path);}.cls-3{clip-path:url(#clip-path-2);}.cls-4{fill:#de6965;}.cls-5{fill:#e8ddc6;}.cls-6{fill:#c6bfb1;}.cls-7{fill:#9bb0c3;}.cls-8{fill:#a6bcd0;}.cls-9{fill:#7b94ad;}</style><clipPath id="clip-path"><rect class="cls-1" width="507.88" height="507.98" rx="36.33"/></clipPath><clipPath id="clip-path-2"><rect class="cls-1" width="507.88" height="507.98"/></clipPath></defs><g id="Layer_2" data-name="Layer 2"><g id="Layer_3" data-name="Layer 3"><rect class="cls-1" width="507.88" height="507.98" rx="36.33"/><g class="cls-2"><rect class="cls-1" width="507.88" height="507.98"/><g class="cls-3"><path class="cls-1" d="M0,253.46q0,110,0,220C0,493.74,14,508,34.16,508q219.75,0,439.5,0c20.16,0,34.2-14.17,34.21-34.4q0-219.3,0-438.59c0-21.15-13.93-35-35.16-35H35.22C13.75,0,0,13.83,0,35.42q0,109,0,218"/></g></g><path class="cls-4" d="M168.49,216.24c-4.42-10.64-9.78-21-13.09-32C145,149.88,154.88,120,178.54,94.5,205.31,65.61,247.75,56.92,285,71.64c35.4,14,60,49.38,60.75,87.53.29,14.45-4.42,27.71-9.89,40.75-2.42,5.76-5.16,11.38-7.75,17.07l-11.79,21.23L289.29,279.5l-40.43,53.88c-2-2.43-3.39-4-4.64-5.7q-24.36-33-48.67-66-6-9.44-12-18.86Zm80.08-13.15a49.26,49.26,0,0,0-.1-98.52C221.74,104.37,199,127.13,199,154A49.6,49.6,0,0,0,248.57,203.09Z"/><path class="cls-5" d="M316.35,238.22,328.14,217c9.46,1.59,19,2.92,28.34,4.94,2.59.56,5.83,2.66,6.95,4.94q51.74,105.84,103,211.88c.5,1,.87,2.15,1.75,4.36-3-.53-5.11-.75-7.17-1.32q-74.44-20.62-148.86-41.3c-2.07-.57-4.18-1-6.28-1.48l-3.66-32.62,77.13,20.34,25.79,6.83a26.78,26.78,0,0,0-.85-3.2q-31.79-71.92-63.76-143.76c-1-2.15-4-4.06-6.41-4.75C328.34,240.22,322.3,239.38,316.35,238.22Z"/><path class="cls-5" d="M168.49,216.24l15,26.6c-11.95-2.07-24-3.82-35.82-6.36-5.44-1.16-8,.12-10.28,5.23-17.29,38.38-34.91,76.62-52.4,114.91C81.72,363.87,78.48,371.15,75,379l98,30.91q-2.37,16.74-4.75,33.49Q134,431.64,99.83,419.88q-27.21-9.4-54.37-19c-1.8-.63-3.53-1.41-5.81-2.33,6.51-13.95,12.76-27.41,19.06-40.86,22.27-47.54,44.65-95,66.71-142.67,2.24-4.84,4.88-5.66,9.53-4.76C146.1,212.44,157.31,214.28,168.49,216.24Z"/><path class="cls-6" d="M168.16,443.38q2.39-16.74,4.75-33.49l1.16-1c1.88-.5,3.8-.87,5.64-1.5q40.42-13.83,80.83-27.75c13.26-4.58,26.46-9.36,39.68-14.06l2,.84L305.91,399c-23.8,7.73-47.63,15.4-71.41,23.2-20.08,6.58-40.09,13.34-60.16,20A48.59,48.59,0,0,1,168.16,443.38Z"/><path class="cls-7" d="M174.07,408.86l-1.16,1L75,379c3.53-7.83,6.77-15.11,10.08-22.36,17.49-38.29,35.11-76.53,52.4-114.91,2.31-5.11,4.84-6.39,10.28-5.23,11.85,2.54,23.87,4.29,35.82,6.36q6,9.43,12,18.86c-.87,6.57-1.64,13.17-2.63,19.73-4.5,29.92-9.1,59.83-13.57,89.75C177.47,383.72,175.83,396.3,174.07,408.86Z"/><path class="cls-8" d="M302.25,366.39l-2-.84c-1.51-12.41-3-24.83-4.54-37.23-2.08-16.28-4.26-32.54-6.39-48.82l27.06-41.28c5.95,1.16,12,2,17.8,3.63,2.43.69,5.44,2.6,6.41,4.75q32.12,71.78,63.76,143.76a26.78,26.78,0,0,1,.85,3.2l-25.79-6.83Z"/><path class="cls-9" d="M289.29,279.5c2.13,16.28,4.31,32.54,6.39,48.82,1.58,12.4,3,24.82,4.54,37.23-13.22,4.7-26.42,9.48-39.68,14.06q-40.38,14-80.83,27.75c-1.84.63-3.76,1-5.64,1.5,1.76-12.56,3.4-25.14,5.28-37.68,4.47-29.92,9.07-59.83,13.57-89.75,1-6.56,1.76-13.16,2.63-19.73q24.33,33,48.67,66c1.25,1.69,2.65,3.27,4.64,5.7Z"/><path class="cls-5" d="M248.57,203.09A49.6,49.6,0,0,1,199,154c0-26.82,22.73-49.58,49.46-49.38a49.26,49.26,0,0,1,.1,98.52Z"/></g></g></svg>