<svg xmlns="http://www.w3.org/2000/svg" xmlns:xlink="http://www.w3.org/1999/xlink" viewBox="0 0 507.88 507.98"><defs><style>.cls-1{fill:#649dad;}.cls-2{clip-path:url(#clip-path);}.cls-3{clip-path:url(#clip-path-2);}.cls-4{fill:#e8ddc6;}.cls-5{fill:#a4e5d9;}.cls-6{fill:#fefefe;}</style><clipPath id="clip-path"><rect class="cls-1" width="507.88" height="507.98" rx="36.33"/></clipPath><clipPath id="clip-path-2"><rect class="cls-1" width="507.88" height="507.98"/></clipPath></defs><g id="Layer_2" data-name="Layer 2"><g id="Layer_3" data-name="Layer 3"><rect class="cls-1" width="507.88" height="507.98" rx="36.33"/><g class="cls-2"><rect class="cls-1" width="507.88" height="507.98"/><g class="cls-3"><path class="cls-1" d="M0,253.46q0,110,0,220C0,493.74,14,508,34.16,508q219.75,0,439.5,0c20.16,0,34.2-14.17,34.21-34.4q0-219.3,0-438.59c0-21.15-13.93-35-35.16-35H35.22C13.75,0,0,13.83,0,35.42q0,109,0,218"/></g></g><path class="cls-4" d="M258,408.68c-16.37-1.39-32.77-2.48-49.09-4.34-5-.58-9.13-.21-13.61,2.25-13.16,7.19-26.61,13.86-39.88,20.87-12.87,6.8-26.59,9.33-41,9-9.51-.24-19,0-28.53,0l-.52-1.83c2.73-1.56,5.36-3.35,8.2-4.66,22.86-10.52,33.32-28.15,31.87-53.4-.33-5.73-1.72-9.27-6.22-12.95C92.5,341.77,73.7,314.79,68,280.21c-6.32-38.4,4.54-72.35,29.39-101.73,30.31-35.83,70.11-55.23,115.63-63,56-9.52,109.23-1.28,158.11,28.94,21.4,13.24,39.39,30.23,52.14,52.12q35.42,60.82,2.48,123.31c-5.52-5.61-10.59-11.75-16.62-16.73-40.57-33.49-107.32-31.92-146.29.93-31.29,26.37-35.28,70.07-7.76,100A30.53,30.53,0,0,1,258,408.68Z"/><path class="cls-5" d="M258,408.68a30.53,30.53,0,0,0-2.92-4.56c-27.52-30-23.53-73.66,7.76-100,39-32.85,105.72-34.42,146.29-.93,6,5,11.1,11.12,16.62,16.73,1.26,2.83,2.44,5.71,3.81,8.49,12.58,25.46,8.77,49.14-7.78,71.38-2.47,3.32-5.05,6.88-8.37,9.19-5.86,4.09-8.51,8.83-7.78,16.17s2.06,13.95,8.86,18.18c3.84,2.39,7.56,5,11.77,7.73-16.85,2.18-32.93,1.22-46.71-8.66-10.72-7.69-21.79-6.84-33.76-5.76-30.67,2.77-58.44-5.15-82.67-24.57C261.55,410.77,259.72,409.8,258,408.68ZM302,357.76c-.13-7.5-6.18-13.77-13.28-13.78-7.48,0-14.34,7.07-14,14.5.28,7.17,6.7,13,14.09,12.89A13.36,13.36,0,0,0,302,357.76Zm96.37.1c-.09-7.56-6.58-14-13.91-13.84s-13.67,7-13.42,14.39c.24,7.16,6.64,13.08,14,13A13.37,13.37,0,0,0,398.33,357.86Zm-59.44,13.51a13.38,13.38,0,0,0,13.2-13.74c0-7.37-6.33-13.75-13.45-13.64-6.83.1-13.87,7-13.9,13.63C324.72,365.05,331.28,371.42,338.89,371.37Z"/><path class="cls-6" d="M302,357.76a13.36,13.36,0,0,1-13.23,13.61c-7.39.15-13.81-5.72-14.09-12.89-.3-7.43,6.56-14.51,14-14.5C295.78,344,301.83,350.26,302,357.76Z"/><path class="cls-6" d="M398.33,357.86A13.37,13.37,0,0,1,385,371.37c-7.37.12-13.77-5.8-14-13-.25-7.39,6.11-14.22,13.42-14.39S398.24,350.3,398.33,357.86Z"/><path class="cls-6" d="M338.89,371.37c-7.61.05-14.17-6.32-14.15-13.75,0-6.62,7.07-13.53,13.9-13.63,7.12-.11,13.41,6.27,13.45,13.64A13.38,13.38,0,0,1,338.89,371.37Z"/></g></g></svg>