<svg xmlns="http://www.w3.org/2000/svg" viewBox="0 0 507.88 507.98"><defs><style>.cls-1{fill:#b45474;}.cls-2{fill:#e8ddc6;}</style></defs><g id="Layer_2" data-name="Layer 2"><g id="Layer_3" data-name="Layer 3"><rect class="cls-1" width="507.88" height="507.98" rx="36.33"/><path class="cls-2" d="M126.27,459.64c-.1-1.93-.22-3.26-.22-4.59q0-31.05,0-62.12a17.28,17.28,0,0,1,0-2.16c.29-2.32-.74-3.8-2.56-5.21a190.47,190.47,0,0,1-46.74-51.9C57.52,302.1,48.39,267.83,50.29,230.88c2.23-43.39,18.47-81.16,47.53-113.27,31.63-35,71.17-56,117.43-64.38,41.63-7.5,82.24-3.41,121.36,12.82,40.65,16.87,73,43.77,95.74,81.66a175,175,0,0,1,25.42,96.37c-1.1,41.34-15.08,78.07-41.16,110-30,36.79-68.77,59.73-114.91,70.21a214.89,214.89,0,0,1-103-1.82,7.92,7.92,0,0,0-6.36.85q-31,17.27-62.18,34.38C129.09,458.32,128,458.81,126.27,459.64ZM232.66,187c-2.09,1.29-108.39,114.72-109.9,117.46,1.67-.89,2.82-1.48,4-2.11l68.64-37.75,24.39-13.4c2.5-1.37,2.52-1.37,4.53.74,1.8,1.89,3.57,3.81,5.35,5.72q21.09,22.64,42.19,45.25c.71.76,1.53,1.43,2.46,2.29.89-.87,1.61-1.52,2.28-2.22l15-16,70.54-75.32q9.87-10.55,19.75-21.09a3.88,3.88,0,0,0,1.56-2.7c-1.23.64-2.18,1.12-3.1,1.63Q334.94,214.75,289.63,240c-4.36,2.42-3.56,2.72-7.12-1q-23.52-24.6-47-49.23C234.57,188.77,233.58,187.88,232.66,187Z"/></g></g></svg>