<svg xmlns="http://www.w3.org/2000/svg" viewBox="0 0 507.88 507.98"><defs><style>.cls-1{fill:#5c995c;}.cls-2{fill:#e8ddc6;}</style></defs><g id="Layer_2" data-name="Layer 2"><g id="Layer_3" data-name="Layer 3"><rect class="cls-1" width="507.88" height="507.98" rx="36.33"/><path class="cls-2" d="M187.22,397.66,291.41,296.42l-3.3-5.21H257.67c-52.65,0-105.31-.44-158,.37-14.58.23-19.06-4.28-18.06-18.62,1.24-17.6.3-35.37.3-54.61H292.55L187.19,112.71l1.73-4.32c21,0,42.2,1.63,63-.43,24.1-2.38,40.59,6.25,56.91,23.76C344.34,169.82,382,206,419.31,242.29c9.29,9,9.45,14.58.11,23.72C377,307.56,335.33,349.9,293.06,391.62c-4.1,4.05-10.37,8.12-15.75,8.28-27.61.83-55.25.42-82.87.29C192.61,400.18,190.78,399,187.22,397.66Z"/></g></g></svg>