<svg xmlns="http://www.w3.org/2000/svg" xmlns:xlink="http://www.w3.org/1999/xlink" viewBox="0 0 507.88 507.98"><defs><style>.cls-1{fill:#e8ddc6;}.cls-2{clip-path:url(#clip-path);}.cls-3{clip-path:url(#clip-path-2);}.cls-4{fill:#b45474;}</style><clipPath id="clip-path"><rect class="cls-1" width="507.88" height="507.98" rx="36.33"/></clipPath><clipPath id="clip-path-2"><rect class="cls-1" width="507.88" height="507.98"/></clipPath></defs><g id="Layer_2" data-name="Layer 2"><g id="Layer_3" data-name="Layer 3"><rect class="cls-1" width="507.88" height="507.98" rx="36.33"/><g class="cls-2"><rect class="cls-1" width="507.88" height="507.98"/><g class="cls-3"><path class="cls-1" d="M0,253.46q0,110,0,220C0,493.74,14,508,34.16,508q219.75,0,439.5,0c20.16,0,34.2-14.17,34.21-34.4q0-219.3,0-438.59c0-21.15-13.93-35-35.16-35H35.22C13.75,0,0,13.83,0,35.42q0,109,0,218"/></g></g><path class="cls-4" d="M372.58,218.32q0,60.85,0,121.71a56.46,56.46,0,0,1-4.3,22.75C363,375,354,383.53,341.36,387.7c-11.48,3.77-23.31,5.88-35.46,4.13-16.71-2.4-29.77-15.58-32.85-32.82-2.78-15.52,5.57-32.44,19.81-40.31,10.41-5.76,21.91-8,33.36-10.49,4.93-1.06,9.91-1.91,14.81-3.09,7.43-1.78,11.5-7,11.51-14.63q0-57.69,0-115.36c0-7.81-3.45-10.85-11.07-9.36-24.95,4.89-49.86,9.95-74.78,15q-28.47,5.75-56.93,11.61c-8.38,1.72-10.87,4.71-10.9,13.3-.06,20.49,0,41,0,61.47,0,35.62,0,71.25-.08,106.88,0,10.52-2,20.67-7.63,29.82-7.86,12.75-19.77,19.17-34.09,21.8-8.16,1.5-16.3,2.71-24.64,1.38-16.7-2.66-29.21-14.57-32.34-31-3.27-17.21,3.84-33.51,18.41-42,9.48-5.55,20.05-7.83,30.61-10.1,5.72-1.23,11.49-2.25,17.19-3.56,8.3-1.92,12.32-7,12.43-15.51.08-6.87,0-13.73,0-20.59q0-85.08,0-170.16a42.14,42.14,0,0,1,.2-5.74c1.11-8,5.72-12.89,14.34-14.68,21.43-4.44,42.89-8.75,64.34-13.06Q304,91.23,350.39,82c2.67-.54,5.36-1,8.05-1.39,8-1.16,13.37,3.14,14.1,11.18.13,1.4.08,2.82.08,4.24q0,61.16,0,122.32Z"/></g></g></svg>