<svg xmlns="http://www.w3.org/2000/svg" xmlns:xlink="http://www.w3.org/1999/xlink" viewBox="0 0 507.88 507.98"><defs><style>.cls-1{fill:#e8ddc6;}.cls-2{clip-path:url(#clip-path);}.cls-3{clip-path:url(#clip-path-2);}.cls-4{fill:#c45350;}</style><clipPath id="clip-path"><rect class="cls-1" width="507.88" height="507.98" rx="36.33"/></clipPath><clipPath id="clip-path-2"><rect class="cls-1" width="507.88" height="507.98"/></clipPath></defs><g id="Layer_2" data-name="Layer 2"><g id="Layer_3" data-name="Layer 3"><rect class="cls-1" width="507.88" height="507.98" rx="36.33"/><g class="cls-2"><rect class="cls-1" width="507.88" height="507.98"/><g class="cls-3"><path class="cls-1" d="M0,253.46q0,110,0,220C0,493.74,14,508,34.16,508q219.75,0,439.5,0c20.16,0,34.2-14.17,34.21-34.4q0-219.3,0-438.59c0-21.15-13.93-35-35.16-35H35.22C13.75,0,0,13.83,0,35.42q0,109,0,218"/></g></g><path class="cls-4" d="M352,394.7c-6.2,0-12.4-.28-18.57.08-7.57.43-13.35-2.35-18.63-7.68q-52.33-52.73-104.95-105.17c-28.37-28.41-56.64-56.9-85.14-85.16-7.26-7.2-11-15.24-10.56-25.61.5-12,0-24,.2-35.94.2-14.76,7.11-21.81,21.67-22,13.38-.17,26.76,0,40.14-.07a20.91,20.91,0,0,1,15.56,6.46q97.65,97.65,195.38,195.21a21.43,21.43,0,0,1,6.51,15.59c.12,13.77.38,27.56.05,41.33-.36,14.93-9,24.15-24.29,23C363.58,394.35,357.76,394.7,352,394.7Z"/><path class="cls-4" d="M114.23,322.67c0-16.36-.08-32.73.09-49.1,0-2.34,1.3-4.68,2-7,1.73,1.66,4,3,5.11,5,26.88,49.42,64.95,87.53,114.72,113.9,1.58.84,4,3.38,3.73,3.85a11.54,11.54,0,0,1-4.73,4.76c-1.86.87-4.3.6-6.49.6q-46.11,0-92.22,0c-14.29,0-21.88-7.26-22.17-21.71-.33-16.76-.07-33.53-.07-50.3Z"/><path class="cls-4" d="M393.64,182.71q0,23.35,0,46.7a21.22,21.22,0,0,1-.23,5.36c-.42,1.57-1.6,2.93-2.44,4.38-1.36-1-3.18-1.63-4-2.94-5.58-8.73-10.63-17.81-16.44-26.39a269.26,269.26,0,0,0-91.07-84.1,69.81,69.81,0,0,1-10-7.52,4.64,4.64,0,0,1-1.27-3.55c.06-.57,1.87-1.16,3-1.39a17,17,0,0,1,3.58-.1q47,0,94,0c17.86,0,24.32,6.34,24.45,24,.11,15.17,0,30.33,0,45.5Z"/></g></g></svg>