<svg xmlns="http://www.w3.org/2000/svg" xmlns:xlink="http://www.w3.org/1999/xlink" viewBox="0 0 507.88 507.98"><defs><style>.cls-1{fill:#d69f49;}.cls-2{clip-path:url(#clip-path);}.cls-3{clip-path:url(#clip-path-2);}.cls-4{fill:#e8ddc6;}</style><clipPath id="clip-path"><rect class="cls-1" width="507.88" height="507.98" rx="36.33"/></clipPath><clipPath id="clip-path-2"><rect class="cls-1" width="507.88" height="507.98"/></clipPath></defs><g id="Layer_2" data-name="Layer 2"><g id="Layer_3" data-name="Layer 3"><rect class="cls-1" width="507.88" height="507.98" rx="36.33"/><g class="cls-2"><rect class="cls-1" width="507.88" height="507.98"/><g class="cls-3"><path class="cls-1" d="M0,253.46q0,110,0,220C0,493.74,14,508,34.16,508q219.75,0,439.5,0c20.16,0,34.2-14.17,34.21-34.4q0-219.3,0-438.59c0-21.15-13.93-35-35.16-35H35.22C13.75,0,0,13.83,0,35.42q0,109,0,218"/></g></g><path class="cls-4" d="M160.63,174.5c-.09-5.45,2.83-8.83,8.2-9.74,8-1.35,16-2.63,24-3.93q38.43-6.22,76.87-12.45,57-9.24,113.9-18.48c6.85-1.11,10.66,1.74,11.92,8.63,5.67,30.87,10.84,61.85,17.2,92.59C420,266.05,430.09,300.18,445,332.73a263.9,263.9,0,0,0,26.1,45.35c5.33,7.35,2.62,14.27-6.3,15.73q-54.1,8.85-108.23,17.61l-82.8,13.44c-8,1.3-16,2.54-24,3.86-4.29.71-7.4-.92-9.78-4.42a334.38,334.38,0,0,1-31.09-57.95c-14.27-33.71-24.5-68.69-32-104.45-5.9-28.29-10.75-56.81-16-85.23A19.68,19.68,0,0,1,160.63,174.5Zm193.73,33.22c.09-3.42-2.11-5.52-5.14-5.27a36.33,36.33,0,0,0-4.23.73L241.15,224.11c-6.36,1.28-12.73,2.54-19.06,4a4.48,4.48,0,0,0-3.6,5.34,4.75,4.75,0,0,0,5.54,3.77c1-.14,2.07-.37,3.09-.58l98.52-19.84,24.14-4.88C352.33,211.36,354.23,210.16,354.36,207.72ZM232.51,267.78c.36-.06,1-.16,1.68-.28l105.22-19.91c6.47-1.22,12.95-2.44,19.4-3.77,3.28-.68,4.84-2.93,4.24-5.68s-2.88-4-6.2-3.52c-1.13.18-2.26.38-3.39.59L252.19,254.45c-7,1.33-14.07,2.63-21.08,4.07a4.69,4.69,0,0,0-4,5.17C227.49,266.16,229.55,267.83,232.51,267.78Zm10.08,38.57c.6-.08,1.56-.16,2.49-.34l39.35-7.37c10.68-2,21.37-4,32-6,3.26-.62,5-2.91,4.43-5.55-.6-2.86-3-4.27-6.39-3.69-.19,0-.37.09-.56.12l-51.73,9.64c-6.84,1.28-13.69,2.5-20.52,3.83-2.93.57-4.6,2.68-4.35,5.14S239.57,306.32,242.59,306.35ZM259,343.49a8.41,8.41,0,0,0,1-.08c12.45-2.41,24.91-4.77,37.35-7.26a4.47,4.47,0,0,0,3.79-5.45c-.51-2.67-2.8-4.18-5.83-3.66-4.51.78-9,1.67-13.49,2.54-7.87,1.51-15.74,3-23.59,4.59-2.93.59-4.45,2.68-4.12,5.27C254.45,341.87,256.29,343.44,259,343.49Z"/><path class="cls-4" d="M199.74,368.66c-6.14-1-11.49-1.76-16.84-2.63L92.19,351.28c-16.67-2.7-33.36-5.35-50-8.09C35,342,31.72,334.66,35.92,328.87c22.75-31.35,37-66.63,47.89-103.44,10.41-35.11,17.35-71,23.5-107,1.77-10.35,3.45-20.71,5.19-31.06,1-6,5-9,11-8.06q34.22,5.43,68.4,11,38.45,6.22,76.87,12.5,35.19,5.71,70.36,11.44c4.94.81,8,4.11,8.21,8.5.12,2.46-.83,3.63-3.31,4-12.54,2-25.07,4.05-37.6,6.08l-76.58,12.41c-20.92,3.38-41.86,6.61-62.73,10.2-11.86,2-17.47,10.28-15.51,22.67,8.38,52.81,17.93,105.4,35.25,156.2,3.57,10.47,7.85,20.7,11.8,31C199,366.2,199.22,367.08,199.74,368.66Z"/></g></g></svg>