<svg xmlns="http://www.w3.org/2000/svg" xmlns:xlink="http://www.w3.org/1999/xlink" viewBox="0 0 507.88 507.98"><defs><style>.cls-1{fill:#9ab272;}.cls-2{clip-path:url(#clip-path);}.cls-3{clip-path:url(#clip-path-2);}.cls-4{fill:#e8ddc6;}</style><clipPath id="clip-path"><rect class="cls-1" width="507.88" height="507.98" rx="36.33"/></clipPath><clipPath id="clip-path-2"><rect class="cls-1" width="507.88" height="507.98"/></clipPath></defs><g id="Layer_2" data-name="Layer 2"><g id="Layer_3" data-name="Layer 3"><rect class="cls-1" width="507.88" height="507.98" rx="36.33"/><g class="cls-2"><rect class="cls-1" width="507.88" height="507.98"/><g class="cls-3"><path class="cls-1" d="M0,253.46q0,110,0,220C0,493.74,14,508,34.16,508q219.75,0,439.5,0c20.16,0,34.2-14.17,34.21-34.4q0-219.3,0-438.59c0-21.15-13.93-35-35.16-35H35.22C13.75,0,0,13.83,0,35.42q0,109,0,218"/></g></g><path class="cls-4" d="M350.68,259.56c0,45.46-.41,90.93.23,136.38.21,15.27-5,21.83-20.67,21-16.17-.9-32.44-.54-48.66-.12-12.1.32-17.84-4.24-17.82-17q.19-141.25-.28-282.51c0-13.14,5.2-18.74,18.35-18.36,16.75.49,33.54.57,50.29,0,14.08-.5,19.15,5.7,19,19.42-.42,47.08-.16,94.17-.16,141.26Z"/><path class="cls-4" d="M455.11,306.6c0,29.7-.47,59.42.19,89.11.34,15-4.73,22-20.54,21.18-17.23-.88-34.53-.34-51.8-.23-10,.06-14.91-4.34-14.91-14.61q.06-96.41-.17-192.8c0-11,5.47-15.67,16-15.66,17.81,0,35.62.17,53.43-.09,13.28-.2,18.09,6.56,18,19.13-.27,31.32-.09,62.65-.09,94Z"/><path class="cls-4" d="M246.35,344c0,18.94-.18,37.88.06,56.82.14,10.77-4.39,16-15.45,15.84-18.38-.25-36.77-.22-55.16,0-10.65.12-16.15-4.41-16.14-15.39q.08-58.44-.09-116.88c0-10.66,4.58-16,15.59-15.92,18.39.21,36.78.27,55.16,0,12-.19,16.31,5.93,16.19,17.11-.2,19.48,0,39,0,58.44Z"/><path class="cls-4" d="M96.72,416.73H95.11c-45.94-1-41.84,9-41.47-46.2.06-10,5.23-14.77,15.06-14.77,18.85,0,37.7,0,56.55,0,9.93,0,14.85,4.8,14.95,14.81C140.74,425.52,144.08,415.82,96.72,416.73Z"/><path class="cls-4" d="M457.81,440.84c-13,10.42-390.54,11.31-407.74,1,7.54-2.1,12.49-4.67,17.46-4.68q187.14-.33,374.29,0C446.5,437.17,451.16,439.25,457.81,440.84Z"/></g></g></svg>