<svg xmlns="http://www.w3.org/2000/svg" xmlns:xlink="http://www.w3.org/1999/xlink" viewBox="0 0 507.88 507.98"><defs><style>.cls-1{fill:#d3784a;}.cls-2{clip-path:url(#clip-path);}.cls-3{clip-path:url(#clip-path-2);}.cls-4{fill:#e8ddc6;}</style><clipPath id="clip-path"><rect class="cls-1" width="507.88" height="507.98" rx="36.33"/></clipPath><clipPath id="clip-path-2"><rect class="cls-1" width="507.88" height="507.98"/></clipPath></defs><g id="Layer_2" data-name="Layer 2"><g id="Layer_3" data-name="Layer 3"><rect class="cls-1" width="507.88" height="507.98" rx="36.33"/><g class="cls-2"><rect class="cls-1" width="507.88" height="507.98"/><g class="cls-3"><path class="cls-1" d="M0,253.46q0,110,0,220C0,493.74,14,508,34.16,508q219.75,0,439.5,0c20.16,0,34.2-14.17,34.21-34.4q0-219.3,0-438.59c0-21.15-13.93-35-35.16-35H35.22C13.75,0,0,13.83,0,35.42q0,109,0,218"/></g></g><path class="cls-4" d="M299.73,262.69c-8.4-2.89-6.32-11.65-2.47-18.48,4.71-8.35,11.31-15.81,17.93-22.88C337,198,359.3,175.05,381.28,151.85c3.91-4.13,7.27-8.78,12.26-14.88L275.69,251.65c-4-1.2-5.25-1.22-6-1.85-35.33-29.49-35.62-29.8-2.69-62,32.57-31.8,65.74-63,98.82-94.24,4.67-4.41,9.83-10,15.56-11.18,7.58-1.6,18.54-2.32,23.26,1.92s4.56,15,4.77,23a75.47,75.47,0,0,1-3.12,23.12c-2.36,7.95-5,16.77-10.35,22.7-21.71,24.17-44.86,47.05-66.7,71.11C319.11,235.4,310.77,248.16,299.73,262.69Z"/><path class="cls-4" d="M267.14,255.24c-3.1,4.73-4.37,7.88-6.63,9.94Q195,324.73,129.22,384c-7.61,6.84-15.1,11.4-25.16,1.46s-3.71-17.05,2.19-23.65q59-66,118.78-131.33c2-2.2,7-5.08,8-4.32C244.57,235.39,255.65,245.27,267.14,255.24Z"/><path class="cls-4" d="M70.43,416l23.49-35.27L109.44,397,74.76,420Z"/><path class="cls-4" d="M507.87,421.64H74.76s-4.55,2.35,0,6.91H507.88Z"/></g></g></svg>