<svg xmlns="http://www.w3.org/2000/svg" xmlns:xlink="http://www.w3.org/1999/xlink" viewBox="0 0 507.88 507.98"><defs><style>.cls-1{fill:#b55351;}.cls-2{clip-path:url(#clip-path);}.cls-3{clip-path:url(#clip-path-2);}.cls-4{fill:#e8ddc6;}</style><clipPath id="clip-path"><rect class="cls-1" width="507.88" height="507.98" rx="36.33"/></clipPath><clipPath id="clip-path-2"><rect class="cls-1" width="507.88" height="507.98"/></clipPath></defs><g id="Layer_2" data-name="Layer 2"><g id="Layer_3" data-name="Layer 3"><rect class="cls-1" width="507.88" height="507.98" rx="36.33"/><g class="cls-2"><rect class="cls-1" width="507.88" height="507.98"/><g class="cls-3"><path class="cls-1" d="M0,253.46q0,110,0,220C0,493.74,14,508,34.16,508q219.75,0,439.5,0c20.16,0,34.2-14.17,34.21-34.4q0-219.3,0-438.59c0-21.15-13.93-35-35.16-35H35.22C13.75,0,0,13.83,0,35.42q0,109,0,218"/></g></g><path class="cls-4" d="M73.84,253.48c0-46.4.07-92.8-.1-139.2,0-5.37,1.17-8.21,7-9.29Q179.62,86.6,278.4,67.83c8.06-1.52,8.13-1.44,8.17,6.57.05,10.69.3,21.39-.09,32.07-.23,6.29,2.06,8.2,8.27,8.17,40.47-.23,80.95-.13,121.43-.09a44.52,44.52,0,0,1,8.8.62c5.52,1.13,8.77,4.57,9.09,10.38.1,1.81.13,3.64.13,5.45q0,124.88,0,249.74c0,.45,0,.91,0,1.36-.12,11.44-3.27,14.72-14.58,14.74q-47.74.09-95.51,0c-10,0-20,.18-30-.05-5.53-.13-7.76,1.94-7.59,7.59.29,10-.15,20,.15,30,.18,6-1.71,7.28-7.62,6.1q-92.61-18.45-185.31-36.45c-3.56-.7-7.11-1.8-10.71-2-7-.41-9.4-3.48-9.35-10.75C74,345.36,73.84,299.42,73.84,253.48Zm212.74-79.34c10.49-3.85,19.41-7.82,28.72-10.31,7.86-2.11,9.13-.48,9.15,7.63,0,14.56.25,29.12-.1,43.67-.14,6.13,1.73,8.51,8.1,8.34,14.09-.37,28.19-.12,42.29-.11,10.47,0,11.46,1.23,9.45,11.42-8,40.64-54.85,61.11-90.16,39.43-2-1.23-4.08-2.33-7.45-4.25v25.93c0,11,0,11,10.67,11q50.82,0,101.64,0c4.67,0,7.68.42,7.71,6.45s-2.6,7.15-7.83,7.12q-48.43-.22-96.87-.05c-17.33.05-15.18-2-15.3,15.24-.06,9.38,0,9.41,9.49,9.41q51.5,0,103,0c4.23,0,7.47.11,7.48,5.94,0,5.46-1.47,7.65-7.29,7.61-31.15-.22-62.3-.1-93.45-.1-19.56,0-19.33,0-19.38,19.51,0,6.37,2.25,8.12,8.36,8.08q60-.31,120.06,0c6.63.05,8.47-2.14,8.46-8.61q-.27-121.44,0-242.9c0-6.68-2.2-8.45-8.62-8.41-36.61.26-73.22.13-109.83.13-18.31,0-18.31,0-18.31,18.32Zm-146,80.4v49.74c0,17.77,0,17.65,17.75,18.66,5.06.28,7-1.45,6.9-6.5-.21-10-.06-20-.05-30s0-9.94,9.62-10c31.09-.16,49.39-19.66,47.68-50.84-1.57-28.44-15.92-41.71-44.22-40.49-10.19.43-20.35,1.78-30.54,2.17-5.68.21-7.28,2.57-7.22,7.95C140.71,215,140.57,234.78,140.56,254.54Z"/><path class="cls-4" d="M369.47,207.08c-7.94,0-15.89-.07-23.83,0-4,.06-5.71-1.62-5.68-5.7.11-15.89.14-31.79,0-47.68-.05-5.42,3.09-5.61,7.14-5.4,22.34,1.15,44.18,19.67,50.82,43.21C402,206,401.2,207.12,386.5,207.12h-17Z"/><path class="cls-4" d="M175.12,209.87c7.53-.57,14,2.33,16.83,10.12,3.29,9.07,3.48,18.47-2.87,26.44-5.33,6.7-13.3,6-20.77,5.09-1.18-.14-2.91-2.83-2.95-4.37-.26-10.87-.3-21.74-.05-32.6C165.42,210.1,166.26,209.89,175.12,209.87Z"/></g></g></svg>