<svg xmlns="http://www.w3.org/2000/svg" xmlns:xlink="http://www.w3.org/1999/xlink" viewBox="0 0 507.88 507.98"><defs><style>.cls-1{fill:#a6bcd1;}.cls-2{clip-path:url(#clip-path);}.cls-3{clip-path:url(#clip-path-2);}.cls-4{fill:#294d68;}.cls-5{fill:#e5e1dc;}</style><clipPath id="clip-path"><rect class="cls-1" width="507.88" height="507.98" rx="36.33"/></clipPath><clipPath id="clip-path-2"><rect class="cls-1" width="507.88" height="507.98"/></clipPath></defs><g id="Layer_2" data-name="Layer 2"><g id="Layer_3" data-name="Layer 3"><rect class="cls-1" width="507.88" height="507.98" rx="36.33"/><g class="cls-2"><rect class="cls-1" width="507.88" height="507.98"/><g class="cls-3"><path class="cls-1" d="M0,253.46q0,110,0,220C0,493.74,14,508,34.16,508q219.75,0,439.5,0c20.16,0,34.2-14.17,34.21-34.4q0-219.3,0-438.59c0-21.15-13.93-35-35.16-35H35.22C13.75,0,0,13.83,0,35.42q0,109,0,218"/></g></g><path class="cls-4" d="M451.87,451.78c-6.88,0-13.62-.08-20.36,0-8.93.13-17.85.58-26.78.52a8.82,8.82,0,0,1-5.45-2.56c-10.77-10.58-21.38-21.33-32.12-32.11-51.25,33.67-106.49,43.7-165.59,28C154.51,433.21,117.1,406.13,89.62,366A198.65,198.65,0,0,1,114,112.43C186.49,41,298.41,36.93,375.71,96.62c78.8,60.87,104.28,177.86,42.58,269.59,10.28,10.27,20.52,20.69,31,30.88a10.82,10.82,0,0,1,3.67,8.84c-.39,14-.46,28-.68,42.06C452.27,449,452.06,450.08,451.87,451.78ZM312.21,363.54c-.59-.71-.94-1.21-1.37-1.64q-40.74-40.71-81.51-81.36c-9.33-9.26-14.34-20.09-12.26-33.25,2.37-15,11-25.3,25.61-29.74s27.3-.23,37.94,10.4q39.92,39.88,79.69,79.9c1.15,1.16,1.59,3,2.35,4.57,27.73-50,18.45-117.42-31.82-157.07s-121.07-35-166.82,10.8c-43.57,43.65-47.56,115-9.15,164.19C194.86,381.5,263.39,390.54,312.21,363.54Z"/><path class="cls-5" d="M312.21,363.54c-48.82,27-117.35,18-157.34-33.2C116.46,281.2,120.45,209.8,164,166.15c45.75-45.85,116.4-50.56,166.82-10.8s59.55,107.07,31.82,157.07c-.76-1.54-1.2-3.41-2.35-4.57q-39.76-40-79.69-79.9c-10.64-10.63-23.33-14.85-37.94-10.4s-23.24,14.75-25.61,29.74c-2.08,13.16,2.93,24,12.26,33.25q40.87,40.56,81.51,81.36C311.27,362.33,311.62,362.83,312.21,363.54Z"/></g></g></svg>