<svg xmlns="http://www.w3.org/2000/svg" xmlns:xlink="http://www.w3.org/1999/xlink" viewBox="0 0 507.88 507.98"><defs><style>.cls-1{fill:#4c4c4c;}.cls-2{clip-path:url(#clip-path);}.cls-3{clip-path:url(#clip-path-2);}.cls-4{fill:#3e71cc;}</style><clipPath id="clip-path"><rect class="cls-1" width="507.88" height="507.98" rx="36.33"/></clipPath><clipPath id="clip-path-2"><rect class="cls-1" width="507.88" height="507.98"/></clipPath></defs><g id="Layer_2" data-name="Layer 2"><g id="Layer_3" data-name="Layer 3"><rect class="cls-1" width="507.88" height="507.98" rx="36.33"/><g class="cls-2"><rect class="cls-1" width="507.88" height="507.98"/><g class="cls-3"><path class="cls-1" d="M0,253.46q0,110,0,220C0,493.74,14,508,34.16,508q219.75,0,439.5,0c20.16,0,34.2-14.17,34.21-34.4q0-219.3,0-438.59c0-21.15-13.93-35-35.16-35H35.22C13.75,0,0,13.83,0,35.42q0,109,0,218"/></g></g><path class="cls-4" d="M248.5,79.23c80.14,1,147.18,23.84,206.12,70,2.29,1.78,4.7,3.41,7.07,5.09,23.34,16.53,26.46,47.44,6.89,68.38-14,15-29.58,19.18-47,11-7.12-3.34-13.07-9.32-19.3-14.42-35.87-29.33-77-46-122.91-51-46.58-5.11-91.22,2.31-132.72,24C129.11,201.38,113,213.38,97,225.12,70.57,244.48,33.6,231,27.37,199c-3.18-16.35,1.8-30.58,14.54-41.37C91.65,115.42,148.78,89.82,213.63,82,227,80.44,240.45,79.86,248.5,79.23ZM400.41,190.46c.1,19,17.3,35.15,37.16,34.89,20.12-.25,37.53-17.71,37.34-37.44-.18-18.71-17.56-34.72-37.59-34.65A36.72,36.72,0,0,0,400.41,190.46Z"/><path class="cls-4" d="M255.77,211.58c45.76,1.12,86.91,17.6,120.87,51.14,16.92,16.71,16.92,44.41.38,61.26a43.77,43.77,0,0,1-60.79,1.15c-18.05-16.95-38.94-26.7-64-26-22.2.62-42,7.66-57.4,24.34-8.28,9-17.17,15.71-30,16.77C138.32,342.42,120.25,316,118.78,299c-1.34-15.55,3.64-28.52,15.07-39.12C167.74,228.46,207.77,212.41,255.77,211.58Zm-94,44c-20.41.17-38,18-37.51,38.08.45,18.9,17.25,34.86,36.88,35,20,.17,38.43-17.46,38.31-36.68C199.33,272.48,181.71,255.45,161.78,255.62Z"/><path class="cls-4" d="M297.26,385.25c0,24.48-18.84,43.47-43.25,43.5s-44.23-19.68-43.95-43.9c.27-23.31,20.21-43.07,43.72-43.31C277.53,341.29,297.22,361.08,297.26,385.25Z"/></g></g></svg>