<svg xmlns="http://www.w3.org/2000/svg" viewBox="0 0 507.88 507.98"><defs><style>.cls-1{fill:#80a175;}.cls-2{fill:#e8ddc6;}.cls-3{fill:#e2625b;}.cls-4{fill:#859667;}.cls-5{fill:#566c84;}.cls-6{fill:#b45474;}</style></defs><g id="Layer_2" data-name="Layer 2"><g id="Layer_3" data-name="Layer 3"><rect class="cls-1" width="507.88" height="507.98" rx="36.33"/><path class="cls-2" d="M76.73,92.88c12.06-11.7,27.85-12.81,43.18-15.21q108.38-17,216.76-34a87.33,87.33,0,0,1,16.23-1c18,.59,29.89,10.67,32.89,28.57q18.6,111,36.71,222c5.55,34,10.68,68,16,102-3.55,18.62-14.42,28.67-33.56,31.33-32.94,4.57-65.73,10.29-98.6,15.44-49.31,7.73-98.58,15.76-148,22.89-21.81,3.15-36.53-8.43-40.11-30-4.08-24.61-7.58-49.33-11.4-74C96.33,292.92,85.48,225.05,75.43,157.06c-2.82-19.06-10-38.1-3.3-57.78l0,0Zm52.08,89.2c14,.1,25.87-11.56,25.73-25.36-.13-13.19-11.85-24.73-25.24-24.86a24.56,24.56,0,0,0-25.17,24.36C103.84,170.92,114.38,182,128.81,182.08Zm22.93,150.49c14.32.6,26.38-10.35,26.74-24.3.35-13.3-10.79-25.26-24.25-26A24.9,24.9,0,0,0,128,305.76C127.17,320.56,137.26,332,151.74,332.57Zm14.18-100.35c.07-13.48-10.62-25.07-23.13-25.08-19.25,0-27.18,7.22-27.19,24.86a25.27,25.27,0,0,0,25.77,25.09A24.47,24.47,0,0,0,165.92,232.22ZM165.6,360c-14.72-.31-26,10.28-26.08,24.41-.05,13.16,11.4,25.16,24.52,25.69,13.59.55,25.63-11.2,25.8-25.16C190,370.6,179.94,360.25,165.6,360Z"/><path class="cls-3" d="M128.81,182.08c-14.43-.11-25-11.16-24.68-25.86a24.56,24.56,0,0,1,25.17-24.36c13.39.13,25.11,11.67,25.24,24.86C154.68,170.52,142.85,182.18,128.81,182.08Z"/><path class="cls-4" d="M151.74,332.57c-14.48-.61-24.57-12-23.72-26.81a24.9,24.9,0,0,1,26.21-23.51c13.46.76,24.6,12.72,24.25,26C178.12,322.22,166.06,333.17,151.74,332.57Z"/><path class="cls-5" d="M165.92,232.22a24.47,24.47,0,0,1-24.55,24.87A25.27,25.27,0,0,1,115.6,232c0-17.64,7.94-24.89,27.19-24.86C155.3,207.15,166,218.74,165.92,232.22Z"/><path class="cls-6" d="M165.6,360c14.34.29,24.4,10.64,24.24,24.94-.17,14-12.21,25.71-25.8,25.16-13.12-.53-24.57-12.53-24.52-25.69C139.57,370.24,150.88,359.65,165.6,360Z"/></g></g></svg>