<svg xmlns="http://www.w3.org/2000/svg" viewBox="0 0 767.2 937.68"><defs><style>.cls-1{fill:#a5a29f;}.cls-2{fill:#6b6b6b;}.cls-3{fill:#514f4b;}.cls-4{fill:#66c6ba;}</style></defs><g id="Layer_2" data-name="Layer 2"><g id="Layer_3" data-name="Layer 3"><path class="cls-1" d="M.18,691.62c0-4.5-.11-9-.11-13.48q0-295.42,0-590.85C0,63.74,7.48,43.06,23.78,26.21,39.47,10,58.85.28,81.78.23Q234.09-.12,386.39.1C484.77.1,583.14.32,681.52,0a85.65,85.65,0,0,1,84.35,70,81.17,81.17,0,0,1,1.25,14.86q.12,301.15.08,602.33c0,1.17-.11,2.33-.17,3.49a6.28,6.28,0,0,0-.77,1.75c-2.28,18.66-9.7,35-23,48.26-5.77,5.77-12.66,10.43-19,15.59-19,10.06-39.46,11.38-60.49,11.22-50.76-.41-101.52-.09-152.28-.07q-208.74,0-417.48-.11a138.53,138.53,0,0,1-23.72-1.92c-26.88-4.71-47.22-19.23-59.7-43.42C5.72,712.56,3.57,701.77.18,691.62Z"/><path class="cls-2" d="M.18,691.62C3.57,701.77,5.72,712.56,10.57,722c12.48,24.19,32.82,38.71,59.7,43.42A138.53,138.53,0,0,0,94,767.3q208.74.19,417.48.11V888.3c0,7,0,7-7,7q-190.77,0-381.55,0c-14.45,0-28.92-.15-43.33-1C48.18,892.35,25,876.89,10.36,849.36,5.5,840.17,3.51,829.47.21,819.46q-.06-41-.13-81.9C.07,722.25.15,706.93.18,691.62Z"/><path class="cls-3" d="M.21,819.46c3.3,10,5.29,20.71,10.15,29.9,14.59,27.53,37.82,43,69.24,44.86,14.41.86,28.88,1,43.33,1q190.77.1,381.55,0c7,0,7,0,7-7V767.41c50.76,0,101.52-.34,152.28.07,21,.16,41.49-1.16,60.49-11.22V883c10.87-4.47,26.19-19.06,31.83-31.84,4.49-10.2,7.37-21.1,11-31.69-.26,14.75.64,29.64-1,44.24-4.09,36-31.6,65.5-68.91,72.39a105.88,105.88,0,0,1-19.27,1.3c-196.19.07-392.38-.24-588.57.29-41.22.12-74-24.8-85.58-60.42A78.63,78.63,0,0,1,.25,856.39C-.27,844.1.17,831.77.21,819.46ZM554.45,852H681.79V810H554.45Z"/><path class="cls-2" d="M767,819.46c-3.59,10.59-6.47,21.49-11,31.69-5.64,12.78-21,27.37-31.83,31.84V756.26c6.38-5.16,13.27-9.82,19-15.59,13.28-13.28,20.7-29.6,23-48.26a6.28,6.28,0,0,1,.77-1.75Z"/><path class="cls-4" d="M554.45,852V810H681.79V852Z"/></g></g></svg>