<svg xmlns="http://www.w3.org/2000/svg" viewBox="0 0 507.88 507.98"><defs><style>.cls-1{fill:#7b94ad;}.cls-2{fill:#dfdfd0;}.cls-3{fill:#c65c5c;}.cls-4{fill:#de985e;}.cls-5{fill:#a65050;}.cls-6{fill:#475162;}.cls-7{fill:#f4ce86;}.cls-8{fill:#b9b8ac;}.cls-9{fill:#c9aa72;}.cls-10{fill:#caab71;}.cls-11{fill:#ba8051;}.cls-12{fill:#a99061;}</style></defs><g id="Layer_2" data-name="Layer 2"><g id="Layer_3" data-name="Layer 3"><rect class="cls-1" width="507.88" height="507.98" rx="36.33"/><path class="cls-2" d="M214.44,170.14a194.36,194.36,0,0,1,37.78-37.31c25.15-19,53.11-32.37,83.41-40.89,19.75-5.55,39.84-9.1,60.45-8.43a112.15,112.15,0,0,1,15.44,2c5.93,1,9.26,4.76,10.63,10.62,2.26,9.66,2.13,19.41,1.62,29.2l-.15,3.07c-1.14,7.88-1.92,15.82-3.46,23.62-7.15,36.15-21.08,69.44-42.66,99.41a195.32,195.32,0,0,1-39.34,41,4.65,4.65,0,0,0-.62.34C313,311,285.25,321.51,255.32,326.61c-6.52,1.11-13.12,1.85-19.68,2.75l-8.79.56-3.78-.07c12.93-10.1,25.76-20.32,38.82-30.24,5.05-3.83,9.39-8,11.05-14.26a110.79,110.79,0,0,0,3.49-15.66c.5-4.39-.21-8.91-.38-13.37.21-4.8.75-9.61.54-14.39-.34-7.7-3.82-10.84-11.51-11.17A66.26,66.26,0,0,0,236.7,236,20.52,20.52,0,0,0,228,242.7q-19.58,25.43-39.4,50.64c-3.64,4.65-7.37,9.23-11.06,13.84q0-13.31,0-26.62l.45-6.19c.16-1.33.36-2.66.49-4a219.5,219.5,0,0,1,15-62.54A184.37,184.37,0,0,1,214.44,170.14Zm140.82-22.29c-3.43,5.75-3.2,11.6,0,17.28A16.7,16.7,0,0,0,371,174.2a17.65,17.65,0,0,0,15-26.42c.32-.71.64-1.43,1-2.15a17.76,17.76,0,1,0-32.85-13.53C352,137.52,352.71,142.76,355.26,147.85Zm-1,50.7c.31-1.77.68-3.54.91-5.32a35.55,35.55,0,0,0-65.54-23.37c-5.52,9-6.25,18.63-4,28.69-1.78,4.84-1.36,9.81-.45,14.67,3.34,17.78,20.56,30.47,38.32,28.4,16.47-1.91,29.12-13.87,31.54-30.27C355.68,207.15,356.11,202.72,354.29,198.55Z"/><path class="cls-3" d="M214.44,170.14a184.37,184.37,0,0,0-21,37.7,219.5,219.5,0,0,0-15,62.54c-.13,1.33-.33,2.66-.49,4-.15.05-.31.08-.45.14L96.29,311c-3,1.33-5.9,1.73-8.83-.06-3.35-3.64-3.25-8-2-12.26a58,58,0,0,1,4.2-11Q112.1,244.73,134.89,202a94.08,94.08,0,0,1,13.88-20c7.2-7.74,16.36-11.36,26.56-12.73A119.15,119.15,0,0,1,214.44,170.14Z"/><path class="cls-3" d="M340.23,308.93q-.11,8.76-.22,17.52c-.28,2.11-.58,4.21-.84,6.32-1.45,11.56-5.87,21.63-15.2,29a107.36,107.36,0,0,1-13.61,9.41c-17.18,9.68-34.49,19.14-51.8,28.6-12.81,7-25.63,14-38.56,20.74-5.64,2.95-11.63,5-18.21,3.6-4.89-2.72-5.7-6-3.29-11.47q14.22-32.36,28.27-64.77l.53-.47c5.1-.34,10.24-.46,15.31-1.08A237.55,237.55,0,0,0,279,339a179.38,179.38,0,0,0,55.38-26.16C336.28,311.51,338.27,310.24,340.23,308.93Z"/><path class="cls-4" d="M88,422.93c-4-.27-4.8-.93-3.74-4.81a132.78,132.78,0,0,1,6-18.13A360.68,360.68,0,0,1,147,309c.76-.9,1.48-1.83,2.22-2.75h-.06l.54-.51c2-2.1,3.89-4.35,6.08-6.26,6.27-5.47,12.67-10.79,19-16.17a13.55,13.55,0,0,1-.88,1.64c-6.5,9.21-13.32,18.21-19.46,27.66-11.76,18.09-22.13,37-29.48,57.33a77,77,0,0,0-2.82,12.39c-.39,2.15.92,3.29,3.09,3.06,2.58-.27,5.14-.7,7.71-1.06a5.79,5.79,0,0,0,.41,1.1c3.57,6.26,8.9,10,15.2,3.71,9.29-9.26,20.09-16.68,30.3-24.81a24.73,24.73,0,0,0,2.53-2.68h0l1-.49,6.62-4.3,1.84-1.38,0,0,1.44-1h0l10.38-6.64.61,0,6.78,0c-1.06,1.16-2.06,2.39-3.2,3.47-28.08,26.93-60.34,47.61-95.59,63.8C103.76,418.57,96.16,421.68,88,422.93Z"/><path class="cls-5" d="M227.3,347.4q3.45-7.39,6.9-14.79c.5-1.07,1-2.16,1.44-3.25,6.56-.9,13.16-1.64,19.68-2.75,29.93-5.1,57.65-15.6,82.22-33.77a4.65,4.65,0,0,1,.62-.34l2.13,15.57-.06.86c-2,1.31-4,2.58-5.87,3.94A179.38,179.38,0,0,1,279,339a237.55,237.55,0,0,1-36.37,7.29C237.54,346.94,232.4,347.06,227.3,347.4Z"/><path class="cls-6" d="M340.29,308.07l-2.13-15.57a195.32,195.32,0,0,0,39.34-41c21.58-30,35.51-63.26,42.66-99.41,1.54-7.8,2.32-15.74,3.46-23.62.11,4.63.76,9.32.25,13.89-1.19,10.55-2.51,21.13-4.56,31.55a243.87,243.87,0,0,1-16.56,51.24,226.91,226.91,0,0,1-29.39,49.52c-6.05,7.65-12.66,14.88-19.34,22-3.59,3.83-7.86,7-11.85,10.48A9,9,0,0,1,340.29,308.07Z"/><path class="cls-3" d="M177.56,307.18c3.69-4.61,7.42-9.19,11.06-13.84q19.75-25.27,39.4-50.64A20.52,20.52,0,0,1,236.7,236a66.26,66.26,0,0,1,28.38-5.27c7.69.33,11.17,3.47,11.51,11.17.21,4.78-.33,9.59-.54,14.39-1.09,3.95-2.05,7.94-3.33,11.83-1.37,4.15-3.4,7.89-7.05,10.69-11,8.45-22,17-32.9,25.58s-21.61,16.95-32.41,25.42c-1.33,1-2.69,1.94-4,3q-8.26,6.53-16.5,13.08a6.36,6.36,0,0,0-1,.57c-10.11,8.32-21.17,15.49-30.35,25-2.65,2.73-5.85,4-9.68,2.45-7.62-6.05-7.82-9.77-.93-16.74.34-.34.68-.66,1-1,1.72-1.85,3.56-3.59,5.11-5.57q10.55-13.37,20.95-26.84C169.19,318.23,173.36,312.69,177.56,307.18Z"/><path class="cls-7" d="M177.56,307.18c-4.2,5.51-8.37,11.05-12.62,16.52Q154.52,337.17,144,350.54c-1.55,2-3.39,3.72-5.11,5.57-.32.35-.66.67-1,1-6.89,7-6.69,10.69.93,16.74-.91,1-1.82,1.95-2.72,2.94-1.84,2-3.29,4.22-3.07,7.13a2.29,2.29,0,0,0-.12.37c-2.57.36-5.13.79-7.71,1.06-2.17.23-3.48-.91-3.09-3.06a77,77,0,0,1,2.82-12.39c7.35-20.36,17.72-39.24,29.48-57.33,6.14-9.45,13-18.45,19.46-27.66a13.55,13.55,0,0,0,.88-1.64l2.78-2.72Q177.55,293.87,177.56,307.18Z"/><path class="cls-8" d="M285.65,198.55c2.27,4.12,4,8.69,6.91,12.28,8.48,10.44,19.8,14.76,33.05,12.62,13.47-2.17,22.65-10.11,27.74-22.76.29-.72.62-1.43.94-2.14,1.82,4.17,1.39,8.6.77,12.8-2.42,16.4-15.07,28.36-31.54,30.27-17.76,2.07-35-10.62-38.32-28.4C284.29,208.36,283.87,203.39,285.65,198.55Z"/><path class="cls-8" d="M200.36,329.84q16.2-12.7,32.41-25.42c10.95-8.55,21.88-17.13,32.9-25.58,3.65-2.8,5.68-6.54,7.05-10.69,1.28-3.89,2.24-7.88,3.33-11.83.17,4.46.88,9,.38,13.37a110.79,110.79,0,0,1-3.49,15.66c-1.66,6.26-6,10.43-11.05,14.26-13.06,9.92-25.89,20.14-38.82,30.24l-1,.2Z"/><path class="cls-8" d="M355.26,147.85c3.54,5,8.16,8.23,14.46,8.52,7.09.32,12.34-2.94,16.31-8.59a17.65,17.65,0,0,1-15,26.42,16.7,16.7,0,0,1-15.77-9.07C352.06,159.45,351.83,153.6,355.26,147.85Z"/><path class="cls-9" d="M222.05,330.05l1-.2,3.78.07L221,335l-.39.49c-.25.32-.51.64-.76,1a6,6,0,0,0-1.75.57q-7.49,5.35-14.89,10.79l-.61,0-1.94-.27a12.57,12.57,0,0,1,1.3-1.33c4.93-3.89,9.9-7.73,14.82-11.64C218.6,333.2,220.3,331.59,222.05,330.05Z"/><path class="cls-10" d="M133,383.93c-.22-2.91,1.23-5.11,3.07-7.13.9-1,1.81-2,2.72-2.94,3.83,1.56,7,.28,9.68-2.45,9.18-9.46,20.24-16.63,30.35-25a6.36,6.36,0,0,1,1-.57c1.72.19,3.44.39,5.17.57l14.33,1.45c-.64.57-1.28,1.14-1.91,1.73l-5.23,4.89h0l-1.44,1,0,0L189,356.84l-6.62,4.3-1,.49h0c-.57.26-1.14.51-1.7.8C170.77,367,162,371.9,153,376.15,146.55,379.18,139.69,381.37,133,383.93Z"/><path class="cls-11" d="M133,383.93c6.67-2.56,13.53-4.75,20-7.78,9-4.25,17.77-9.13,26.64-13.73.56-.29,1.13-.54,1.7-.8a24.73,24.73,0,0,1-2.53,2.68c-10.21,8.13-21,15.55-30.3,24.81-6.3,6.28-11.63,2.55-15.2-3.71a5.79,5.79,0,0,1-.41-1.1A2.29,2.29,0,0,1,133,383.93Z"/><path class="cls-12" d="M200.67,347.62l-1.3.29L185,346.46c-1.73-.18-3.45-.38-5.17-.57q8.25-6.54,16.5-13.08c1.3-1,2.66-2,4-3l21.69.21c-1.75,1.54-3.45,3.15-5.26,4.6-4.92,3.91-9.89,7.75-14.82,11.64A12.57,12.57,0,0,0,200.67,347.62Z"/></g></g></svg>