<svg xmlns="http://www.w3.org/2000/svg" viewBox="0 0 507.88 507.98"><defs><style>.cls-1{fill:#89526f;}.cls-2{fill:#e8ddc6;}</style></defs><g id="Layer_2" data-name="Layer 2"><g id="Layer_3" data-name="Layer 3"><rect class="cls-1" width="507.88" height="507.98" rx="36.33"/><path class="cls-2" d="M79,112c0-9.48.21-19-.1-28.44-.14-4.36,1.14-5.73,5.59-5.64,43.09.83,84.95,8.42,124.63,25.23Q371.52,172,418.33,342.49a312.33,312.33,0,0,1,10.8,82.18c0,4.06-1,5.46-5.26,5.41q-29-.3-57.89,0c-4.11,0-5.45-1.3-5.52-5.4-1.07-67.14-23.28-126.61-66.42-177.86-42.71-50.73-96.9-82.82-162.21-95.14-15.9-3-32.26-3.62-48.43-5-3.47-.3-4.57-1.33-4.51-4.73C79.05,132,79,122,79,112Z"/><path class="cls-2" d="M79.26,265.09c-.13-1.59-.31-2.89-.32-4.18,0-19.63.1-39.26-.1-58.88,0-4.09,1.37-5.12,5.21-5,69.94,2.73,127.81,30.55,172.94,84a221.23,221.23,0,0,1,50.2,110.12c1.67,10.62,2.3,21.42,3,32.16.43,6.59.09,6.63-6.3,6.63H248.5c-6.59,0-6.41,0-6.78-6.58-3.73-65.71-35.57-113.06-94-142.62-20.61-10.44-43-14.32-65.94-15.35C81.15,265.39,80.49,265.25,79.26,265.09Z"/><path class="cls-2" d="M126,335.42c20.67-1.19,46.83,15.82,47.16,47.16.27,25.68-21.41,47.33-47.06,47-31.23-.35-47.88-26.47-47.3-47.7C79.48,355.85,99.62,335.41,126,335.42Z"/></g></g></svg>