<svg xmlns="http://www.w3.org/2000/svg" viewBox="0 0 507.88 507.98"><defs><style>.cls-1{fill:#7699a8;}.cls-2{fill:#e8ddc6;}.cls-3{fill:#ce6164;}</style></defs><g id="Layer_2" data-name="Layer 2"><g id="Layer_3" data-name="Layer 3"><rect class="cls-1" width="507.88" height="507.98" rx="36.33"/><circle class="cls-2" cx="253.94" cy="253.99" r="234.16"/><circle class="cls-1" cx="253.94" cy="253.99" r="217.36"/><path class="cls-2" d="M178.68,304.85c-3.54-7.11-8.59-13.89-10.22-21.41-2.1-9.65-7.88-12.35-16.15-14.2a427,427,0,0,1-51-14.36c17.88-4.53,35.7-9.26,53.65-13.49,6.65-1.57,10.37-3.86,12.74-11.45,9.7-31.06,31-51.14,61.84-61.6,3.81-1.29,8-5.89,9.15-9.81,5.38-18.28,9.74-36.85,15.36-58.8,5.55,21.58,10.73,39.72,14.7,58.12,1.5,7,4.62,9.83,11.05,11.94,8.23,2.71,15.93,7,23.86,10.67l-21.73,16.41c-33.13-16.59-74.19-1.14-88.61,32.65-7.72,18.06-5.57,35.59-.19,53.41Z"/><path class="cls-2" d="M329.23,206.25c2.51,4.53,6.58,8.84,7.23,13.62,2.29,16.92,13.42,22,28.2,24.67A230.85,230.85,0,0,1,406.6,256.6c-18,4.63-36,9.76-54.19,13.64-7.42,1.58-10.48,5.15-12.56,11.91-9.39,30.42-29.52,50.44-60,59.6-6.46,1.94-9.62,4.85-11.11,11.85a413.38,413.38,0,0,1-15.67,54.65c-4.2-16.92-8.64-33.79-12.51-50.78-1.87-8.21-4.41-14.13-14.19-16.16-7.52-1.55-14.3-6.66-21.41-10.19l21.92-14.42c3.84,1,7.66,2.15,11.53,3,27.3,6.23,50.16-2.07,67.16-23.51,16.36-20.63,19.83-43.86,7.29-68.19Z"/><path class="cls-2" d="M226.87,316.7l-21.93,14.42q-43.21,31.81-86.44,63.62a8.89,8.89,0,0,1-6.89,1.86q33.53-45.87,67.06-91.75l14.42-21.92c2.62-2,5.76-3.56,7.76-6.05,11.05-13.78,21.81-27.78,32.67-41.71L274.6,276.3c-11.77,9.12-23.71,18.05-35.24,27.46C234.74,307.52,231,312.35,226.87,316.7Z"/><path class="cls-3" d="M274.6,276.3l-41.07-41.12,48.36-38.31,21.73-16.41q44.56-32.75,89.12-65.5l2.17,1.92-65.67,89.37L312.84,228Z"/></g></g></svg>