<svg xmlns="http://www.w3.org/2000/svg" viewBox="0 0 507.88 507.98"><defs><style>.cls-1{fill:#f4f0ea;}.cls-2{fill:#d69f49;}</style></defs><g id="Layer_2" data-name="Layer 2"><g id="Layer_3" data-name="Layer 3"><rect class="cls-1" width="507.88" height="507.98" rx="36.33"/><path class="cls-2" d="M187.77,339.16c-10.4.32-18.4-6.06-20-16q-7.32-45.24-14.15-90.55c-1.82-12.12,5-20.66,17.24-22.51,8.87-1.36,17.71-2.89,26.58-4.23a11,11,0,0,0,8.21-5.39c1.2-2,2.44-3.92,3.48-6a19.33,19.33,0,0,1,15.29-11q18-2.68,36-5.67a18.24,18.24,0,0,1,16.42,4.89c11.69,11.07,11.38,8.47,24.77,6.61,6.48-.9,12.91-2.17,19.39-3.1a19.33,19.33,0,0,1,21.8,15.91q7.33,45.27,14.47,90.57c1.75,11.17-5,20.32-16.45,22.24-21.3,3.56-42.65,6.84-64,10.23L193,338.5C191,338.82,188.92,339,187.77,339.16Zm22.93-81.34c.38,25,19.84,44.46,44.16,44.19,24.82-.28,43.48-20,43.17-45.71-.29-23.79-20.62-42.53-45.65-42.1C229.86,214.59,210.35,235,210.7,257.82Z"/><path class="cls-2" d="M436.89,345.89c.17,27.48-12.31,43.83-34.57,48.34-18.89,3.83-38,6.5-57.08,9.45-6.68,1-12.2-3.55-13.12-10.2-1-7.49,2.81-12.94,10.24-14.14,15.68-2.55,31.37-5,47.06-7.46a58.14,58.14,0,0,0,6.4-1.33c10.58-2.93,16.27-11.44,14.65-22.34-2.55-17.14-5.26-34.25-8-51.37-1.24-7.84,2.73-14,10.18-15.43,7.81-1.52,14.18,2.41,15.54,10.39C431.55,311.37,434.53,331,436.89,345.89Z"/><path class="cls-2" d="M157.52,433.42c-26.08.41-42.27-11-47.45-30.69-3.17-12-4.63-24.51-6.75-36.8-1.27-7.29-2.37-14.6-3.49-21.91-1-6.43,2-11.61,7.88-14,6.22-2.47,12.71-.73,16.06,4.63a17.19,17.19,0,0,1,2,6.14c2.53,15.31,4.92,30.66,7.43,46a57.44,57.44,0,0,0,2,8.49c3.09,9.58,11.14,14.79,21.08,13.33,17.15-2.52,34.27-5.28,51.4-8,9.58-1.49,16,4.4,15.07,13.91-.45,4.75-3.41,8.85-8.06,9.64C193.73,427.74,172.76,431,157.52,433.42Z"/><path class="cls-2" d="M408,164.87c-.27,8-4.66,12.67-11.62,13.57-6.61.86-12.55-2.85-13.84-9.51-2-10.46-3.34-21.06-5.16-31.56-1.55-8.93-2.78-18-5.24-26.66-2.31-8.15-10.33-12.92-18.73-11.84-15.27,2-30.47,4.38-45.7,6.61-3.23.48-6.45,1.11-9.7,1.48-6.1.68-11.1-3.14-12.38-9.32-1.35-6.5,1.49-12.37,7.53-13.76,8.13-1.86,16.42-3.11,24.68-4.34,12-1.79,23.94-3.87,36-4.83,12.57-1,24.05,2.51,33.18,11.82a40.4,40.4,0,0,1,11.11,20.52c3,15.07,5.37,30.27,7.95,45.42C406.89,157,407.52,161.57,408,164.87Z"/><path class="cls-2" d="M71,156.36c.25-22.21,12.31-37.88,34.84-42.67,18.35-3.91,37-6.51,55.56-9.2,9.7-1.4,16.13,6.11,13.75,15.24-1.13,4.36-3.89,7.22-8.46,8-16.4,2.67-32.82,5.2-49.2,8a37.47,37.47,0,0,0-11,3.45c-8.74,4.55-10.49,12.71-9.26,21.5,2.35,16.68,5.19,33.3,7.87,49.93,1,6.24-.72,10.92-5.22,13.65-5,3-11.36,3.31-15.29-.41a17.2,17.2,0,0,1-4.87-8.89c-2.84-16-5.19-32.06-7.63-48.11C71.53,163.37,71.33,159.85,71,156.36Z"/><path class="cls-2" d="M254.44,288.71A30.43,30.43,0,0,1,224,258.77c-.06-17.35,13-31,29.82-31.23a30.77,30.77,0,0,1,31.28,30.71C285.25,275,271.5,288.6,254.44,288.71Z"/></g></g></svg>