<svg xmlns="http://www.w3.org/2000/svg" viewBox="0 0 507.88 507.98"><defs><style>.cls-1{fill:#aa4469;}.cls-2{fill:#e8ddc6;}</style></defs><g id="Layer_2" data-name="Layer 2"><g id="Layer_3" data-name="Layer 3"><rect class="cls-1" width="507.88" height="507.98" rx="36.33"/><path class="cls-2" d="M289.83,163c30.79,31.34,63.4,63.07,94.17,96.48,15.6,16.94,15,38.69.3,54.18C349,350.81,312.88,387.14,277,423.72c-1.44,1.48-3.71,2.16-8.1,4.61-.68-37.86-26.34-58.17-49.78-80.47Q170.86,302,124.39,254.2c-19.21-19.65-14.62-50.09,8.12-62.54,15.08-8.25,31.49-6.48,44.37,4.81,13.21,11.57,16.91,28.29,10.85,44.88-1.78,4.9-1.29,10.64-1.85,16,4.5-2.66,9.68-4.59,13.38-8.08C228.64,221.59,257.74,193.63,289.83,163Z"/><path class="cls-2" d="M202.62,227.68c-12.16-37.91-28.94-50.42-66.76-47.57,4.1-5.31,6.52-9.22,9.67-12.4,34.09-34.35,68.56-68.34,102.35-103C262,50.2,278.28,47.85,296.17,53.85c18.56,6.22,28,21.33,31.13,39.48,1.09,6.25-1.91,15.5-6.4,20.08-37.44,38.21-75.66,75.66-113.71,113.27C206.53,227.33,205.08,227.18,202.62,227.68Z"/><path class="cls-2" d="M217.42,361.09C231.64,379,246,393.71,256.28,410.86c11.06,18.41-7.25,43.2-33,46.05-16.47,1.82-30.16-4.78-39-19.17-8.11-13.2-6.4-25.6,3.62-37.64C197.57,388.45,206.25,376,217.42,361.09Z"/></g></g></svg>