<svg xmlns="http://www.w3.org/2000/svg" viewBox="0 0 278.37 348.76"><defs><style>.cls-1{fill:#566c84;}.cls-2{fill:#66c6ba;}.cls-3{fill:#e8ddc6;}</style></defs><g id="Layer_2" data-name="Layer 2"><g id="Layer_3" data-name="Layer 3"><path class="cls-1" d="M277.82,337.41c-5.12,8.81-13,11.37-22.84,11.35q-115.87-.31-231.75,0c-9.88,0-17.72-2.54-22.85-11.34Q.2,223.36,0,109.31,0,68,0,26.75C0,5.06,4.35.81,26.12,1c2.89,0,5.78.18,8.68.28V52.41H69.55V1.23H87V52.41h34.76V1.23h17.4V52.41h34.76V1.23c5.42-.1,10.95.44,16.26-.41,22.85-3.63,40.75,5,55.77,21.5,7.78,8.55,15.87,16.81,23.55,25.44,6.48,7.29,9,15.74,8.92,25.81C277.93,161.52,277.94,249.47,277.82,337.41Zm-243-127.84c0,27.86-.06,55.71,0,83.57,0,15.26,5.56,20.7,20.93,20.72q82.48.06,165,0c15.34,0,22.66-7.21,22.67-22.36q.09-81.94,0-163.88c0-15.12-7.35-22.33-22.69-22.34q-82.48-.08-165,0c-15.24,0-20.87,5.58-20.91,20.73C34.73,153.86,34.79,181.71,34.79,209.57Z"/><path class="cls-2" d="M69.55,1.23V52.41H34.8V1.23Z"/><path class="cls-2" d="M121.71,1.23V52.41H87V1.23Z"/><path class="cls-2" d="M173.87,1.23V52.41H139.11V1.23Z"/><path class="cls-3" d="M34.79,209.57c0-27.86-.06-55.71,0-83.57,0-15.15,5.67-20.72,20.91-20.73q82.49-.08,165,0c15.34,0,22.68,7.22,22.69,22.34q.09,81.95,0,163.88c0,15.15-7.33,22.35-22.67,22.36q-82.49.09-165,0c-15.37,0-20.89-5.46-20.93-20.72C34.73,265.28,34.79,237.43,34.79,209.57Z"/></g></g></svg>