<svg xmlns="http://www.w3.org/2000/svg" viewBox="0 0 507.88 507.98"><defs><style>.cls-1{fill:#566c84;}.cls-2{fill:#e8ddc6;}</style></defs><g id="Layer_2" data-name="Layer 2"><g id="Layer_3" data-name="Layer 3"><rect class="cls-1" width="507.88" height="507.98" rx="36.33"/><path class="cls-2" d="M414.05,241.64c-.51,37.78-14.19,70.24-40.31,97.32S315.5,381.58,278.39,387a169.56,169.56,0,0,1-64.49-2.95,7.84,7.84,0,0,0-6.3,1c-15.68,9.18-31.42,18.27-47.13,27.41-2,1.19-4.27,2.17-6.28.72a7.35,7.35,0,0,1-3-4.45c-1.21-12.72-2.11-25.46-3.12-38.2-.32-4.05-.59-8.11-1-12.15a4,4,0,0,0-1.4-2.4c-28.63-22.73-44.25-52.8-49.89-88.45-3.58-22.61-2.71-45,4.21-67a141.3,141.3,0,0,1,33.79-56.55c26.44-27.27,58.72-43.3,96.25-48.33,44.75-6,86.06,3.45,122.87,30,29.49,21.24,49.15,49.48,57.68,85.08A128.64,128.64,0,0,1,414.05,241.64Z"/><path class="cls-2" d="M457,247a188.11,188.11,0,0,1-6.2,41.26c-.66,2.53-1.68,3-4,2.13s-5.56-.93-6.49-2.49.59-4.48,1.13-6.79a161.45,161.45,0,0,0,4.65-35.21c0-2.37.79-3.37,3.18-3.11a35.66,35.66,0,0,0,3.73.08C457.19,242.86,457.19,242.86,457,247Z"/><path class="cls-2" d="M56.5,251.42c4.87-.17,4.83-.17,5.11,4.68.74,12.93,2.06,25.78,5,38.42.51,2.17,0,3-2.15,3.38a37.32,37.32,0,0,0-5.31,1.28c-1.93.62-2.77-.09-3-2-1.54-10.57-3.19-21.13-4.6-31.71-.5-3.77-.33-7.62-.67-11.42-.17-2,.48-2.79,2.43-2.68C54.34,251.46,55.42,251.42,56.5,251.42Z"/><path class="cls-2" d="M94.84,354c-2.36,2-4.63,3.88-6.92,5.78-1.61,1.34-2.3-.25-2.88-1.13-5.12-7.73-10.41-15.36-15.12-23.33-2.77-4.68-4.55-9.93-6.83-14.9-.76-1.66-.44-2.57,1.37-3.11,2.06-.62,4.06-1.44,6.07-2.23,1.19-.46,2-.37,2.5,1A130.8,130.8,0,0,0,94.3,353,9.47,9.47,0,0,1,94.84,354Z"/><path class="cls-2" d="M348,398c1.34,2.57,2.79,5.26,4.14,8,.84,1.67-.7,2-1.66,2.43-7.9,3.46-15.73,7.08-23.76,10.22-5.39,2.11-11.07,3.47-16.57,5.3-2.26.75-3.2,0-3.6-2.18-.36-2-1.09-3.84-1.36-5.8a2.56,2.56,0,0,1,1.16-2.14,218.06,218.06,0,0,0,40.79-15.72A3.67,3.67,0,0,1,348,398Z"/><path class="cls-2" d="M211.31,415.06c3.61,1,7.22,1.86,10.79,2.93.38.12.76,1.24.66,1.82a54,54,0,0,1-1.64,7c-.2.62-1.31,1-2,1.4-.16.09-.49,0-.71-.13-4.91-2.31-9.34-.88-13.93,1.31-7.11,3.38-14.46,6.24-21.62,9.53-2.37,1.09-3.44.54-4.21-1.76a35.5,35.5,0,0,0-2.07-4.79c-.83-1.64-.43-2.47,1.28-3.19,7.71-3.26,15.37-6.64,23.05-10,2.51-1.09,5-2.18,7.55-3.23C209.32,415.61,210.29,415.38,211.31,415.06Z"/><path class="cls-2" d="M253.71,431.21c-3.74,0-7.47,0-11.2,0-1.56,0-2.29-.6-2.21-2.21.12-2.24,0-4.5.29-6.7a2.81,2.81,0,0,1,1.94-1.86c2-.18,4.14.25,6.2.12,11.65-.71,23.3-1.45,35-2.31,3.21-.23,3.21-.43,3.79,2.83.3,1.63.47,3.29.82,4.9.41,1.85-.07,2.72-2.12,2.9-10.81.95-21.6,2-32.4,3Z"/><path class="cls-2" d="M419.05,351.57l-8.34-6.39c.65-1,1.16-1.8,1.74-2.58a170.75,170.75,0,0,0,19.92-34.66c.85-2,1.81-2.86,3.87-1.62a10.38,10.38,0,0,0,1.37.57c6,2.49,6.06,2.5,3.31,8.54a186.49,186.49,0,0,1-20.08,34C420.36,350.1,419.79,350.69,419.05,351.57Z"/><path class="cls-2" d="M100.14,374.75l7.21-7.91c4.24,3.43,8.27,6.6,12.18,9.91a6.17,6.17,0,0,1,1.58,2.76c3,9.22,5.88,18.47,8.91,27.68.6,1.83,0,2.59-1.65,3.06a59.56,59.56,0,0,0-5.69,1.79c-1.76.68-2.51.11-3.05-1.61-2.43-7.84-5-15.63-7.44-23.46a9.54,9.54,0,0,0-3.56-5.17C105.78,379.69,103.16,377.28,100.14,374.75Z"/><path class="cls-2" d="M270.49,61.83a203.7,203.7,0,0,0-41.19.77c-2.25.26-3-.44-3.1-2.55-.1-1.81-.45-3.62-.73-5.42-.26-1.63.33-2.46,2.05-2.66A230.77,230.77,0,0,1,271,51c2.15.15,2.92,1,2.5,3.18a42.81,42.81,0,0,0-.52,5.44C272.89,61.43,272.15,62.28,270.49,61.83Z"/><path class="cls-2" d="M57.35,232.85c-.33,0-.67,0-1-.07-6.37-.72-5.74.9-5.24-6.09a176.33,176.33,0,0,1,7.58-39.51c.69-2.26,1.65-2.73,3.72-1.85a37.45,37.45,0,0,0,5,1.65c1.83.49,2.18,1.35,1.73,3.26-2.2,9.36-4.3,18.74-6.22,28.15a85.79,85.79,0,0,0-1.2,10.88C61.42,233,62,233,57.35,232.85Z"/><path class="cls-2" d="M395.74,104.87a13.06,13.06,0,0,1-.92,1.3c-1.44,1.6-3,3.12-4.32,4.8s-2.28,1.31-3.65.07A185.94,185.94,0,0,0,357,89.14l-.21-.13-5.07-3.66c1.46-2.69,2.88-5.4,4.46-8,.16-.28,1.4-.22,1.93.07a201.05,201.05,0,0,1,36.53,26.13A10.48,10.48,0,0,1,395.74,104.87Z"/><path class="cls-2" d="M447.86,224.55c-1.75.51-2.46-.63-2.69-2.79A157.92,157.92,0,0,0,436,182.92c-.82-2.2-.63-3.36,1.75-4a27.75,27.75,0,0,0,4.64-1.78c2-.94,3.05-.47,3.65,1.65,2.32,8.2,5,16.32,7,24.6,1.42,5.77,2,11.75,3,17.62.34,2-.28,2.94-2.4,3C451.9,224,450.18,224.31,447.86,224.55Z"/><path class="cls-2" d="M363.59,388.64c.81-.64,1.36-1.13,2-1.53A183.61,183.61,0,0,0,396.84,361c1.64-1.72,2.72-1.9,4.35-.06s3.54,3.44,5.55,5.34a195.34,195.34,0,0,1-37.32,31.24Z"/><path class="cls-2" d="M100.38,132.13c-.63.85-1.23,1.73-1.89,2.56a172.27,172.27,0,0,0-20.77,33.57c-1,2.21-2.11,2.68-4.14,1.47-.92-.55-2-.89-2.94-1.35-4.53-2.13-4.3-1.37-2.07-6A193.18,193.18,0,0,1,90.44,127.4c1.49-1.92,2.58-2.05,4.28-.39,1.54,1.5,3.3,2.78,5,4.17A5.77,5.77,0,0,1,100.38,132.13Z"/><path class="cls-2" d="M142.13,444.69c4.72-2,9.17-3.82,13.49-5.88,2.21-1.05,3.44-.92,4.22,1.61a43.3,43.3,0,0,0,2.36,5.48c.54,1.16.22,1.83-.93,2.33-6.86,2.94-13.67,6-20.57,8.85a5,5,0,0,1-7-3.17c-2.42-7.06-4.61-14.19-6.93-21.28-.44-1.37.1-2,1.35-2.37,2.06-.62,4.13-1.24,6.15-2,1.69-.62,2.54-.22,3.06,1.59,1.17,4.06,2.55,8.06,3.85,12.08C141.4,442.73,141.7,443.49,142.13,444.69Z"/><path class="cls-2" d="M401.64,125.56l8.1-7.24c1,1.21,1.75,2.26,2.6,3.26a192,192,0,0,1,23.43,34.25c1.48,2.8,1.47,2.81-1.35,4.25-1.26.64-2.51,1.29-3.76,1.94-3,1.53-2.8,1.42-4.56-1.31-5.79-9-11.64-17.94-17.64-26.79C406.53,131.05,404.09,128.53,401.64,125.56Z"/><path class="cls-2" d="M143.73,81.15c1.55,2.57,3.22,5.13,4.59,7.83.23.45-.69,1.81-1.39,2.34-7.76,5.8-15.66,11.42-23.35,17.3a91.92,91.92,0,0,0-9,8.21c-1.44,1.43-2.36,1.3-3.61-.11s-2.87-3-4.38-4.4c-1-.92-1.12-1.66-.09-2.68a196.86,196.86,0,0,1,36-28.11A7.09,7.09,0,0,1,143.73,81.15Z"/><path class="cls-2" d="M205.47,55.93c.32.41,1,.91,1.18,1.56.64,2.31,1.11,4.68,1.66,7,.4,1.74-.9,1.81-2,2.15-8,2.43-16.09,4.69-24,7.39-5.09,1.74-10,4.06-14.91,6.26-1.6.71-2.55.74-3.29-1-.83-2-1.85-3.9-2.85-5.81-.62-1.2-.43-2,.84-2.59a211.47,211.47,0,0,1,42.23-14.74C204.54,56.06,204.79,56,205.47,55.93Z"/><path class="cls-2" d="M293.71,53.94c5.37,1.25,10.3,2.09,15,3.58,9.4,2.95,18.68,6.27,28,9.39,2.11.7,2.5,1.76,1.44,3.68a29,29,0,0,0-2.07,4.79c-.64,1.9-1.53,2.37-3.49,1.53a190.19,190.19,0,0,0-39.4-12c-1.79-.34-2.4-1.14-2-2.89.46-2.1.74-4.25,1.25-6.34A6.29,6.29,0,0,1,293.71,53.94Z"/></g></g></svg>