<svg xmlns="http://www.w3.org/2000/svg" viewBox="0 0 507.88 507.98"><defs><style>.cls-1{fill:#324d5d;}.cls-2{fill:#d69f49;}.cls-3{fill:#e2625b;}.cls-4{fill:#40ccaa;}</style></defs><g id="Layer_2" data-name="Layer 2"><g id="Layer_3" data-name="Layer 3"><rect class="cls-1" width="507.88" height="507.98" rx="36.33"/><path class="cls-2" d="M1.61,258.9c0-2.5-.05-5-.08-7.5,14.84-.08,29.79-1.37,44.47.1,15.24,1.52,26.33-4.87,36.69-14.33,4.51-4.12,8.57-8.75,12.84-13.14,5.89-6.05,11.56-12.34,17.73-18.09,11.34-10.59,24.11-18,40.4-16.44,2.83.83,5.82,1.31,8.46,2.54,13.41,6.23,26.74,12.65,40.09,19,12,5.74,23.89,11.86,37.48,12.94,8,2,15.16-.5,21.49-4.88,6.76-4.66,12.86-10.29,19.28-15.45,10.15-8.13,19.71-17.23,30.64-24.09,15.34-9.64,31.48-8.5,46.46,1.78,7.45,5.12,14.26,11.19,21.4,16.78,1.39,1.1,3,2,4.44,2.95,3.71,3.77,7.26,7.72,11.15,11.28q19.9,18.19,40.05,36.12a9.66,9.66,0,0,0,5.66,2.54c14.47.11,28.95-.08,43.43-.17l24.19.29v9a71.7,71.7,0,0,0-8.44-1.19c-5-.13-10.07.11-15.11.19-14-.07-28-.27-42-.07-2.44,0-5.13,1.33-7.22,2.76-18.74,13-34.06,29.78-50,45.85-3.26,2.74-6.48,5.54-9.8,8.19-5.15,4.12-10.19,8.41-15.6,12.16-18.39,12.73-35.86,13.12-54.06,0-10.26-7.38-19.24-16.55-29.05-24.6a206.75,206.75,0,0,0-19.44-14.31c-5.57-3.58-12-4.24-18.58-2.88l-.86.75.07-.15c-2.09.25-4.39,0-6.25.84-14,6.05-27.9,12.43-41.92,18.47-11.6,5-23.33,9.67-35,14.49-11.25,1.33-21.82-1-30.78-7.86a213,213,0,0,1-22.51-19.95C90.05,281.51,79.86,269,65.63,261.09a13.87,13.87,0,0,0-5.92-2c-6.39-.19-12.8.05-19.2.12Z"/><path class="cls-3" d="M153.66,189.5c-16.29-1.59-29.06,5.85-40.4,16.44-6.17,5.75-11.84,12-17.73,18.09-4.27,4.39-8.33,9-12.84,13.14C72.33,246.63,61.24,253,46,251.5c-14.68-1.47-29.63-.18-44.47-.1v-1c7.4-.13,14.81-.63,22.19-.33,20.36.83,35-8.58,45.59-25.36,7.78-12.32,15.11-25,23.09-37.14,7.46-11.41,16.11-21.88,27.15-30.06a54.12,54.12,0,0,1,7.11-4.48c11.57-6.07,22.5-5.36,32.47,3.53,2.84,2.53,5.52,5.23,8.27,7.85Z"/><path class="cls-4" d="M153.66,189.5l13.74-25.09c5.34-5.23,11.14-9.54,19.14-8.5,7.53,1,13,5.19,17,11.55q18,28.32,36.12,56.55c-13.59-1.08-25.47-7.2-37.48-12.94-13.35-6.38-26.68-12.8-40.09-19C159.48,190.81,156.49,190.33,153.66,189.5Z"/><path class="cls-4" d="M483.69,250.87c-14.48.09-29,.28-43.43.17a9.66,9.66,0,0,1-5.66-2.54q-20.14-17.91-40.05-36.12c-3.89-3.56-7.44-7.51-11.15-11.28,11.87-2.46,22.68,1.56,32.57,7.07,14.95,8.32,29.27,17.81,43.76,27C467.81,240.21,475.71,245.61,483.69,250.87Z"/><path class="cls-3" d="M40.51,259.2c6.4-.07,12.81-.31,19.2-.12a13.87,13.87,0,0,1,5.92,2c14.23,7.91,24.42,20.42,35.65,31.8a213,213,0,0,0,22.51,19.95c9,6.84,19.53,9.19,30.78,7.86l12.49,23.12c-16.92,18.95-32.18,20-51.72,3.39C103,336.7,94,323.4,85.36,309.84c-3.91-6.14-7.72-12.35-11.22-18.73C66.3,276.81,56.39,264.83,40.51,259.2Z"/><path class="cls-4" d="M167.06,343.82,154.57,320.7c11.67-4.82,23.4-9.49,35-14.49,14-6,27.9-12.42,41.92-18.47,1.86-.81,4.16-.59,6.25-.84-11.6,18.45-23,37.05-34.87,55.32C193.87,356.06,179.52,356.49,167.06,343.82Z"/><path class="cls-4" d="M385.06,307.69c16-16.07,31.29-32.88,50-45.85,2.09-1.43,4.78-2.73,7.22-2.76,14-.2,28,0,42,.07-23.11,13.94-46,28.23-69.44,41.63C405.93,305.9,395.8,308.93,385.06,307.69Z"/></g></g></svg>