<svg xmlns="http://www.w3.org/2000/svg" viewBox="0 0 507.88 507.98"><defs><style>.cls-1{fill:#eeb659;}.cls-2{fill:#f4f0ea;}</style></defs><g id="Layer_2" data-name="Layer 2"><g id="Layer_3" data-name="Layer 3"><rect class="cls-1" width="507.88" height="507.98" rx="36.33"/><path class="cls-2" d="M286.45,252.31c-7.43-.56-14.85-1.34-22.28-1.61-5.47-.19-11.17-.57-16.4.68-9.57,2.29-12.92,9.73-8.38,18.43,2.5,4.79,6.56,8.77,10,13.05,10.69,13.32,21.95,26.22,32,40,11.86,16.34,14.32,35,10.08,54.55-5.28,24.43-14.62,46.82-32.06,65.35-15.52,16.51-34.74,22.77-56.43,18.57-15-2.91-29.63-8.45-44.2-13.49-6.54-2.26-12-2.81-17.84,1.66-1.84,1.41-5.74,1.6-8,.7-22-8.7-22.92-9.14-14.81-31.42,10.75-29.53,22.11-58.94,35.24-87.48,6.7-14.56,16.84-27.92,27.16-40.38,23.09-27.87,39.19-58.91,45-94.62,5.57-34.17,19.2-65,36.11-94.69,10-17.49,21.13-34.33,31.52-51.6,2.82-4.69,5.79-6,10.7-3.17a79.91,79.91,0,0,0,11.26,5.23c5.31,2.06,8,5.08,9,11.31.71,4.28,5.13,8.79,9,11.53,12,8.35,25.26,14.93,36.63,23.95,23,18.26,29.19,42.48,21.69,70.59-5.36,20.11-15.28,37.72-28,54-16.3,20.85-38.89,26.9-63.71,28.1-4.41.21-8.83,0-13.25,0Zm15-11.52.62-2.5a62.73,62.73,0,0,0,43.33-13.36C364,210.5,375,191.14,381.09,168.72c4.25-15.73,1.16-30-8.93-42.82-13.67-17.38-32-27.65-52.6-34.21-21.52-6.85-29.36-5-43.13,12.85C254.58,132.89,241,164.85,238.9,201c-.72,12.48,5.06,22.73,16.76,26.95C270.52,233.29,286.13,236.59,301.41,240.79ZM282,360.66c-1.86-6.11-3.53-18-8.88-27.81-10.23-18.87-26.35-32.49-45.6-42.06A28.9,28.9,0,0,0,193.73,296c-5.16,5-10.37,10.08-14.55,15.85-19.32,26.74-34.7,55.13-35.73,89.28-.21,7.26,2.3,13,7.79,17.42,21.07,16.93,44.63,27.49,72.18,26.82,12.59-.31,24.11-4.49,32.5-14.21C272,412.55,280.22,390.66,282,360.66Z"/></g></g></svg>