<svg xmlns="http://www.w3.org/2000/svg" viewBox="0 0 507.88 507.98"><defs><style>.cls-1{fill:#eeb659;}.cls-2{fill:#e8ddc6;}</style></defs><g id="Layer_2" data-name="Layer 2"><g id="Layer_3" data-name="Layer 3"><rect class="cls-1" width="507.88" height="507.98" rx="36.33"/><path class="cls-2" d="M362.37,79.05c1.41,7.82,2.73,15.15,4.33,24-5.91-2.67-10.39-4.44-14.64-6.67-3.64-1.91-6-1.53-8.45,2.08-17.44,25.84-34,52.21-45.46,81.32A213.58,213.58,0,0,0,287.72,217c-4.71,24.19-13.29,46.75-29.45,65.25-21.94,25.14-35.48,54.46-46.49,85.31-4.19,11.76-7.47,23.84-11.54,35.64-1.89,5.46-1.77,9.41,4.59,11.23.67.19,1.17,1,2.3,2a47.17,47.17,0,0,1-4.6,1.39c-19.14,3.59-38.31,7-57.41,10.8-5,1-6.71-.66-7.59-5.41Q111.12,279.93,84.39,136.67c-1-5.49.94-6.84,5.83-7.74Q222.9,104.5,355.54,79.8C357.56,79.42,359.63,79.34,362.37,79.05ZM211.21,130.44a19.6,19.6,0,0,0-3-.12c-33.91,6.24-67.79,12.54-101.71,18.68-5,.9-4.63,3.81-4,7.44,6.21,33.27,12.43,66.53,18.46,99.83.84,4.64,2.2,6.4,7.44,5.39q48.59-9.38,97.31-18.05c4.92-.88,6.18-2.79,5.22-7.69-4.38-22.42-8.42-44.9-12.6-67.36C216,155.92,213.61,143.29,211.21,130.44Z"/><path class="cls-2" d="M340.94,263c-5.69-.42-11.38-1-17.08-1.22-4.19-.15-8.56-.44-12.57.52-7.33,1.75-9.9,7.45-6.42,14.12,1.91,3.67,5,6.72,7.67,10,8.19,10.21,16.82,20.09,24.51,30.67,9.09,12.52,11,26.8,7.73,41.81-4,18.72-11.22,35.88-24.58,50.09-11.89,12.65-26.63,17.44-43.25,14.23-11.53-2.23-22.71-6.48-33.88-10.34-5-1.73-9.19-2.16-13.67,1.27-1.41,1.08-4.4,1.23-6.16.53-16.88-6.66-17.56-7-11.35-24.07,8.24-22.64,17-45.18,27-67,5.14-11.17,12.91-21.4,20.82-31,17.69-21.37,30-45.15,34.5-72.53,4.27-26.18,14.71-49.85,27.68-72.57,7.65-13.41,16.19-26.32,24.15-39.55,2.16-3.59,4.44-4.62,8.21-2.43a62.09,62.09,0,0,0,8.63,4c4.06,1.58,6.12,3.89,6.91,8.67.54,3.28,3.93,6.74,6.94,8.84,9.16,6.4,19.35,11.43,28.07,18.35,17.64,14,22.37,32.56,16.62,54.11C417.32,215,409.72,228.46,400,241c-12.49,16-29.81,20.62-48.83,21.54-3.38.16-6.77,0-10.16,0Zm11.47-8.82.47-1.92a48,48,0,0,0,33.21-10.24c14.3-11.06,22.75-25.89,27.39-43.08,3.26-12.05.89-23-6.85-32.82-10.48-13.32-24.51-21.19-40.31-26.22-16.5-5.25-22.51-3.84-33.06,9.85-16.75,21.73-27.16,46.22-28.77,73.91-.55,9.56,3.88,17.42,12.85,20.65C328.73,248.46,340.69,251,352.41,254.21Zm-14.92,91.87c-1.42-4.68-2.71-13.76-6.8-21.32-7.84-14.46-20.2-24.89-34.95-32.23a22.18,22.18,0,0,0-25.87,4,94.69,94.69,0,0,0-11.14,12.15c-14.82,20.49-26.61,42.26-27.39,68.43a15.52,15.52,0,0,0,6,13.35c16.15,13,34.21,21.07,55.32,20.55,9.65-.23,18.48-3.43,24.91-10.89C329.85,385.86,336.17,369.08,337.49,346.08Z"/><path class="cls-2" d="M395.11,256.16c1.42,7.34,2.65,13.48,3.8,19.63q8.89,47.77,17.76,95.54c.67,3.55,1.25,6.63-3.79,7.53-22.5,4.05-45,8.29-67.45,12.44a24.07,24.07,0,0,1-3.31,0c.74-2.21,1.36-3.87,1.85-5.56,2.9-9.93,6.34-19.75,8.5-29.83,3.07-14.28.57-28.23-7.76-40.1-9.08-12.94-19.66-24.81-29.42-37.27-1.71-2.19-2.6-5-3.87-7.55,2.71-.74,5.43-2.11,8.14-2.1,11,0,22,1.09,32.95.63C367.37,268.92,382,266.43,395.11,256.16Z"/><path class="cls-2" d="M193.38,212,189,209c-9.29,7.77-17.12,8.89-23.64,3.37-7.31-6.18-9.71-20-4.82-27.92,4.64-7.51,12.56-9.17,23.72-4.4-.85-5.31-1.73-10.14-2.32-15-.11-.94.89-2,1.38-3.05,1,.74,2.81,1.34,3,2.24,2.88,15.13,5.58,30.29,8.25,45.45C194.61,210.2,194,210.78,193.38,212Zm-6.1-15.2c-.23-5.28-1.67-12-8.42-14.33-3.5-1.21-9.29-.32-12.11,2-5.51,4.53-4.53,11.43-2.49,17.7,2.29,7,7.2,10.39,13.14,9.48C183.61,210.64,187.3,205.61,187.28,196.75Z"/><path class="cls-2" d="M127.51,219.7c.82,4.48,1.78,8.53,2.21,12.65.16,1.56-.87,3.24-1.36,4.87-1.14-1.42-3-2.71-3.29-4.3-2.61-13-5-26.11-7.26-39.2-.29-1.65.42-3.47.66-5.2l4.64,2.28c8.18-7.77,16.11-9.15,23.08-3.72,7.53,5.86,10.21,20.15,5.33,28.35C147.08,222.88,138.88,224.49,127.51,219.7Zm-2.88-18.88c-.08,10.61,5.18,18,12.89,18.07,6.92.08,11.42-5,11.52-13.09.13-10-5.3-17.62-12.58-17.72C129.38,188,124.69,193,124.63,200.82Z"/><path class="cls-2" d="M208.2,158.89c-2,3.17-4.77,5.67-5.3,8.58-1.07,5.91,5.53,3,9,5.91-10.19,3.44-6,10.22-5.12,16.18.75,4.8,1.91,9.54,2.52,14.35.2,1.55-.76,3.25-1.2,4.88-1.14-1.42-2.93-2.67-3.31-4.27-1.43-6-2.41-12-3.53-18-.86-4.6-.64-10-6.09-9.57,1-4.35,2-8.44,2.79-12.57C199,158.89,204.2,156.48,208.2,158.89Z"/></g></g></svg>