<svg xmlns="http://www.w3.org/2000/svg" xmlns:xlink="http://www.w3.org/1999/xlink" viewBox="0 0 507.88 507.98"><defs><style>.cls-1{fill:#599175;}.cls-2{clip-path:url(#clip-path);}.cls-3{clip-path:url(#clip-path-2);}.cls-4{fill:#e8ddc6;}</style><clipPath id="clip-path"><rect class="cls-1" width="507.88" height="507.98" rx="36.33"/></clipPath><clipPath id="clip-path-2"><rect class="cls-1" width="507.88" height="507.98"/></clipPath></defs><g id="Layer_2" data-name="Layer 2"><g id="Layer_1-2" data-name="Layer 1"><rect class="cls-1" width="507.88" height="507.98" rx="36.33"/><g class="cls-2"><rect class="cls-1" width="507.88" height="507.98"/><g class="cls-3"><path class="cls-1" d="M0,253.46q0,110,0,220C0,493.74,14,508,34.16,508q219.75,0,439.5,0c20.16,0,34.2-14.17,34.21-34.4q0-219.3,0-438.59c0-21.15-13.93-35-35.16-35H35.22C13.75,0,0,13.83,0,35.42q0,109,0,218"/></g></g><g id="Layer_2-2" data-name="Layer 2"><path class="cls-4" d="M339.75,156.67c0,14.63.27,29.27-.09,43.89-.23,9.63-2.43,18.81-8,27.09-11.91,17.66-36.86,22.23-54.53,10.45-13.87-9.26-18.46-22.95-18.8-38.1-.66-29.6-.39-59.22-.09-88.83A45.29,45.29,0,0,1,268.69,81.8C279.13,69.26,292.87,66.22,307.82,69c14.68,2.69,24.31,12.51,29.15,26.4,1.91,5.46,2.52,11.58,2.67,17.42C340,127.4,339.76,142,339.75,156.67Z"/><path class="cls-4" d="M348,342.84c-14.1,0-28.21.22-42.3-.11a86.92,86.92,0,0,1-18-2.27c-13.62-3.24-26.06-17.85-27.92-32-2.64-20,6.92-37.05,25.45-43.89a57.27,57.27,0,0,1,18.87-3.25c28.73-.33,57.46-.42,86.19,0,16.36.22,31,5.21,39.8,20.33,2.26,3.87,3.23,8.67,4,13.18.65,3.72-.28,7.69.21,11.46,2,16-15,33.38-30.06,34.64-18.68,1.56-37.44,1.95-56.17,2.85Z"/><path class="cls-4" d="M153.53,164.6c16,0,32,0,48.05,0,27.78.11,47.47,28,37.77,53.92-5.22,14-20.74,26.52-36.82,26.37-32.73-.29-65.46-.21-98.19,0-19.9.11-38.93-17.6-39.42-39.13-.55-23.91,20.39-42.16,41.61-41.27C122.17,165.12,137.86,164.59,153.53,164.6Z"/><path class="cls-4" d="M241.59,350.06c0,16.2.35,32.41-.1,48.6-.46,16.7-7.7,30.95-23.68,36.07-23.29,7.45-44.07,2.75-53.72-23.57a42.81,42.81,0,0,1-2.25-14.3c-.19-31.35-.28-62.71,0-94.07.14-17.23,8-30,24.05-37,14.8-6.51,28.92-4,41.22,5.63a36.65,36.65,0,0,1,14.42,29c.24,16.54.06,33.1.06,49.65Z"/><path class="cls-4" d="M241.73,123.2c0,6.45,0,12.89,0,19.33,0,3.62-1.73,5.8-5.3,5.7-14.56-.41-29.33.33-43.64-1.85-26.12-4-39.25-36.9-25.49-59.4,12.4-20.27,40.56-24.87,58.79-11a38.65,38.65,0,0,1,15.56,29C242.1,111,241.74,117.11,241.73,123.2Z"/><path class="cls-4" d="M146,285.59c-.8,7.92-1.81,15.83-2.36,23.77-.94,13.52-19.36,30.28-33,32.11-25.09,3.36-42.55-16.08-44.89-31.91C61.93,284,79.37,264.87,99.13,263c12.07-1.13,24.23-1.49,36.36-1.71,7.85-.14,9.68,2.15,9.75,10.1,0,4.7,0,9.4,0,14.1Z"/><path class="cls-4" d="M283.83,358.2c9.1,1,18.49.9,27.24,3.22,15.11,4,24.09,14.86,26.86,30.17,3.3,18.21-3.41,32.63-19.42,42.18-3.41,2-7.76,2.84-11.78,3.39s-8.39-.28-12.51.21C277,439.42,261.1,419.79,260,406.14c-1.09-13-1.42-26-1.79-39-.19-6.9,1.06-7.94,7.8-8,5.92-.06,11.84,0,17.76,0Z"/><path class="cls-4" d="M356.08,219c0-4.87.19-9.75,0-14.61-.85-17.88,18.08-43.37,44.27-39.42,15.68,2.36,28.77,10.56,32.72,26.24,6.82,27.12-5.38,52.05-37.44,53.51-10.59.48-21.22.12-31.83,0-6.71,0-7.6-.95-7.67-7.5C356,231.14,356.08,225.05,356.08,219Z"/></g></g></g></svg>