<svg xmlns="http://www.w3.org/2000/svg" xmlns:xlink="http://www.w3.org/1999/xlink" viewBox="0 0 507.88 507.98"><defs><style>.cls-1{fill:#80a175;}.cls-2{clip-path:url(#clip-path);}.cls-3{clip-path:url(#clip-path-2);}.cls-4{fill:#e8ddc6;}</style><clipPath id="clip-path"><rect class="cls-1" width="507.88" height="507.98" rx="36.33"/></clipPath><clipPath id="clip-path-2"><rect class="cls-1" width="507.88" height="507.98"/></clipPath></defs><g id="Layer_2" data-name="Layer 2"><g id="Layer_1-2" data-name="Layer 1"><rect class="cls-1" width="507.88" height="507.98" rx="36.33"/><g class="cls-2"><rect class="cls-1" width="507.88" height="507.98"/><g class="cls-3"><path class="cls-1" d="M0,253.46q0,110,0,220C0,493.74,14,508,34.16,508q219.75,0,439.5,0c20.16,0,34.2-14.17,34.21-34.4q0-219.3,0-438.59c0-21.15-13.93-35-35.16-35H35.22C13.75,0,0,13.83,0,35.42q0,109,0,218"/></g></g><g id="Layer_2-2" data-name="Layer 2"><path class="cls-4" d="M127.19,253.42l-33.25-33c78.95-83.65,229.72-94.48,322.85-.24l-33.1,33.48c-35.22-34.1-78.22-52.47-128-52.54C206,201,163,218.89,127.19,253.42Z"/><path class="cls-4" d="M188.24,314.25l-31.09-31.2c50.54-54.26,145.86-54.36,196.71.27L322.8,314.6c-18.58-17.77-41.25-27.43-67.41-27.45C229.41,287.12,206.83,296.47,188.24,314.25Z"/><path class="cls-4" d="M255.15,382l-37.39-37.23c12.9-18.13,52.88-24.91,75.11-.74Z"/></g></g></g></svg>