<svg xmlns="http://www.w3.org/2000/svg" viewBox="0 0 507.88 507.98"><defs><style>.cls-1{fill:#324d5d;}.cls-2{fill:#e8ddc6;}</style></defs><g id="Layer_2" data-name="Layer 2"><g id="Layer_3" data-name="Layer 3"><rect class="cls-1" width="507.88" height="507.98" rx="36.33"/><path class="cls-2" d="M483.75,255c4.65,119.61-101.43,237.53-245.22,229C132.3,477.59,16,384.32,24.42,237.55c6-105.61,99.21-222.27,246.84-213.48C380.46,30.57,487.83,126,483.75,255Zm-6.06-.69c2.28-125.85-99-218.18-208.9-224-141.25-7.46-233,102.55-238.16,210.3C24,380.37,133,472.1,241,477.67,378.87,484.77,481.06,373.73,477.69,254.3Z"/><path class="cls-2" d="M253.47,452.82C149.61,457.41,47.78,364,54.71,241.31c5.26-93.23,87.56-194,213.35-186.87,92.2,5.27,193.47,87.09,185.61,214.37C447.82,363.52,364.43,456.78,253.47,452.82Zm8.37-140.37c32,32.94,86.59,31.11,117.9-1.6C412.11,277,410,224,375.06,192.47c-31.87-28.75-86.54-28.14-111,1.23,44.86-5.11,65.82,1.74,80.8,27.21,13.82,23.5,13.41,47.47-2.38,69.43C322.86,317.56,295.42,322.68,261.84,312.45ZM150.43,176.79c2.33,7.88,5.08,17.15,7.21,24.34h26.5c2.49-7.91,5.31-16.9,7.59-24.19l-20.64-15.49ZM275.2,271.52h26.25c2.49-7.92,5.3-16.91,7.57-24.15l-20.56-15.53-20.8,15.34C270,254.74,272.8,263.75,275.2,271.52Zm-108.09,3.24c10.54,4.56,8.42,15.16,7.1,29.55,11-12.51,20.49-8.3,27.86-4.81,3.28-10.05,6.3-19.29,8.54-26.13l-20.8-15.95Zm73.38-143.59,5.18,16.8h17.16c1.83-5.49,3.83-11.51,5.53-16.64l-14-10.65Zm-18.26,96.58h17.15c1.84-5.59,3.83-11.6,5.51-16.67l-14-10.61L217,210.91C218.91,217,220.68,222.75,222.23,227.75Zm-93.65,14.1h16.9L151,225.14c-5-3.75-9.71-7.31-14-10.5l-14.15,10.51ZM123,304.75c1.91,5.86,3.87,11.85,5.51,16.86h16.8c2-5.86,4-11.55,5.79-16.77l-14.07-10.29ZM207.37,332l-14.11,10.35c1.85,5.43,3.9,11.49,5.69,16.79h16.91l5.6-16.8Zm6.32-178.17c1.19-3.52,2.52-7.43,3.82-11.24L208.32,136l-8.74,7.15,4,10.68Zm93.89,4.68,3.79-11.08c-3.14-2.34-6.15-4.6-9.11-6.82l-8.81,7.07,3.84,10.83ZM133.9,149.87l3.8,11H148l3.81-10.92L143,143C140,145.27,137,147.57,133.9,149.87Zm81.77,26L206.54,183l4.06,10.75h10.16c1.34-3.82,2.59-7.37,3.87-10.93Zm-35.84,69.4H190.4c1.29-4,2.47-7.57,3.62-11.11l-9.12-6.63c-3.09,2.49-6,4.84-8.75,7.08C177.39,238.17,178.51,241.44,179.83,245.24ZM223,257.77l3.87,11h10.31c1.32-3.81,2.58-7.42,3.82-11L232,251ZM115.22,269l15.26,12.41c2.46-7,3.73-10.65,5-14.24l-9.12-6.8Zm149.2,14.51-9.12-6.75-11.23,9.1,15.63,11.75Zm-37.22,21.4-8.82,7c1.33,3.79,2.59,7.4,3.81,10.86H232.5c1.32-3.84,2.56-7.45,3.8-11Zm-56.61,37.24-9.13-6.71-8.8,7.07,3.89,10.68h10.31C168.19,349.23,169.4,345.64,170.59,342.11Zm84.79,26.09-8.88,7.19c1.45,3.91,2.78,7.47,3.93,10.56H260.8c1.29-4,2.46-7.58,3.59-11.05ZM209,388.46c1.2-3.52,2.53-7.43,3.82-11.24l-9.19-6.58-8.73,7.15q2.21,5.9,4,10.67Z"/></g></g></svg>