<svg xmlns="http://www.w3.org/2000/svg" viewBox="0 0 507.88 507.98"><defs><style>.cls-1{fill:#ce6164;}.cls-2{fill:#e8ddc6;}.cls-3{fill:#8e8eaf;}.cls-4{fill:#b0c686;}</style></defs><g id="Layer_2" data-name="Layer 2"><g id="Layer_3" data-name="Layer 3"><rect class="cls-1" width="507.88" height="507.98" rx="36.33"/><path class="cls-2" d="M131.23,214.38c-5.47-3.43-10.85-7-16.42-10.27q-35.75-20.88-71.57-41.63c-.86-.5-1.64-1.14-3.15-2.2,4.7-2.75,8.9-5.3,13.18-7.72q79-44.7,158-89.38c9.38-5.31,18.75-10.63,28-16.09a5.89,5.89,0,0,1,6.81,0q83.92,48.52,168,96.85,13,7.51,26.1,15c1.61.93,3.16,1.94,5.38,3.3-9.33,5.34-18,10.29-26.66,15.26q-30.35,17.4-60.64,34.87c-1.14.66-1.91,2-2.85,3-2.2.74-4.57,1.17-6.56,2.28-10,5.58-20,11.32-29.9,17-24.25,13.94-48.52,27.83-72.66,41.95-2.84,1.66-4.83,1.38-7.2-.17-1-.65-2-1.29-3-1.88q-43.71-25.4-87.45-50.77C142.93,220.45,137,217.49,131.23,214.38Z"/><path class="cls-3" d="M131.23,214.38c5.8,3.11,11.7,6.07,17.4,9.36q43.77,25.32,87.45,50.77c1,.59,2,1.23,3,1.88,2.37,1.55,4.36,1.83,7.2.17,24.14-14.12,48.41-28,72.66-41.95,9.94-5.71,19.88-11.45,29.9-17,2-1.11,4.36-1.54,6.56-2.28l90.48,51.31c-9.1,5.26-17.22,10-25.35,14.65l-50.22,29c-5,2.75-10.12,5.42-15.09,8.28Q301,349.76,246.92,381.18c-3.42,2-5.82,1.59-8.84-.22-8.73-5.22-17.54-10.29-26.35-15.37q-31.8-18.33-63.62-36.6c-10.6-6.06-21.32-11.92-32-17.87-14.78-8.57-29.54-17.18-44.35-25.7-10.57-6.09-21.21-12.07-32.95-18.75Z"/><path class="cls-4" d="M116.12,311.12c10.67,5.95,21.39,11.81,32,17.87q31.86,18.21,63.62,36.6c8.81,5.08,17.62,10.15,26.35,15.37,3,1.81,5.42,2.22,8.84.22q54-31.55,108.29-62.68c5-2.86,10.06-5.53,15.09-8.28,12.23,7.13,24.43,14.31,36.7,21.37,12.62,7.28,25.31,14.44,38.84,22.15-5.37,3.14-10,5.9-14.63,8.54q-59.54,33.66-119.1,67.29c-22.23,12.57-44.4,25.22-66.69,37.66a6.47,6.47,0,0,1-5.44,0c-31.39-17.93-62.68-36.05-94-54.1q-48.72-28.05-97.47-56.07c-1.63-.93-3.2-1.94-5.48-3.33Z"/></g></g></svg>