<svg xmlns="http://www.w3.org/2000/svg" viewBox="0 0 507.88 507.98"><defs><style>.cls-1{fill:#e8ddc6;}.cls-2{fill:#859667;}.cls-3{fill:#b0c686;}</style></defs><g id="Layer_2" data-name="Layer 2"><g id="Layer_3" data-name="Layer 3"><rect class="cls-1" width="507.88" height="507.98" rx="36.33"/><path class="cls-2" d="M116.2,290.48c13.34,13.13,26.84,25.94,39.73,39.34,5.44,5.65,8.92,5.41,14.35-.09,33.21-33.61,66.74-66.9,100.12-100.35a65.6,65.6,0,0,0,5.05-6.42c14.9,14.65,28.73,28.2,42.52,41.8,8.84,8.73,8.82,8.77,17.58,0q53.57-53.53,107.1-107.12a39.13,39.13,0,0,0,4-5.5c13.9,13.32,26.78,25.48,39.36,37.94,1.4,1.39,1.55,4.49,1.55,6.8.07,81.79.2,163.59,0,245.38-.07,25.68-20.85,45.37-47.2,45.41q-94.38.13-188.78,0-90.74,0-181.48,0c-30.43,0-49.74-19.2-49.8-49.39,0-15.66-.26-31.32,0-47,0-2.91,1.08-6.6,3-8.58q45.27-45.79,91-91.17A8.2,8.2,0,0,1,116.2,290.48Z"/><path class="cls-3" d="M20,338.72v-7.78q0-131.19,0-262.38c0-28.65,19.63-48.3,48.27-48.31q185.93,0,371.86,0c28.09,0,47.83,19.79,47.85,47.9q0,37.25-.08,74.5a19,19,0,0,1-.83,3l-19-18.94c-4.78-4.77-9.75-9.37-14.28-14.36-3.78-4.18-6.68-4.08-10.63,0-13.39,13.72-27.06,27.16-40.62,40.71l-75.65,75.67c-14.08-14.1-27.91-28-41.76-41.82-8.45-8.46-8.47-8.46-16.82-.12Q219,236,169.79,285.32c-2.08,2.09-3.61,4.74-5.69,7.52-14.81-14.82-28.53-28.19-41.77-42-4.79-5-7.8-4.54-12.43.15C82.57,278.63,55,306,27.5,333.52c-1.89,1.89-3.62,3.94-5.43,5.92Z"/></g></g></svg>