<svg xmlns="http://www.w3.org/2000/svg" viewBox="0 0 507.88 507.98"><defs><style>.cls-1{fill:#424242;}.cls-2{fill:#e8ddc6;}</style></defs><g id="Layer_2" data-name="Layer 2"><g id="Layer_3" data-name="Layer 3"><rect class="cls-1" width="507.88" height="507.98" rx="36.33"/><path class="cls-2" d="M61.38,316.3c-2.55.22-5.51,1.37-7.55.46-4.07-1.83-9-4.06-10.84-7.57-1-1.89,2.84-7.74,5.85-10,3.95-3,10.16-3.22,13.68-6.49,3.9-3.63,8.4-9.61,7.94-14.08s-5.87-10-10.5-12.53-11.29-.93-16.35-2.95c-3.45-1.37-7.75-5.8-7.83-9s3.95-8,7.31-9.39c5-2.07,11.7-.42,16.37-2.85s10.22-7.62,10.85-12.22S66.72,219,62.94,215.27c-3.39-3.36-9.6-3.7-13.6-6.68-3.13-2.33-4.79-6.65-7.1-10.09,3.85-2.56,7.41-6.39,11.62-7.35,4.76-1.09,10.47,1.67,15.12.4,5.08-1.38,11.72-4.51,13.45-8.65s-.36-11.35-3.1-15.77-9.24-6.66-12.47-11c-2.18-3-3.33-9.08-1.68-11.8s7.53-3.92,11.3-3.5c4.91.54,9.54,4.72,14.35,4.83,5.29.13,13.09-1,15.35-4.48,2.76-4.24,2.07-11.79.65-17.34-1.19-4.62-6.59-8.06-8.22-12.69-1.27-3.58-1.08-9.79,1.19-11.92s8.22-1.55,12-.36,6.36,5.85,10,6.74c6.12,1.5,14.55,3.8,18.52.93S144.8,94.89,145,88.66c.11-4.24-4.11-8.51-4.32-12.87-.19-3.81,1.48-9.65,4.21-11.13s8.64.15,11.7,2.4c4,2.91,5.78,8.94,9.85,11.49,4.48,2.8,11.42,5.56,15.54,3.93,4.28-1.69,7.84-8.3,9.19-13.42s-1.34-11.28-.43-16.67c.62-3.71,3.81-8.87,6.88-9.73,2.86-.81,8,2.42,10.45,5.31,2.84,3.35,2.87,9.16,5.82,12.3,4,4.25,10.41,10.43,14.36,9.53,5.35-1.22,10.07-7.88,13.68-13.15,2.06-3,.41-8.42,2.21-11.81,2-3.86,6-9.19,9.22-9.24s7.89,4.88,9.81,8.69-.07,9.82,2.11,13.35c3.08,5,7.88,10.9,12.95,12.06,4,.92,10.39-3.89,14.07-7.73,3.33-3.48,3.71-9.65,6.75-13.57,2.33-3,7.41-6.66,10.12-5.91,3.17.88,6.45,6,7.21,9.72,1,4.8-1.86,10.48-.58,15.1,1.53,5.51,4.63,12.93,9,14.66s11.87-1.33,16.71-4.35c4.52-2.82,6.78-9.12,11.17-12.36,2.53-1.86,8.22-2.12,10.81-.47,2.44,1.56,4.08,6.81,3.55,10-.9,5.43-5.23,10.46-5.44,15.77s1.38,12.54,5,15.39,11,2.5,16,1,8.83-7.17,13.88-9.22c3.41-1.37,9.69-1.11,11.75,1.12s2.16,8.42.82,12c-1.74,4.61-7.23,8-8.4,12.57-1.4,5.56-1.94,13.13.86,17.39,2.25,3.42,10.11,4.52,15.35,4.23s10.46-4.72,15.85-5.13c3.58-.28,8.72,2.45,10.77,5.46,1.36,2-.51,7.7-2.68,10.28-3.54,4.23-9.51,6.59-12.56,11-2.7,3.94-5.13,10.74-3.46,14.32,2.06,4.44,8.07,8.33,13.12,9.72s11.3-1.71,16.6-.68c4,.79,8.82,4.29,10.53,7.89.94,2-3.15,7.48-6.17,9.87-3.49,2.75-9.29,2.83-12.29,5.85-4.09,4.13-9.46,10.36-8.81,14.91.68,4.79,7.2,9.71,12.29,12.62,4.13,2.36,10.23,1,14.86,2.86,3.14,1.25,7.46,5.28,7.29,7.79-.25,3.54-3.44,8.26-6.68,9.88-4.33,2.18-10.54.7-14.78,3-5.17,2.76-11.95,7.28-12.8,12S441.93,287.87,446,292c3.33,3.4,9.49,3.84,13.59,6.73,2.81,2,6.49,6.73,5.76,8.87-1.19,3.47-5.27,7.36-8.85,8.27-4.69,1.2-10.45-1.62-15.09-.33-5.92,1.64-13.56,4.41-16,9-2,3.72,2.65,11,4.53,16.58.27.8,1.68,1.15,2.35,1.9,5.27,5.87,18.17,9.39,10,19.73-2.62,3.33-14.21,1.13-21-.81-8-2.26-14.34-4-20.49,3.69-6.44,8-2.74,14.1,2.12,20.51,2.47,3.26,5.73,6.31,7,10,1.06,3.2,1.13,8.87-.8,10.43-2.82,2.28-8.33,3.38-11.79,2.23-4.61-1.54-8-7-12.55-8.4-5.45-1.63-13.36-3-17.07-.24s-4.9,10.7-5.13,16.45c-.17,4.22,4.07,8.51,4.3,12.87s-.79,10.78-3.64,12.62c-2.57,1.66-8.89-.8-12.56-3.05-3.26-2-4.54-7.29-7.82-9.19-5-2.94-12.64-7.31-16.23-5.45-4.81,2.51-7.79,10.07-9.73,16.05-1.3,4,1.78,9.37.66,13.52s-4.36,8.85-7.95,10.48c-2.08.94-7.65-3-9.93-6.06-3-4-3.26-10.18-6.56-13.65-3.66-3.86-9.74-8.26-14.2-7.73s-9.31,6.23-12.18,10.8c-2.24,3.58-.74,9.38-2.7,13.29-2.13,4.28-6.33,7.53-9.63,11.24-3.35-3.78-7.52-7.13-9.78-11.47-1.76-3.38.16-8.87-1.87-11.86-3.31-4.88-8-10.81-13.06-11.9-4.06-.88-10.42,3.92-14.09,7.8-3.3,3.48-3.59,9.68-6.58,13.64-2.29,3-7.31,6.68-10.06,6-3.17-.81-6.69-5.87-7.32-9.55-.91-5.36,2-11.44.73-16.64s-4.53-11.73-8.7-13.48-11.4.32-15.84,3.06-6.63,9.24-11,12.51c-2.93,2.19-9,3.41-11.69,1.79s-3.82-7.33-3.88-11.27c0-3.29,3.61-6.65,3.54-9.92-.16-6.81.33-15-3.15-20.05-5.51-8-13.38-4.51-19.9,1-2.73,2.3-5.54,5.38-8.74,6-4.31.88-9.93,1.13-13.21-1-1.92-1.26-1.59-8.29-.1-11.79,2.16-5.05,7.7-8.83,9.18-13.92,1.34-4.55.78-11.43-2-14.88s-9.34-5.47-14-5.12c-5.86.43-11.36,4.74-17.29,5.78-3.19.56-9-1.34-10-3.7-1.43-3.24,0-8.16,1.26-12,.69-2,3.88-3.13,5.74-4.87,6-5.57,17.62-9.57,10.94-20.07-4-6.25-12.85-9.37-19.52-13.89ZM332.72,274v-.32c-12.76,0-25.55.43-38.29-.1-17.87-.76-29.93,7.21-38.56,22.46-12.82,22.67-26.36,44.91-39.46,67.42-13.5,23.2-6.77,36,20.32,38.95,73.16,7.95,132.82-27.78,160.59-96.17,7.78-19.16.82-30.83-20.18-32.07C362.38,273.34,347.53,274,332.72,274ZM101.1,255.42c-1.3,33.74,12.41,64.53,33.27,92.69,14.16,19.11,27.75,18.4,40.09-2.18,13.92-23.21,26.9-47,41-70.05,8.74-14.27,8.48-27.77.43-41.86-13.93-24.38-27.54-49-41.7-73.19C163.46,142.39,150.12,141,137,157.57,114.89,185.46,100.77,216.69,101.1,255.42Zm228.49-27.24c11.83.57,25.59,1.75,39.36,1.8,26.58.08,34.21-11.89,23.59-36.09-30.08-68.52-85.75-100.63-160.76-92.75-24.28,2.55-30.95,14-19.47,34.89,14,25.52,27.68,51.34,43.81,75.49,5.35,8,17.3,14.12,27.2,16C297.63,230.17,312.82,228.18,329.59,228.18Z"/></g></g></svg>