<svg xmlns="http://www.w3.org/2000/svg" viewBox="0 0 507.88 507.98"><defs><style>.cls-1{fill:#e5a05c;}.cls-2{fill:#775943;}</style></defs><g id="Layer_2" data-name="Layer 2"><g id="Layer_3" data-name="Layer 3"><rect class="cls-1" width="507.88" height="507.98" rx="36.33"/><path class="cls-2" d="M346,245.36H325.34c5.2,14.16,10.3,28.11,15.42,42.05q11.42,31.09,22.8,62.2a7.46,7.46,0,0,1,.34,3.12c-.77,8.82-2.11,17.62-2.22,26.45-.07,4.94,1.8,9.93,2.9,14.88q5.26,23.67,10.58,47.34a3.47,3.47,0,0,1-.41,2.64c-2.23-3.8-4.5-7.58-6.68-11.41-8.13-14.28-16-28.72-24.51-42.76-2.56-4.21-6.89-7.37-10.5-10.92a93,93,0,0,0-8.11-7.41c-4.92-3.82-7.18-9.13-9.34-14.69q-17.53-45.25-35.26-90.42C271.69,244.21,263.08,222,254.14,199c-1.79,4.51-3.34,8.37-4.86,12.24L201.35,334c-3.87,9.9-7.71,19.81-11.66,29.67a11.89,11.89,0,0,1-2.68,4.05c-6.46,6.26-13.13,12.28-19.48,18.64a36.5,36.5,0,0,0-5.45,7.73c-8.91,15.46-17.7,31-26.54,46.48a7.93,7.93,0,0,1-2.92,3.25c1.4-6.56,2.76-13.14,4.22-19.7,3.09-13.82,6.57-27.56,9.16-41.47.95-5.09-.06-10.57-.36-15.85-.25-4.36-1.52-8.79-1-13a72.78,72.78,0,0,1,4.17-15.56c11-30.31,22.18-60.55,33.29-90.82a19.57,19.57,0,0,0,.5-1.91H161.21c0,4.61-.12,9.08,0,13.53.1,2.59-.75,3.61-3.41,3.57-9.47-.11-7.75.64-7.82-7.65-.1-11.48,0-23-.08-34.43,0-2.73.71-3.71,3.6-3.67,7.66.1,7.67,0,7.67,7.75,0,9.36,0,9.36,9.49,9.36,4.38,0,8.77-.16,13.13.06,2.49.12,3.64-.94,4.42-3.08q6.87-19,13.85-37.94c2-5.55,4-11.13,6.15-16.62a6.34,6.34,0,0,0-.39-6c-12.22-22.45-6.84-48.06,13.37-63.76a44.76,44.76,0,0,1,19.51-8.83c2.73-.5,3.12-1.7,3.11-4-.06-16.8.07-33.61-.11-50.41,0-3.57.95-4.7,4.57-4.63,9.42.17,9.42,0,9.42,9.24,0,15.15,0,30.3,0,45.44,0,2.59.41,3.8,3.42,4.47,24.19,5.39,40.1,26,39,50.79-.22,5.09-2.13,10.1-3.16,15.18a8,8,0,0,0-.06,4c7.51,20.77,15.15,41.49,22.66,62.26,1,2.83,2.41,4.07,5.6,3.91,5.9-.29,11.83-.16,17.74,0,2.31,0,3.18-.73,3.09-3.07-.14-3.66,0-7.33-.06-11-.05-2,.55-2.93,2.77-3.05,8.43-.44,8.43-.51,8.43,8,0,11.24-.12,22.49.07,33.73,0,3.2-1.05,4.06-4.08,4-8.67-.2-7,.51-7.16-7.24C345.92,252.14,346,249,346,245.36Zm-94.53-65.79a33.44,33.44,0,0,0,.53-66.88c-18.89,0-33.79,14.51-33.95,33.12A33.58,33.58,0,0,0,251.44,179.57Z"/><path class="cls-2" d="M291.81,413.32q0,12.6,0,25.19c0,7.57-3.83,12-11.3,12.07q-25.9.3-51.81,0c-7.61-.1-11.25-4.35-11.25-12q0-25.73,0-51.45c0-7.08,4.1-11.22,11.2-11.24q25.89,0,51.79,0c7.09,0,11.35,4.38,11.37,11.56Q291.83,400.37,291.81,413.32Z"/><path class="cls-2" d="M278.74,365.28a22.45,22.45,0,0,1-.08,4.57c-.17.81-1.18,2-1.84,2a2.76,2.76,0,0,1-2.08-1.78,68.45,68.45,0,0,1,0-9.5c0-.72,1.31-1.35,2-2,.67.71,1.74,1.33,1.92,2.14A22.43,22.43,0,0,1,278.74,365.28Z"/><path class="cls-2" d="M204.79,410.8a21.84,21.84,0,0,1-4.58-.09,3,3,0,0,1-2-2,2.76,2.76,0,0,1,1.86-2,70.34,70.34,0,0,1,9.52,0,2.71,2.71,0,0,1,1.73,2.07,3,3,0,0,1-2,1.94A21.85,21.85,0,0,1,204.79,410.8Z"/><path class="cls-2" d="M302.13,406.59a22.43,22.43,0,0,1,4.57.08c.81.18,1.94,1.24,2,1.93a2.77,2.77,0,0,1-1.8,2.07,67.22,67.22,0,0,1-9.52,0,2.77,2.77,0,0,1-1.83-2,3,3,0,0,1,2-1.93,21.73,21.73,0,0,1,4.57-.09Z"/><path class="cls-2" d="M274.61,462.2a18.52,18.52,0,0,1,.08-4.22c.2-.82,1.26-1.43,1.93-2.14.7.68,1.95,1.31,2,2a75.76,75.76,0,0,1,0,9.53c0,.66-1.2,1.84-1.67,1.76-.84-.14-2.06-1-2.2-1.69a28.9,28.9,0,0,1-.1-5.27Z"/><path class="cls-2" d="M204.78,401.57a21.26,21.26,0,0,1-4.59-.1,3.23,3.23,0,0,1-2-2c-.13-.44,1-1.81,1.63-1.84a85.88,85.88,0,0,1,9.89.07c.62,0,1.75,1.42,1.61,1.84a3.27,3.27,0,0,1-2,2,22.62,22.62,0,0,1-4.59.09Z"/><path class="cls-2" d="M204.41,437.07a17.88,17.88,0,0,1-4.21-.09c-.81-.2-1.94-1.25-2-2a2.76,2.76,0,0,1,1.83-2,73.3,73.3,0,0,1,9.49,0c.68,0,1.9,1.2,1.82,1.65a3.08,3.08,0,0,1-1.72,2.18,29.34,29.34,0,0,1-5.24.45Z"/><path class="cls-2" d="M302,437.05a21.62,21.62,0,0,1-4.56-.09,3.2,3.2,0,0,1-1.91-2c-.12-.49,1-1.83,1.6-1.86a101.87,101.87,0,0,1,10.19.06,2.2,2.2,0,0,1,1.42,1.64,2.77,2.77,0,0,1-1.5,2,34.73,34.73,0,0,1-5.23.57Z"/><path class="cls-2" d="M302.07,401.57a21.54,21.54,0,0,1-4.55-.09c-.82-.17-1.44-1.24-2.15-1.91.67-.7,1.3-2,2-2a68,68,0,0,1,9.47.1c.7.06,1.31,1.33,2,2-.72.63-1.37,1.64-2.18,1.8a23.1,23.1,0,0,1-4.56.09Z"/><path class="cls-2" d="M234.24,365.67a25.65,25.65,0,0,1-.08,4.56c-.12.67-1.16,1.66-1.75,1.64s-1.83-1-1.86-1.6a93.44,93.44,0,0,1,0-10.18c0-.56,1.3-1.52,1.9-1.45a2.6,2.6,0,0,1,1.73,1.77,36.86,36.86,0,0,1,.08,5.26Z"/><path class="cls-2" d="M239.35,365.3a19,19,0,0,1,.08-4.21c.21-.94,1.16-1.7,1.78-2.54.73.66,2,1.28,2.07,2a66.94,66.94,0,0,1,0,9.5c-.05.7-1.3,1.32-2,2-.62-.83-1.56-1.58-1.77-2.5a19,19,0,0,1-.08-4.21Z"/><path class="cls-2" d="M260.53,365.54a21.08,21.08,0,0,1-.08,4.21c-.17.83-1.09,1.5-1.67,2.24-.71-.62-2-1.22-2-1.88a80.76,80.76,0,0,1,0-9.84,2.45,2.45,0,0,1,1.8-1.65,2.53,2.53,0,0,1,1.8,1.65,37,37,0,0,1,.08,5.27Z"/><path class="cls-2" d="M269.68,365.41a29.87,29.87,0,0,1-.09,4.92,2.55,2.55,0,0,1-1.89,1.56,2.43,2.43,0,0,1-1.74-1.65,92.46,92.46,0,0,1,0-9.85c0-.66,1.31-1.87,1.68-1.76a3.18,3.18,0,0,1,2,1.86,26,26,0,0,1,.09,4.92Z"/><path class="cls-2" d="M205.26,388.63a23.61,23.61,0,0,1,4.21.07c.74.13,2,1.12,1.88,1.5-.18.83-1,2.13-1.62,2.17a80.6,80.6,0,0,1-9.83.05c-.65,0-1.86-1.3-1.74-1.67a3.2,3.2,0,0,1,1.84-2A30.72,30.72,0,0,1,205.26,388.63Z"/><path class="cls-2" d="M301.72,392.53a19.6,19.6,0,0,1-4.2-.07c-.83-.19-1.48-1.15-2.21-1.77.66-.69,1.28-1.92,2-2a71.55,71.55,0,0,1,9.49,0c.71,0,1.34,1.22,2,1.88-.72.64-1.36,1.69-2.16,1.84A27.79,27.79,0,0,1,301.72,392.53Z"/><path class="cls-2" d="M302.08,419.59a23.89,23.89,0,0,1-4.56-.08c-.82-.17-1.48-1.16-2.21-1.79.67-.67,1.3-1.88,2-1.93a70.19,70.19,0,0,1,9.51,0c.7.05,1.33,1.27,2,1.95-.72.61-1.36,1.6-2.17,1.76A24.83,24.83,0,0,1,302.08,419.59Z"/><path class="cls-2" d="M204.77,419.59a23.76,23.76,0,0,1-4.55-.08c-.82-.16-1.47-1.16-2.19-1.78.66-.68,1.29-1.89,2-1.94a71.1,71.1,0,0,1,9.46,0c.71,0,1.33,1.28,2,2-.71.61-1.36,1.6-2.17,1.76A23.68,23.68,0,0,1,204.77,419.59Z"/><path class="cls-2" d="M205,424.12a28.05,28.05,0,0,1,4.59.08c.72.11,1.78,1,1.8,1.59s-.9,1.9-1.47,1.93a99.54,99.54,0,0,1-10.22,0c-.57,0-1.53-1.29-1.47-1.9a2.58,2.58,0,0,1,1.82-1.62,34,34,0,0,1,5-.07Z"/><path class="cls-2" d="M239.37,462.66a22.88,22.88,0,0,1,.09-4.54c.16-.81,1.19-1.44,1.82-2.15.71.64,2,1.23,2,1.92a67.74,67.74,0,0,1,0,9.45c-.05.7-1.31,1.3-2,2-.63-.81-1.61-1.53-1.82-2.44a18.86,18.86,0,0,1-.08-4.19Z"/><path class="cls-2" d="M269.78,462.39a21.26,21.26,0,0,1-.09,4.59c-.2.88-1.3,1.55-2,2.31-.64-.71-1.77-1.38-1.83-2.13a57,57,0,0,1,0-8.86c.07-.84,1.3-1.58,2-2.36.64.85,1.58,1.61,1.83,2.56a15.75,15.75,0,0,1,.08,3.89Z"/><path class="cls-2" d="M251.38,365.26a24.72,24.72,0,0,1-.08,4.56c-.15.81-1.12,1.45-1.72,2.17-.63-.58-1.78-1.13-1.81-1.74a78.64,78.64,0,0,1,0-9.83c0-.65,1.38-1.21,2.13-1.81.48.69,1.28,1.34,1.39,2.09A31.49,31.49,0,0,1,251.38,365.26Z"/><path class="cls-2" d="M302.27,428.13a35.08,35.08,0,0,1-5.25-.45,2.52,2.52,0,0,1-1.5-1.95c0-.56,1.15-1.52,1.82-1.55a89.1,89.1,0,0,1,9.53,0c.66,0,1.28,1,1.91,1.59-.64.71-1.18,1.86-1.94,2a21.07,21.07,0,0,1-4.57.1Z"/><path class="cls-2" d="M230.37,462.54a18,18,0,0,1,.08-4.23c.23-.9,1.28-1.59,2-2.37.63.72,1.77,1.4,1.82,2.15a67.1,67.1,0,0,1,0,9.19c0,.71-1.24,1.34-1.91,2-.63-.72-1.65-1.36-1.81-2.17a23.29,23.29,0,0,1-.08-4.58Z"/><path class="cls-2" d="M251.37,462.41a35.35,35.35,0,0,1-.08,4.94c-.1.7-1,1.78-1.52,1.79s-1.93-.87-2-1.42a93.8,93.8,0,0,1,0-10.2c0-.58,1.26-1.51,1.94-1.52s1.42,1.11,1.54,1.83A29.11,29.11,0,0,1,251.37,462.41Z"/><path class="cls-2" d="M260.52,462.58a24.07,24.07,0,0,1-.08,4.58c-.16.8-1.17,1.43-1.79,2.13-.68-.68-1.88-1.32-1.94-2a65.41,65.41,0,0,1,0-9.18c.05-.75,1.2-1.43,1.84-2.14.66.68,1.73,1.29,1.9,2.08A22.43,22.43,0,0,1,260.52,462.58Z"/><path class="cls-2" d="M268.56,146.62c-.1,9.43-7.63,17.14-16.74,17.16a17.35,17.35,0,0,1-17.24-17.43,17.07,17.07,0,0,1,17.34-16.86A16.87,16.87,0,0,1,268.56,146.62Z"/></g></g></svg>