<svg xmlns="http://www.w3.org/2000/svg" viewBox="0 0 507.88 507.98"><defs><style>.cls-1{fill:#d69f49;}.cls-2{fill:#e8ddc6;}.cls-3{fill:#566c84;}</style></defs><g id="Layer_2" data-name="Layer 2"><g id="Layer_3" data-name="Layer 3"><rect class="cls-1" width="507.88" height="507.98" rx="36.33"/><path class="cls-2" d="M284.67,431.24l-146.61,22c-3.85-19.14-8.41-38.17-11.43-57.44Q105,257.75,84.1,119.61c-.91-6-1.34-12-2.25-20.33,16.46-2.76,32.65-5.6,48.88-8.18,75-11.92,150-23.41,224.91-36,13.78-2.31,15.54,7.33,20.66,14.61-1.91,7.28-3.89,14.55-5.73,21.85-10.16,40.4-20,80.87-30.54,121.17-4.87,18.62-11.58,36.75-16.51,55.36Q307.23,329.63,292,391.44C288.79,404.52,287.07,418,284.67,431.24Z"/><path class="cls-3" d="M284.67,431.24c2.4-13.27,4.12-26.72,7.34-39.8q15.24-61.8,31.51-123.34c4.93-18.61,11.64-36.74,16.51-55.36,10.53-40.3,20.38-80.77,30.54-121.17,1.84-7.3,3.82-14.57,5.73-21.85,4.85-.66,12.73.25,14.05-2.27,7.42-14.14,14.58-10.51,22.66-1.31,2.49,40.85-19,76.49-25,115.51-2,5.06-4.33,10-6.09,15.18-26,76.28-37,157.73-78.71,228.6l-15.79,27.42C286.11,442.74,285.39,437,284.67,431.24Z"/><path class="cls-2" d="M303.17,425.43c41.73-70.87,52.7-152.32,78.71-228.6,1.76-5.15,4.05-10.12,6.09-15.18q13.77,82.92,27.54,165.84c3.21,19.24,6.54,38.45,10.52,61.85Z"/></g></g></svg>