<svg xmlns="http://www.w3.org/2000/svg" viewBox="0 0 507.88 507.98"><defs><style>.cls-1{fill:#7b94ad;}.cls-2{fill:#e8ddc6;}</style></defs><g id="Layer_2" data-name="Layer 2"><g id="Layer_3" data-name="Layer 3"><rect class="cls-1" width="507.88" height="507.98" rx="36.33"/><path class="cls-2" d="M253.92,64.8q52.83,0,105.68,0A10.62,10.62,0,0,1,366.45,67q13.13,9.95,26.42,19.66a5.56,5.56,0,0,1,2.51,5q-.12,39.24,0,78.47a5,5,0,0,1-2.26,4.54c-9.33,6.82-18.53,13.8-27.91,20.53a10,10,0,0,1-5.54,1.56q-92.37.12-184.72.07c-9.17,0-18.33.07-27.49-.07a8.73,8.73,0,0,1-4.7-1.53c-9.36-6.77-18.58-13.72-27.9-20.54a5,5,0,0,1-2.3-4.53q.08-39.37,0-78.75a5.08,5.08,0,0,1,2.25-4.58C124.06,80,133.27,73,142.64,66.27A9.58,9.58,0,0,1,148,64.86Q200.94,64.74,253.92,64.8Z"/><path class="cls-2" d="M243.61,371.62c1.42,1.32,2.2,2,2.93,2.71,5.13,5.12,10.18,10.33,15.42,15.35A7.56,7.56,0,0,1,264.5,396c-.17,4.1.09,8.21-.1,12.31-.12,2.75.45,5.09,2.53,6.94,2.26,2,2.8,4.51,2.72,7.46-.18,5.81-.15,11.64,0,17.45.05,2.39-.8,3.12-3.15,3.09q-12.6-.17-25.19,0c-2.48,0-3.08-.92-3-3.19.1-6.2-.12-12.4.12-18.6a9.14,9.14,0,0,1,2-5.32,11.89,11.89,0,0,0,3.12-8.79c-.2-10.49-.09-21-.08-31.49C243.41,374.72,243.51,373.61,243.61,371.62Z"/><path class="cls-2" d="M264.05,250.89c-2.95-3.08-5.35-5.64-7.81-8.13-3.68-3.74-7.49-7.36-11.07-11.19a6.54,6.54,0,0,1-1.75-3.95c-.18-6.68,0-13.36-.13-20,0-2.23.79-3,3-3,5.15.12,10.31.09,15.46,0,1.91,0,2.8.59,2.79,2.61-.05,13.84,0,27.68-.06,41.52A17.1,17.1,0,0,1,264.05,250.89Z"/><path class="cls-2" d="M264.07,293.6c-1-.82-1.64-1.32-2.22-1.9-5.61-5.58-11.25-11.15-16.77-16.82a5.71,5.71,0,0,1-1.64-3.42c-.14-9.15-.09-18.31-.07-27.47a11.72,11.72,0,0,1,.4-2,18.55,18.55,0,0,1,2,1.45c5.75,5.72,11.5,11.43,17.16,17.23a5.17,5.17,0,0,1,1.54,3.18c.11,9.34.05,18.69,0,28A10.88,10.88,0,0,1,264.07,293.6Z"/><path class="cls-2" d="M264,380.2c-1-.88-1.7-1.45-2.33-2.08-5.48-5.46-11-10.88-16.37-16.43a6.1,6.1,0,0,1-1.83-3.62c-.16-9.16-.1-18.33-.08-27.49a13.83,13.83,0,0,1,.4-2.12c1,.9,1.71,1.46,2.35,2.09,5.47,5.46,11,10.89,16.36,16.44a6.12,6.12,0,0,1,1.86,3.61c.15,9.16.08,18.32.06,27.49A14.25,14.25,0,0,1,264,380.2Z"/><path class="cls-2" d="M264,337.22c-5.07-5.13-9.39-10.15-14.4-14.35s-6.87-8.94-6.34-15.41c.56-6.93.13-13.93.15-20.9a7.41,7.41,0,0,1,.36-1.24,23.26,23.26,0,0,1,2,1.54c5.69,5.66,11.38,11.3,17,17.05a5.63,5.63,0,0,1,1.7,3.4c.13,9.35.07,18.7.05,28.06A11,11,0,0,1,264,337.22Z"/></g></g></svg>