<svg xmlns="http://www.w3.org/2000/svg" viewBox="0 0 507.88 507.98"><defs><style>.cls-1{fill:#46696b;}.cls-2{fill:#e8ddc6;}</style></defs><g id="Layer_2" data-name="Layer 2"><g id="Layer_3" data-name="Layer 3"><rect class="cls-1" width="507.88" height="507.98" rx="36.33"/><path class="cls-2" d="M121.6,253.5h34.64l-52.93,52.7L53.1,253.71H83.44c2.68-63.29,29.09-113.44,81.73-148.56C196.83,84,232.21,75,270.22,76.78A177.05,177.05,0,0,1,436,222.83c14.32,81.85-28.23,160.44-103.57,193.67C258.7,449,175.6,426,128.89,371.17L156,347.34c30.27,31.64,66.73,48.43,110.53,47,35.24-1.19,66.13-14,91.45-38.54,49.38-47.83,58-118.85,22.11-177-33.17-53.82-103-78.48-163.18-58C151.66,142.88,119.64,204.5,121.6,253.5Z"/><path class="cls-2" d="M250,152.19c5,0,9.9,0,14.81,0,4,0,3.26,2.89,3.27,5.24,0,13.88,0,27.77,0,41.66,0,15.22-.19,30.44.17,45.65a14.27,14.27,0,0,0,3.69,8.86C284.26,266,297,278,310.32,290.85l-14.87,11.88c-4.34-4.14-10-9.4-15.49-14.82-9.21-9.09-18.39-18.2-27.38-27.49-1.56-1.61-3.07-4.15-3.08-6.26-.17-33.29-.09-66.58-.06-99.87A13.27,13.27,0,0,1,250,152.19Z"/></g></g></svg>