<svg xmlns="http://www.w3.org/2000/svg" xmlns:xlink="http://www.w3.org/1999/xlink" viewBox="0 0 507.88 507.98"><defs><style>.cls-1{fill:#b45474;}.cls-2{clip-path:url(#clip-path);}.cls-3{clip-path:url(#clip-path-2);}.cls-4{fill:#e8ddc6;}</style><clipPath id="clip-path"><rect class="cls-1" width="507.88" height="507.98" rx="36.33"/></clipPath><clipPath id="clip-path-2"><rect class="cls-1" width="507.88" height="507.98"/></clipPath></defs><g id="Layer_2" data-name="Layer 2"><g id="Layer_1-2" data-name="Layer 1"><rect class="cls-1" width="507.88" height="507.98" rx="36.33"/><g class="cls-2"><rect class="cls-1" width="507.88" height="507.98"/><g class="cls-3"><path class="cls-1" d="M0,253.46q0,110,0,220C0,493.74,14,508,34.16,508q219.75,0,439.5,0c20.16,0,34.2-14.17,34.21-34.4q0-219.3,0-438.59c0-21.15-13.93-35-35.16-35H35.22C13.75,0,0,13.83,0,35.42q0,109,0,218"/></g></g><path class="cls-4" d="M448.13,252.33c-.1,107.74-87,193.44-196,193.2C145.6,445.3,59,358.48,59.11,252c.11-107.11,87-193.29,194.71-193.21S448.23,145.15,448.13,252.33ZM307.65,233.58c.2-29.13-2.55-76.93-16.75-123.23-12.94-42.18-25.63-49.42-69-41.8C132.82,84.22,68.14,159.24,66.2,249.14,64.28,338,127.15,415.77,216,434.35c49.8,10.41,63.57,2.35,77-46.31C305.22,343.71,307.61,298.22,307.65,233.58Z"/><path class="cls-4" d="M304.17,244.7c.83,43.51-2.49,86.76-17,128-17.89,50.63-28.38,51.7-74.83,39.84C134.4,392.61,80.58,319.45,85.6,242.77,90.9,162,153.52,96.76,235.53,86.6c24.36-3,33.12,1.28,44.71,23.54,16.71,32.06,21.23,67.1,23.81,102.45C304.83,223.24,304.17,234,304.17,244.7Zm-3.43,1.77c.36-46.68-8.17-97.34-21.16-125.65-11.69-25.47-19.12-29.54-46.68-25.6C155.5,106.3,97,169.69,94.1,245.68c-3,77.07,50.63,144.21,128.16,160.54,37,7.78,46.62,2.53,59.47-33.42C296.33,332,299.08,289.28,300.74,246.47Z"/><path class="cls-4" d="M300.17,247.52c-5.94,34.65-9.63,69.88-18.41,103.8-10.17,39.24-22.93,44.76-62.52,35.3C152,370.55,106.85,306.77,113.37,237.21c6-64.41,65.24-119.58,130.51-122.7,14.82-.71,23.84,5.23,30.59,17.21,14.29,25.39,18.47,53.38,21,81.69,1,11.07.16,22.31.16,33.47Zm-4.17.91-3.34-.72c-1-14.85-.41-30-3.25-44.47a547.4,547.4,0,0,0-16.67-63c-3.57-11-11.65-18.14-25.34-17.74-64.46,1.85-120.8,54.07-125.47,117-5.21,70.11,40.85,130,108.24,140.81,28.69,4.6,38.07,1.08,45.51-27.07C284.75,318.91,289.43,283.42,296,248.43Z"/><path class="cls-4" d="M291.42,249.27c-6.05,30.32-10.45,61.1-18.7,90.82-6.2,22.33-15.27,25.56-37.88,21.61-55.21-9.65-96.62-60.88-93.32-115.45,3.27-54.16,50.82-101.17,105.78-105,12.05-.85,19.7,6,22.5,15.24,7,22.9,12.16,46.37,17.2,69.79,1.53,7.11.24,14.83.24,22.27Zm-5.05-.92c-5.36-26.63-10-53.53-16.48-80-2.69-10.87-9.42-20.09-24-18.61-52.58,5.35-93.44,47.08-95.73,98.39-2.23,49.8,34.08,94.78,84.69,104.92,22.07,4.42,29.2,1.88,35-20.24C277.06,305.63,280.84,277.51,286.37,248.35Z"/><path class="cls-4" d="M282.18,248.53c-4.87,24.08-8,47.1-14.47,69.12-5.61,19-12.74,21.17-31.76,16.22-40.07-10.42-67.71-45.52-66.3-84.18,1.4-38.41,31.55-71.91,71.47-80.43,13.23-2.83,23.06.82,26.46,13.47C273.42,204.47,277.44,226.7,282.18,248.53Zm-5.32.89c-4.19-20.21-7.74-40.21-12.68-59.86-2.36-9.42-9.09-14.2-20.19-12.18-37.15,6.76-64.4,36.63-65.73,72.94-1.26,34.6,23.3,66.18,58.77,75.55,15.64,4.14,22.35,2,26.67-13.33C269.44,292.15,272.49,271,276.86,249.42Z"/><path class="cls-4" d="M273,250.52c-3.57,16.53-6.43,32.43-10.58,48-2.71,10.17-9.84,13.06-20.61,10.16-26.49-7.12-45-30.13-44.58-57,.37-26.09,20.56-49.16,47.38-54.85,9-1.92,15.3,1.29,17.65,9.31C266.47,220.6,269.41,235.5,273,250.52Zm-5.77,2.09c-2.28-13.33-3.85-25.29-6.47-37-2.29-10.26-9-12.65-19.05-9.49-21.59,6.76-36.15,25.63-36,47.81s15.13,39.83,37.63,46.3c8.62,2.49,14,.69,15.9-7.77C262.33,279,264.69,265.3,267.19,252.61Z"/><path class="cls-4" d="M262.24,252.1c-.35,3.71.13,7.75-1.23,11-2.5,6-5.73,16.12-9.28,16.39-6.27.48-14.62-3.68-19.11-8.6s-7.23-13.14-7.59-20.07c-.72-13.45,15.38-30.85,24.8-26,7.59,3.92,10.73,16.42,15.84,25.11Z"/></g></g></svg>