<svg xmlns="http://www.w3.org/2000/svg" viewBox="0 0 507.88 507.98"><defs><style>.cls-1{fill:#b55351;}.cls-2{fill:#fefdfd;}</style></defs><g id="Layer_2" data-name="Layer 2"><g id="Layer_3" data-name="Layer 3"><rect class="cls-1" width="507.88" height="507.98" rx="36.33"/><path class="cls-2" d="M222.6,164.6c0,25.57-1.17,47.6-27.16,59.71l3.28,4L219,234c0,21.85.41,44.57-.47,67.24-.13,3.13-6.24,7.56-10.31,8.63-5.64,1.49-12,.38-21.34.38,23.08,24.49,44.46,47.2,67.27,71.41l64.42-71.05h-28.4c-1.9-25.84-3.72-50.69-5.64-76.78l27-3.56c-9.36-10.82-19.89-18.35-23.44-28.35-3.74-10.57-.84-23.5-.84-37.15,28.36,0,56.63-1,84.72.83,5.49.35,14.05,10.94,14.84,17.56q10.47,87.15,18.3,174.6c3.74,41.3,3,41.36-39,41.36q-117.81,0-235.63,0c-27.78,0-31.36-5-28.38-32.09q9.3-84.55,17-169.28c2.94-31.57,4-33.09,35.59-33.1Z"/><path class="cls-2" d="M233,141.16c-24.28,0-47.7-.35-71.12.13-15,.3-22.2-4.91-21.67-21.14,1-29.63,3.14-34.46,22.08-34.53q92.39-.33,184.78,0c18.5.07,21.36,6.2,22,34.94.35,16.54-7.75,20.94-22.28,20.69-23.4-.39-46.82-.1-68.69-.1,0,41.42,0,81,0,120.57,0,6,.44,12.08.29,18.11-.38,15.78-8.71,22.35-27.88,22.72-15.82.3-23.23-7.61-22.64-23,1.6-41.42,3.44-82.82,5.13-124.22C233.15,151.24,233,147.16,233,141.16Z"/><path class="cls-2" d="M108,404.65H401.81l-.25-.32c.58,13.8-8.77,17.92-19.68,18q-126.88.48-253.77,0c-10.93,0-20.23-4.23-19.83-17.94Z"/><path class="cls-2" d="M108.28,404.35l-1.61-.25,1.36.55Z"/><path class="cls-2" d="M401.81,404.65l1-1.45-1.23,1.13Z"/></g></g></svg>