<svg xmlns="http://www.w3.org/2000/svg" xmlns:xlink="http://www.w3.org/1999/xlink" viewBox="0 0 507.88 507.98"><defs><style>.cls-1{fill:#a6bcd1;}.cls-2{clip-path:url(#clip-path);}.cls-3{clip-path:url(#clip-path-2);}.cls-4{fill:#775943;}.cls-5{fill:#e8ddc6;}</style><clipPath id="clip-path"><rect class="cls-1" width="507.88" height="507.98" rx="36.33"/></clipPath><clipPath id="clip-path-2"><rect class="cls-1" width="507.88" height="507.98"/></clipPath></defs><g id="Layer_2" data-name="Layer 2"><g id="Layer_1-2" data-name="Layer 1"><rect class="cls-1" width="507.88" height="507.98" rx="36.33"/><g class="cls-2"><rect class="cls-1" width="507.88" height="507.98"/><g class="cls-3"><path class="cls-4" d="M0,253.46q0,110,0,220C0,493.74,14,508,34.16,508q219.75,0,439.5,0c20.16,0,34.2-14.17,34.21-34.4q0-219.3,0-438.59c0-21.15-13.93-35-35.16-35H35.22C13.75,0,0,13.83,0,35.42q0,109,0,218"/></g></g><g id="Layer_2-2" data-name="Layer 2"><g id="Layer_1-2-2" data-name="Layer 1-2"><g id="Layer_2-2-2" data-name="Layer 2-2"><path class="cls-5" d="M82.34,148.29c4-.84,8.41-3.09,12.12-2.3,31.39,6.72,49.9-11.76,67.41-33.15,13.75-16.8,14.38-17.13,32.62-4.73,11.26,7.67,21.88,8,33.9,3,8.76-3.64,17.94-6.28,26.88-12.65-8.2-2.47-16.35-5.09-24.59-7.39q-60.77-17-121.58-33.92c-2.67-.74-5.61-1.1-7.91-2.52-2-1.25-3.38-3.71-5-5.65,2.51-1.33,5.21-4,7.49-3.7,6.35.92,12.54,3.06,18.78,4.78,20.5,5.65,41.1,11,61.43,17.16,8.83,2.69,13.23,1.56,16.08-8.18,11.25-38.28,15.18-40.32,53.92-29.94q27.47,7.41,54.72,15.46c20.06,5.93,25.51,15.82,20.57,36.57-5.94,24.92-5.94,24.86,19.57,31.91,22.28,6.17,44.43,12.85,66.8,18.58,8,2.06,10.15,5.89,9.33,13.78-.88,8.38-5.13,10.67-12.71,11.17-25.81,1.68-25.75,1.86-25.75,28.27V423.34c0,30.41-13.59,44.14-43.95,44.2q-92.25.21-184.49,0c-30.25-.06-46-15.69-46.07-46.45-.23-80.88-.08-161.77-.09-242.64,0-19.77,0-19.6-19.62-22.15-3.49-.47-6.78-2.48-10.16-3.78C82.11,151.13,82.22,149.72,82.34,148.29ZM119.9,296c0,40.66-.2,81.32.06,122,.19,29.24,12.47,41.36,41.4,41.4q88.76.12,177.51,0c28.19,0,41.26-12.25,41.36-40.07.3-82.25,0-164.49.29-246.73,0-11.79-3.78-16.31-16-16.24q-114.4.6-228.82,0c-12.29-.07-16.08,4.56-16,16.3.43,41.13.16,82.26.17,123.38ZM411.71,144.61l.68-2.47c-3.76-1.19-7.5-2.51-11.31-3.56-25.83-7.16-52.39-12.43-77.35-21.85-32.12-12.1-62.83-12.42-93.62,2.06-14.68,6.92-28,6.92-40.83-4.35-3.17-2.79-11.15-5.14-13.17-3.39-10.81,9.41-20.43,20.19-30.45,30.48l2.11,3.08ZM324,66.79c-3.71-3.78-7.37-10.7-12.68-12.4-25.49-8.12-51.4-15.1-77.24-21.87-11.23-3-18.78,2.24-22,13.42-1.4,4.87-2.34,9.88-4,14.69-2.81,8.52.61,13.19,8.73,15.44,28.91,8,57.72,16.39,86.81,23.73,3.66.92,10.94-2.67,12.67-6.11C320,86.42,321,77.89,324,66.79Z"/><path class="cls-5" d="M196.45,420.24c-9.7-14.31-9.67-204.33-.84-217.2,1.74,6.18,3.95,10.37,3.95,14.56q.33,93.41,0,186.82C199.62,408.47,198,412.56,196.45,420.24Z"/><path class="cls-5" d="M244.76,311.07c0-30.92-.2-61.85.24-92.77.06-4.2,3.31-8.37,5.08-12.55,1.86,4.12,5.3,8.24,5.33,12.37q.51,92.79,0,185.54c0,4.2-3.36,8.37-5.16,12.56-1.83-4.13-5.19-8.23-5.25-12.38C244.56,372.92,244.76,342,244.76,311.07Z"/><path class="cls-5" d="M308.35,416.16c-8-8.89-8.25-200.65-.24-210.39C315.92,214.67,316.14,406.62,308.35,416.16Z"/></g></g></g></g></g></svg>