<svg xmlns="http://www.w3.org/2000/svg" xmlns:xlink="http://www.w3.org/1999/xlink" viewBox="0 0 507.88 507.98"><defs><style>.cls-1{fill:#775943;}.cls-2{clip-path:url(#clip-path);}.cls-3{clip-path:url(#clip-path-2);}.cls-4{fill:#e8ddc6;}</style><clipPath id="clip-path"><rect class="cls-1" width="507.88" height="507.98" rx="36.33"/></clipPath><clipPath id="clip-path-2"><rect class="cls-1" width="507.88" height="507.98"/></clipPath></defs><g id="Layer_2" data-name="Layer 2"><g id="Layer_1-2" data-name="Layer 1"><rect class="cls-1" width="507.88" height="507.98" rx="36.33"/><g class="cls-2"><rect class="cls-1" width="507.88" height="507.98"/><g class="cls-3"><path class="cls-1" d="M0,253.46q0,110,0,220C0,493.74,14,508,34.16,508q219.75,0,439.5,0c20.16,0,34.2-14.17,34.21-34.4q0-219.3,0-438.59c0-21.15-13.93-35-35.16-35H35.22C13.75,0,0,13.83,0,35.42q0,109,0,218"/></g></g><g id="Layer_2-2" data-name="Layer 2"><g id="Layer_1-2-2" data-name="Layer 1-2"><g id="Layer_2-2-2" data-name="Layer 2-2"><path class="cls-4" d="M82.44,145c8-1.65,12.77-3.48,17.61-3.55,22.65-.31,45.34-.12,68-.16,21.65,0,21.88-.28,22-21.4,0-2.77,0-5.56.07-8.33.68-15.78,8-24.55,23.69-25q40.2-1.22,80.51,0c17.15.47,25.71,9.94,25.88,27.93.26,27.89-3.16,26.94,28.81,26.89,20.35,0,40.71-.17,61.06.12,5.05.07,10.08,1.62,15.12,2.48.08,1.92.15,3.84.23,5.77-6,.81-12.13,2.66-18.06,2.19-13.31-1-17.67,4.21-17.59,17.5.46,81,.24,161.91.22,242.87,0,37.82-13.31,51.3-50.63,51.32q-89.52,0-179,0c-30.77-.05-45.21-14.35-45.23-44.68q-.09-122.13,0-244.26c0-20.54,0-20.53-20.45-22.64a21.06,21.06,0,0,1-5.4-1C88,150.45,87.15,149.2,82.44,145Zm40.75,150.67V417.77c.06,26.38,10.74,37.48,36.79,37.55q92.25.27,184.53,0c24.08-.05,37.07-12.55,37.15-36.73.27-83.71,0-167.42.26-251.14,0-11.13-3.63-15.6-15.26-15.55q-113.76.51-227.54,0c-12-.06-16.27,4-16.13,16.12C123.5,210.54,123.2,253.09,123.19,295.65Zm131-154.41c14.35,0,28.71.21,43.06-.13,4-.09,11.07-1.25,11.32-2.82,1.7-10.19,4-21.13,1.76-30.79-1.26-5.39-10.79-12.14-16.91-12.5-25.88-1.4-51.82-.81-77.75-.51-11,.14-16.94,6.47-17.35,17.58-.19,5.08.14,10.19-.14,15.27-.57,10.28,4.64,14.08,14.32,13.94,13.87-.22,27.77-.06,41.66,0Z"/><path class="cls-4" d="M190.31,306.85c0-31-.2-61.92.23-92.88.06-4.23,3.3-8.41,5.07-12.61,1.85,4.12,5.27,8.24,5.29,12.37q.53,92.88,0,185.76c0,4.21-3.3,8.41-5.07,12.61-1.84-4.12-5.23-8.22-5.29-12.37C190.11,368.78,190.31,337.81,190.31,306.85Z"/><path class="cls-4" d="M248.24,412V201.56l4.47-1c1.42,3.95,4,7.91,4,11.87q.39,94.17.05,188.37c0,4-2,7.94-3,11.91Z"/><path class="cls-4" d="M315,308.21c0,30.5.2,61-.25,91.49-.06,4.16-3.42,8.27-5.25,12.4-1.78-4.19-5.09-8.38-5.12-12.59q-.5-92.88,0-185.76c0-4.14,3.47-8.26,5.31-12.39,1.76,4.19,5,8.37,5.06,12.59C315.21,245.37,315,276.78,315,308.21Z"/></g></g></g></g></g></svg>