<svg xmlns="http://www.w3.org/2000/svg" viewBox="0 0 507.88 507.98"><defs><style>.cls-1{fill:#2a4949;}.cls-2{fill:#e8ddc6;}</style></defs><g id="Layer_2" data-name="Layer 2"><g id="Layer_3" data-name="Layer 3"><rect class="cls-1" width="507.88" height="507.98" rx="36.33"/><path class="cls-2" d="M215.32,206.33c-5,4.49-8.12,6.9-10.79,9.75-19,20.3-15.2,51.38,8.37,66.09,5.31,3.31,6.8,6.33,3.66,11.49-6.83,11.23-12.94,23-20.84,33.47-9.53,12.6-20.67,15-35.13,8.66-13-5.73-25.28-5.58-38.24,0-14.6,6.33-23.2,4.58-33.61-7.2-22.57-25.56-34.52-55.21-31.92-89.76,2.08-27.52,22.47-49.18,47.05-50.05,5.21-.18,11.08.1,15.59,2.31,13.32,6.54,25.76,6.11,39.14-.15,11.63-5.44,24.27-4.61,35.75,1C201.57,195.46,207.78,201.05,215.32,206.33Z"/><path class="cls-2" d="M323.26,197.83c9.66,0,18.17-.32,26.61.26,1.77.12,4.13,3.31,4.83,5.52,10.27,32.48,20.31,65,30.41,97.57.61,2,1.28,3.9,2.59,7.85,1.48-4.22,2.42-6.66,3.2-9.15,9.9-31.87,19.88-63.72,29.55-95.65,1.46-4.84,3.62-6.84,8.72-6.58,7.12.37,14.28.09,22.24.09-.62,2.58-.87,4.32-1.44,5.94q-22.67,64.26-45.32,128.5c-1.34,3.8-3.15,5.78-7.44,5.56-7.84-.42-17.43,2.23-23.07-1.4-5.21-3.36-6.44-13.18-9-20.31q-19.87-55.29-39.51-110.65C324.93,203.44,324.39,201.44,323.26,197.83Z"/><path class="cls-2" d="M233.22,220.4c0-3.21,0-5.27,0-7.33-.11-14.66-.12-14.83,14.67-15.29,4.57-.15,6.12-1.85,6-6.21-.16-8.73,0-17.47,0-27,8.67,0,16.5-.25,24.29.23,1.48.09,3.86,3,4,4.77a181.94,181.94,0,0,1,.11,21.53c-.3,5.36,1.85,6.9,6.86,6.66,6.39-.32,12.81-.08,19.5-.08v22.73c-6.81,0-13.24.26-19.64-.08-5.11-.27-6.81,1.46-6.76,6.72.25,23.63,0,47.27.11,70.91,0,12.67,5.23,17.66,17.85,17.57,2.51,0,5,0,8.57,0,0,6.53.29,12.72-.22,18.85-.12,1.38-3,3.56-4.65,3.61-7.84.28-15.82.78-23.53-.33-16.7-2.4-25-11.43-25.86-28.43-.8-16.42-.43-32.89-.52-49.34-.07-11.13-.18-22.25,0-33.37.09-4.46-1.41-6.4-6-6.16S238.79,220.4,233.22,220.4Z"/><path class="cls-2" d="M137.79,185.55c-4.37-20.38,18-46.21,39-45C182.53,160.23,158.53,189.93,137.79,185.55Z"/></g></g></svg>