<svg xmlns="http://www.w3.org/2000/svg" viewBox="0 0 507.88 507.98"><defs><style>.cls-1{fill:#32404c;}.cls-2{fill:#566c84;}</style></defs><g id="Layer_2" data-name="Layer 2"><g id="Layer_3" data-name="Layer 3"><rect class="cls-1" width="507.88" height="507.98" rx="36.33"/><path class="cls-2" d="M407.52,349.68A37,37,0,0,0,399,338.46q-53.52-47.19-107.06-94.34-26.58-23.43-53.18-46.84a2.22,2.22,0,0,1-.72-2.82c8.62-25.81,4.94-49.71-12.06-71-12.71-16-29.68-24.63-50-26.7-.46,0-.92-.18-1.38-.27H164.2c-3.77.62-7.56,1.14-11.31,1.88a62.71,62.71,0,0,0-7,2c-2.74.88-3.2,2.94-1.16,5q13.14,13.17,26.29,26.3,7.57,7.57,15.14,15.15c3.37,3.39,3.37,7.6,0,11q-14.19,14.2-28.41,28.4c-3.52,3.52-7.66,3.47-11.21-.09l-40.43-40.43-.9-.88c-2.06-2-4-1.51-5,1.25-14.29,41.7,12,86.95,55.37,95.17a72.32,72.32,0,0,0,38.61-3,2.34,2.34,0,0,1,3.06.79q39,44.63,78,89.15C296,351.63,317,375,337.9,398.45a38.77,38.77,0,0,0,24.27,12.79.88.88,0,0,1,.6.27l9.71-.1a44.58,44.58,0,0,0,16.95-5.63c12.36-7.29,19.52-18.14,21.79-32.26.1-.56.22-1.11.33-1.67v-8.51A47,47,0,0,0,407.52,349.68Zm-39.43,43.57a25,25,0,1,1,25.14-24.78A25,25,0,0,1,368.09,393.25Z"/><path class="cls-2" d="M220.61,278.54c3.09,3.54,6.07,7,9.5,10.89a16.38,16.38,0,0,0-2.26,1.61q-45,44.91-89.91,89.87c-3.42,3.41-3.08,8.21.71,10.48,2.69,1.61,5.69,1.17,8.16-1.29q9.62-9.56,19.17-19.16L237,299.88c.33-.33.69-.62,1.19-1.07l8,9.15c-.45.49-.82.91-1.21,1.3q-45,45-90,90c-9.37,9.31-20.77,12-33.23,7.71S102,393.4,100.39,380.32c-1.27-10.07,1.92-18.93,9.11-26.14q41-41.16,82.19-82.22l10.92-10.91c.44-.44.9-.86,1.51-1.43l8,9.15c-.52.56-1,1.06-1.43,1.53Q164.88,316.14,119,362c-1.71,1.71-2.71,3.64-2.28,6.07a6.38,6.38,0,0,0,10.93,3.36c4.51-4.47,9-9,13.48-13.47L219,280.06C219.49,279.59,220,279.14,220.61,278.54Z"/><path class="cls-2" d="M293,233.79,273.94,217c2.8-2.75,5.47-5.35,8.11-8q23.43-23.35,46.85-46.71c5.47-5.42,9.25-11.94,12.59-18.72,2.79-5.64,5.18-11.48,7.83-17.19a5.11,5.11,0,0,1,1.87-2.16c12.63-7.52,25.3-15,37.93-22.48a2.14,2.14,0,0,1,3.12.4q7.2,7.38,14.58,14.6a2.15,2.15,0,0,1,.4,3.12c-7.57,12.72-15.07,25.48-22.64,38.2a4.28,4.28,0,0,1-2,1.58c-9.56,4-19.08,8-27.71,13.83a63.43,63.43,0,0,0-9.27,7.74q-25.69,25.54-51.22,51.25C294,232.87,293.55,233.26,293,233.79Z"/></g></g></svg>