<svg xmlns="http://www.w3.org/2000/svg" viewBox="0 0 507.88 507.98"><defs><style>.cls-1{fill:#334e66;}.cls-2{fill:#e8ddc6;}</style></defs><g id="Layer_2" data-name="Layer 2"><g id="Layer_3" data-name="Layer 3"><rect class="cls-1" width="507.88" height="507.98" rx="36.33"/><path class="cls-2" d="M421.79,421.92H86.09V86.06h335.7Zm-28-119.66h-4.21c-15.73,0-31.47-.14-47.19.11-3.62.06-4.88-1.21-5.89-4.42-9.2-29.11-18.57-58.17-27.9-87.24-.4-1.27-.89-2.52-1.6-4.52-11.84,33.44-23.41,66.13-35.38,99.92-10.16-31.33-20-61.53-29.73-91.73l-.76.1c-14.22,54.88-28.45,109.75-42.95,165.73-.75-2-1.13-2.91-1.41-3.82q-8.15-26.44-16.27-52.89-14.22-46.28-28.37-92.57c-.84-2.74-2-3.78-4.89-3.65-5.48.25-11,.07-16.48.07H113.5V393.74H393.79Zm0-23.35V113.56H113.5V204h4.55c15.61,0,31.22.08,46.83-.07,3,0,4.37.87,5.23,3.8,5.17,17.57,10.54,35.09,15.85,52.62q4.53,15,9.08,29.92h.64q21-78.95,41.89-157.88l.82,0c11.28,32.8,22.55,65.6,34.12,99.25L307.16,134c6.36,17.07,11.9,34,17.46,50.92l29.76,90.57c.52,1.56.5,3.45,3.08,3.44C369.43,278.86,381.41,278.91,393.79,278.91Z"/></g></g></svg>