<svg xmlns="http://www.w3.org/2000/svg" xmlns:xlink="http://www.w3.org/1999/xlink" viewBox="0 0 507.88 507.98"><defs><style>.cls-1{fill:#c19759;}.cls-2{clip-path:url(#clip-path);}.cls-3{clip-path:url(#clip-path-2);}.cls-4{fill:#e8ddc6;}</style><clipPath id="clip-path"><rect class="cls-1" width="507.88" height="507.98" rx="36.33"/></clipPath><clipPath id="clip-path-2"><rect class="cls-1" width="507.88" height="507.98"/></clipPath></defs><g id="Layer_2" data-name="Layer 2"><g id="Layer_1-2" data-name="Layer 1"><rect class="cls-1" width="507.88" height="507.98" rx="36.33"/><g class="cls-2"><rect class="cls-1" width="507.88" height="507.98"/><g class="cls-3"><path class="cls-1" d="M0,253.46q0,110,0,220C0,493.74,14,508,34.16,508q219.75,0,439.5,0c20.16,0,34.2-14.17,34.21-34.4q0-219.3,0-438.59c0-21.15-13.93-35-35.16-35H35.22C13.75,0,0,13.83,0,35.42q0,109,0,218"/></g></g><g id="Layer_2-2" data-name="Layer 2"><path class="cls-4" d="M158.94,298.7c-3.41,16.39-.67,23.11,13.43,31.62,19.28,11.61,40.85,15.25,62.81,16.91,29.15,2.19,57.85,0,85.48-10.44,2.21-.83,4.4-1.71,6.52-2.74,18.75-9.06,22.36-15.21,20.69-35.19,9.73,0,19.55-.76,29.14.39,3.59.43,8.5,4.69,9.65,8.23,12.42,38.44,24.58,77,36,115.72,4.88,16.51,1.2,20.72-16.16,20.74q-153.33.18-306.66,0c-17.77,0-21.25-4.43-16.1-21.67,11.36-38.06,23.51-75.89,35.13-113.87,2-6.36,5.36-9.79,12.18-9.7C140.13,298.79,149.2,298.7,158.94,298.7Z"/><path class="cls-4" d="M195.56,179.35c38.74,15.34,76.27,15.06,115.18.3,6.36,21.45,13.53,43.8,19.17,66.52.9,3.62-4.11,11.48-8.09,13-13.92,5.46-28.33,10.71-43,12.92-25.42,3.8-51.06,2.81-76-4.61a94.48,94.48,0,0,1-17.57-7.45c-8-4.3-11.16-10.21-7.86-20C184.18,219.72,189.75,199,195.56,179.35Z"/><path class="cls-4" d="M290,110.27c-11.67,1.76-22.38,4.45-33.16,4.69-10.62.25-21.32-1.86-32-3.19-6.29-.78-8.41-4-6.16-10.49,3.85-11.1,7.17-22.38,10.5-33.66,2.45-8.28,8.15-11.89,16.39-12.27.67,0,1.34,0,2,0,23.85-1.14,25.71.08,32.87,22.89C283.57,88.07,286.35,98.05,290,110.27Z"/></g></g></g></svg>