<svg xmlns="http://www.w3.org/2000/svg" viewBox="0 0 507.88 507.98"><defs><style>.cls-1{fill:#334e66;}.cls-2{fill:#e8ddc6;}.cls-3{fill:#a4e5d9;}</style></defs><g id="Layer_2" data-name="Layer 2"><g id="Layer_3" data-name="Layer 3"><rect class="cls-1" width="507.88" height="507.98" rx="36.33"/><path class="cls-2" d="M164.58,345.08c-22.38,0-44.76-.2-67.13,0-19,.21-36-11.67-42.07-29a43.51,43.51,0,0,1-2.61-14q-.23-103.44-.08-206.87c0-25.77,21.19-44.38,44.44-44.33,67.21.15,134.42,0,201.63,0a43.93,43.93,0,0,1,44.45,44.34c.06,21.87,0,43.74,0,65.6,0,.65-.08,1.31-.13,2-10,0-20.07.07-30.1.07-13.24,0-26.47,0-39.71-.07-.05-.8-.14-1.59-.14-2.39,0-7.65.11-15.31-.11-23a16.08,16.08,0,0,0-1.73-6.81c-2.25-4.33-6.24-6.13-11-6.13H124.91c-.64,0-1.27.07-2.07.11v2.5q0,65.82,0,131.64a12.11,12.11,0,0,0,12.33,12.51c9.85,0,19.69,0,29.53-.05,6,0,12.08.1,18.12.1q25.89,0,51.78-.07c.6.52,1.24,1,1.8,1.55q16.86,16.85,33.69,33.71c6.33,6.34,12.47,12.89,19.08,18.93,3.16,2.9,4.84,5.82,4.72,10.16-.17,5.93-3.26,9.36-9.17,9.37H234.84c-.71-.07-1.43-.21-2.14-.21q-33,0-66,0A19.58,19.58,0,0,0,164.58,345.08Z"/><path class="cls-3" d="M273.29,162.91c13.24,0,26.47.07,39.71.07,10,0,20.07,0,30.1-.07,1.31,0,2.62.13,3.92.13q31.28,0,62.55,0c21.35,0,38.55,12.6,43.92,32.37a44.66,44.66,0,0,1,1.6,11.61q.17,103.56.1,207.11c0,19.92-15.47,38.31-35.07,41.95a52.07,52.07,0,0,1-9.32.89Q309.88,457,209,457a44.06,44.06,0,0,1-28.74-10.31,43.57,43.57,0,0,1-12.13-16.47,42.75,42.75,0,0,1-3.39-17.15c-.09-22.67-.08-45.34-.11-68a19.58,19.58,0,0,1,2.15-.22q33,0,66,0c.71,0,1.43.14,2.14.21,0,8.67-.13,17.35-.07,26a12,12,0,0,0,12.37,12.27q67.8,0,135.6,0H385c.06-.52.1-.73.1-.94q0-66.71,0-133.41c0-7.21-5.42-12.44-12.68-12.46-9.7,0-19.39,0-29.09,0-7.27,0-14.55-.12-21.82-.12q-24.24,0-48.47.1c-.79-.76-1.59-1.49-2.36-2.26l-49.9-50a21.32,21.32,0,0,0-2.49-2.45c-3.3-2.34-4.49-5.33-4.15-9.46.55-6.51,3.18-9.35,9.72-9.35H270C271.12,163,272.2,163,273.29,162.91Z"/><path class="cls-3" d="M164.66,271.32q0-25,.06-50a8.11,8.11,0,0,1,3.05-6.7,7.82,7.82,0,0,1,9.54-.28,16.07,16.07,0,0,1,2,1.73q27.38,27.32,54.73,54.65c.2.2.37.44.56.66q-25.89,0-51.78.07C176.74,271.42,170.7,271.36,164.66,271.32Z"/><path class="cls-2" d="M343.36,236.56c0,16.61-.08,33.22-.06,49.82,0,3.83-1.48,6.7-5,8.21a7.91,7.91,0,0,1-9.22-1.93q-28-27.93-55.94-55.93a1.11,1.11,0,0,1-.09-.19q24.24-.06,48.47-.1C328.81,236.44,336.09,236.52,343.36,236.56Z"/></g></g></svg>