<svg xmlns="http://www.w3.org/2000/svg" viewBox="0 0 507.88 507.98"><defs><style>.cls-1{fill:#b55351;}.cls-2{fill:#e8ddc6;}</style></defs><g id="Layer_2" data-name="Layer 2"><g id="Layer_3" data-name="Layer 3"><rect class="cls-1" width="507.88" height="507.98" rx="36.33"/><path class="cls-2" d="M224.69,368.82c-7.66,0-15.17-.44-22.6.13-6.94.54-14.39.8-20.58,3.56-14.7,6.57-29.9,5.86-45.17,5.31-2.5-.09-6.93-2.49-7-3.94-.12-3.37.92-8.49,3.25-9.89a50,50,0,0,1,18-6.78c9.38-1.4,19-1.27,28.52-1.6,14.74-.52,21.5-7.42,21.55-22.29,0-6.36-.21-12.73,0-19.09.26-7.09-2.5-9.7-9.77-9.63-34.39.33-68.79.17-103.18.15-17.54,0-22.55-5-22.55-22.63q0-79,0-158.08c0-17.19,5.2-22.49,21.91-22.49H341.72c16.47,0,21.68,5.21,21.73,21.82.05,18.08-.16,36.16.09,54.23.09,6.65-2.46,8.38-8.68,7.41-13.57-2.13-13.6-1.93-13.6-16.27,0-12,0-23.93,0-35.9,0-9.84.09-9.86-10.07-9.87q-33.51,0-67,0H98.47c-10.83,0-10.91.11-10.91,11.09q0,69.51,0,139c0,9.95.35,10.31,10.18,10.32q54.22,0,108.46,0c9.34,0,9.5.13,8.25,9.34a131.39,131.39,0,0,0,9.65,70.12,18.48,18.48,0,0,1,1,2.88A15.33,15.33,0,0,1,224.69,368.82Z"/><path class="cls-2" d="M338.29,422.51c-61.74-.14-110.58-50.17-110.21-113.18.35-61.59,52.26-112,113.07-110.31,58.93,1.65,108.14,51.19,108.06,111.71C449.13,372.86,399.73,422.64,338.29,422.51Zm0-13.47a97.31,97.31,0,0,0,97.45-98.25c-.47-54.77-41.55-97.71-96.63-98.68-53.72-1-97.67,44.48-97.76,98.33C241.29,365.17,284.42,409,338.32,409Z"/><path class="cls-2" d="M281.62,303.23a28.45,28.45,0,0,1,1.35-3.35c9.88-13.51,11.46-13.63,23-1.89,8.68,8.82,17.25,17.75,26.11,26.38,3.62,3.53,4.2,6.18.3,10-11.12,11-22.15,22-32.83,33.45-4.31,4.6-7.57,4.82-11.49,0-2-2.5-4.37-4.74-7-7.54,7.27-7.42,14.13-14.39,21-21.39,7.91-8.13,8-8.24.17-16C295.42,316.16,288.38,309.66,281.62,303.23Z"/><path class="cls-2" d="M381.75,333.81c-13.38-13.86-26.4-27.18-39.12-40.8-1-1.05-.64-4.95.49-6.16,11-11.81,22.35-23.32,33.6-34.91,3.27-3.36,6.38-3.5,9.51.31a50.05,50.05,0,0,0,5.3,5.4c3,2.65,2.64,4.94-.1,7.62-6.31,6.18-12.21,12.81-18.73,18.75-5.28,4.8-4.8,8.46.23,13,5.6,5.07,10.71,10.7,16,16.11,6.87,7,6.88,7-.27,14.21C386.77,329.26,384.72,331,381.75,333.81Z"/></g></g></svg>