<svg xmlns="http://www.w3.org/2000/svg" viewBox="0 0 507.88 507.98"><defs><style>.cls-1{fill:#e8ddc6;}.cls-2{fill:#566c84;}</style></defs><g id="Layer_2" data-name="Layer 2"><g id="Layer_3" data-name="Layer 3"><rect class="cls-1" width="507.88" height="507.98" rx="36.33"/><path class="cls-2" d="M154.84,116.86c0,34.29.14,67-.2,99.71,0,3.63-2.25,7.63-4.36,10.76-11.62,17.22-10.13,38.4,4,52a34.28,34.28,0,0,0,48-.17c14-13.77,15.33-34.67,3.59-52.1-1.93-2.86-4.1-6.46-4.13-9.73-.3-33.82-.18-67.65-.18-103,5.76,1.24,10.86,1.78,15.62,3.44,50.52,17.65,80.1,55,92.32,110.05,5.16,23.24,13.69,45.65,21.2,68.24,7.23,21.75,6.19,23.9-14.83,25.19a40.13,40.13,0,0,0-4.65,1c0,14.18,0,28.67,0,43.17-.05,23.47-8.83,33-30.48,33.08-16.81.05-33.62,0-51.62,0,2.16,22.94,4.21,44.8,6.35,67.49h-121c-.83-16.5-.56-33-2.74-49.14-3.83-28.42-16-53.27-31.23-76.75C41.74,280.63,49,200.05,97.26,150.44,113.23,134,131.87,122.6,154.84,116.86Z"/><path class="cls-2" d="M431.43,217.22c0,10.9.16,21.81,0,32.71-.23,13.09-6.47,21-18.27,21.53-14.37.66-28.81.64-43.18-.06-10.76-.52-17.64-8-17.88-19.73q-.74-35.5,0-71c.26-12.13,7.42-19.43,18.87-19.88,13.68-.54,27.4-.53,41.08,0,12.67.45,19.13,8,19.37,21.55C431.6,193.9,431.43,205.56,431.43,217.22Z"/><path class="cls-2" d="M410.38,146.85H373.74c-.3-3.39-.81-6.59-.82-9.79-.06-27,.22-54.1-.17-81.15-.14-9.8,2.3-14.34,12.46-14,29.16,1,24.9-3.86,25.13,27C410.53,94.39,410.38,119.92,410.38,146.85Z"/><path class="cls-2" d="M407.73,352.55c2.91-11.42,9.83-13.35,19-12.4,5.91.61,12-.49,17.84.41,2.74.42,5.09,3.74,7.62,5.74-2.18,2.42-4.83,7.26-6.48,6.9-20.21-4.42-28.2,6.78-31,26-.31,2.11-4.18,5.5-5.69,5.11a10.69,10.69,0,0,1-6.47-6.05C398.45,366.31,395,354.1,391.26,342c-1.17-3.79-2.47-7.53-4.67-14.2-5.14,16.47-9.14,30.18-13.79,43.62-1.18,3.38-4,7.23-6.93,8.36-1.6.61-5.27-3.73-7.44-6.37a34.44,34.44,0,0,1-5-8.57c-4.55-10.89-10.92-17.61-23.38-15.34-2.56.47-5.91-4-8.89-6.25,3.1-2.16,6-5.62,9.34-6.25,14.85-2.77,27.37.31,31.62,19.87l2.38-1.22q4.89-15.51,9.79-31c1.9-6,3.33-12.3,5.82-18,1.25-2.87,4.53-6.74,6.7-6.61,2.34.15,5.49,4,6.5,7C398.45,322,403,337.33,407.73,352.55Z"/><path class="cls-2" d="M168.26,113.54l20-1.17V213.29h-20Z"/><path class="cls-2" d="M176.7,276.09c-14.91-3.85-21.79-12-21.54-25.62.22-12.11,6.64-20,17.68-22.67.6,4.33.88,8.74,2.11,12.82.19.61,6.66.44,7.07-.69,1.27-3.45,1-7.56,1.35-11.59,8.31.23,16.07,7.58,17.72,18.55,1.78,11.87-4.85,24.08-15.17,27.59a63.56,63.56,0,0,1-8.17,1.66c1.33-1.17,3.4-2.09,3.83-3.56.9-3.09.93-6.47,1.32-9.73l-8.51-1c-.28,3.28-.95,6.59-.7,9.82C173.81,273.21,175.65,274.61,176.7,276.09Zm-13.1-15.57c2.67-4.45,5.6-7.24,5.57-10,0-2.07-4.52-6.17-5.86-5.69a10.65,10.65,0,0,0-5.9,7C157.09,253.82,160.56,256.49,163.6,260.52Zm29.59.5c2.9-4.93,5.81-7.73,5.76-10.48,0-2.09-3.85-5.74-5.92-5.7s-5.91,3.75-5.89,5.82C187.16,253.42,190.15,256.15,193.19,261Z"/></g></g></svg>