<svg xmlns="http://www.w3.org/2000/svg" xmlns:xlink="http://www.w3.org/1999/xlink" viewBox="0 0 507.88 507.98"><defs><style>.cls-1{fill:#48484f;}.cls-2{clip-path:url(#clip-path);}.cls-3{clip-path:url(#clip-path-2);}.cls-4{fill:#ea5657;}</style><clipPath id="clip-path"><rect class="cls-1" width="507.88" height="507.98" rx="36.33"/></clipPath><clipPath id="clip-path-2"><rect class="cls-1" width="507.88" height="507.98"/></clipPath></defs><g id="Layer_2" data-name="Layer 2"><g id="Layer_3" data-name="Layer 3"><rect class="cls-1" width="507.88" height="507.98" rx="36.33"/><g class="cls-2"><rect class="cls-1" width="507.88" height="507.98"/><g class="cls-3"><path class="cls-1" d="M0,253.46q0,110,0,220C0,493.74,14,508,34.16,508q219.75,0,439.5,0c20.16,0,34.2-14.17,34.21-34.4q0-219.3,0-438.59c0-21.15-13.93-35-35.16-35H35.22C13.75,0,0,13.83,0,35.42q0,109,0,218"/></g></g><path class="cls-4" d="M196.81,151.87V457.2c0,3.74-1.39,5.06-4.73,4.57a3,3,0,0,1-2.91-3.11c0-1,0-2,0-3.05V51.21c0-4.11,1.52-5.76,4.91-4.85,1.09.29,2,1.76,2.66,2.89.4.71.09,1.81.09,2.74Z"/><path class="cls-4" d="M224.29,183.28V400.45c0,3.47-.73,4.51-3.27,4.74-3.27.3-4.44-.9-4.44-4.59V260.77q0-74,0-148c0-2.34.19-4.28,3.17-4.47,3.33-.22,4.55.84,4.55,4.25Q224.3,147.91,224.29,183.28Z"/><path class="cls-4" d="M209.93,184.92v68q0,71.13,0,142.27c0,3.45-.71,4.39-3.39,4.55-3.29.19-4.31-.85-4.31-4.44q0-67.27,0-134.54,0-72.38,0-144.74c0-2.37.27-4.26,3.23-4.42,3.38-.18,4.5.81,4.5,4.27Q209.94,150.39,209.93,184.92Z"/><path class="cls-4" d="M170.78,306.16q0,22.89,0,45.78c0,3.33-1.21,4.52-4.23,4.32-2.16-.14-3.46-1.15-3.46-3.46,0-.83,0-1.66,0-2.5V261.24q0-49.05,0-98.11c0-2.36.06-4.55,3.18-4.83,3.3-.29,4.53.89,4.54,4.54V306.16Z"/><path class="cls-4" d="M230.9,300.8V260.85q0-43.5,0-87c0-2.25,0-4.34,3-4.62,3.41-.3,4.68.81,4.68,4.39q0,38.15,0,76.3v90.91c0,3.42-.76,4.35-3.51,4.46-3.16.14-4.19-.78-4.19-4C230.88,327.81,230.9,314.3,230.9,300.8Z"/><path class="cls-4" d="M177.37,300.34V175c0-3.51.7-4.45,3.33-4.65,3.32-.25,4.38.77,4.38,4.34V341c0,3.39-.73,4.23-3.61,4.28-3.08.07-4.09-.91-4.09-4.17Q177.35,320.73,177.37,300.34Z"/><path class="cls-4" d="M135.69,292V260.11q0-34.65,0-69.31c0-3.15.94-4.17,3.78-4.2s3.89.94,3.89,4c0,14.62,0,29.23,0,43.84,0,7.38.39,14.77.36,22.15-.07,22.64-.26,45.28-.37,67.93,0,2.59-1.51,3.35-3.72,3.41-2.76.06-4-1-4-3.76C135.67,313.47,135.69,302.75,135.69,292Z"/><path class="cls-4" d="M298.71,290.91V260.67q0-33.36,0-66.72c0-3.24,1-4.18,4.1-4.06,2.69.11,3.56,1.07,3.57,4.14,0,9.52,0,19.05,0,28.57v30.52q0,34.1,0,68.18c0,3.4-1.11,4.59-4.09,4.5-2.47-.08-3.64-1.21-3.62-3.82C298.76,311.62,298.72,301.26,298.71,290.91Z"/><path class="cls-4" d="M279,286.18q0,12.75,0,25.51c0,3.41-.84,4.27-3.95,4.23-2.89,0-3.74-.95-3.74-4.21q0-24.68,0-49.34V202c0-3.4.75-4.34,3.47-4.49,3.17-.18,4.23.85,4.23,4.24q0,24.53,0,49.06Z"/><path class="cls-4" d="M251.58,286.75q0,13.17,0,26.34c0,3-.87,3.88-3.7,3.91-3,0-4-.89-4-3.95q0-25.1,0-50.19,0-29,0-57.9c0-3.31,1.41-4.55,4.59-4.2,2.44.27,3.14,1.67,3.13,4-.06,15.34,0,30.69,0,46Z"/><path class="cls-4" d="M156.85,230.69c0,8.68,0,17.36,0,26q-.12,24.27-.33,48.52c0,3.18-.93,4.11-3.86,4.12s-3.84-.87-3.84-4.05q0-21.51,0-43,0-27.12,0-54.25c0-3.19,1.35-4.37,4.44-4.06,2.39.24,3.29,1.61,3.28,3.94-.05,7.58,0,15.17,0,22.75Z"/><path class="cls-4" d="M283.93,280c0-7.66-.05-15.32,0-23,.1-14.41.26-28.81.4-43.22,0-2.6,1.7-3.26,3.88-3.26s3.81.81,3.82,3.35c0,5.73,0,11.47,0,17.2q0,34.38,0,68.75c0,3.11-1,4.17-3.81,4.2s-3.88-1-3.89-3.79c0-6.75,0-13.5,0-20.25Z"/><path class="cls-4" d="M346.78,241.36q0,21,0,42c0,3.41-.85,4.28-3.95,4.25-2.88,0-3.72-.83-3.74-3.88,0-6.92,0-13.84,0-20.77q0-17,0-33.95c0-3.42,1-4.4,4.19-4.29,2.38.07,3.53,1.21,3.52,3.62C346.75,232.68,346.78,237,346.78,241.36Z"/><path class="cls-4" d="M332.48,242.89q0,19.1,0,38.21c0,3.51-1.09,4.5-4.47,4.33-2.3-.11-3.27-1.25-3.25-3.53.06-6.29,0-12.58,0-18.87q0-15.46,0-30.92c0-3.2.88-4.12,3.78-4.12s3.89,1,3.92,4.08C332.5,235.67,332.48,239.28,332.48,242.89Z"/><path class="cls-4" d="M257.2,270.73c-.23-4.59-.65-9.18-.64-13.77,0-7.83.3-15.65.41-23.48,0-2.58,1.58-3.37,3.76-3.38s3.87.68,3.9,3.26c0,2.22,0,4.43,0,6.65q0,20.58,0,41.16c0,3.44-.83,4.28-3.94,4.25s-3.69-.8-3.71-4.16,0-7,0-10.52Z"/><path class="cls-4" d="M319.33,270.37c0,3.33,0,6.66,0,10,0,3.16-.88,4-3.88,4s-3.79-1-3.8-4.15c0-6.56,0-13.12,0-19.68q0-12.58,0-25.16c0-3,1.06-4.16,3.84-4.18s3.83,1.06,3.84,4.11c0,5.55,0,11.09,0,16.63Z"/><path class="cls-4" d="M352.08,267q0-12.57,0-25.14c0-3.08,1-4.16,3.81-4.18s3.89,1.08,3.89,4.09q0,16.58,0,33.17c0,3-1.1,4.06-3.93,4s-3.74-1.1-3.77-3.93S352.08,269.69,352.08,267Z"/><path class="cls-4" d="M130.43,249c0,6.25,0,12.5,0,18.75,0,3.29-1.33,4.65-4.41,4.7-3.23.05-4.64-1.35-4.65-4.74q0-11.6,0-23.19c0-3.32,1.28-4.62,4.41-4.67,3.31,0,4.61,1.27,4.66,4.72C130.44,246.08,130.43,247.56,130.43,249Z"/><path class="cls-4" d="M379.42,265.8c0-7.26,0-14.52,0-21.79,0-3.25,1.84-4.86,4.95-4,1.09.32,2.57,1.87,2.58,2.88.2,9.91.13,19.82.12,29.74,0,2.49-1.76,3-3.76,3.06s-3.74-.62-3.86-3,0-4.61,0-6.92Z"/><path class="cls-4" d="M372.78,256.88c0,3.67.06,7.35,0,11,0,2.56-1.24,3.55-3.91,3.49-2.24,0-3.71-.9-3.71-3.43,0-6.78,0-13.57,0-20.36,0-2.54,1.51-3.3,3.78-3.31s3.83.69,3.84,3.25C372.79,250.65,372.78,253.76,372.78,256.88Z"/><path class="cls-4" d="M451.75,246.5c3.27,0,4.49,1.18,4.51,4.46q0,6.33,0,12.64c0,3.22-1.35,4.51-4.54,4.51s-4.46-1.27-4.49-4.55q-.06-6.3,0-12.6C447.26,247.62,448.44,246.49,451.75,246.5Z"/><path class="cls-4" d="M424,246.49c2.52,0,3.47.82,3.49,3.68,0,4.39,0,8.78,0,13.16.05,2.63-1.28,3.65-3.72,3.67-2.83,0-3.95-.95-4-3.69,0-4.41,0-8.81,0-13.21C419.8,247.47,421.16,246.45,424,246.49Z"/><path class="cls-4" d="M58.11,248.66c3.3,0,4.44,1.09,4.51,4.5q.08,4.25,0,8.48c-.06,3.07-1.37,4.26-4.49,4.26s-4.49-1.22-4.53-4.23q-.06-4.26,0-8.52C53.63,249.81,54.81,248.67,58.11,248.66Z"/><path class="cls-4" d="M396.42,267c-2.82,0-3.86-.95-3.88-3.76,0-4,.06-8,0-12.06-.06-2.66,1.29-3.62,3.74-3.61,2.86,0,3.95.94,4,3.7q.07,6.06,0,12.12C400.19,266,399.06,267,396.42,267Z"/><path class="cls-4" d="M113,249.77c3.09,0,4.22,1,4.31,4s.1,5.8,0,8.7c-.09,2.33-1.58,3.4-4.41,3.4-2.33,0-4.32-.6-4.44-3.37s-.15-5.62,0-8.43C108.55,250.65,109.6,249.74,113,249.77Z"/><path class="cls-4" d="M84.44,264.81c-3.22,0-4.66-1.34-4.8-5.11a28.88,28.88,0,0,1,0-4.65c.43-3.16,1.93-4.25,5.37-4.2,3.24,0,4.71,1.14,5,4.26a22.94,22.94,0,0,1-.18,6.57C89.36,264.15,87.27,264.84,84.44,264.81Z"/><path class="cls-4" d="M414.88,256.82c-.1,1.28-.25,2.57-.29,3.85-.1,3.14-1,4.12-3.87,4.14s-3.81-.86-3.84-4.07,0-6.56,0-9.84c0-2.58,1.49-3.31,3.75-3.33s3.86.66,3.94,3.19c.06,2,0,4,0,6.06Z"/><path class="cls-4" d="M493.43,249.77c3.24,0,4.41,1,4.52,4.19q.12,3.59,0,7.16c-.1,2.57-1.54,3.69-4.5,3.69s-4.33-1.1-4.41-3.72c-.08-2.44-.11-4.9,0-7.34C489.17,250.7,490.27,249.77,493.43,249.77Z"/><path class="cls-4" d="M466,249.77c3.94,0,5.31,2,4.95,7.43-.05.83-.23,1.64-.31,2.46-.31,3-1.53,4.1-4.77,4-3-.05-4.15-1.13-4.33-4.16a50.09,50.09,0,0,1,0-5.48C461.72,250.78,462.8,249.79,466,249.77Z"/><path class="cls-4" d="M437.57,264.81c-3.32,0-4.54-1.16-4.6-4.09a54.65,54.65,0,0,1,.09-7c.26-2.45,2.24-2.85,4.31-2.87s4.14.42,4.4,2.79a35.29,35.29,0,0,1,0,8.47C441.44,264.39,439.37,264.9,437.57,264.81Z"/><path class="cls-4" d="M16.39,252c3.22,0,5,1.77,4.94,4.93-.09,5.24-1.28,6.85-5,6.82s-4.6-1.43-4.67-6.75C11.59,253.48,13,252,16.39,252Z"/><path class="cls-4" d="M29.39,252c3.37,0,4.86,1.5,4.85,4.93,0,5.24-1.05,6.77-4.64,6.82-3.78.06-5-1.53-5.1-6.76C24.42,253.77,26.19,252,29.39,252Z"/><path class="cls-4" d="M99.67,263.7c-3.59-.05-4.9-1.93-4.73-6.78.08-2.45,2-4,5-3.9s4.78,1.66,4.71,4.2C104.54,262.3,103.41,263.75,99.67,263.7Z"/><path class="cls-4" d="M71.12,252c3.36,0,4.82,1.5,4.77,5,0,4.25-1.2,5.67-4.61,5.7s-4.94-1.52-5.07-5.68C66.11,253.8,67.92,252,71.12,252Z"/><path class="cls-4" d="M479.78,261.5c-3,0-4.2-1.34-4.17-4.82,0-4.53.89-5.78,4-5.83,3.3-.06,4.49,1.25,4.32,5.8C483.81,260.29,483,261.6,479.78,261.5Z"/><path class="cls-4" d="M44.46,252c3,0,4.2,1.43,4.18,4.88,0,4.36-1,5.75-4.13,5.78s-4.71-1.56-4.31-5.87C40.56,252.89,41.12,252,44.46,252Z"/></g></g></svg>