<svg xmlns="http://www.w3.org/2000/svg" viewBox="0 0 507.88 507.98"><defs><style>.cls-1{fill:#e8ddc6;}.cls-2{fill:#566c84;}</style></defs><g id="Layer_2" data-name="Layer 2"><g id="Layer_3" data-name="Layer 3"><rect class="cls-1" width="507.88" height="507.98" rx="36.33"/><path class="cls-2" d="M241.63,444.7a160,160,0,0,1-59-14.34C125,403.85,89.8,359.38,77.65,297c-4.61-23.62-3.54-47.2,1.19-70.71.79-3.94,2.61-6.09,6.6-7.56,30-11,60.48-20.18,92.08-24.77,19.49-2.84,39.26-3.75,58.89-5.68,4.42-.44,5.3,1.44,5.29,5.41-.13,26.94-.07,53.89-.07,80.83V444.7ZM155.19,310.26c-.43,2.18-.65,3.62-1,5-3.89,15.76-7.76,31.54-11.77,47.27-.92,3.62-.09,6.21,3.3,7.83s5.78-.24,7.58-2.84c2.55-3.69,4.87-7.54,7.29-11.32,16.95-26.46,34-52.88,50.73-79.46a10.51,10.51,0,0,0,1-8.12c-1.32-3.51-4.87-3-8.19-2.16-6.53,1.6-13.13,2.87-20.71,4.49,1.06-2.5,1.59-4,2.31-5.43,4.36-8.59,9-17.07,13-25.81,1-2.19,1.34-6,.11-7.59s-5-2.52-7.4-2.08c-12.87,2.44-25.6,5.54-38.45,8.08-4.55.91-6.85,3.28-8,7.6-5.34,19.7-10.88,39.35-16.26,59-2.08,7.62.86,10.84,8.59,9.39C143,313.11,148.66,311.71,155.19,310.26Z"/><path class="cls-2" d="M265.19,316q0-60.89,0-121.78c0-6.86,0-6.76,6.93-6.11,16,1.5,32.09,2.44,48.05,4.4,33.41,4.09,65.73,12.82,97.29,24.4,10.46,3.84,10.49,3.93,12.59,15.07a180,180,0,0,1-75.94,182.51c-24.14,16.32-50.74,25.85-79.48,29.76l-.5,0c-8.94.85-8.94.85-8.94-8Zm98.17-41.18c5-2.9,9.16-5.31,13.33-7.69.41-.24,1.05-.56,1.38-.41,3.15,1.48,6.25,3.05,9.38,4.58a6.9,6.9,0,0,0,.94.31c4.63,1.53,9.13-1.5,8.7-6.36-.23-2.57-1.87-5-3-7.94,2.75-2.19,5.66-5.24,3.24-9.65-2.82-5.13-7.3-4-11.83-1.88-.15-1-.21-1.68-.34-2.31-.87-4.23-3.42-6.37-7.79-5.9s-5.92,3.21-6,7.22c0,2,.14,4-.06,6-.14,1.39-.33,3.39-1.24,4-4.18,2.79-8.62,5.18-13.83,8.22a56.54,56.54,0,0,0,0-6.13c-1-7.37.37-13.24,8.26-16.39,1.81-.72,3.42-4.09,3.57-6.35.38-5.46-3.72-7.37-11.62-5.71-.24-4.4-1.32-8.32-6.7-8.73-6.11-.46-7.1,4.06-7.86,8.65-1.17-.25-2-.46-2.76-.6-3.81-.63-7.1.13-8.57,4.11-1.53,4.13.43,7,3.91,9.16,1.84,1.12,3.79,2.11,5.51,3.39,1,.73,2.25,1.89,2.3,2.91.24,4.88.11,9.77.11,15.35-8.15-4.46-17.77-6.25-15.48-18.2.22-1.16-.46-2.64-1.08-3.78-2.4-4.42-9.11-4.58-11.52-.21-.82,1.47-.9,3.35-1.43,5.48-4.27-2.8-8.56-3.43-11.55,1.05-3.21,4.82.13,8.31,4.16,11.68a12.92,12.92,0,0,0-1.68.95c-3.19,2.71-4.41,6-1.84,9.61s5.92,4,9.68,2c2.06-1.09,4-2.33,6.16-3.27,1.1-.49,2.71-1,3.61-.56,4.36,2.22,8.55,4.76,13.43,7.54-7.95,4.83-14.47,12-23.47,3.91-.23-.21-.62-.21-.92-.35-3.5-1.64-6.22-.2-8.31,2.46s-1.83,5.59.29,8.24c.79,1,1.73,1.84,2.72,2.88-3.58,2.65-6.92,5.24-4.73,10,2.54,5.56,7.21,4.68,11.86,3.13.33,1.14.56,1.93.78,2.71,1.11,3.84,3.48,6,7.64,5.6s5.94-3.33,6.36-7.13c.27-2.47,0-5,.25-7.47.15-1.36.55-3.23,1.51-3.88,4.06-2.71,8.37-5.06,13.39-8,0,6.23.94,11.58-.37,16.29-.72,2.59-5.25,4.11-8.06,6.12-.54.39-1.38.71-1.53,1.22-.71,2.52-2.35,5.56-1.53,7.53s4,3.24,6.45,4.1c1.43.5,3.35-.38,5.26-.66-.45,5,1.1,8.72,5.9,9.24,5.89.64,7.59-4,8.44-8.8a17.35,17.35,0,0,1,2.33.38c4,1.31,7-.31,8.61-3.84s.28-6.52-2.89-8.63c-1.93-1.3-4-2.37-5.89-3.73-1-.74-2.42-1.85-2.48-2.84-.25-5-.11-10.07-.11-16.27,7,5.48,17.41,6,15.19,18-.85,4.64,2.27,8,6.15,8,4.25.07,6.74-2.31,7.51-6.5a16.5,16.5,0,0,1,.75-2.09c4.25,2.34,8.38,2.92,11.19-1.42,3.13-4.86-.1-8.31-4-11.61a20.42,20.42,0,0,0,2.28-1.77c2.66-2.76,3.14-5.91.82-9s-5.27-3.91-8.81-2.1a63.86,63.86,0,0,1-6.67,3.34c-1.38.5-3.33.81-4.53.21C372.08,280.12,368.17,277.61,363.36,274.79Zm-33.1,101.52c-.12-.63,0-2.83-.94-4.47-6.37-11.4-12.73-22.82-19.57-33.93-2.39-3.87-5.31-1.44-7,1.33-5.77,9.48-11.72,18.89-16.92,28.69-4.66,8.8-2.38,20,4.56,27.21a23.43,23.43,0,0,0,24.8,5.19C324.24,396.76,330.25,387.73,330.26,376.31Z"/><path class="cls-2" d="M91.34,191.11c18.21-39.82,47.34-68.84,87.22-88.27-1.38-1.62-2.17-3.12-3.41-3.89C168.85,95,162.61,90.88,156,87.53s-10.21-9.81-7.75-16.21c2.58-6.73,9.57-9.77,16.81-7a90.07,90.07,0,0,1,36.3,25.6c2.32,2.65,4.42,3.22,7.77,2.36a175.49,175.49,0,0,1,89.1,0c3.52.91,5.79.33,8.22-2.51a85.43,85.43,0,0,1,33.65-24.28,19.49,19.49,0,0,1,11.46-.64c5.06,1.33,7.66,5.8,7.73,11.07.07,5.54-3.14,9.11-7.88,11.73C345.17,91,339.12,94.76,333,98.43c-1.38.83-2.62,1.91-4.95,3.63,40.84,20,70.22,49.29,89.3,90.05C308.35,154.15,200.05,154,91.34,191.11Z"/></g></g></svg>