<svg xmlns="http://www.w3.org/2000/svg" viewBox="0 0 507.88 507.98"><defs><style>.cls-1{fill:#80a175;}.cls-2{fill:#e8ddc6;}</style></defs><g id="Layer_2" data-name="Layer 2"><g id="Layer_3" data-name="Layer 3"><rect class="cls-1" width="507.88" height="507.98" rx="36.33"/><path class="cls-2" d="M63.44,445.78c4.09-12.16,7.93-23.57,11.76-35C82,390.53,88.91,370.31,95.46,350a11.68,11.68,0,0,0-.71-8.35c-17.88-31.89-26.06-66.16-24-102.5C75.5,152.93,137.14,83,219.23,66.15c99.08-20.37,194.81,40,219.57,138,26.09,103.19-41.1,208.69-145.59,228.47-42.16,8-82.51,2.45-120.79-17.07a12.67,12.67,0,0,0-10.68-.67q-47.44,15.52-95,30.7A14.87,14.87,0,0,1,63.44,445.78Zm49.25-48.22c2.41-.66,3.84-1,5.23-1.43,16.37-5.26,32.68-10.68,49.13-15.65a11.55,11.55,0,0,1,8.29,1.06c33.41,20.19,69.39,28.21,107.82,21.09,59.68-11.05,101.4-45.42,121.16-102.62,19.82-57.41,8.71-110.76-32.45-155.79C314,80.9,218.06,76.56,154.11,133,96.45,183.88,85,270.44,127.7,334.74c3.07,4.64,3.54,8.31,1.67,13.49C123.59,364.2,118.44,380.39,112.69,397.56Z"/><path class="cls-2" d="M200.42,164.7c11,0,11.84.52,16,10.53,3.94,9.62,7.47,19.45,12,28.79,3.13,6.46,2,11.67-2,16.81-2.68,3.43-5.47,6.8-8.44,10-2.75,2.92-3.14,5.76-1.08,9.21,14.85,24.94,35.48,43.05,62.64,53.65,3.59,1.39,5.88.16,7.94-2.29,4.5-5.37,9.09-10.68,13.21-16.33,3.08-4.22,6.57-5.52,11.23-3.32,12.3,5.82,24.7,11.48,36.74,17.79,2.19,1.15,4.2,5.15,4.1,7.76-.7,18.37-6.53,28.7-30.28,37.49-9.26,3.42-18.78,2.68-28.46.28-56.66-14-94.72-50.47-120.43-100.95-10.71-21-8.88-42.16,7.13-60.83C186.93,165.88,189.65,164.74,200.42,164.7Z"/></g></g></svg>