<svg xmlns="http://www.w3.org/2000/svg" xmlns:xlink="http://www.w3.org/1999/xlink" viewBox="0 0 507.88 507.98"><defs><style>.cls-1{fill:#566c84;}.cls-2{clip-path:url(#clip-path);}.cls-3{clip-path:url(#clip-path-2);}.cls-4{fill:#e8ddc6;}</style><clipPath id="clip-path"><rect class="cls-1" width="507.88" height="507.98" rx="36.33"/></clipPath><clipPath id="clip-path-2"><rect class="cls-1" width="507.88" height="507.98"/></clipPath></defs><g id="Layer_2" data-name="Layer 2"><g id="Layer_3" data-name="Layer 3"><rect class="cls-1" width="507.88" height="507.98" rx="36.33"/><g class="cls-2"><rect class="cls-1" width="507.88" height="507.98"/><g class="cls-3"><path class="cls-1" d="M0,253.46q0,110,0,220C0,493.74,14,508,34.16,508q219.75,0,439.5,0c20.16,0,34.2-14.17,34.21-34.4q0-219.3,0-438.59c0-21.15-13.93-35-35.16-35H35.22C13.75,0,0,13.83,0,35.42q0,109,0,218"/></g></g><path class="cls-4" d="M286.44,440.41c-16.87-3.3-32.3-6.31-47.72-9.34-52.4-10.29-104.78-20.68-157.22-30.74-5.68-1.09-7.26-3.44-7.25-8.95q.19-138.31,0-276.64c0-6,2.13-8,7.84-9.09q98-18.27,195.94-37c2.39-.45,4.82-.64,8.44-1.11V91.65c0,6.08.14,12.17,0,18.26-.11,4,1.58,5.69,5.59,5.64,8.34-.12,16.68,0,25,0q50,0,100.09,0c12.75,0,16.5,3.62,16.51,16.57q.08,123.8,0,247.57c0,12.34-4.05,16.2-16.25,16.21-40.8,0-81.6.17-122.4-.14-7-.06-8.94,2.15-8.65,8.87C286.8,416.05,286.44,427.52,286.44,440.41Zm135.3-184.75q0-59.86,0-119.75c0-8.91,0-9-9.13-9-37.2,0-74.4-.08-111.6,0-16.87,0-14.11-2-14.66,14.87-.19,5.87,1.65,7.87,7.65,7.78,20.74-.32,41.49-.12,62.23-.12,14.43,0,28.86.09,43.29,0,4.14,0,6,1.18,6.22,5.73.28,5.84-1.55,7.91-7.61,7.86-31.34-.25-62.68-.12-94-.12-17.82,0-17.55,0-17.8,17.86-.09,6.52,1.95,8.5,8.45,8.44,31.11-.29,62.22-.13,93.34-.13,4.06,0,8.12.07,12.17,0,3.58,0,5.12,1.46,5.42,5.23.46,6-1.3,8.35-7.79,8.29-31.33-.29-62.67-.13-94-.13-17.49,0-17.49,0-17.44,17.42,0,9.35,0,9.37,9.21,9.38,34.28,0,68.55.11,102.82-.1,5.7,0,7.31,2,7.28,7.46s-2.88,6.13-7.26,6.12c-31.57-.08-63.13,0-94.7,0-17.46,0-17.16,0-17.5,17.48-.13,6.82,1.9,8.89,8.77,8.83,34.26-.32,68.54-.12,102.81-.17,4.42,0,7.83.17,7.89,6.28.05,5.74-2.05,7.29-7.5,7.26-34.72-.18-69.44,0-104.16-.19-5.86,0-8.35,1.68-7.73,7.69a50.73,50.73,0,0,1,0,10.81c-.69,6.39,1.57,8.7,8.24,8.55,18-.41,36.07-.15,54.11-.14,16.91,0,33.82.12,50.73-.06,4.74-.05,6.1,1.78,6.29,6.36.23,5.83-2.18,7.25-7.56,7.22-31.33-.18-62.67-.09-94-.09-17.88,0-17.62,0-17.87,17.79-.09,6.44,1.8,8.58,8.38,8.51,29.76-.3,59.53-.13,89.29-.13,5.41,0,10.82.06,16.23,0,3.53,0,5.19,1.36,5.47,5.17.44,5.88-1.13,8.42-7.71,8.36-32.92-.3-65.84-.17-98.76-.12-14.3,0-12.66-1.33-12.74,12.61,0,9.1,0,9.13,9.49,9.13H412.29c9.41,0,9.44,0,9.44-9.22Q421.75,315.2,421.74,255.66ZM146,278.52l-1-.14c-.18-.85-.39-1.7-.53-2.56-4-24.23-7.83-48.48-12.05-72.68-.38-2.2-2.95-5.59-4.66-5.69-5.43-.32-10.94.66-16.82,1.18.55,3.48.84,5.92,1.32,8.32q9,45.77,18.15,91.5c2.59,13,2.66,12.95,15.84,13.43a3.76,3.76,0,0,1,.67,0c7.29,1.54,10.16-1.52,11.54-8.81,4.49-23.88,9.75-47.62,14.72-71.41a15.36,15.36,0,0,1,2.61,6.26q6.14,29.44,12.22,58.9c3.67,17.87,3.64,17.71,21.86,19,5.22.38,7.67-1,8.83-6.36,8.17-37.66,16.63-75.25,25-112.87.41-1.84.47-3.77.8-6.66-6.25.42-11.58,1.14-16.9,1s-7.28,2.49-8.08,7.48c-3.16,19.81-6.62,39.56-10,59.32-1.26,7.31-2.62,14.6-3.94,21.9-6-23.52-10.71-46.91-15.51-70.29-3.39-16.55-3.43-16.41-20.32-15-4.38.35-6.39,2.15-7.21,6.32-2.27,11.5-4.77,22.95-7.2,34.41Q150.62,256.83,146,278.52Z"/></g></g></svg>