<svg xmlns="http://www.w3.org/2000/svg" xmlns:xlink="http://www.w3.org/1999/xlink" viewBox="0 0 507.88 507.98"><defs><style>.cls-1{fill:#566c84;}.cls-2{clip-path:url(#clip-path);}.cls-3{clip-path:url(#clip-path-2);}.cls-4{fill:#e8ddc6;}</style><clipPath id="clip-path"><rect class="cls-1" width="507.88" height="507.98" rx="36.33"/></clipPath><clipPath id="clip-path-2"><rect class="cls-1" width="507.88" height="507.98"/></clipPath></defs><g id="Layer_2" data-name="Layer 2"><g id="Layer_3" data-name="Layer 3"><rect class="cls-1" width="507.88" height="507.98" rx="36.33"/><g class="cls-2"><rect class="cls-1" width="507.88" height="507.98"/><g class="cls-3"><path class="cls-1" d="M0,253.46q0,110,0,220C0,493.74,14,508,34.16,508q219.75,0,439.5,0c20.16,0,34.2-14.17,34.21-34.4q0-219.3,0-438.59c0-21.15-13.93-35-35.16-35H35.22C13.75,0,0,13.83,0,35.42q0,109,0,218"/></g></g><path class="cls-4" d="M265,88.68c8.38-3.46,16.5-8,25.19-10.19,30.63-7.87,60.67-4.28,89.7,7.43,6.31,2.54,11.94,7.28,17.19,11.81,6.25,5.4,12.68,7.67,20.53,4.5,6.58-2.66,12.61-.41,18.11,2.71,1.69,1,3,5,2.45,7.11-2.54,10.07-5.84,20-8.72,30-1.23,4.28-3.25,5.6-7.94,4.47-6.77-1.65-12.46-4-17.39-9.47-8.78-9.69-29.8-5.05-36.52,8.17-4.18,8.21-7.22,17.08-10,25.88-4.9,15.28-9.39,30.7-13.73,46.15-1.49,5.29-3.69,6.65-9.19,5-16.2-4.86-16.3-4.62-11.8-20.7,3.16-11.32,6.43-22.62,9.6-33.94,4.21-15,5.38-30.25,2.34-45.64-3.57-18.07-13.32-27.39-31.61-29.12C290.84,91.63,278.41,91.55,266,91Z"/><path class="cls-4" d="M276.14,433.65c-18.43-.28-28.95-15-22.81-32.53,20.11-57.58,40.49-115.07,60.58-172.65,1.62-4.63,3.82-5.44,8-3.91a60.57,60.57,0,0,0,10.42,3c6.49,1.13,7.68,4.4,6.2,10.59-13.05,54.24-25.79,108.55-38.78,162.8a173.8,173.8,0,0,1-6.89,22.6C290,430.78,284.05,434.1,276.14,433.65Z"/><path class="cls-4" d="M205.67,268a76.72,76.72,0,0,0-3.68,7.08c-7.43,18.66-14.91,37.3-22.05,56.08-2.1,5.54-4.71,6.88-10.1,4.11a143.61,143.61,0,0,0-15.66-6.41c-4-1.46-5.25-3.71-3.58-7.78q19.36-47.3,38.56-94.68c1.71-4.24,4.11-4.66,7.91-3.11,5.22,2.14,10.5,4.16,15.87,5.89,4.7,1.51,5.8,3.83,3.89,8.58-4,10-7.54,20.24-11.26,30.37Z"/><path class="cls-4" d="M330.19,135.77a45.32,45.32,0,0,1-6.49,2.08Q251.1,150,178.48,162.07c-31.91,5.27-63.82,10.53-95.79,15.44-6.7,1-8.59,3.57-7.57,10.26,8.57,55.65,16.87,111.33,25.23,167,2.42,16.1,5.12,32.17,7,48.33.78,6.67,3.35,8.34,9.62,7.33q53.25-8.62,106.56-16.85c9.06-1.41,18.17-2.55,27.25-3.81l.62,2.23c-2,.73-4,1.8-6,2.13-44.68,7.06-89.38,14-134,21.13-5,.81-6.93-.55-7.65-5.52Q91,322.83,78,236c-2.59-17.45-5.22-34.89-8.11-52.29-1-5.91-.06-8.64,6.88-9.76,81-13.09,162-26.59,243-39.92,3.28-.54,6.67-.45,10-.66Z"/><path class="cls-4" d="M205.57,268.17c2.39-4.66,6.44-6.24,11.43-7,14.93-2.36,29.77-5.39,44.73-7.51,3.29-.46,8.11.65,10.25,2.91,5.83,6.15,10.62,13.31,16.7,21.22l-90.42,14.95c2.74-9.12,5.07-16.9,7.41-24.67Z"/><path class="cls-4" d="M410.8,367.05c-33.61,5.56-66.19,11.46-99,15.64l-.6-2.89a57.18,57.18,0,0,1,6.47-1.83q39.51-6.3,79.05-12.5c9.26-1.47,9.23-1.56,7.68-10.82Q387.65,254.32,371,154c-.52-3.16-.06-6.48-.06-9.72l2.52-.24C385.85,218,398.23,291.91,410.8,367.05Z"/><path class="cls-4" d="M169.57,268.4c-4.51,10.41-8,19.15-12.18,27.6-.86,1.77-3.81,3.13-6,3.53-8,1.44-16,2.67-24.1,3.32-1.83.15-5.16-2-5.58-3.65a109.21,109.21,0,0,1-2.73-18c-.12-1.61,1.53-4.64,2.75-4.86C137,273.55,152.31,271.19,169.57,268.4Z"/><path class="cls-4" d="M301.11,246.86q-18-21.5-36.09-43-14.8-17.67-29.57-35.38a36.53,36.53,0,0,0-3.68-4c-4.77-4.25-10.09-4.4-14.72-.53-4.26,3.55-4.85,8.52-.65,13.85,9.53,12.06,19.41,23.84,29.2,35.69,14.83,17.95,29.73,35.84,44.51,53.82,1.68,2,2.8,4.53,4.19,6.81l-1.86,1.49a40.42,40.42,0,0,1-3.88-3.62q-37.5-45.12-74.89-90.31c-6.39-7.74-6.06-15.27.5-21,7-6.1,15.46-5.46,22,2.27q32.24,38,64.1,76.35c1.47,1.77,2.18,4.19,3.24,6.3Z"/><path class="cls-4" d="M142.12,378.23c1.76-16,3.51-32.07,5.46-49.82l28.16,11.24-31.57,39.42Z"/><path class="cls-4" d="M210.16,196.15c12.08,3.09,21.64,7.56,14.86,21.81-6.48,13.6-4.27,11.63-16.77,7.31a16.74,16.74,0,0,1-3.78-1.41c-3.6-2.4-10.57-.74-10.65-7.15-.1-8.29,8.17-19.11,14.4-20.32C208.88,196.27,209.56,196.23,210.16,196.15Z"/><path class="cls-4" d="M325.24,315.22l30.88,18.68c6.07-10.64-3.15-34.73-14.77-40.57-2.82-1.41-7.29.49-10.82.84.79-5.49,5-8.28,10.2-6.07,17.89,7.5,27.62,41.25,16.47,57.2-.46.66-1.27,1.07-3.49,2.89.92-13.8-9.25-16-17.63-20.23C331.38,325.59,325.48,323.92,325.24,315.22Z"/><path class="cls-4" d="M336,266.85c1.72-.94,3.34-2.21,5.17-2.74a52.71,52.71,0,0,1,7.36-1.15c11.28-1.61,11-1.57,9.35-12.62-.89-6-3.78-7.6-9.25-6.39a11.55,11.55,0,0,1-6.77-.43c3.79-4.1,9-4.41,13.9-3.86,2,.23,4.54,3.26,5.23,5.51a79.64,79.64,0,0,1,2.81,15.3c.16,1.56-1.18,4.54-2.25,4.75-8.21,1.62-16.53,2.72-24.81,4C336.5,268.42,336.25,267.63,336,266.85Z"/></g></g></svg>