<svg xmlns="http://www.w3.org/2000/svg" xmlns:xlink="http://www.w3.org/1999/xlink" viewBox="0 0 507.88 507.98"><defs><style>.cls-1{fill:#7b94ad;}.cls-2{clip-path:url(#clip-path);}.cls-3{clip-path:url(#clip-path-2);}.cls-4{fill:#fff;}</style><clipPath id="clip-path"><rect class="cls-1" width="507.88" height="507.98" rx="36.33"/></clipPath><clipPath id="clip-path-2"><rect class="cls-1" width="507.88" height="507.98"/></clipPath></defs><g id="Layer_2" data-name="Layer 2"><g id="Layer_3" data-name="Layer 3"><rect class="cls-1" width="507.88" height="507.98" rx="36.33"/><g class="cls-2"><rect class="cls-1" width="507.88" height="507.98"/><g class="cls-3"><path class="cls-1" d="M0,253.46q0,110,0,220C0,493.74,14,508,34.16,508q219.75,0,439.5,0c20.16,0,34.2-14.17,34.21-34.4q0-219.3,0-438.59c0-21.15-13.93-35-35.16-35H35.22C13.75,0,0,13.83,0,35.42q0,109,0,218"/></g></g><path class="cls-4" d="M201.17,175.38c23.1,0,46.2-.41,69.28.14,17.17.41,31,8.48,38.7,23.76a65.14,65.14,0,0,1,6.41,26.81c.82,29.22.58,58.48.31,87.72-.11,12.5-7,19.16-19.7,19.21q-66.12.21-132.24-.07c-20.79-.05-37.36-8-46.21-27.58a57.73,57.73,0,0,1-4.59-22.16c-.56-29.66-.49-59.33-.33-89,.07-12.28,7.12-19.08,19.71-19.2,22.88-.23,45.77-.07,68.66-.07Z"/><path class="cls-4" d="M395.15,254c0,21,.17,42-.16,63a20.35,20.35,0,0,1-3.56,11c-3.23,4.44-9.43,4.79-14.27.88-14-11.32-27.9-22.8-41.43-34.7-5.6-4.93-7.88-12-8-19.53-.16-13.78-.21-27.56,0-41.34a28.82,28.82,0,0,1,10.71-22.23c11.66-9.85,23.4-19.61,35.11-29.4,4.36-3.65,8.91-6.83,14.95-4s6.66,8.21,6.65,14c-.05,20.78,0,41.55,0,62.33Z"/></g></g></svg>